<svg xmlns="http://www.w3.org/2000/svg" viewBox="0 0 1200 1200"><defs><style>.cls-1{fill:#9cf;}.cls-1,.cls-14,.cls-2,.cls-3,.cls-4,.cls-5{stroke:#000;stroke-miterlimit:10;stroke-width:5px;}.cls-11,.cls-2{fill:#0091ff;}.cls-3,.cls-7{fill:red;}.cls-15,.cls-4{fill:#fff;}.cls-5,.cls-9{fill:#fff000;}.cls-6{fill:#e6e6e6;}.cls-8{fill:#ff9600;}.cls-10{fill:#008700;}.cls-12{fill:#0064be;}.cls-13{fill:#910082;}.cls-14{fill:none;}</style></defs><title>ally-square</title><g id="レイヤー_1" data-name="レイヤー 1"><rect class="cls-1" x="-0.5" y="-0.5" width="1200" height="1200"/><g id="煙突"><g id="レイヤー_5" data-name="レイヤー 5"><polygon class="cls-2" points="747 246 741.5 285.5 870.5 301.5 871 262 747 246"/></g><g id="レイヤー_4" data-name="レイヤー 4"><polygon class="cls-3" points="754 197 747 246 871 262 871 212 754 197"/></g><g id="レイヤー_3" data-name="レイヤー 3"><polygon class="cls-2" points="871 175 759 160 754 197 871 212 871 175"/></g></g><polygon class="cls-4" points="982.5 762.5 918.5 303.5 541.5 256.5 389.5 525.5 982.5 762.5"/><circle class="cls-5" cx="579" cy="390" r="38"/><circle class="cls-5" cx="711" cy="416" r="38"/><circle class="cls-5" cx="844" cy="437" r="38"/><path class="cls-6" d="M948,102c12.69-28.84-39.5-64.19-100-74C781.19,17.17,738.62,43.92,735.5,59.5c-4.5,22.5,23,36,23,36s-25.5-3.5-28,17c-2.76,22.64,36,32,36,32,60,15,95,12,109,12,13,0,39-1,43-16s-20-22-20-22S939.71,120.84,948,102Z"/><g id="波"><path class="cls-7" d="M888.5,676.5c-261.86-72.53-378-238-699-259C111.17,412.38,39.23,426.07,0,440v760H1200V677C1073,726,965.61,697.86,888.5,676.5Z"/><path class="cls-8" d="M888.5,761.5c-261.86-72.53-378-238-699-259C98.14,496.52,42.83,508.27,0,527v673H1200V765C1062,805,962.45,782,888.5,761.5Z"/><path class="cls-9" d="M888.5,846.5c-261.86-72.53-378-238-699-259C95,581.32,43.78,596.06,0,616c3.39,161.59,0,584,0,584H1200V850C1083,883,956.15,865.24,888.5,846.5Z"/><path class="cls-10" d="M888.5,931.5c-261.86-72.53-378-238-699-259C100.19,666.66,42.23,680.05,0,698v502H1200V935C1083,972,945.12,947.18,888.5,931.5Z"/><path class="cls-11" d="M0,782v418H1200V1019a650.83,650.83,0,0,1-311.5-2.5c-263.24-67.34-378-238-699-259C112.37,752.45,58,759,0,782Z"/><path class="cls-12" d="M0,864v336H1200v-99c-117,22-202,21-311.5.5C621.42,1051.5,432,846,197,832,137.79,828.47,50,838,0,864Z"/><path class="cls-13" d="M242,920C188,906,86,903,0,944v256H1200v-16c-280,39-423,4-550-61C525.32,1059.19,417,965.36,242,920Z"/></g><rect class="cls-14" x="-0.5" y="-0.5" width="1200" height="1200"/></g><g id="text"><path class="cls-15" d="M271.26,860.87a4.27,4.27,0,0,0-1.84-.72,9.15,9.15,0,0,0-1.82-.78,4,4,0,0,1-3.53-1.62,3,3,0,0,1,.89-2.67,22.47,22.47,0,0,0,1.9-3.76c1.18-2.63,2.45-5.25,3.8-7.83s2.74-5,4-7.61q3.72-7.93,6.78-16.24a25.07,25.07,0,0,0,1.16-3.56,2.3,2.3,0,0,1,1.79-2.41,8.36,8.36,0,0,1,3.1.76c1.56.47,3.14,1,4.74,1.49,1.83,1.53,2.08,3.23.73,5.11q-1.67,4-3.23,7.92a2.67,2.67,0,0,0,1.14-.23c.48-.07,1-.14,1.53-.19,1.1-.44,2.24-.86,3.41-1.27q3.5-1.25,7-2.74a35.23,35.23,0,0,0,6.39-2.41,13.38,13.38,0,0,0,5.07-3.22,38,38,0,0,0-7.71-2.38q-4-.94-8.1-2c-2.66-.74-5.26-1.51-7.82-2.33a27.7,27.7,0,0,1-3.57-1.14,6.52,6.52,0,0,0-3.15-.61,10.2,10.2,0,0,0-3.53-1.62c-1.46-.33-2.92-.71-4.35-1.14a9.55,9.55,0,0,1-2.09-.54c-.83-.3-1.63-.56-2.41-.79l-2.06-.62a1.7,1.7,0,0,1-1.38-.65,3.06,3.06,0,0,0-1.61-.48,16.8,16.8,0,0,1-2.68-.88q-5-1.25-10.06-2.34a20.39,20.39,0,0,1-4.51-1.59,14.64,14.64,0,0,0-1.89-.88c-.8-.19-1.23-.59-1.31-1.21,1.29-1.68,3.37-2,6.26-1a23,23,0,0,1,4.45,1.16q2.31.78,4.76,1.42l9.44,2.81q2.25.66,4.47,1.41a43,43,0,0,0,4.85,1.77q4.91,1.29,9.86,2.69t10.11,2.84q5,1.58,10,3c1.55.46,3.16.88,4.8,1.26s3.48.69,5.28,1q2.11.79,4.27,1.76,1.89.57,3.84,1.23a3.41,3.41,0,0,1,2.07,1.92,2.54,2.54,0,0,1-1.45,1.93,46.23,46.23,0,0,1-6.12,2.5L314,828.52c-1.25.49-2.44,1-3.56,1.46a23,23,0,0,0-4.11,1.31,22.38,22.38,0,0,1-4,1.18c-1.34.36-2.59.73-3.74,1.09A22.77,22.77,0,0,1,290.8,836a8.93,8.93,0,0,0-3.36-.51,3.67,3.67,0,0,0-2.2,2.44q-1.68,4-3.66,7.71c-1.36,2.59-2.59,5.21-3.71,7.87l-1.5,3.71a11.19,11.19,0,0,1-2,3.55A3.05,3.05,0,0,1,271.26,860.87Z"/><path class="cls-15" d="M371.41,894.79a40.44,40.44,0,0,1-3.49-2.35q-1.87-1.4-.18-2.74,7.86-3.3,15.39-7.19,7.86-4.17,15.95-8.13a131.59,131.59,0,0,0,15.28-8.47c-1.42-.8-2.83-1.55-4.23-2.23a39,39,0,0,1-4.55-2.22c-1.42-.8-2.83-1.55-4.23-2.23l-2.19-1.07a20.71,20.71,0,0,1-2.37-1.15q-2.24-1.17-4.43-2.24-2.42-1.26-4.84-2.27l-4.35-1.77q-2.35-1.15-4.7-2.12a37.24,37.24,0,0,1-4.52-1.85,42.81,42.81,0,0,1-4.71-2.12,25,25,0,0,1-4.23-2.23A9.05,9.05,0,0,1,361.9,840c-.73-.93-.63-1.64.3-2.11a8.47,8.47,0,0,1,4,1.06q2.06.91,4.23,1.8c1.55.81,3.06,1.7,4.55,2.65a80.52,80.52,0,0,0,9.17,4.29q4.78,2.16,9.63,4.43,9.5,4.46,18.93,9.3c1.38.73,2.84,1.45,4.38,2.14a48.41,48.41,0,0,1,4.49,1.92c.57.4,1.2.82,1.88,1.27a11.28,11.28,0,0,0,2.07,1.09c1.15.79,1.47,1.7,1,2.73a6.61,6.61,0,0,1-2.88,1.64,12.5,12.5,0,0,0-3.46,1.53c-1.1.68-2.16,1.36-3.17,2l-4,1.61q-5.38,2.5-10.39,5.28-5.42,2.76-10.9,5.47-5.47,2.46-10.64,5.15c-.88.51-1.72,1-2.55,1.37a11.21,11.21,0,0,1-2.27,1.24A6.84,6.84,0,0,1,371.41,894.79Zm48.29-41.13-4.18-2.56c-1.49-.78-3-1.56-4.6-2.33-1.38-.73-2.79-1.41-4.21-2-.81-.34-1.55-.67-2.23-1s-1.54-.83-2.32-1.22a29.43,29.43,0,0,1-4.22-2.48l-4.65-2.44q-4.62-2.51-9.32-4.63a80.75,80.75,0,0,1-9.22-4c-.86-.53-1.82-1.19-2.9-2s-1.16-1.48-.24-2.08a8,8,0,0,1,2.87.53c1.58.6,3.21,1.19,4.87,1.77q4.54,2,9.11,4.43c2,1,3.92,1.94,5.86,3s3.87,2.26,5.75,3.4q6,3.29,12.39,6c1.94,1,3.92,1.94,5.93,2.81a30.15,30.15,0,0,1,5.8,3.08q1.95,1.56.54,3A10.3,10.3,0,0,1,419.7,853.66Z"/><path class="cls-15" d="M468.29,941a3.58,3.58,0,0,1-.09-.77c.21-.49.44-1,.68-1.51a14.63,14.63,0,0,1,1.38-2.54,15.07,15.07,0,0,1,1.35-2.47,4.32,4.32,0,0,0,.8-.8,10.29,10.29,0,0,1,.48-1.35q1.62-2.58,3.5-5c1.08-1.84,2.13-3.73,3.13-5.68.51-.85,1-1.7,1.51-2.56a9.56,9.56,0,0,1,1.43-2.6A37.22,37.22,0,0,0,486,911q1.67-2.64,3.42-5.24a24.22,24.22,0,0,0,1.51-2.56,11.81,11.81,0,0,1,.95-1.06,14.92,14.92,0,0,1,.92-1.37,4.87,4.87,0,0,0-1.81-.07c-.83-.07-1.64-.12-2.41-.15-1.83-.11-3.62-.2-5.39-.28q-5.83-.27-11.58-.67c-1.83-.11-3.57-.17-5.23-.18a12.49,12.49,0,0,0-2.29,0,18.81,18.81,0,0,0-2.49,0,9.59,9.59,0,0,1-4.22.14,14.74,14.74,0,0,1-2.46-1,12.12,12.12,0,0,1-2.7-1.32,1.61,1.61,0,0,1-1.62-.59c-.94-.86-1-1.64-.13-2.35a8.5,8.5,0,0,1,3.69-.36,29,29,0,0,1,4.71.15q4.62.28,9.37.36c3.18.25,6.43.41,9.73.49s6.37.13,9.64.25,6.57.25,9.9.4q9.72,1,19.59,2.59a95,95,0,0,0,9.57.75,30,30,0,0,1,8,.28,14.56,14.56,0,0,1,4,2.08,15.81,15.81,0,0,1,2.94,1.84c.65,1,.54,1.73-.34,2.24a13.51,13.51,0,0,1-4,.17q-4.66-.21-9.25-.75-5-.76-9.94-1.6c-3.3-.56-6.55-1-9.74-1.4a14.85,14.85,0,0,0-3.62-.14,4.13,4.13,0,0,0-2.59,2.55,53.6,53.6,0,0,1-4,5.89,50.58,50.58,0,0,0-4.14,6.26c-1.4,2.14-2.84,4.19-4.3,6.18a41.55,41.55,0,0,0-4,6.24,81.8,81.8,0,0,0-7.27,12.13,3.87,3.87,0,0,1-2.72,2.94A29.81,29.81,0,0,1,468.29,941Z"/><path class="cls-15" d="M566.09,993.38a18.05,18.05,0,0,1-3.17-2.37c-.61-1.16-.3-1.85.93-2.08a6.43,6.43,0,0,0,1.33-.39c.53-.16,1.14-.31,1.81-.46a27,27,0,0,0,4.14-1.6q8.18-3.56,16.3-7.41a5.57,5.57,0,0,1,1.69-.62l1.45-.77c1.37-.57,2.71-1.16,4-1.77,2.62-1.33,5.3-2.61,8-3.83q4.1-1.53,8-3.35a30.08,30.08,0,0,1,3.39-1.8c1.36-.45,2.72-.94,4.06-1.47,2.31-1.28,4.69-2.45,7.16-3.52.89-.5.84-1.08-.15-1.73a5.53,5.53,0,0,0-1.61-1,1.21,1.21,0,0,1-.8-.12,5,5,0,0,1-1.12-.87c-1.26-.81-2.51-1.66-3.74-2.52-1.41-.92-2.89-1.81-4.41-2.67q-4.62-2.5-8.91-5.38t-8.63-5.3a22.71,22.71,0,0,0-3.65-2.11,5.61,5.61,0,0,0-3.29.56q-8.18,3.55-16.14,7.33-4.18,1.85-8.25,3.87a4.3,4.3,0,0,1-3.1.59,18.45,18.45,0,0,1-3.89-2.26,7.34,7.34,0,0,1-2.93-2q-.64-1.67,1.41-2a31.26,31.26,0,0,0,7.28-3.17q8.17-3.92,16.67-7.65,4.1-1.9,8.37-3.7a27.47,27.47,0,0,0,3.74-1.49c.4-.3.86-.63,1.37-1a2,2,0,0,1,2,.18,36.71,36.71,0,0,1,3.77,2.64,5.76,5.76,0,0,1,2.4,2.73,3.31,3.31,0,0,1-2.09,2c-1.26.4-2.43.82-3.5,1.26a41.38,41.38,0,0,0,7.86,5.48l4.17,2.7q2.3,1.29,4.62,2.7,4.29,2.69,8.87,5.08,4.29,2.68,8.87,5.08a34.68,34.68,0,0,1,3.85,2.51,18.23,18.23,0,0,1,3.49,2.75c.47,2-.4,3.19-2.63,3.61-1.15.34-2.25.71-3.29,1.12-1.4.61-2.78,1.27-4.15,2q-4.23,1.56-8.37,3.16-6.65,2.83-13.24,5.79-7,3.2-13.76,6.47c-2.26,1-4.43,1.89-6.52,2.82a49.88,49.88,0,0,0-6.85,3q-3.37,1.43-6.76,2.67a3,3,0,0,1-2.61.16A30.22,30.22,0,0,0,566.09,993.38Z"/><path class="cls-15" d="M640.83,1029.82a2.91,2.91,0,0,1-1.91-2.18,3.76,3.76,0,0,1,2.2-1.92c2.13-1.75,4.19-3.6,6.16-5.56q6.3-6,12.14-12.56l11.34-13.25a19.81,19.81,0,0,0,2.64-2.93,3.44,3.44,0,0,1,.76-1.63c.37-.56.8-1.16,1.28-1.79a33.35,33.35,0,0,1,2.59-3,3.38,3.38,0,0,1,2.48-1.86,7.06,7.06,0,0,1,3.17,1.43,18.07,18.07,0,0,1,3.91,2.62,3.32,3.32,0,0,1-1.24,4.3q-6,6.63-11.78,13.28-5.6,6.49-11.36,12.89-6.06,6.15-12.32,12.1a5.72,5.72,0,0,1-4.1,2.5,8.69,8.69,0,0,1-2.83-1.07Zm30.3,15.51c-1.45-1.67-1.39-3.23.18-4.7a63.35,63.35,0,0,0,4-7.51q4-7.68,8.43-15.16t8.88-15a42,42,0,0,0,4.07-7.4,3.14,3.14,0,0,1,1.8-2.58,8.33,8.33,0,0,1,3.6,1q4,.83,5,4.18a17.94,17.94,0,0,1-2.73,5.1q-4.54,7.31-8.93,14.71t-8.56,15l-2,3.72a32.17,32.17,0,0,0-2.28,3.66,1.51,1.51,0,0,0,.32,2.38,7.26,7.26,0,0,0,2.67.19c5.09,0,10.16-.18,15.18-.56a18.19,18.19,0,0,1,6.24.06,34.54,34.54,0,0,1,6.31,3.11q1.74,1.9-1.21,2.45a32,32,0,0,1-5.71,0q-3.66.26-7.24.2c-1,0-1.92,0-2.85,0a2.58,2.58,0,0,1-2.18-.1l.08,0a2.46,2.46,0,0,1-1.69,0c-1-.07-2.06-.12-3.11-.15-2.25,0-4.46-.08-6.61-.17l-2.85,0a8.81,8.81,0,0,1-2.71-.12Q674.14,1046.48,671.13,1045.33Z"/><path class="cls-15" d="M756.51,1044.18q5.73,3.09,18.07,8.07l28.29,11.44q12.39,5,19.21,7.51c.84.34,1.15.79.92,1.35l-1.12,2.78c-.25.61-.79.74-1.63.4q-4.59-2-11.67-4.89l-7.22-2.92-34.68-14-10.43-3.46a1.26,1.26,0,0,1-.89-1.41A16.12,16.12,0,0,1,756.51,1044.18Z"/><path class="cls-4" d="M210.3,708.57a20.45,20.45,0,0,1-6.7-2.69,14.37,14.37,0,0,1-1.75-7.72,77.26,77.26,0,0,1-1.24-9.85,18.74,18.74,0,0,0-.35-4.52,10.45,10.45,0,0,1-1.52-4.57q-.36-4.51-.7-9,.84-5-3.35-7l-8.43.34q-5.47.11-10.94-.18l-4.88-.25a25,25,0,0,0-4.25-1q-3.16.81-3,4.34a180.47,180.47,0,0,1-4.68,18.34q-1.23,4.63-2.05,9.28a9.5,9.5,0,0,1-4.07,6.83,22.55,22.55,0,0,1-12.79,1.48,6.79,6.79,0,0,1-5-1.44,8.29,8.29,0,0,1-.17-8q3.25-10,6.35-20.39,5.4-21,11.22-42.44,5.61-21.42,11.83-43,2.73-11,6-21.78c.68-3.1,1.37-6.25,2.06-9.48a7,7,0,0,1,4.44-6.42c.92-.21,2-.41,3.16-.61a6.43,6.43,0,0,1,3.56-.79,16.35,16.35,0,0,0,7.07-.42q8.48,2.41,8.17,12,4.56,21.16,8.93,42.32,4.14,21.93,7.88,43.64,2,11.06,3.94,21.92,1.39,10.64,3.19,21.29A36.59,36.59,0,0,1,224.38,705a3.93,3.93,0,0,1-4.85,2.87A34.8,34.8,0,0,0,210.3,708.57Zm-39.77-58.41a72,72,0,0,0,7.55,1.57,83.9,83.9,0,0,1,10.17-.05,5.11,5.11,0,0,0,6.52-1.23,26.9,26.9,0,0,0-1-7.09q-2-9.89-3.65-19.94-2.2-10.09-4-20.36a34.65,34.65,0,0,0-1.58-7.12q-2.69-1.12-2.89,3-1,4.26-2,8.31c-1.22,3.2-2.29,6.4-3.24,9.61q-3,9.42-5.1,18.9-1.24,5-2.48,10a4.52,4.52,0,0,0-.79,3.87A1.88,1.88,0,0,0,170.53,650.16Z"/><path class="cls-4" d="M301.78,721.15a17.76,17.76,0,0,0-7.8-3c-1.66-.3-3.32-.67-5-1.09l-5.26-.56-4-1.91c-1.54-.28-3-.49-4.45-.61q-5.39-1-10.35-2.07a78.33,78.33,0,0,1-9.36-3.08,7.74,7.74,0,0,1-5.09-5.88,20,20,0,0,1,1.3-8.3q1-5.39,2.17-10.92,8.71-43.87,17.06-87.82,2.1-10.53,4.05-21.3a58.72,58.72,0,0,0,.93-9.56,7.71,7.71,0,0,1,2.86-7,15,15,0,0,1,7.35-.06,40.27,40.27,0,0,1,9.28,2.47,6,6,0,0,1,5.1,2.51,16.49,16.49,0,0,1-.51,9.43Q298,582.92,295.56,593q-2.21,11.12-4.73,21.77-1.12,5.16-1.8,10c-.8,3.69-1.61,7.38-2.4,11.07l-2.19,9.93q-1.24,5.73-2.05,11.34-3.6,18.79-5.78,37.46a11.6,11.6,0,0,0,.25,7.39,8,8,0,0,0,5.11,2.51q4.41.79,8.58,1.95a20.2,20.2,0,0,0,8.23,1.68,117.36,117.36,0,0,1,14.62,3.64,13.19,13.19,0,0,1,10.31,4.44,5,5,0,0,1-1.39,5.5,6,6,0,0,1-6.39.24c-3-.41-5.83-.72-8.56-.95l-3.22.21A6.12,6.12,0,0,0,301.78,721.15Z"/><path class="cls-4" d="M398.88,747.63a17.85,17.85,0,0,0-7.35-4q-2.41-.76-4.77-1.73l-5.15-1.23-3.73-2.42c-1.49-.47-2.94-.87-4.34-1.18q-5.22-1.67-10-3.39a77,77,0,0,1-8.89-4.27,7.75,7.75,0,0,1-4.28-6.49,20.29,20.29,0,0,1,2.36-8.06q1.67-5.21,3.57-10.55,14.34-42.37,28.31-84.86,3.45-10.19,6.77-20.6a58.81,58.81,0,0,0,2.17-9.35,7.7,7.7,0,0,1,3.74-6.6,15,15,0,0,1,7.3.89,40.23,40.23,0,0,1,8.88,3.66,6.06,6.06,0,0,1,4.74,3.15,16.49,16.49,0,0,1-1.74,9.29q-3.45,10.17-7.15,19.85-3.63,10.74-7.51,21-1.8,5-3.09,9.67c-1.27,3.56-2.55,7.12-3.81,10.68l-3.46,9.55c-1.32,3.69-2.48,7.35-3.51,11q-6,18.18-10.58,36.4a11.6,11.6,0,0,0-.71,7.36,8,8,0,0,0,4.73,3.15q4.29,1.37,8.26,3a20.19,20.19,0,0,0,7.94,2.74,118.38,118.38,0,0,1,14,5.5,13.2,13.2,0,0,1,9.65,5.74,5,5,0,0,1-2.09,5.28,6,6,0,0,1-6.37-.59c-2.9-.79-5.68-1.48-8.37-2.06l-3.21-.2A6.08,6.08,0,0,0,398.88,747.63Z"/><path class="cls-4" d="M478.73,778.79,476,775.4a36.69,36.69,0,0,1-3.49-2.23,5.72,5.72,0,0,1-2.61-6.54,52.68,52.68,0,0,1,4.73-9q2.68-5,5.47-10.17,4.6-9.71,9-19.92a92.32,92.32,0,0,1,4.45-9.35c.65-1.42,1.23-2.87,1.76-4.35.22-1.75.48-3.57.76-5.44a70.07,70.07,0,0,0,.72-8.68,74.91,74.91,0,0,1,.72-11q.81-10.78,2.24-21.5a120.8,120.8,0,0,0,1.15-20.5,84.88,84.88,0,0,1,.81-20.22,18.84,18.84,0,0,1,.76-5.45c.89-2.6,2.69-3.42,5.41-2.48a27.46,27.46,0,0,1,8.2,4.15,12.53,12.53,0,0,0,3.59,2.49,7.33,7.33,0,0,1,4.11,2.29,24.86,24.86,0,0,1,.52,9.25q-.68,5.26-1.09,10.44-.74,10.61-1.73,21.3a95,95,0,0,0-1,10.27,14.55,14.55,0,0,0-.29,6.3q2.76,1.47,5.45-1.6c1.79-2,3.4-3.89,4.86-5.52L546,662.62q3.36-3.61,6.89-7.16a52.07,52.07,0,0,1,6.55-7.33q8.13-1.87,15.19,4.32c.11,1.34,1.07,2.06,2.88,2.17a4.39,4.39,0,0,1,1.53,5.62,20,20,0,0,1-5.4,7.63c-2.35,2.66-4.76,5.13-7.23,7.44s-4.84,4.67-7.08,7.09a65.25,65.25,0,0,0-8,7.12q-7,6.47-13.94,12.76a12.2,12.2,0,0,1-2.5,3.15,29,29,0,0,0-2.38,1.93,52.2,52.2,0,0,1-7.35,6.74,54,54,0,0,0-11.59,17q-10,18.65-18.4,38.19a74.8,74.8,0,0,1-3.15,6.94,11.35,11.35,0,0,1-4.44,5.06A31.12,31.12,0,0,1,478.73,778.79Z"/><path class="cls-4" d="M583.83,834.12a86.18,86.18,0,0,1-16-11A29.11,29.11,0,0,1,562.71,807a33.82,33.82,0,0,1-.85-9.55c.33-3.37.64-6.82.92-10.37a55.84,55.84,0,0,1,4.77-19.17A161.18,161.18,0,0,1,577,749.07q5.19-9.63,11.23-18.81,6-8.73,13.1-17.34A82,82,0,0,1,616,698.41a58.17,58.17,0,0,1,16.37-9.82,36.42,36.42,0,0,1,8.16-1.15,14.92,14.92,0,0,1,8.28.68,29.3,29.3,0,0,0,4.33,1.44,22.18,22.18,0,0,1,4,1.69,10,10,0,0,0,2.82,2.18q2,.86,4,2a20.48,20.48,0,0,1,8.61,13.28c.61,3,1.33,5.89,2.18,8.71a59,59,0,0,1,.68,9.46,181.87,181.87,0,0,1-.47,18.6q-.62,9-8.68,10a16.71,16.71,0,0,1-9.51-6.66,5,5,0,0,1-3-1,2.12,2.12,0,0,0-1.45-1.44,4.11,4.11,0,0,1-1-3.44,60.56,60.56,0,0,1,2.09-8.42c.65-2.6,1.2-5.26,1.63-8q.15-4.8.21-9.87a67.93,67.93,0,0,0-1.67-8.43,9.81,9.81,0,0,0-1.47-3.46,4.29,4.29,0,0,0-4.55.22A37,37,0,0,0,639,708.1a72.13,72.13,0,0,0-7.6,5.89q-3.78,3.3-7.29,7a53.6,53.6,0,0,0-7,7.57q-2.82,4-5.47,7.7a83.09,83.09,0,0,0-6.3,9.25,112.42,112.42,0,0,0-19.23,38.22,77.44,77.44,0,0,0-1.48,20.06,23.49,23.49,0,0,0,5.09,16.93,14.57,14.57,0,0,0,3.15,2.8,5,5,0,0,0,3.25,2.19,11.45,11.45,0,0,0,7.31-1.61,27.87,27.87,0,0,0,6.29-5.93,6.91,6.91,0,0,1,6.57-3.56,73.06,73.06,0,0,1,8.14,2.6,28.44,28.44,0,0,1,7.78,2.85,6.94,6.94,0,0,1-1.08,7,38.61,38.61,0,0,1-7,7.31,20.15,20.15,0,0,1-6.69,4.6,17.32,17.32,0,0,1-8.82-.09q-4.71-.31-9.06-.88c-3.36-.92-6.62-1.71-9.81-2.39a15.39,15.39,0,0,1-3.11-1.23C585.63,834.2,584.7,834.15,583.83,834.12Z"/><path class="cls-4" d="M664.89,876.07a7.09,7.09,0,0,1-2.18-6.55,44.87,44.87,0,0,1,5.24-8.74c1.56-2.85,3.08-5.88,4.53-9.08a104.62,104.62,0,0,0,5.59-9.88q9.34-20,18.85-39.92,4.8-10,9.78-20,5-9.51,9.69-19.39,1.74-4.37,3.4-9,2.18-4.8,4.89-9.78a19.83,19.83,0,0,1,4.28-8.57,7.87,7.87,0,0,1,6.55.44l9.26,3.32c1.62.52,3.23,1.1,4.8,1.74l4.89,2.88a81.2,81.2,0,0,1,9.18,3.93q3.84,3.22,8.21,6.28a38.41,38.41,0,0,1,12.41,14.94,39.25,39.25,0,0,1,2,7.77,34.44,34.44,0,0,1,.61,10.13,49.64,49.64,0,0,1-6.28,19.13,57.25,57.25,0,0,1-5,8.21,41,41,0,0,1-5.85,8.22,31.81,31.81,0,0,1-14.85,8.74,31.41,31.41,0,0,1-16.42-2.09q-6.46-5-8.65,1.13c.35,2.51.62,4.9.79,7.17a14.3,14.3,0,0,0,.61,2.7,22.11,22.11,0,0,0,0,4.81,145.83,145.83,0,0,0,1.14,19.56q.44,4.82.88,9.61c.17,3.44.4,6.9.7,10.4a59.86,59.86,0,0,1,1.31,16.15q-3.13,5.85-9.25,2.8a18.32,18.32,0,0,1-6-3.66,24.41,24.41,0,0,1-4-1.14,3.55,3.55,0,0,1-1.66-3.23,26.52,26.52,0,0,1-1.58-6.9q-.62-4.89-1-9.69A217.4,217.4,0,0,1,710,853q-.35-6.29-1-12.31a40.8,40.8,0,0,1-1-5.94,4.24,4.24,0,0,0-.88-3.06q-2.26,4.55-4.36,9.17-2.53,4.64-4.8,9.18a85.54,85.54,0,0,0-4.71,9c-1.81,3-3.7,5.94-5.68,8.73q-1.74,4.37-3.49,8.74a6,6,0,0,1-5.85,1.66,32.25,32.25,0,0,1-9-1.22Q667,874.93,664.89,876.07Zm68.9-58.81q7.86,1.31,14.06-4.55a56.1,56.1,0,0,0,12.31-16.34,39.88,39.88,0,0,0,5.67-18.78c-.06-1.34-.06-2.79,0-4.37a7.53,7.53,0,0,0-.35-3.23,8.9,8.9,0,0,1-1-3.75,8.08,8.08,0,0,0-2.8-3.58,42.72,42.72,0,0,1-6.55-6.12,4.7,4.7,0,0,0-3.24-2.26A36.91,36.91,0,0,0,748.7,752a8.27,8.27,0,0,0-6.55,6.55,141,141,0,0,1-5.93,13.63q-5.6,9.43-10.65,19.13-2.45,4.89-4.71,9.87a7.64,7.64,0,0,0-1.49,7.78,20.27,20.27,0,0,0,7.34,2.79A12.63,12.63,0,0,0,733.79,817.26Z"/><path class="cls-4" d="M796.82,937.74a1.41,1.41,0,0,0-1.44-1.76,20.18,20.18,0,0,1-3.55-1.68,26.13,26.13,0,0,1-4.28-1.95,6.11,6.11,0,0,1-4-1.45,5.63,5.63,0,0,1,0-6.85q2-5.09,4-10.6,6.43-20.93,14.18-41.4a164.62,164.62,0,0,0,6.92-19.92q3.67-10.3,7.43-20.79,2.81-10.19,6.5-20.49,1.89-4.71,4.22-9.48a51.37,51.37,0,0,0,4-10.17,8.4,8.4,0,0,1,3.86-7.33,13.86,13.86,0,0,1,8.2.86A25.94,25.94,0,0,1,852,787.4a58.28,58.28,0,0,0,8.49,4.69,69.18,69.18,0,0,0,18.08,9.17q9.69,3,19.43,7.15,9.26,3.11,5.45,10.87a15.15,15.15,0,0,1-15.57-2.87,70.42,70.42,0,0,0-9.3-4.16L868.38,809a24.91,24.91,0,0,1-3.84-2.61L861,804.71q-4-2.69-7.52-.42a31.73,31.73,0,0,0-3.27,8q-2,5.09-4.28,9.66a83.92,83.92,0,0,0-2.81,9.58,102.16,102.16,0,0,1-4.23,10.1,17.61,17.61,0,0,0-2.61,9q1.34,3.79,5.84,4.57a112.49,112.49,0,0,0,17.58,9.4,36.54,36.54,0,0,1,9.45,3.17,24.85,24.85,0,0,1,3.78,2.19l4.28,1.94q6,7.54-3.19,10.68a10.48,10.48,0,0,1-7.66-3,10.37,10.37,0,0,0-3.85-2c-1.77-.08-3.52-.22-5.24-.43q-8.94-4-17.93-7.86a32.33,32.33,0,0,1-4.91-1.34,7.07,7.07,0,0,0-3.26-.75,5.94,5.94,0,0,0-3.08,5.12q-3.55,9.93-6.6,19.62-3.74,9.87-7.11,19.87-1.71,4.78-3.3,9.81a4.59,4.59,0,0,0,1.3,5.65,42.75,42.75,0,0,0,8.45,3.64,69.86,69.86,0,0,0,9.93,3.55,11.66,11.66,0,0,1,4.17,1.08,7.46,7.46,0,0,0,3.6,2.12l4.42,1.58a25,25,0,0,0,4,2.25,8.62,8.62,0,0,1,5.7,4.94q.84,4-2.53,5.94a9,9,0,0,1-7.33-1,18.34,18.34,0,0,0-4.48-1.39,6.92,6.92,0,0,0-4.25-.9c-.27-.79-1-1.17-2.07-1.15a6.59,6.59,0,0,1-2.64-.74,17.75,17.75,0,0,0-1.83-1.28l-2.76-1a2.44,2.44,0,0,1-2.32-1,3.87,3.87,0,0,0-2.06-1.77,5,5,0,0,1-3-.44,22.18,22.18,0,0,0-5.39-2.34,33.67,33.67,0,0,1-6.08-1.55,26.48,26.48,0,0,1-3.65.35A6.66,6.66,0,0,0,796.82,937.74Z"/><path class="cls-4" d="M944.08,977.13c-2.52-1.06-5.12-2.14-7.79-3.22-2.55-1.87-3.6-4.21-3.14-7q.47-10.39,1.19-20.77,1.38-21.93,2.8-44.06.08-10.86.42-21.89t1.12-21.78q.11-11.05.46-22.08a33.19,33.19,0,0,1,.1-12.45q3.19-5.22,10.89-2.8a6.93,6.93,0,0,1,3.87,1,8.14,8.14,0,0,0,3.9.82,4.13,4.13,0,0,1,2.84,3,34,34,0,0,1,.34,9.75,161.37,161.37,0,0,1-.92,19q-1.78,18.51-2.17,37.23a77.32,77.32,0,0,1-.4,15.76,7.69,7.69,0,0,0,3.45-8.15,94.84,94.84,0,0,1,6.19-16.41q3.1-9,5.55-18.3a22.09,22.09,0,0,1,2.16-7.57q3.07-2.87,8.16-2l8.9,2.22a9.45,9.45,0,0,1,6.58,3.43,13.4,13.4,0,0,1,.47,7.39,66.29,66.29,0,0,0-.42,10q.17,9.33-.13,18.58a37.54,37.54,0,0,0-.79,9.37,7,7,0,0,1,.15,5,5.37,5.37,0,0,0,2.22-5,88,88,0,0,1,3.33-10.35q3.32-10.33,6.47-21.11,2.88-10.62,6.24-21.16,1.53-5.08,2.83-10.22a30.55,30.55,0,0,1,3.16-9.39c1.74-2,4-2.32,6.82-1.08a6.65,6.65,0,0,0,3.63-.41,14,14,0,0,1,4.71,1.75c3.06.62,4.94,2.24,5.62,4.86a20.83,20.83,0,0,1-2.31,8.53c-1,3.39-1.89,6.82-2.6,10.26q-1.83,5.45-3.61,10.7-3.09,10.38-6.62,20.5-4.51,14.89-9.42,29.15-5,14.82-9.45,29.34-2.57,7.11-4.61,13.9a93.12,93.12,0,0,1-4.89,14.25q-2.19,9.13-11.64,7.43a4.42,4.42,0,0,1-4.13-.86,12,12,0,0,0-4-1.44q-3-.5-3.57-3a22.86,22.86,0,0,1-.89-9.24,96.54,96.54,0,0,0-.32-11.33,61.67,61.67,0,0,1-.19-21,8.91,8.91,0,0,0-.26-8.74q-6.6,16-11.77,31.94a27.54,27.54,0,0,1-6.07,12.67,11.13,11.13,0,0,1-4.5,4.42A49.56,49.56,0,0,1,944.08,977.13Z"/><path class="cls-7" d="M85,145.62a9.93,9.93,0,0,1-3.41-1.17,7.14,7.14,0,0,1-1.08-3.81,39.05,39.05,0,0,1-.88-4.88,9,9,0,0,0-.29-2.25,5.2,5.2,0,0,1-.88-2.24c-.19-1.5-.39-3-.58-4.5A2.94,2.94,0,0,0,76,123.36l-4.2.39c-1.82.13-3.65.19-5.47.19H63.93a13.5,13.5,0,0,0-2.15-.39,1.88,1.88,0,0,0-1.37,2.25,89.06,89.06,0,0,1-1.85,9.28q-.5,2.34-.78,4.68a4.73,4.73,0,0,1-1.86,3.52,11.33,11.33,0,0,1-6.35,1.07,3.37,3.37,0,0,1-2.53-.58,4.16,4.16,0,0,1-.3-4q1.36-5.07,2.64-10.35,2.15-10.64,4.49-21.48t4.79-21.78q1.06-5.57,2.44-11c.26-1.56.52-3.15.78-4.78a3.52,3.52,0,0,1,2-3.32c.45-.13,1-.26,1.56-.39a3.22,3.22,0,0,1,1.76-.49,8.2,8.2,0,0,0,3.52-.39c2.86.65,4.33,2.57,4.39,5.76Q78,82,80.73,92.4q2.63,10.84,5.08,21.58,1.26,5.47,2.53,10.84,1,5.28,2.15,10.55a18.25,18.25,0,0,1,1.47,8.1A2,2,0,0,1,89.61,145,17.49,17.49,0,0,0,85,145.62ZM63.64,117.5a35.24,35.24,0,0,0,3.81.58,43.63,43.63,0,0,1,5.07-.29,2.57,2.57,0,0,0,3.23-.78,13.8,13.8,0,0,0-.69-3.52q-1.26-4.87-2.34-9.86-1.36-5-2.54-10.06a17.72,17.72,0,0,0-1-3.51c-.91-.33-1.36.19-1.36,1.56-.26,1.43-.53,2.83-.78,4.2-.53,1.63-1,3.25-1.37,4.88q-1.27,4.78-2,9.57c-.33,1.69-.65,3.39-1,5.08a2.26,2.26,0,0,0-.29,2A.94.94,0,0,0,63.64,117.5Z"/><path class="cls-7" d="M126.09,144.74a3.55,3.55,0,0,1-2.44-2.44,23.56,23.56,0,0,1,.39-5.08c.07-1.62.07-3.32,0-5.07a52.22,52.22,0,0,0,.29-5.67q-.28-11-.48-22.07-.1-5.56-.1-11.13.09-5.37,0-10.84c-.13-1.56-.29-3.16-.49-4.79s-.06-3.58,0-5.47a9.91,9.91,0,0,1,0-4.78,3.92,3.92,0,0,1,3-1.27l4.88-.59c.85-.13,1.69-.22,2.54-.29l2.83.2a40.86,40.86,0,0,1,5-.3q2.44.59,5.08,1A19.09,19.09,0,0,1,155.49,70a20,20,0,0,1,2.63,3,17.38,17.38,0,0,1,2.54,4.4,25,25,0,0,1,1.47,10,29,29,0,0,1-.39,4.78,20.91,20.91,0,0,1-.78,5,15.94,15.94,0,0,1-4.69,7.23,15.75,15.75,0,0,1-7.81,2.74q-4-.78-3.62,2.44c.72,1,1.37,2,2,3a7.61,7.61,0,0,0,.87,1.08,10.82,10.82,0,0,0,1.08,2.15,73.1,73.1,0,0,0,4.88,8.49c.85,1.37,1.69,2.74,2.54,4.1s1.73,3,2.64,4.5a29.94,29.94,0,0,1,4.2,6.93q-.1,3.31-3.52,3.32a9.3,9.3,0,0,1-3.51-.29,14,14,0,0,1-2.06.39,1.8,1.8,0,0,1-1.46-1.08,13.11,13.11,0,0,1-2.25-2.73c-.91-1.37-1.79-2.73-2.63-4.1a106.56,106.56,0,0,1-6.45-11q-1.56-2.73-3.22-5.27a21.49,21.49,0,0,1-1.76-2.44,2.08,2.08,0,0,0-1.07-1.17q0,2.53.09,5.07c-.06,1.76-.09,3.49-.09,5.18a43.07,43.07,0,0,0-.1,5.08c-.13,1.76-.33,3.48-.59,5.17l.39,4.69a3,3,0,0,1-2.24,2.05,15.89,15.89,0,0,1-4.3,1.47A1.81,1.81,0,0,0,126.09,144.74ZM143.77,103A7.88,7.88,0,0,0,149,97.87a28.06,28.06,0,0,0,1.86-10.06,20,20,0,0,0-1.66-9.67c-.33-.58-.65-1.23-1-2a3.75,3.75,0,0,0-.88-1.37,4.71,4.71,0,0,1-1.27-1.46,4,4,0,0,0-2.05-1,21.42,21.42,0,0,1-4.3-1.27,2.33,2.33,0,0,0-1.95-.29q-1-.19-1.95-.3a4.14,4.14,0,0,0-1.47,4.4,70.93,70.93,0,0,1,.39,7.42c-.26,3.65-.42,7.29-.48,10.94,0,1.82,0,3.65.09,5.47a3.84,3.84,0,0,0,1.08,3.81,10,10,0,0,0,3.9-.39A6.35,6.35,0,0,0,143.77,103Z"/><path class="cls-7" d="M216,145.52a43,43,0,0,1-9.67-1.07,14.46,14.46,0,0,1-6-5.86,17.14,17.14,0,0,1-2.64-4c-.65-1.57-1.33-3.16-2-4.79a27.9,27.9,0,0,1-2.44-9.57,79.07,79.07,0,0,1-.29-10.55c0-3.64.16-7.29.48-10.93s.95-7.1,1.66-10.75a41.46,41.46,0,0,1,3-9.86,29.16,29.16,0,0,1,4.88-8.2,18.35,18.35,0,0,1,3.32-2.44A7.45,7.45,0,0,1,210,65.84a16.11,16.11,0,0,0,2.25-.39,11,11,0,0,1,2.15-.2,4.85,4.85,0,0,0,1.76.29c.71-.06,1.46-.09,2.24-.09a10.18,10.18,0,0,1,6.93,3.8c1,1.18,2,2.28,3,3.33a29.16,29.16,0,0,1,2.54,4,91,91,0,0,1,4.2,8.3Q237,89,233.67,91.33a8.46,8.46,0,0,1-5.77-.69,2.46,2.46,0,0,1-1.56.29,1.1,1.1,0,0,0-1-.29,2,2,0,0,1-1.26-1.27,29.73,29.73,0,0,1-1.08-4.2q-.5-2-1.17-3.9-1.08-2.14-2.25-4.4a32.33,32.33,0,0,0-2.73-3.32,4.92,4.92,0,0,0-1.47-1.17,2.16,2.16,0,0,0-2,1.17,18.77,18.77,0,0,0-3,3.42,36.78,36.78,0,0,0-1.95,4.39c-.59,1.57-1.11,3.16-1.56,4.79a26.38,26.38,0,0,0-1.27,5c-.2,1.63-.39,3.19-.59,4.69a41.49,41.49,0,0,0-.58,5.56,56.13,56.13,0,0,0,.58,21.39,39.06,39.06,0,0,0,4.1,9.18,11.8,11.8,0,0,0,6.25,6.25,7.49,7.49,0,0,0,2,.49,2.49,2.49,0,0,0,2,.19,5.7,5.7,0,0,0,2.83-2.44,13.75,13.75,0,0,0,1.37-4.1,3.43,3.43,0,0,1,2-3.12,37,37,0,0,1,4.2-.79,14.21,14.21,0,0,1,4.1-.58,3.45,3.45,0,0,1,1.17,3.32,19.29,19.29,0,0,1-1.37,4.88,10.18,10.18,0,0,1-1.85,3.62,8.81,8.81,0,0,1-3.91,2.05c-1.43.65-2.83,1.23-4.2,1.75-1.69.39-3.32.82-4.88,1.27a7.73,7.73,0,0,1-1.66.2C216.8,145.13,216.38,145.33,216,145.52Z"/><path class="cls-7" d="M284.79,144.94a10,10,0,0,0-3.71-.49,17.2,17.2,0,0,1-4.59-2,13.15,13.15,0,0,1-7-5.76,16.89,16.89,0,0,1-1.27-4.69,13.66,13.66,0,0,0-.39-2.44,10.46,10.46,0,0,1-.49-2.44,14.8,14.8,0,0,1,0-4.79,3.07,3.07,0,0,1,2.93-2,8.78,8.78,0,0,0,2.25-.29,13,13,0,0,1,2.15-.59,3.73,3.73,0,0,1,3.22,2,32.43,32.43,0,0,1,.78,7,9.82,9.82,0,0,0,3.42,7.52,14.5,14.5,0,0,0,7.62,3.42q7.6-3,7.32-12a38.4,38.4,0,0,0,0-10.16,11,11,0,0,0-4.59-7.61q-2.15-.89-4.2-1.86a17.88,17.88,0,0,0-4.1-1.46,37,37,0,0,0-4.49-1.08,6.52,6.52,0,0,1-4.3-1.36,19.11,19.11,0,0,1-7.91-16.41A49.11,49.11,0,0,1,269,77.75a19.84,19.84,0,0,1,4.88-7.52,13.68,13.68,0,0,1,7.92-4.2,43.1,43.1,0,0,1,5.07.3,46.52,46.52,0,0,1,5.28.09,25.38,25.38,0,0,1,4.2,1.57,18.52,18.52,0,0,1,4.1,2.44A25.75,25.75,0,0,0,304,73.26a13.77,13.77,0,0,1,2.83,2.34,2.54,2.54,0,0,1-.39,3.23,3.2,3.2,0,0,1-3.71.68l-3.71-1.37a7.06,7.06,0,0,1-2.05-.49,6.58,6.58,0,0,1-1.47-1.56q-1.95-1.36-3.8-2.83a6.47,6.47,0,0,0-4.11-1.47,7.15,7.15,0,0,0-3.22,1.57,6.7,6.7,0,0,0-1.07,1.36,19.12,19.12,0,0,1-1.76,1.57,14.27,14.27,0,0,0-1.66,3.51,11.2,11.2,0,0,0-1.37,5,15.64,15.64,0,0,0,1.76,9.38,12.39,12.39,0,0,0,6.54,5.56c1.31.53,2.7,1,4.2,1.47s3,1.14,4.59,1.85a11.25,11.25,0,0,1,3.71,1.47c1.18,1,2.38,1.89,3.62,2.73a17.07,17.07,0,0,1,4.59,7.72,34.18,34.18,0,0,1,.29,11.81,21.63,21.63,0,0,1-3.13,11.43,14.9,14.9,0,0,1-8.59,5.47c-1,.13-2.12.23-3.22.29-.91.26-1.86.49-2.83.69a18,18,0,0,1-3.23.29A2.25,2.25,0,0,0,284.79,144.94Z"/><path class="cls-7" d="M347.93,144.84a4.77,4.77,0,0,0-4.59-.39,1.74,1.74,0,0,1-2.44-1.07,17.83,17.83,0,0,1,0-4.5q-.19-5.37-.49-10.74a90.09,90.09,0,0,1,.1-11q.58-10.94.49-22V84c.19-3.58.26-7.26.19-11q-1.76-4.89,2.44-6.84a19.87,19.87,0,0,0,3.91-.39,4.17,4.17,0,0,1,2.15.19,21,21,0,0,1,2.44.59,3.41,3.41,0,0,1,1,2.93c-.13,1.89-.2,3.78-.2,5.66v11c-.06,3.71-.13,7.39-.19,11a26.09,26.09,0,0,0-.2,4.5,2.79,2.79,0,0,0,3.32,1.95,7.35,7.35,0,0,0,2,.49,10.46,10.46,0,0,1,2.45-.1,23.37,23.37,0,0,0,5.27.39c.84-.06,1.69-.1,2.54-.1a2.77,2.77,0,0,0,1.76-.19,7.32,7.32,0,0,0,.39-4.1c0-3.52,0-7-.1-10.55a66.43,66.43,0,0,1-.1-10.84V73.55a19.87,19.87,0,0,1-.19-5.56A1.51,1.51,0,0,1,372,66.72a10.35,10.35,0,0,0,4,0c3-.79,5.08.13,6.25,2.73,0,1.43-.07,2.83-.2,4.2-.13,1.89-.19,3.74-.19,5.57a99.27,99.27,0,0,0-.2,10.74q.19,5.57.1,10.94c-.13,3.58-.26,7.12-.39,10.64a100,100,0,0,0-.39,10.94c.13,3.64.36,7.26.68,10.84.13,1.76.26,3.45.39,5.08a11.85,11.85,0,0,1-.29,4.59,2.83,2.83,0,0,1-3.51,1.26c-1.83,0-3.59-.06-5.28-.19A3.4,3.4,0,0,1,370.1,143a3.14,3.14,0,0,1-.29-1.76,25.28,25.28,0,0,1,.19-3.13q-.48-10.74-.49-21.68a6.38,6.38,0,0,0-1.07-6.54,8.75,8.75,0,0,0-2.93-.1c-1.24,0-2.44,0-3.61-.1h-4a34.25,34.25,0,0,0-3.51,0q-3.13,1.66-2.44,5.47-.3,9.18.29,18.17a62,62,0,0,1,0,8.4,2.71,2.71,0,0,1-1,2.24A8.92,8.92,0,0,1,347.93,144.84Z"/><path class="cls-7" d="M430.6,145a27.4,27.4,0,0,0-9.47-1.47q-4.5,1.08-7-2.24c.91-2.22,2.83-3.16,5.76-2.84,1.11-.19,1.59-.94,1.46-2.24v-5.67q.3-11,.3-22.07-.3-11-.59-22,.2-5,.2-10.06a6.73,6.73,0,0,0-.88-3.32A3.87,3.87,0,0,0,417.52,72q-3.91.2-3.81-3.32a4.61,4.61,0,0,1,4.69-2.15h-.2a3.14,3.14,0,0,1,3.22-.19,44.19,44.19,0,0,0,5.18-.69c1.56.07,3.16.2,4.78.39s3.36.17,5,.3a8.87,8.87,0,0,1,3.23,1,2.39,2.39,0,0,1,.39,3.52,9.19,9.19,0,0,1-6,1.46q-3,2.75-1.37,6.94c-.19,3.77-.23,7.48-.09,11.13q.38,10.74-.2,21.39-.11,7.52,0,14.94-.11,3.51,0,6.93a5.8,5.8,0,0,0,1.46,5,8.11,8.11,0,0,1,6.55,2.44c.06,2-.91,3.09-2.93,3.42l-3.62.2h-1.56A3.79,3.79,0,0,1,430.6,145Z"/><path class="cls-7" d="M476.16,144.45a7.6,7.6,0,0,1-3-.59,4,4,0,0,1-.59-4,27.29,27.29,0,0,0-.1-5.18c0-1.82,0-3.71.1-5.66q-.3-10.94.1-22.07c.26-3.52.45-7.06.58-10.64V85.37c.07-3.65.13-7.29.2-10.94a10.74,10.74,0,0,1,.49-6.25,4.88,4.88,0,0,1,2.44-1.46,13.27,13.27,0,0,1,1.66-.3,3.77,3.77,0,0,0,2.05-.19v.19c1.5-.13,3.06-.29,4.69-.49a49,49,0,0,1,5.07.49c1.57.07,3.19.07,4.89,0,.71.13,1.46.3,2.24.49a8.13,8.13,0,0,0,2.54.59,8.49,8.49,0,0,1,1.57.78,6.2,6.2,0,0,0,1.95.49,9.27,9.27,0,0,1,3.81,2.34c.52.39,1,.75,1.56,1.07s.91.92,1.37,1.37a19.35,19.35,0,0,1,1.75,3.71,31.61,31.61,0,0,1,2.64,9.57,48.6,48.6,0,0,1,.1,10.16,16.61,16.61,0,0,1-1.66,4.1c-.26.72-.52,1.4-.78,2a15.27,15.27,0,0,1-1.56,1.86c-.4.71-.75,1.36-1.08,2a2.36,2.36,0,0,1-1.56,1.07,22.52,22.52,0,0,0-1.86,1.27,18.93,18.93,0,0,1-2.24.79,25.25,25.25,0,0,1-3.52,1.07,35.24,35.24,0,0,0-3.91.59,34,34,0,0,1-7.61.87,3.87,3.87,0,0,0-4.2,2.25,24.34,24.34,0,0,0-.1,7.23,154.76,154.76,0,0,0,.29,16.4,5.29,5.29,0,0,1-1.17,5,4.35,4.35,0,0,1-3.22.69A25.73,25.73,0,0,0,476.16,144.45Zm13.38-37.11a7.6,7.6,0,0,1,2.15-.49,9.67,9.67,0,0,0,1.76-.78,9.57,9.57,0,0,0,4-2.15,13.85,13.85,0,0,0,3.81-7.81A27.69,27.69,0,0,0,499.6,78a12.59,12.59,0,0,0-6.44-5.57,20.88,20.88,0,0,0-4.5-.49,3.31,3.31,0,0,0-3.22,1.47,8.07,8.07,0,0,0-.49,3.71V93.38c-.06,3.84-.23,7.61-.49,11.32a2.1,2.1,0,0,0,1,2.74,7.91,7.91,0,0,0,2.15.1A2.57,2.57,0,0,0,489.54,107.34Z"/></g></svg>