<svg xmlns="http://www.w3.org/2000/svg" viewBox="0 0 1125.63 761.57"><defs><style>.cls-1,.cls-7{fill:#fff;}.cls-1{stroke:#000;stroke-miterlimit:10;}.cls-2{fill:#42ff81;}.cls-3{fill:#0bbfc7;}.cls-4{fill:#f6f657;}.cls-5{fill:#ff4c4d;}.cls-6{fill:#bf46e1;}</style></defs><title>gochamaze-home</title><g id="ごちゃまぜ"><path class="cls-1" d="M1084.45,606.15c-28.65,11-60.66,6.09-86.19-14.25-20.65-16.46-33.67-37.91-39.18-63.6-2.63-12.25-3.34-24.87-4-37.42-.26-5.46-1.3-6.38-6.24-4-8.74,4.14-17.27,8.7-25.93,13-9.14,4.56-19,7-29,8.35s-18-7.8-17.24-17.91c1.41-18.42,14.11-26.27,28.88-32.62,12.08-5.2,24.66-9,37-13.57,3.35-1.24,4.84-2.84,5.26-6.73,1.55-14.32,2.44-28.84,8.3-42.33,3.57-8.24,8.29-15.53,16.74-19.66,8-3.91,18.63-.9,23.16,6.73a46.94,46.94,0,0,1,6.44,32c-.22,1.43-.47,2.86-.56,4.3-.14,2.5.9,3.45,3.45,2.62a176.27,176.27,0,0,1,29-7.07c5.28-.76,4.74-4.94,4.5-8.35a52.47,52.47,0,0,1,4.81-25.7c3.9-8.6,6.89-17.82,13.94-24.72,10.41-10.19,24.6-8.25,31.32,4.7,6,11.51,10.42,23.5,8.73,36.9-.29,2.25-.45,4.43,3,4.32s34.94-2.56,38.94-2.56h11c3,0,15.09,3.28,16.36,3.83a38.24,38.24,0,0,1,19.41,17.74c4.58,8.79,2.74,17-5.73,22.1-13.28,8.05-27.36,12.72-42.87,7.09-14.93-5.42-29.66-1.64-44.46.3-2.51.33-2.93,2.29-3.58,4.28-5.11,15.67-8,31.92-12.58,47.72-2.46,8.51-7.13,16.08-11.88,23.47-3.14,4.9-8.35,6.14-13.82,4.81-5.23-1.28-8-4.91-9.19-10.32-1.71-8-.38-15.82.42-23.66,1.07-10.47,2.76-20.88,1.71-31.46-.56-5.63-1.33-6.32-6.77-4.85-13,3.49-25.87,7.16-38.82,10.65-3.41.91-5.12,2.88-5.38,6.36-1,13.29-1,26.53,2.06,39.62.67,2.8,1.15,5.65,1.76,8.46,4.76,22.09,38.82,44.26,63,36.21a51.16,51.16,0,0,0,19-11.66c8.39-7.83,14.29-17.75,21.67-26.44a44.35,44.35,0,0,1,25.5-15.26c18.53-3.83,33.91,12,30.62,30.71-1.46,8.27-5.72,14-10.93,20-12.08,14-26,25.88-40.85,36.6A92,92,0,0,1,1084.45,606.15Z" transform="translate(-63.68 -36.84)"/><path class="cls-1" d="M432.85,362.22c8.29-1,16.6-1.83,24.93-2.27,4.27-.22,5.4-1.91,5.3-5.83-.22-8.54,1.25-16.94,2.52-25.37,3.35-22.24,17.69-31.27,36.61-33.67a82.23,82.23,0,0,1,34.69,3.21A44.29,44.29,0,0,1,557.53,312a27,27,0,0,1,6.5,23.72c-1.9,10.49-5.65,20.3-9.92,29.93-1.83,4.14-.33,5.3,3.38,6.09a165.6,165.6,0,0,1,51.38,20.11,67.34,67.34,0,0,1,15.28,12c11.39,12.52,9.43,28.55-4.55,37.91-5.28,3.54-11.18,5.08-17.43,6-17.75,2.5-35.06-1.56-52.54-3.12-6.47-.58-12.89-1.44-19.41-1.41-3.25,0-5,1.15-6.11,4.21-3.18,9.13-6.55,18.2-9.83,27.29-.38,1.07-1.17,2.26-.36,3.29,1,1.28,2.41.49,3.6.13a93.49,93.49,0,0,1,44.11-2.36c18.91,3.33,31.06,14.91,37.86,32.46,3.11,7.3,1.11,16.3.11,21.3,0,0-2.14,7.7-3,9-2.07,4.55-6.65,10.81-8.15,12.75-9.85,12.77-22,22.9-37.14,28.89-12.36,4.88-24.72,9.78-37.92,12A14.16,14.16,0,0,1,500,587.75a11.55,11.55,0,0,1,3.69-18.8,51.66,51.66,0,0,1,9.88-3.15c18.43-4,32.72-14.62,45.29-28a29.14,29.14,0,0,0,5.66-9.68c2.39-6.25.84-10.74-5.08-13.79C553,511,546,510.41,538.78,511.28c-19.26,2.35-36.28,10.11-52,21.19-4.95,3.5-9.78,7.25-15.62,9.2-10.41,3.47-19.09-.9-22.69-11.27-2.33-6.69-1.78-13.68-2.05-19.9-.29-20.13,4.77-38.68,9.45-57.29.85-3.36,1.89-6.67,2.84-10,1.44-5.1,1.36-5.33-3.71-6.36-12.17-2.46-24.37-4.78-36.34-8.1-8.24-2.29-16.24-5.17-23.25-10.27a26.75,26.75,0,0,1,.71-44.15c10.52-7.15,22.46-10.42,34.92-11.9Z" transform="translate(-63.68 -36.84)"/><path class="cls-1" d="M78.38,424.1a63.67,63.67,0,0,1-9.56-21.85c-3.06-12.83-5.27-25.74-4.42-38.16-2-28.31,10.09-50.39,27.27-70.2,20.16-23.23,45.73-38.42,74.42-49a219.36,219.36,0,0,1,55.12-12.35c12.55-1.22,24.7-4.46,37-6.95,18-3.64,35.65-2.35,53.1,2.41,37.3,10.54,52.3,29.54,60.3,41.54L393.26,302c2.77,6.39,4.92,13.57,4.67,20.25-5.48,24.36-20.61,42.18-39.33,57.47a205.46,205.46,0,0,1-21.75,15.72c-6.4,3.95-13.36,5.93-20.7,7.16-14.2,2.4-20.82-9.26-22-19.39a33.51,33.51,0,0,1,.48-7.32c.41-4-.11-4.45-3.93-2.93a62,62,0,0,0-13.43,6.94c-21.64,15.42-44,29.82-66.17,44.4-19.92,13.08-41.38,22.25-65.15,25.55-14.57,2-28.86,1.54-42.37-4.94C93,439.85,84.51,432.92,78.38,424.1Z" transform="translate(-63.68 -36.84)"/><path class="cls-1" d="M259.93,555.42a54.85,54.85,0,0,0,20-3.25A186.88,186.88,0,0,1,307,544.64c23.17-4.28,43.46-14.22,60.61-30.55a40.7,40.7,0,0,0,11-17.31c4.58-14.24.27-28.84-11.94-39.35-11.34-9.76-23.63-9.93-36.7-3.64-12.29,5.91-22.26,14.92-32.45,23.64a81.33,81.33,0,0,1-35,17.3c-17.18,4-29.73-5.54-30.57-22.91,0-.14,0-.29,0-.43-.48-7.77-6.61-12.05-13.93-9.38-25.86,9.45-36.45,30-29.91,56.36,3.9,15.72,16,24.17,29.66,30.64C231.21,555.33,245.85,553.65,259.93,555.42Z" transform="translate(-63.68 -36.84)"/><path class="cls-1" d="M468.43,237.82a30.31,30.31,0,0,0-3-12.45,100.83,100.83,0,0,0-17-25.44c-10.64-12-21.55-23.71-34.42-33.41-6.86-5.18-13.68-5.83-20.07-1.64A62.85,62.85,0,0,0,376.41,182c-4.89,7.16-4.69,16.6.16,22.63C391.44,223.15,404,243.2,415.33,264c3.11,5.68,5.61,11.76,10.46,16.33,5.68,5.36,13.71,6.35,19.77,1.57C459.75,270.73,468.65,256.6,468.43,237.82Z" transform="translate(-63.68 -36.84)"/><path class="cls-1" d="M926.24,411.42c-11.93-10.37-26.34-15.22-41.33-18.88a180.87,180.87,0,0,0-29.08-4.39c-2.77-.22-5.23-.63-4.71-4.52.8-5.86,1.63-11.74,1.9-17.64.22-4.89,2.62-6.23,7.09-6.55,12.68-.91,25.2-3.09,37.68-5.49,6.85-1.32,12.68-8.33,13-15,.3-7.21-3.7-12.37-11.44-14.81a44.66,44.66,0,0,0-12.81-1.75c-10.29-.15-19.94,3-29.71,5.52-3.5.88-5.22-.09-5.62-3.68-.77-6.88-1.57-13.77-2.46-20.64-.39-3,.75-4,3.65-3.49,5.7.93,11.33,2.12,17,3.51,9.63,2.39,18.79,6.87,29,6.58,8.09-.22,14.88-2.84,18-11,3-7.9,1-15.09-4.39-21.32-4.16-4.8-9.66-7.67-15.42-10.16-14.6-6.31-30.1-7.81-45.7-8.61-3.88-.2-5.33-1.31-5.17-5.34.38-9.67.35-19.35-1.71-28.9-1.9-8.8-6-15.88-15.4-17.88s-17.13,1.46-22.73,9.12c-7.51,10.25-9.46,22.13-9.19,34.5.19,8.87.27,8.74-8.69,8.59a349.59,349.59,0,0,0-53.14,2.64,38.92,38.92,0,0,0-21,9.43c-10.95,9.69-11.07,25.12,0,33.47,5.66,4.26,12.41,5.93,19.52,6.24,10,.45,19.88-1.15,29.73-2.47,13.17-1.77,26.28-3.89,39.39-6,3.63-.59,5.41.32,5.75,4.17.67,7.47,1.54,14.93,2.4,22.38.37,3.21-1,4.53-4.15,4.5-5.19-.05-10.39,0-15.59,0a226.81,226.81,0,0,0-33.26,2c-11.51,1.64-19.78,7.47-23.79,18.76a12.64,12.64,0,0,0,2.93,13.55,18.54,18.54,0,0,0,12.38,5.56,173.6,173.6,0,0,0,22.9-.9c12-1.28,23.35-5.34,35.28-6.73,8-.93,8.21-1.13,8.37,7.1,0,.44,0,.87,0,1.3.05,7-.32,7.43-7.3,7.13-22.09-1-42.92,3.22-62.71,13.56-18.23,9.51-29.36,23.95-33.29,43.88-2.71,13.76-1.52,27.1,7.18,38.85,9.17,12.38,22.91,16.41,37,18.44,20.39,2.94,36.94-6.31,51-19.85s24.35-30,31.56-48.2c1.51-3.81,3.86-5.18,7.65-4.43,17.54,3.49,35.34,6,51.44,14.59a58.83,58.83,0,0,0,16.31,5.66,16.06,16.06,0,0,0,16.72-8.19C935.71,426.84,933.83,418,926.24,411.42ZM801,424.6c-13.15,13.13-28.12,23.4-46.22,28.53-2.71.77-5.9,2.16-8-.7s-.84-6,.66-8.6c5.52-9.6,12.88-17.46,23.39-21.57,8.44-3.3,17-6.28,26.23-6.72,2.64.48,6.27-1,7.44,2C805.56,420.29,802.93,422.71,801,424.6Z" transform="translate(-63.68 -36.84)"/><path class="cls-2" d="M1045.15,406.49c-.86-16,6.35-29.86,14.12-43.47a15.18,15.18,0,0,1,9-7.08c6-1.84,11.49.06,14.4,5.59,6.56,12.46,11,25.34,8,39.85-1.38,6.66-.54,7.21,6.18,6.72a29.85,29.85,0,0,0,4.75-.35c4.35-1,46-3.32,48.21-3.08,12.6,1.42,23.56,5.8,30.25,17.4,4,6.9,2.57,11.54-4.32,15.51-11.86,6.81-24.16,10.16-37.66,5-12.12-4.6-24.48-2.3-36.78-.92-3.87.43-7.71,1.05-11.57,1.59-3.24.45-4.93,2.22-5.75,5.5q-6.27,25.2-12.91,50.29c-2.06,7.75-6.4,14.5-10.38,21.36a6.42,6.42,0,0,1-6.94,3.44c-3.15-.61-4.45-3.09-5-5.88-1.58-7.48-.58-15,.65-22.36,2.34-13.95,2.09-27.84.78-41.8-.31-3.33-2.5-3.08-4.72-2.55-7.44,1.75-14.91,3.43-22.29,5.43-9.89,2.67-19.69,5.65-29.57,8.39-3.3.92-5.1,2.78-5.66,6.24a123,123,0,0,0,6.61,64.22c2.24,5.92,6.62,10.18,11,14.27,11.48,10.68,24.63,18.08,40.71,19.11,13.82.89,25.35-4.28,35.44-13.32,8.57-7.67,15.13-17,22-26.17a40,40,0,0,1,23.73-15.58c10.08-2.33,20,3,22.7,13,2.16,8.1,1,16.14-4.73,22.81a243.34,243.34,0,0,1-43,39.41c-30.13,21.62-67.06,22.81-98.92-1.59-21.08-16.14-33.78-37.5-38.32-63.73-2.44-14.1-3.28-28.34-4-42.6-.29-5.22-.54-5.21-5.69-3.65-12.26,3.72-23,10.66-34.46,16.11-8.47,4-17.4,6.19-26.46,7.83-7.22,1.31-11.61-3.76-11.16-11.1.63-10.56,6.55-17.29,15.18-22.1,11.66-6.49,24.36-10.45,36.89-14.83,4.77-1.66,9.4-3.71,14.19-5.3,3.48-1.16,4.37-3.42,4.6-6.85,1-14.56,2.42-29.08,7.62-42.87,2.3-6.11,5.61-11.72,11.17-15.62,6.83-4.78,14.87-3,18.76,4.37,4.56,8.7,6.25,17.92,4.15,27.68-1,4.51-1.76,9.06-2.72,13.57-.58,2.77.2,3.35,2.88,2.4,14.58-5.16,29.4-9.47,44.73-11.8,3.1-.47,4.58-2.05,4.42-5.25C1045.06,411.49,1045.15,409.18,1045.15,406.49Z" transform="translate(-63.68 -36.84)"/><path class="cls-1" d="M1127.6,413.54c6-1,15-5,18-10s1-9,0-18c-.78-7-3.94-21.11-5.34-27.15a23.82,23.82,0,0,0-1.83-5.18c-.89-1.85-1.74-3.68-2.73-5.55a11.89,11.89,0,0,0-9.54-6.71,31.55,31.55,0,0,0-19.62,3.92c-4.48,2.64-5.94,6.74-3.9,11.51a32,32,0,0,1,2.19,10.08c.84,9.93,1.59,19.86,2.36,29.79.41,5.29-.13,9.88,3.41,14.29C1114.6,415.54,1121.6,414.54,1127.6,413.54Z" transform="translate(-63.68 -36.84)"/><path class="cls-1" d="M1148.6,387.54c3,9,6,10,6,10,2,1,11.11,1.12,12.33.56,9.31-4.25,16.51-13.7,15.71-22a88.57,88.57,0,0,0-8.56-31.15c-5.23-10.54-13.73-13.26-22.44-9.69a19.84,19.84,0,0,1-3.78.9c-6.54,1.3-8.76,4.22-8.12,10.94.27,2.81,3.46,19.64,3.86,22.43A89.78,89.78,0,0,0,1148.6,387.54Z" transform="translate(-63.68 -36.84)"/><path class="cls-2" d="M1121.79,344.94c5.34-.11,8.72,1.69,11,5.86,3.88,7.1,5.24,14.95,7.09,22.64,1.55,6.46,3,12.94,4.23,19.46,1.18,6.11-.43,9.5-5.67,12.77a43.07,43.07,0,0,1-15.37,5.57c-5.33.95-8.76-1.68-9.94-7.73a256.76,256.76,0,0,1-3.89-31.78c-.4-5.86-.07-11.78-2.71-17.38-1.49-3.16.91-5.17,3.44-6.53C1113.87,345.72,1118.24,345.39,1121.79,344.94Z" transform="translate(-63.68 -36.84)"/><path class="cls-2" d="M1158.69,338.63c5.43-.64,8.46,2.83,10.87,7,5.19,8.9,7.09,18.92,8.79,28.84,1.5,8.81-7.38,19.2-16.35,20.33-3.7.47-6-1.15-7.45-4.51-3.72-8.56-4.9-17.77-7-26.76-1.14-4.92-2.28-9.83-3.29-14.78-1.16-5.7-.18-7,5.41-8.55C1152.63,339.37,1155.5,338.35,1158.69,338.63Z" transform="translate(-63.68 -36.84)"/><path class="cls-3" d="M450.78,512.08c.1-19.56,3.87-35.88,7.88-52.14,1.7-6.86,3.78-13.62,5.69-20.43,1.26-4.5.89-5.11-3.89-6-15.62-2.86-31.19-6-46.42-10.58a52.32,52.32,0,0,1-15.49-7.6,22.83,22.83,0,0,1,.8-38.09c8.35-5.48,17.74-8.25,27.49-10,11.54-2.07,23.24-2.51,34.9-3.22,4.16-.25,5.55-1.81,5.46-5.81a131.86,131.86,0,0,1,4.15-35.58c2.13-8.4,7.16-14.33,14.79-18.2,13.16-6.66,27-6.28,41.05-4,9.06,1.46,17.18,4.77,24,11.07,7.12,6.57,10.35,14.29,8.34,24.09-2.34,11.4-6.54,22.12-11.36,32.63-2.18,4.76-2.12,5.15,3.07,6.28,17.57,3.82,34.65,9,50.37,18,7.16,4.11,14,8.66,19.64,14.79,9.62,10.43,7.75,23.93-4.38,31.19a40.34,40.34,0,0,1-17.23,5.21c-19.06,1.83-37.63-2.56-56.43-4-5.46-.43-10.94-.7-16.4-1.06-2.66-.18-4.31.9-5.25,3.48-4.82,13.3-9.74,26.56-14.6,39.84-.44,1.19-1.47,2.65-.58,3.66,1.21,1.37,2.7-.05,3.94-.53,18.6-7.31,37.74-8.94,56.88-3.41,14.68,4.23,24.19,14.64,28.52,29.45a10.41,10.41,0,0,1-2.19,10.08c-4.37,5.43-7.69,11.26-4.36,18.66,1.11,2.47-.81,4.43-2.1,6.27a82.69,82.69,0,0,1-36.59,29.5c-10.77,4.52-21.69,8.74-33.11,11.44-2.8.67-5.62,1.41-8.55.81-4.23-.88-7.2-4-7.48-7.9s1.91-6.67,6.45-8c4.15-1.23,8.44-2,12.51-3.42a97,97,0,0,0,43.06-29.42A30.12,30.12,0,0,0,569.08,529c2.79-8.48-.13-15.12-8.15-18.93-8.47-4-17.27-4.13-26.27-2.68a113,113,0,0,0-49,20.6c-4.21,3-8.27,6.35-13,8.57-10.44,4.89-18.37,1.05-20.55-10.32C451,520.72,451,515,450.78,512.08Z" transform="translate(-63.68 -36.84)"/><path class="cls-1" d="M689.09,526.53a47.51,47.51,0,0,1-7.31,3.07c-5.62,1.82-8.25,8.1-6.2,13.76,1.66,4.59,6,6.06,12,4a98.63,98.63,0,0,0,25.52-13.59c10.48-7.55,15.87-17.53,15.45-30.64-.36-11.41-9.89-23.2-21-25.6-5.73-1.23-11.51-.91-17.25-.47-3.37.25-3.79-.93-3-3.66a36.89,36.89,0,0,0,1.7-11.09c-.26-9.12-5.42-14.81-13.82-15.2-9.63-.45-15.2,4.43-16.43,13.93a142.17,142.17,0,0,0-.83,20.31c0,2.74-1,4.25-3.68,5-4.71,1.35-9.4,2.8-14,4.46-2.81,1-3.88.35-4.25-2.63a32,32,0,0,0-7.24-16.45c-5.79-7.06-14.81-5.6-18.33,2.8a23.86,23.86,0,0,0-1.61,7.13c-.61,6.47,2,11.86,5.35,17,1.81,2.73,1.43,4.73-1.34,6.5-2.43,1.55-4.71,3.34-7.08,5s-13.06,8.38-17.06,17.38c-4,17,7.42,19,13,16,8-4,14.6-9.51,20.71-14.77,4.39-3.77,4.43-3.82,7.33,1.37,6.9,12.35,14,24.65,22.54,35.92,5,6.5,9.07,13.82,15.75,18.85a12.18,12.18,0,0,0,14.22,0c3.42-2.52,4.61-7,3.12-12.15a45.71,45.71,0,0,0-2-5.26c-3.52-8.28-10.19-13.9-16.77-19.52a102.8,102.8,0,0,1-24.47-30.57c-1.25-2.37-1.15-4.05,1.46-5.24,3.8-1.74,7.56-3.59,11.38-5.29,2.24-1,3.42-.14,3,2.3q-1.07,5.75-2.42,11.43c-1.69,7.13-.26,11.51,4.29,12.72,5.07,1.35,8.92-1.91,10.67-9.19,1.52-6.31,2.86-12.65,4.43-18.94.59-2.38,1.4-5.06,4.07-5.76,8.73-2.32,17.53-3.92,26.22.21,5,2.38,6,5.35,3.17,10a28.48,28.48,0,0,1-3.69,4.78A58.12,58.12,0,0,1,689.09,526.53Z" transform="translate(-63.68 -36.84)"/><path class="cls-4" d="M696,479.05c3.14.18,7.19-.4,11.19.58,14.78,3.64,23.38,20.2,17.52,35.73a37.77,37.77,0,0,1-16.11,19.17c-6.63,4.13-13.33,8-20.68,10.79-4.8,1.8-8.86,1.22-9.69-2.11-1.27-5.06-1.12-9.93,4.7-11.8,10.27-3.29,18.17-9.81,25.15-17.71a16.84,16.84,0,0,0,3-4.75c2-4.74,1-8.09-3.64-10.45-6.45-3.29-13.25-4.89-20.5-2.84a5.67,5.67,0,0,1-1.67.41c-11.55-.3-12.14,5.59-14.17,14.91-1.17,5.35-2.48,10.66-3.78,16-.82,3.34-3.21,4.87-6.52,4.11a5,5,0,0,1-4.08-6.16c.74-4.11,1.84-8.16,2.72-12.25a34,34,0,0,0,.89-5.54c.13-2.83-1.43-4.32-4.08-3.16-5.27,2.31-10.69,4.34-15.56,7.54-2.19,1.45-2.29,2.73-1.16,5a101.1,101.1,0,0,0,26.28,33.31c6.71,5.54,12.93,11.51,16.37,19.81,2.69,6.47,2.23,11.29-1.55,13.77-4.42,2.91-11,1.84-15.06-3.34-7.07-9.1-14.62-17.86-20.54-27.82-5.3-8.94-10.94-17.68-15.53-27-1.45-3-2.93-2.28-5-.71-6.47,4.8-11.86,11-19.23,14.65-.78.39-1.53.82-2.3,1.22-3.33,1.74-6.7,3-10,.06-2.59-2.32-3.25-7.44-1.65-11.34,2.34-5.68,6.9-9.55,11.14-13.65,3.43-3.31,7.49-5.85,11.45-8.51,5.54-3.71,5.56-3.78,2.08-9.39-3.78-6.09-6.13-12.4-4.13-19.71,1.09-4,3-7.56,7.29-8.27,4-.66,7.16,1.68,9.41,5,3.21,4.73,5.62,9.83,5.89,15.6.19,4.1,1.76,4.44,5.23,3.12a118.43,118.43,0,0,1,16-5.17c4.1-.93,5.35-3.09,4.66-6.73-1.23-6.51-.16-13,.27-19.42.45-6.64,3.87-10.89,9.55-12.5s11.44.06,14.66,4.76c3.48,5.09,2.46,10.74,1.35,16.32-.58,2.85-3.47,6.2-1.49,8.26,1.38,1.44,5.46.28,8.33.27Z" transform="translate(-63.68 -36.84)"/><path class="cls-5" d="M69.33,364.28c-1.54-27.56,10.34-48.78,27.16-68,15.68-18,35-31,56.56-40.55,21.36-9.43,43.54-16.09,67-17.82,13.56-1,26.74-4.53,40-7.27,15.66-3.23,31-2.16,46.32,1.36.7.16,1.39.39,2.09.54C315.12,234,344.1,255,351.1,260c6,4,18,18,22,24,2.55,3.83,14,28,16,32,1,2,3,5,1.93,8.94-.32,1.18.18,1.9-.1,2.82A73.84,73.84,0,0,1,377,354c-8.4,10.16-17.54,19.7-27.95,27.7-9.46,7.27-19.74,13.52-31.95,15.59-10.74,1.83-18.7-5.4-17.72-16.42a100.11,100.11,0,0,1,1.7-12.87c.9-4.05,0-4.7-3.95-3.29-12.05,4.33-22.85,10.82-33.33,18.16-21.17,14.82-42.58,29.32-64.7,42.69a136.83,136.83,0,0,1-66,20.06A58.38,58.38,0,0,1,72.9,397.31C70.89,386.07,68.68,374.89,69.33,364.28Z" transform="translate(-63.68 -36.84)"/><path class="cls-1" d="M386.6,326.54c5-4,14-9.63,15.7-10.87,5.86-4.38,10.69-9.64,13.51-16.57,4.8-11.83,2.43-23.05-3.15-33.78-8.16-15.66-18.35-30-29.14-44-10.06-13-18-15-33.27-9.34a93.61,93.61,0,0,0-23,12.91c-2.86,2.11-9.88,6.11-11.69,11.64a23.36,23.36,0,0,0,1,15c5,11,21.57,34.47,28,54s14,28,22,29S386.6,326.54,386.6,326.54Z" transform="translate(-63.68 -36.84)"/><path class="cls-5" d="M413.05,284.92c0,10.8-3.89,18.33-10.92,24.14a161.67,161.67,0,0,1-26.84,18.21c-8.3,4.42-13.55,2.82-17.68-5.65-5.37-11-10.1-22.36-15.44-33.4-6.34-13.12-13-26.08-19.61-39.08a17.62,17.62,0,0,1-2-10c.24-2.26,1-4.38,2.91-5.59,11-7.1,21.38-15.31,34.47-18.66,6.54-1.67,12.52-.76,16.69,4.22,14.65,17.51,28.43,35.65,37,57.14A26.49,26.49,0,0,1,413.05,284.92Z" transform="translate(-63.68 -36.84)"/><path class="cls-5" d="M260.53,550.53c-12.83-2.54-26.37-.2-38.77-5.66-11-4.85-21.41-10.78-26.37-22.45-9.69-22.77-1.64-46.34,24.24-55.4,4.36-1.53,6.83.38,7.23,5.07.26,3,.44,6.06.94,9,2.06,12,11.28,15.87,21.45,18.49,10.44,2.69,19.85-1,29.35-4.71,12.27-4.75,22-13.09,31.69-21.51,8.22-7.11,16.87-13.63,27.3-17.21q14.84-5.1,26.43,5.67c15.58,14.49,14.71,35.34-1,49.66-18.56,16.92-40.59,25.42-64.77,29.68-8.85,1.56-17,5.4-25.69,7.66A52.94,52.94,0,0,1,260.53,550.53Z" transform="translate(-63.68 -36.84)"/><path class="cls-5" d="M463,238.45c.31,16.81-7.81,28.94-20,38.83-5.32,4.33-11.15,3.09-15.7-2.95s-7.23-13.12-11.07-19.56c-11-18.46-22-36.89-35.78-53.5-3.55-4.29-3.74-10.3,0-16.11a52.38,52.38,0,0,1,15.52-15.47c5.72-3.69,9.3-3.24,15.05,1,12.33,9.19,22.75,20.33,32.84,31.84,6.3,7.19,12.09,14.63,16.13,23.4C462,230.13,463.53,234.21,463,238.45Z" transform="translate(-63.68 -36.84)"/><path class="cls-6" d="M929.6,423.41c-1-4.16-3.45-7.24-6.53-10a64.41,64.41,0,0,0-20.56-11.79,176.05,176.05,0,0,0-49-10.17c-7.07-.51-7-.58-6.1-7.35,1-7.43,2.29-14.86,2.06-22.4-.11-3.76,1.68-5.18,5.12-5.44,3.74-.28,7.49-.62,11.2-1.16,10.15-1.47,20.3-2.92,30.4-4.67,6.05-1,11.05-7,11-12.28C907.09,332.41,903,328,896,327c-5-.76-10-1.66-15.07-.7a252.59,252.59,0,0,0-26.61,6c-4.92,1.49-5.75,1-6.41-4.19-1.12-8.87-2.1-17.77-3.22-26.65-.7-5.6.08-6.3,5.72-5.57,12.82,1.65,25.05,5.68,37.4,9.17,5.39,1.53,10.76,2.09,16.23.6,6.82-1.86,10.39-7.25,9.9-14.3-.65-9.16-6.61-14-13.9-17.88-15.76-8.41-33-9.82-50.39-10.86-8.9-.53-8.65,1.23-7.68-8.94a85.07,85.07,0,0,0-2.34-30.93c-1.71-6.16-5.48-11.11-12.12-12.31-7-1.27-13.11,1.08-17.8,6.62A32.66,32.66,0,0,0,804,227.17a64.73,64.73,0,0,0-3.14,30.7c.65,5,.15,5.7-5,5.28-12.13-1-24.24-.46-36.34.29-9.49.6-19.05.5-28.39,2.89-6.79,1.73-12.74,4.74-17.28,10.09-8.13,9.57-5.43,22,5.82,27.49a35.55,35.55,0,0,0,9.9,3c10.64,1.77,21-.6,31.43-1.94,15.17-2,30.33-4,45.34-7,3-.6,4.54.11,4.89,3.49,1.08,10.19,2.34,20.37,3.69,30.53.45,3.47-1.06,4.89-4.25,4.93-5.49.05-11,0-16.46,0-12.58,0-25.13.37-37.56,2.44-9.28,1.54-15.93,6.39-19.09,15.54-1.88,5.41-.39,9.61,4.55,12.53A20.17,20.17,0,0,0,753.41,370,166,166,0,0,0,786,366.13c9.26-2.19,18.52-4.44,28.1-5,3.08-.19,4.4.58,4.83,3.8a70.84,70.84,0,0,1,0,16.4c-.3,3.15-1.81,4.34-4.8,4.08-1.3-.12-2.6-.09-3.9-.22A109.13,109.13,0,0,0,755,394.3c-18.55,8.16-33,20.05-38,40.85-3.35,14-3.23,27.47,5.33,39.85,5.4,7.81,13.52,11.31,22.09,14.37,23.63,8.42,43.37.57,60.23-15.5,14.67-14,25-31.28,32.35-50.25,1.26-3.27,3.3-4.31,6.6-4.23,5.41.13,10.57,1.6,15.77,2.7,14.39,3.07,28.86,5.94,41.95,13.26A35.66,35.66,0,0,0,915.19,440C924.85,441,931.78,432.9,929.6,423.41Zm-120.34-5.35a34.38,34.38,0,0,1-7.39,11.08C789.2,441,775.08,450.57,758.4,456a25.8,25.8,0,0,1-8,1.53c-6.79-.07-10.06-4.37-7.7-11.06,4.59-13,14-21.79,26.21-27.34a89.14,89.14,0,0,1,26.2-7.25,35.94,35.94,0,0,1,11.6.86C810,413.36,810.57,415.24,809.26,418.06Z" transform="translate(-63.68 -36.84)"/></g><g id="レイヤー_4" data-name="レイヤー 4"><path class="cls-7" d="M590.57,130.4a13.1,13.1,0,0,1-1.32-2.35,5.09,5.09,0,0,0-2.49-1c-2.73.1-5.42.1-8,0H567.43l-4.11-.29q-7.76.74-15.67.73a35.64,35.64,0,0,0-7.32.73,22.89,22.89,0,0,1-3.52.59,16.22,16.22,0,0,0-3.81-.15,19.56,19.56,0,0,1-6.74,0q-1.9,0-3.66-.15a7,7,0,0,0-3.66-.44c-.49.2-.93.4-1.32.59a5.32,5.32,0,0,1-1.32-.15,10.37,10.37,0,0,1-1.76.15,5.18,5.18,0,0,1-1.31-.44,2.13,2.13,0,0,1-2.05-.15,4,4,0,0,1-.44-3.51q.43-7.47.44-15.24Q511,101.25,511,93c.1-5.36.24-10.69.44-16a59,59,0,0,1-.29-6,4.3,4.3,0,0,1,4.39-3.37A90.61,90.61,0,0,1,531,67.26a50.22,50.22,0,0,0,7.76,0,20.82,20.82,0,0,1,3.52.3,9.83,9.83,0,0,0,3.81.14,3,3,0,0,0,1.17-3.51V59.5a3.22,3.22,0,0,0-4-2.49q-3.68.43-7.47.59-7.92-.3-16-.15c-5.28.2-10.6.24-16,.15a15.27,15.27,0,0,1-3.66-.15,10.31,10.31,0,0,0-2.93-.44,4.1,4.1,0,0,1-4.1-.44q-.74-2.49,2.2-3.37a24.27,24.27,0,0,1,7.17-.73,8.38,8.38,0,0,0,2.79-.88,7.79,7.79,0,0,1,3.37-.44q3.8.15,7.91,0,7.75.59,15.52.88A57.63,57.63,0,0,0,539,51.3a10.85,10.85,0,0,0,7,0,4.71,4.71,0,0,0,.88-4.84c-.1-1.17-.2-2.34-.29-3.51a4.76,4.76,0,0,1-.44-3.08,4.43,4.43,0,0,1,3.66-1.9,25.57,25.57,0,0,1,3.22-.74,13.14,13.14,0,0,0,4,0q6.44-1.75,8.05,4.25c-.1,2.25-.24,4.4-.44,6.45a5.53,5.53,0,0,0,.44,3.37,4,4,0,0,0,3.81,1.46,101.88,101.88,0,0,0,12.31.44,18.77,18.77,0,0,0,5.71-.29,5,5,0,0,1,4.25.14v-.29a18.36,18.36,0,0,1,3.07.59l3.52-.3a8.18,8.18,0,0,0,3.51.15,10.17,10.17,0,0,0,1.32-.44,7,7,0,0,0,2,0,14.63,14.63,0,0,0,3.52-.44,10.32,10.32,0,0,0,3.51,0,2.67,2.67,0,0,1,.88.15,2.09,2.09,0,0,0,1.32-.15,6.67,6.67,0,0,1,1.32.15,18.38,18.38,0,0,0,2.34-.15,15.66,15.66,0,0,1,7.33,0c1.95,1.08,2.29,2.44,1,4.1a8.2,8.2,0,0,1-5.27.59,75.15,75.15,0,0,1-7.91.44,63.79,63.79,0,0,1-7.47.15l-8.06-.3c-2.44.3-4.88.49-7.32.59a44.14,44.14,0,0,1-8.06-.15,64.61,64.61,0,0,1-7.62.15,31.84,31.84,0,0,0-6.73-.15,5.85,5.85,0,0,0-2.64,6.59,2.27,2.27,0,0,0,1.61,2.35,37.92,37.92,0,0,0,7.47.14,58.85,58.85,0,0,0,7.18-.44q3.66.3,7.76.44a47.18,47.18,0,0,1,7.33,0,28.61,28.61,0,0,1,7,.3,4,4,0,0,1,2.78,4.1q-.15,3.81,0,7.62,0,16.11.59,32.08c0,2.73.09,5.32.29,7.76s.59,4.64.88,6.88q-2.06,6.16-8.94,3.81h-4.83a5.44,5.44,0,0,1-2.2.44A3.23,3.23,0,0,1,590.57,130.4ZM514,144.17c-1.66-.2-3.22-.44-4.69-.73v.29a19.19,19.19,0,0,0-7-.73c-2.44.87-3.95.29-4.54-1.76a4.77,4.77,0,0,1,4.39-2.49q4-.58,7.91-1a62.29,62.29,0,0,1,16-.58,25.41,25.41,0,0,0,7.18.73h8.49q16.26.15,32.52-.15c2.44,0,4.89-.09,7.33-.29a13,13,0,0,0,3.37.15c1.36-.2,2.73-.34,4.1-.44q8.2-.45,16.26-1.18l7.47-.58a11.92,11.92,0,0,1,3.08.44,9.49,9.49,0,0,0,3.66-.15,3.91,3.91,0,0,1,4.25,2.78c-.3,2.06-1.57,3-3.81,2.79q-7.33.15-14.5.58a64.54,64.54,0,0,0-7.62.44,27.91,27.91,0,0,1-8.06,0,46.32,46.32,0,0,0-7.32.59c-2.74.1-5.47.15-8.21.15q-7.9.28-15.82-.15-3.66,0-7.17.15c-1.27,0-2.49.05-3.67.14a8,8,0,0,1-3.66.3,17.86,17.86,0,0,0-6.44,0,8.39,8.39,0,0,1-3.08,0c-1.37,0-2.64.05-3.81.14q-2.49.15-4.83.15a23.23,23.23,0,0,1-4.54-.44,16.17,16.17,0,0,0-4.4.29A3.42,3.42,0,0,0,514,144.17Zm7.32,20.21a47.07,47.07,0,0,0-5.42-.58,45,45,0,0,1-6.3-.74,3.16,3.16,0,0,1-3.36-1.17,2.88,2.88,0,0,1,1.9-3.22,57.65,57.65,0,0,0,4.83-3.81l3.81-3.81a20.91,20.91,0,0,1,4.4-3.81,8.28,8.28,0,0,1,4.68-1,44.25,44.25,0,0,0,5.28.29,53.26,53.26,0,0,1,5.71-.29q4.4,2.34.59,6A47.26,47.26,0,0,0,533,155a36.84,36.84,0,0,1-4.25,3.66,24.24,24.24,0,0,0-4,2.93A6.55,6.55,0,0,1,521.28,164.38Zm10-41.75a8.79,8.79,0,0,1,5,0,19.23,19.23,0,0,0,3.23-.29,30.06,30.06,0,0,0,4.25,0q7.75-.28,16-.14,3.66,0,7.62-.15a46.76,46.76,0,0,0,8.35-.15h6.74a7.79,7.79,0,0,0,5.71-.73,5.15,5.15,0,0,0,.88-4.83,15.87,15.87,0,0,1-.44-3.81,19.6,19.6,0,0,0,.15-4.1,3.89,3.89,0,0,0-4-1.32l-3.37-.3a12.68,12.68,0,0,1-3.37.74q-8.21,0-16,.14a57.81,57.81,0,0,1-7.18.15,36.66,36.66,0,0,1-8.06-.29,22.68,22.68,0,0,0-9.23.73,25.74,25.74,0,0,1-4.83-.15,6.09,6.09,0,0,0-4,.15,3.91,3.91,0,0,0-.87,3.51v5a9.83,9.83,0,0,0,.43,4.54C528.9,122.78,529.88,123.22,531.24,122.63Zm29.59-20.21q6.3-.15,12.46-.73,3.08,0,6.15-.3a15.8,15.8,0,0,1,3.66.15,14.77,14.77,0,0,0,3.66.15c1.86-1,2.44-2.69,1.76-5.13V92.9a3.81,3.81,0,0,0-.44-3.08,8.44,8.44,0,0,0-4.39-.29l-7.77.29a26.73,26.73,0,0,1-6.88-.29,25.17,25.17,0,0,0-7.62.58,19,19,0,0,1-3.37,0,12.89,12.89,0,0,1-3.37.15q-4.09-.29-7.91-.29a123,123,0,0,0-16,.73q-2.92.58-2.34,3.66V102a51.21,51.21,0,0,1,7.76-.29,29.24,29.24,0,0,0,8.79.73h8.21A16.58,16.58,0,0,1,560.83,102.42Zm6.3-17.72q3.52-.45,7.47-.88a34.08,34.08,0,0,1,7.77-.59,9.59,9.59,0,0,0,4.39.15A5.1,5.1,0,0,0,588.08,78a6.69,6.69,0,0,0-1.32-5.86,9.92,9.92,0,0,0-5.86,0,40.82,40.82,0,0,1-7-.88q-4.1,0-7.91.14c-2.54.2-5,.44-7.47.74a76.49,76.49,0,0,1-8.06.44q-3.81,0-7.47-.15a50.61,50.61,0,0,1-6.74-.15q-5.85-.87-7.17,4.84a18,18,0,0,0-.3,5.56c1.18,1.67,2.88,2.11,5.13,1.32q8.21.45,16.55.74Q558.79,84.55,567.13,84.7Zm47.17,78.22q-3.07-.58-6.15-1c-2.25-.1-4.49-.24-6.74-.44a10.88,10.88,0,0,1-5-2.49,29.17,29.17,0,0,1-5.27-3.22q-5.71-3.51-11.43-7.32-2.79-1.47-1-3.81a8.41,8.41,0,0,1,4.68-.15,13.92,13.92,0,0,1,2.93-.29,7.8,7.8,0,0,0,2.64.14,12,12,0,0,1,5.57-.44,22.26,22.26,0,0,1,4.54,4,43.57,43.57,0,0,0,5.12,4.1,51.64,51.64,0,0,0,10.55,6.15,3.5,3.5,0,0,1,2.64,3.08A3,3,0,0,1,614.3,162.92Z" transform="translate(-63.68 -36.84)"/><path class="cls-7" d="M724.39,156.34a2.5,2.5,0,0,1-1.72-2.9,6.46,6.46,0,0,1,3.12-2.58,28.28,28.28,0,0,0,7.09-7.41c.78-1.44,1.53-2.94,2.25-4.52.79-1.86,1.5-3.76,2.15-5.69a68.54,68.54,0,0,0,2.26-11.39,66.74,66.74,0,0,0,.21-11.92c-.14-1.79-.36-3.58-.64-5.37q-.76-2.79-1.83-5.59a107.7,107.7,0,0,0-4.73-10.1,18.18,18.18,0,0,0-6.76-7.19l-4.73-1.94a40,40,0,0,0-4.94-2,3,3,0,0,0-2.69,0,1,1,0,0,0-.32,1.29v3.22c-.22,1.87-.5,3.66-.86,5.38a40,40,0,0,0-.86,5.9,69.32,69.32,0,0,1-2.47,11.28q-1.29,5.6-2.79,11.18a74.31,74.31,0,0,1-4.3,10.84q-2.15,5.05-4.4,10.1a13.05,13.05,0,0,1-2.8,3.76,30.26,30.26,0,0,0-2.9,4.62,17.94,17.94,0,0,1-6.23,6.45,10.78,10.78,0,0,1-4.94,1q-2.89.33-5.69.43a13.42,13.42,0,0,1-9.56-2.58,22,22,0,0,1-6.45-7.84,31.29,31.29,0,0,1-3.11-10.52,64.49,64.49,0,0,1-1.08-11.82,39,39,0,0,1,5.8-20.2,6.91,6.91,0,0,0,1.61-3.65.33.33,0,0,1,.22.11A4.72,4.72,0,0,0,663.37,94a12.85,12.85,0,0,1,2-3.22Q666.6,89.42,668,88q1.29-1.72,2.47-3.66a7.75,7.75,0,0,1,2.58-2.9l1.18-1.18a15.32,15.32,0,0,1,1.51-.86,7.59,7.59,0,0,1,2.68-2,2.35,2.35,0,0,0,1.51-.64A1.14,1.14,0,0,1,681,76.2a2.14,2.14,0,0,1,2.36-1.5,31.61,31.61,0,0,0,5.48-2c1.65-.35,3.33-.75,5-1.18a9.66,9.66,0,0,1,2.47-.75,12.38,12.38,0,0,0,2.36.22,5.12,5.12,0,0,0,.54.21c.79-.07,1.61-.18,2.47-.32,1.65-.07,3.33-.07,5,0s3.15.18,4.73.32a7.66,7.66,0,0,1,4.19.54v-.33a1.6,1.6,0,0,0,1.93.43,13.28,13.28,0,0,1,3.33.65,19.15,19.15,0,0,0,3.55.75,4.71,4.71,0,0,0,.86.54,2.17,2.17,0,0,0,1.5-.11,17.71,17.71,0,0,1,5.91,2.26q2.46,1.71,4.94,3.65a23.13,23.13,0,0,1,8.16,9.24c.58.86,1.15,1.72,1.72,2.58.36,1,.68,2,1,3.11a30,30,0,0,0,1.18,3,4.25,4.25,0,0,1,.86,3.11,13.39,13.39,0,0,1,2,7.31,56.9,56.9,0,0,1-.43,18.47,74,74,0,0,1-1.83,9c-.42,1.43-.89,2.79-1.39,4.08-.72,1.5-1.44,2.94-2.15,4.3a16.83,16.83,0,0,1-2.36,3.22c-.79,1.07-1.54,2.11-2.26,3.12-1.07.85-2.11,1.64-3.11,2.36a4.27,4.27,0,0,1-2.48,1.82q-.86,2.16-3.54,1.83a30.37,30.37,0,0,1-4.51-.11h-2A4.77,4.77,0,0,1,724.39,156.34Zm-45.55-12.68a2,2,0,0,1,1-1.18,16.38,16.38,0,0,0,1.5-2c1-1.72,2-3.48,3-5.27a110.5,110.5,0,0,0,4.94-10.63,129.66,129.66,0,0,0,6.88-21.92q1.07-5.79,2.25-11.7a39.42,39.42,0,0,0,1.4-11.18c-1.15-1.93-2.79-2.18-4.94-.75-1.29.5-2.55,1-3.76,1.4q-2,1.5-3.87,3a6.18,6.18,0,0,0-2.58,2.68A11,11,0,0,1,682,88.87a67.06,67.06,0,0,0-5.16,7.31,25,25,0,0,0-2.36,4,21.63,21.63,0,0,0-2.58,3.33,30,30,0,0,0-1.29,4.73c-.5,1.5-1,3-1.5,4.4a34.89,34.89,0,0,0,0,18.8,22.34,22.34,0,0,0,3.76,8.17A8.07,8.07,0,0,0,678.84,143.66Z" transform="translate(-63.68 -36.84)"/><path class="cls-7" d="M427.69,794.16a7.21,7.21,0,0,1-4.25-3.52,39.91,39.91,0,0,1-6.44-5c-1.86-1.75-1.86-3.37,0-4.83,1.76-.1,3.66-.24,5.71-.44a4,4,0,0,0,2.2-4.54,73.38,73.38,0,0,1,0-9.38q1-9.22,1.9-18.6a5.39,5.39,0,0,0-2.34,1.17,17.44,17.44,0,0,1-2.64,1.47,60.69,60.69,0,0,1-7.76,2,5,5,0,0,1-5.57-.15q-.87-2.49,2.05-3.81a114.61,114.61,0,0,1,12.16-7,7.78,7.78,0,0,0,4.54-2.49,8.33,8.33,0,0,0,.44-5.56q-.3-7.92,0-16.12-.15-3.66-.15-7.32a5.19,5.19,0,0,0-1.46-5,12.56,12.56,0,0,0-5.71-.15,16.87,16.87,0,0,1-7-.59c-2.15-.58-2.89-1.85-2.2-3.8a6.05,6.05,0,0,1,5.27-1.61c2.44,0,4.93.09,7.47.29a3.36,3.36,0,0,0,3.52-2c-.1-2.25-.15-4.49-.15-6.74.1-2.83.29-5.62.59-8.35a47.4,47.4,0,0,0,.29-7.47,5.32,5.32,0,0,1,.29-4.54,6.88,6.88,0,0,1,5.57-.88c2.54.19,5.08.44,7.62.73q4.83,4.54,2.05,11.57-.3,4-.44,7.77c-.2,2.54-.39,5-.59,7.47q-.15,3.07,2.93,3.07t6.59-.14a9.9,9.9,0,0,1,7.62,1.61q-1,3.66-5.27,3.66h-7.77q-3.08-.59-3.8,2a37.19,37.19,0,0,0,.73,7.33v7.76a33.47,33.47,0,0,0,0,7.62q3.51,3.22,8.35.29a4.44,4.44,0,0,1,4.25.73,2.63,2.63,0,0,1-1,3.66,20.58,20.58,0,0,1-7.91,3.52,10.69,10.69,0,0,0-3.66,2.2,8.75,8.75,0,0,0-.88,6.3q-.73,8.05-2,16a40.32,40.32,0,0,0-.59,8.35,37.55,37.55,0,0,1,0,8.21,15.36,15.36,0,0,0-1.17,6.59,7.2,7.2,0,0,1,1.91,4.83,7.35,7.35,0,0,1-5.86,2.78,13,13,0,0,1-3.23.74C430.33,794,429,794.06,427.69,794.16Zm93.75,4.25c-1.86-.39-3.66-.83-5.42-1.32a12.18,12.18,0,0,1-3.81-3.22,29.25,29.25,0,0,0-11-3.08,4.19,4.19,0,0,1-3.52-2.34q-1-2.21,1.17-1.47a10,10,0,0,0,6-.73,17.7,17.7,0,0,1,6.44-.59,11.9,11.9,0,0,0,4.84,1,4.41,4.41,0,0,0,1.76-4q1.61-6.59,3.07-13.62,1-6.58,2.49-13.18,2.64-3.23,1-6.3a2.76,2.76,0,0,1-.44,2.64,21.59,21.59,0,0,1,.44-7.48,4.54,4.54,0,0,0-.88-4.1,12.58,12.58,0,0,0-6.3.44H509a64.54,64.54,0,0,1-15.09,0,39.92,39.92,0,0,0-6.74,0q-2.62.74-1.61,3.23v7.17c.49,2.05,1.91,2.79,4.25,2.2A134.9,134.9,0,0,0,505,751.68c2.44-.1,5-.29,7.61-.59a23,23,0,0,1,6.89-.14c2.14.78,2.54,2,1.17,3.66a13.29,13.29,0,0,1-6.89,1.32,153.62,153.62,0,0,1-16.26,1.46,62.51,62.51,0,0,1-7.47.15A4.36,4.36,0,0,0,486,759a12,12,0,0,0-.29,5.86,4.19,4.19,0,0,0,2.34,3.52,20.76,20.76,0,0,0,8.5,1.17,22.12,22.12,0,0,0,5.71.44,3.48,3.48,0,0,0,2.79-3.37,4.88,4.88,0,0,1,4.39-1.46,4.45,4.45,0,0,1,4.39,1.61,21,21,0,0,1,1,6.44c.1,2-.64,3.23-2.2,3.81a31.19,31.19,0,0,1-6.74-.44c-2.73-.09-5.47-.14-8.2-.14l-14.94-.3a66.25,66.25,0,0,1-6.89-1.17,10,10,0,0,1-5.56-2.2,8.8,8.8,0,0,1-1.76-5.42q0-4.1.29-8.35a7.54,7.54,0,0,0-.29-2.93,4.82,4.82,0,0,0-3.22,2.93,13.06,13.06,0,0,1-10.7,5.13q-5.11,1.62-8.35-1.46a9.83,9.83,0,0,1,3.23-4.55,49.62,49.62,0,0,0,4.54-6.29q3.81-6.3,8.2-12.75a75.85,75.85,0,0,0,5.86-9.37c.88-1.37,1.76-2.83,2.64-4.4a14,14,0,0,0,2.49-4.39,19.88,19.88,0,0,0-7.18.14c-1.86.3-3-.44-3.37-2.19.29-2.35.54-4.74.73-7.18q-.29-4-.29-8.2,0-8.06.29-16.26.15-3.53.15-7.33a5.16,5.16,0,0,1,.44-5.42,9,9,0,0,1,4.83-.73,66.35,66.35,0,0,0,7.62-1q7.77-.59,15.67-.58t16,.44q7.9.15,16,.44a31.39,31.39,0,0,1,6.3,1.61,3.07,3.07,0,0,1,3.22,3.07q-.3,4-.88,7.62a60.3,60.3,0,0,0-.29,8.35,91.77,91.77,0,0,0,0,16.41,23.94,23.94,0,0,1,.29,6.44,4.24,4.24,0,0,1-4.83,2.2q-7.33-1.17-14.51-1.9a61.68,61.68,0,0,1-7.32.14,12.53,12.53,0,0,1-2.78.3c-1.08-.2-2.1-.35-3.08-.44-1.86.29-3.66.63-5.42,1a8.65,8.65,0,0,0-4.69,4.4,55,55,0,0,0-3.66,6,12.61,12.61,0,0,0-2.78,5.13,6.06,6.06,0,0,0,5.27,1.9,74.94,74.94,0,0,0,8.21.15q7.75-.15,15.82,0a30.89,30.89,0,0,0,7.32,0c2.64-.39,5.27-.73,7.91-1a43.42,43.42,0,0,1,7,0,3.34,3.34,0,0,1,2,1.32,2.56,2.56,0,0,0,2.35.88q3.07,3.07,1.46,7.77-1.17,8.19-2.2,16.4-2.77,15.39-5.56,30.76a3.32,3.32,0,0,1-.88,2.05.4.4,0,0,1-.15-.29,4.63,4.63,0,0,1-.58,1.61,3.08,3.08,0,0,1-2.06,2.05A66.06,66.06,0,0,1,521.44,798.41Zm-16.26-87a4.92,4.92,0,0,1,2.05.14,16.83,16.83,0,0,0,3.08-.29,28.89,28.89,0,0,1,2.93.15l2.34-.3q-.15-3.08,0-6.3a20.7,20.7,0,0,0,.3-6,4.76,4.76,0,0,0-5.57-1.61c-3.32.29-6.59.49-9.82.58a27.59,27.59,0,0,1-6.88.3,50.57,50.57,0,0,0-6.74-.15,14.91,14.91,0,0,1-5.13-.29c-1.85.1-2.68,1.07-2.49,2.93.1,2.15.2,4.24.3,6.3q-.74,2.77,1.32,4.1a9.75,9.75,0,0,0,5.56-.15,52.6,52.6,0,0,1,6.74.44,38.15,38.15,0,0,0,6.74.29c1-.09,1.95-.14,2.93-.14A2.49,2.49,0,0,0,505.18,711.4Zm-4.1-19a7.08,7.08,0,0,1,2.49-.14,16.45,16.45,0,0,0,3.66-.44,43.56,43.56,0,0,0,6.15.14c1.66,0,2.54-.88,2.64-2.63s.34-3.76.44-5.72a4.51,4.51,0,0,0-1-4.54,16.56,16.56,0,0,0-4.25-.58q-7.47-.74-14.8-.88a78.27,78.27,0,0,0-13.62.88,3,3,0,0,0-2.78,2.78q-.15,3.66-.44,7.18,2.19,5.42,8.64,3.22,3.36,0,6.59.29A10.6,10.6,0,0,0,501.08,692.35Z" transform="translate(-63.68 -36.84)"/><path class="cls-7" d="M619.88,796.8a10.83,10.83,0,0,1-1.91-.74,5.13,5.13,0,0,1-1.61-1.9,16.55,16.55,0,0,0-3.51-3.37c-2.84-1.37-4.3-3.47-4.4-6.3a7.18,7.18,0,0,0,4.25-.73,7.8,7.8,0,0,0,3.52-.88,5.43,5.43,0,0,0,.58-3.52,44.77,44.77,0,0,1-.29-5.12q-.3-11.87-1.17-23.73-.3-5.57-.44-11.28a43.46,43.46,0,0,1,0-11.28,5,5,0,0,0-.88-5.42c-1.66-.68-3-.54-4,.44a89.88,89.88,0,0,0-19.18.29q-9.82.3-19.63.88a68.93,68.93,0,0,1-9.09,0q-3.81.43-3.95-3.22a4.05,4.05,0,0,1,2-1.47,18.25,18.25,0,0,1,4.54-.88,25,25,0,0,0,4.54-.73,5.13,5.13,0,0,1,4-.44,7.92,7.92,0,0,1,5.71-.88q7.9.3,16.11,0,16.41-.87,33.11-.58,16.26.87,32.81.44,7.62-.3,15.53,0c2.34.1,4.73.24,7.18.44a6.37,6.37,0,0,1,4.24,1.61,3.88,3.88,0,0,1-.87,4.68,8.59,8.59,0,0,1-6,.74q-3.81-.3-7.62-.3l-8.2-.87q-3.51.14-6.89,0l-3.22.29-2.93-.29a57.73,57.73,0,0,0-7.18-.15,77.14,77.14,0,0,0-8.35.15,3.39,3.39,0,0,0-4,1.46,14.52,14.52,0,0,0-.15,4.54q.45,8.36.74,16.55t1,16.12q.43,8.21.44,16.55a73.4,73.4,0,0,0,0,9.38,15.48,15.48,0,0,1,.29,6,5.37,5.37,0,0,1-6.15,2.05c-1.56.29-3.08.64-4.54,1h-2.2A7.62,7.62,0,0,1,619.88,796.8Zm-54.79-27.1a3.68,3.68,0,0,1-3.07-3.23,2.66,2.66,0,0,1,1.61-1.46,8.53,8.53,0,0,0,2.78-2.49q5.13-5.87,9.82-12.31a25.24,25.24,0,0,1,3.81-5.56,11.58,11.58,0,0,0,2.49-2.35,20.26,20.26,0,0,1,2.05-3.07,16.5,16.5,0,0,1,11.28-4.1,48.84,48.84,0,0,1,6.59-.74c2.14.49,2.78,1.67,1.9,3.52q-5.42,6-10.25,12.16a122.81,122.81,0,0,1-9.67,12.3,34,34,0,0,1-4.39,4.69,9.4,9.4,0,0,1-6.16,1.9A86.82,86.82,0,0,1,565.09,769.7Zm87.31-81.3a1.23,1.23,0,0,0-1.47-.44,10.27,10.27,0,0,1-3.51-.29c-2.74-.3-5.42-.49-8.06-.59s-5.08-.34-7.62-.44q-4.25.15-8.35.15-3.81,0-7.47.14l-8-.29c-2.45.2-4.84.34-7.18.44-1.27,0-2.44-.05-3.52-.15a11.72,11.72,0,0,1-4.1.44l-6.59-.88c-2.34,0-3.42-1.12-3.22-3.37a7.3,7.3,0,0,1,5.42-1.46,20,20,0,0,1,7.61-1.17,51.68,51.68,0,0,0,15,1,12.81,12.81,0,0,1,3.37-.44,4.85,4.85,0,0,0,3.36,0,16.44,16.44,0,0,1,6.45.44q7.32.3,14.79.15c1.08-.1,2.2-.15,3.37-.15a17.43,17.43,0,0,0,3.23,0,22.35,22.35,0,0,1,6.73.15,41,41,0,0,0,6,.44,3.37,3.37,0,0,1,2.64,3.22c0,2-1,2.83-2.93,2.64a10,10,0,0,0-2.93-.15c-.49.2-.93.39-1.32.59A4.35,4.35,0,0,1,652.4,688.4ZM686.53,769a5,5,0,0,0-5.57-.43,7.81,7.81,0,0,1-4.83-1,12.36,12.36,0,0,1-2.78-.59A6.45,6.45,0,0,1,671,765q-5.41-5.41-10.54-11.13-4.85-5.71-10.11-11.14a53.35,53.35,0,0,1-4.4-3.07q-2.49-1.9,0-4.1a13.73,13.73,0,0,1,6.3-.59q3.81,0,7.77.15a10.65,10.65,0,0,1,4.68,3.37q2.79,2.78,5.86,5.42,5.28,5.26,10.4,10.69c1.27,1.37,2.59,2.73,4,4.1l3.81,3.52Q691.51,766.76,686.53,769Z" transform="translate(-63.68 -36.84)"/><path class="cls-7" d="M735.16,797.09h-2.34a2,2,0,0,1-1-2.49q0-3.81.15-7.76.28-8.51.59-17.14,0-8.36.43-17,.15-8.78.44-17.72a6.07,6.07,0,0,0-3.22,5.13,42.83,42.83,0,0,1-4.83,10,10.87,10.87,0,0,1-3.08,4.39,8.38,8.38,0,0,1-5.71.88,19.16,19.16,0,0,1-7.47,0,2.83,2.83,0,0,1,0-3.81c1-1.75,2-3.56,3.07-5.42q3.08-6.15,6.45-12.45,6.58-11.71,12.74-24a8.36,8.36,0,0,0-2.34.58,1.3,1.3,0,0,0-1.47-.73,2.84,2.84,0,0,1-1.46.44,3.09,3.09,0,0,1-1.61-.44q-2.34-1.32-4,.29a4.28,4.28,0,0,0-3.8-1.46,2.56,2.56,0,0,1-2.5-2.64,3.25,3.25,0,0,1,2.64-2.19l5.13-.59c1.66-.29,3.37-.54,5.13-.73q4.83,1.47,6.29-2.93a163.85,163.85,0,0,0-.44-23q-1.17-3.81,1.91-5.86a29.76,29.76,0,0,1,5.13-.44,4.52,4.52,0,0,1,3.37.44c.68-.88,1.7-1,3.07-.44a4.78,4.78,0,0,1,2.2,4.25q.29,8.35.15,16.55c-.3,2.54-.54,5.08-.74,7.62a2.92,2.92,0,0,0,2.49,3.37,41.09,41.09,0,0,0,7,.58,7,7,0,0,1,5.42,1.76,3.73,3.73,0,0,1,.15,4.54,10.72,10.72,0,0,1-6.74,1,7.14,7.14,0,0,1-3.51.29,5.46,5.46,0,0,0-2.79-.15,3.67,3.67,0,0,0-1.9,4.69,19.86,19.86,0,0,0,8.2,9.52,38.28,38.28,0,0,0,5,4,5,5,0,0,1,2.35,3.81,13.3,13.3,0,0,1-6.3,2.63,3.07,3.07,0,0,0-3.52-.14,2.09,2.09,0,0,0-1.9,0,1.59,1.59,0,0,1-1.47-.44,20.77,20.77,0,0,1-2.34.14q-.74,9.82-.59,19.63-.58,10.26-.73,20.37c-.2,3.12-.34,6.25-.44,9.37s.1,6.15.29,9.08a3.38,3.38,0,0,1-3.22,3.52,28.26,28.26,0,0,0-4.1.29A15.69,15.69,0,0,1,735.16,797.09Zm97.41.29h-1.46a2.1,2.1,0,0,1-1.32-.44,3.39,3.39,0,0,1-2.49-1,23.36,23.36,0,0,1-1.9-2.49c-.79-1.17-1.57-2.3-2.35-3.37q-2.19-2.79-4.25-6-2.34-3.07-4.54-6.3a40.4,40.4,0,0,1-3.66-6.44,19.25,19.25,0,0,0-3.51-6.15q-3.23-.45-4.55,2.93c-1.56,2.24-3.07,4.49-4.54,6.73a139,139,0,0,0-8.2,12.46,5.55,5.55,0,0,1-4.69,3.51,51.48,51.48,0,0,0-6.59.44,5.25,5.25,0,0,1-4.83-.59,2.81,2.81,0,0,1,.29-3.22,46.43,46.43,0,0,1,4.4-6.44q4.25-6.74,8.64-13.63c1.46-2.05,3-4.15,4.54-6.3a25.52,25.52,0,0,1,4.1-5.71,4.83,4.83,0,0,0,2.2-4.69,10.79,10.79,0,0,0-1.76-2.34c-.78-1.17-1.52-2.39-2.2-3.66a40.81,40.81,0,0,1-3.81-6.15,33.52,33.52,0,0,0-3.51-6,3.29,3.29,0,1,1,1.9-6.3,17.23,17.23,0,0,1,10-.58,13.35,13.35,0,0,1,3.81,4.54c1.17,2.15,2.25,4.34,3.22,6.59.1,1.66.83,2.54,2.2,2.63a6.29,6.29,0,0,0,2.79-2.92,107.12,107.12,0,0,0,10.25-16.56H820a3.15,3.15,0,0,1-.88-.44,6.67,6.67,0,0,1-1.32.15,5.12,5.12,0,0,1-1.47-.44v.29c-.87-.19-1.71-.34-2.49-.44h-6.73c-1.27.1-2.49.25-3.67.44a6.43,6.43,0,0,1-2.63.59,18.25,18.25,0,0,1-3.37-.59,12,12,0,0,1-3.22-.14,4.64,4.64,0,0,0-2.79.58,17.31,17.31,0,0,1-2.2.15,1.83,1.83,0,0,1-1-.73c-1,.19-1.81.39-2.49.58a21.05,21.05,0,0,0-3.37,0,4.27,4.27,0,0,0-1.9,4q-.15,3.36-.44,6.74-2.79,16-5.86,31.78-1.62,7.92-2.93,15.68a102,102,0,0,1-.88,11,6.66,6.66,0,0,1-2.05,3.81,11.09,11.09,0,0,1-6.3,1.61,13.74,13.74,0,0,1-6.15,1.17,4.39,4.39,0,0,1-.88-5.27q2.77-16.26,5.56-32.52,3.07-16.11,5.42-32.37,1.62-16.11,4.25-32.37.58-3.66,1-7.62a11.48,11.48,0,0,1,1.61-5.86,7.27,7.27,0,0,1,6.44-2.2c1.47.1,3,.15,4.54.15a6.85,6.85,0,0,1,4,0v-.15a29.2,29.2,0,0,1,4,.59h4.1c1.36.19,2.73.34,4.1.44a12.46,12.46,0,0,1,3.37-.44,9.12,9.12,0,0,0,4-.3c1.27.1,2.59.25,4,.44s2.78.15,4.25.15a5,5,0,0,0,3.95.15,8,8,0,0,0,5.86.73,53,53,0,0,1,6.88.15,4.68,4.68,0,0,1,3.67,4.24q-4,4.11-9.82,1.47a5.76,5.76,0,0,0-2.63.29,7.08,7.08,0,0,1-3.23-.14q-3.95-.73-7.91-1.18a13.51,13.51,0,0,1-3.37.44c-1.27-.19-2.54-.34-3.8-.44a51.13,51.13,0,0,0-7.77.59,35.85,35.85,0,0,1-7.32-.44,3.31,3.31,0,0,0-4,3.08q-1.61,7.75-2.63,15.38-.89,3.95-1.47,7.61.15,3.09,3.52,2.2a22.74,22.74,0,0,0,10.25,0c.49.88,1.27,1.08,2.34.59a53,53,0,0,1,6.74.14,26.48,26.48,0,0,0,6.89,0,10.39,10.39,0,0,0,6-.29v.29A6.6,6.6,0,0,0,819,713a5.53,5.53,0,0,0,1.32.44,10.87,10.87,0,0,1,1-.44,6,6,0,0,1,1.47-.15c1.17,0,2.34,0,3.52.15a26,26,0,0,0,4,0,56.8,56.8,0,0,0,6.74,1.61,3.72,3.72,0,0,1,3.37,3.51,12,12,0,0,1-6,7.77,105.85,105.85,0,0,0-8.79,12q-4.68,6.15-9.66,12a4.07,4.07,0,0,0,0,5.57c1.36,1.85,2.73,3.76,4.1,5.71s2.63,3.91,3.81,5.86c.58.88,1.17,1.71,1.75,2.49a25.66,25.66,0,0,0,1.76,3.66c1.27,2,2.59,3.81,4,5.57l4.39,6.44c1.47,2,3,3.86,4.54,5.72q2.77,2.77,1.32,6A38.62,38.62,0,0,0,832.57,797.38Z" transform="translate(-63.68 -36.84)"/></g></svg>