<svg id="main" xmlns="http://www.w3.org/2000/svg" viewBox="0 0 702.26 476.6"><defs><style>.cls-1{fill:#fff;}.cls-2{fill:#ff4c4d;}.cls-3{fill:#0bbfc7;}.cls-4{fill:#fbb03b;}.cls-5{fill:#bf46e1;}.cls-6{fill:#1ad76d;}</style></defs><title>gochamaze-home</title><g id="text"><g id="真の"><path id="真" class="cls-1" d="M613.93,266.43a8.15,8.15,0,0,1-.82-1.46,3.23,3.23,0,0,0-1.56-.65c-1.71.07-3.38.07-5,0h-7l-2.56-.18q-4.85.47-9.78.46a22,22,0,0,0-4.58.46,13.89,13.89,0,0,1-2.19.36,10.57,10.57,0,0,0-2.38-.09,11.91,11.91,0,0,1-4.21,0c-.79,0-1.56,0-2.29-.09a4.16,4.16,0,0,0-2.28-.27c-.31.12-.58.24-.83.36a3.43,3.43,0,0,1-.82-.09,6.8,6.8,0,0,1-1.1.09,3.29,3.29,0,0,1-.82-.27,1.36,1.36,0,0,1-1.28-.09,2.54,2.54,0,0,1-.28-2.2q.28-4.66.28-9.51c-.06-3.36-.09-6.74-.09-10.16s.15-6.68.27-10q-.18-1.83-.18-3.75a2.67,2.67,0,0,1,2.74-2.1,55.94,55.94,0,0,1,9.61-.28,32.69,32.69,0,0,0,4.85,0,13.48,13.48,0,0,1,2.19.18,6.05,6.05,0,0,0,2.38.1,1.86,1.86,0,0,0,.73-2.2v-2.93a2,2,0,0,0-2.47-1.55c-1.52.18-3.08.3-4.66.36-3.3-.12-6.62-.15-10-.09s-6.61.16-10,.09a8.62,8.62,0,0,1-2.28-.09,6.44,6.44,0,0,0-1.83-.27,2.58,2.58,0,0,1-2.56-.28c-.31-1,.15-1.73,1.37-2.1a15.19,15.19,0,0,1,4.48-.46,5.07,5.07,0,0,0,1.74-.55,5,5,0,0,1,2.1-.27c1.59.06,3.23.06,4.94,0,3.23.24,6.47.43,9.7.55a36.37,36.37,0,0,0,4.3-.46,6.74,6.74,0,0,0,4.39,0,2.94,2.94,0,0,0,.55-3c-.06-.73-.13-1.46-.19-2.19a3,3,0,0,1-.27-1.92,2.75,2.75,0,0,1,2.29-1.19,14.91,14.91,0,0,1,2-.46,8.52,8.52,0,0,0,2.47,0q4-1.09,5,2.65c-.06,1.41-.15,2.75-.27,4A3.4,3.4,0,0,0,598,217a2.52,2.52,0,0,0,2.38.92,64.8,64.8,0,0,0,7.68.27,12,12,0,0,0,3.57-.18,3.09,3.09,0,0,1,2.65.09V218a12.23,12.23,0,0,1,1.93.36l2.19-.18a5.35,5.35,0,0,0,2.2.09,7,7,0,0,0,.82-.27,4.57,4.57,0,0,0,1.28,0,9.28,9.28,0,0,0,2.2-.28,6.7,6.7,0,0,0,2.19,0,1.76,1.76,0,0,1,.55.09,1.34,1.34,0,0,0,.82-.09,4.36,4.36,0,0,1,.83.09,12,12,0,0,0,1.46-.09,9.55,9.55,0,0,1,4.57,0c1.22.67,1.44,1.53.64,2.56a5.16,5.16,0,0,1-3.29.37,47.13,47.13,0,0,1-4.94.27,36,36,0,0,1-4.66.09l-5-.18c-1.52.18-3,.31-4.57.37a28.08,28.08,0,0,1-5-.09,42,42,0,0,1-4.76.09,18.66,18.66,0,0,0-4.21-.09,3.64,3.64,0,0,0-1.64,4.11,1.43,1.43,0,0,0,1,1.47,24.21,24.21,0,0,0,4.67.09,36.16,36.16,0,0,0,4.48-.28c1.53.13,3.14.22,4.85.28a29,29,0,0,1,4.57,0,18,18,0,0,1,4.4.18,2.49,2.49,0,0,1,1.73,2.56c-.06,1.59-.06,3.17,0,4.76q0,10.07.37,20c0,1.71.06,3.33.18,4.85s.37,2.9.55,4.3q-1.27,3.84-5.58,2.38h-3a3.45,3.45,0,0,1-1.37.27A1.94,1.94,0,0,1,613.93,266.43ZM566.09,275c-1-.12-2-.28-2.93-.46v.18a12,12,0,0,0-4.39-.45c-1.53.54-2.47.18-2.84-1.1a3,3,0,0,1,2.75-1.56c1.64-.24,3.29-.45,4.94-.64a38.65,38.65,0,0,1,10-.36,15.62,15.62,0,0,0,4.48.45h5.3q10.15.11,20.31-.09c1.53,0,3.05-.06,4.58-.18a8.11,8.11,0,0,0,2.1.09c.85-.12,1.71-.21,2.56-.27,3.42-.19,6.8-.43,10.16-.74l4.66-.36a7.4,7.4,0,0,1,1.92.27,5.75,5.75,0,0,0,2.29-.09,2.42,2.42,0,0,1,2.65,1.74c-.18,1.28-1,1.86-2.38,1.74q-4.58.09-9.05.36a40.48,40.48,0,0,0-4.76.28,17.66,17.66,0,0,1-5,0,29.23,29.23,0,0,0-4.57.36c-1.71.07-3.42.1-5.13.1q-4.93.18-9.88-.1c-1.52,0-3,0-4.48.1-.79,0-1.55,0-2.29.09a5,5,0,0,1-2.28.18,11.36,11.36,0,0,0-4,0,5.16,5.16,0,0,1-1.92,0c-.85,0-1.65,0-2.38.09-1,.06-2,.09-3,.09a14.6,14.6,0,0,1-2.83-.27,10.27,10.27,0,0,0-2.75.18A2.11,2.11,0,0,0,566.09,275Zm4.57,12.62a30.85,30.85,0,0,0-3.39-.36,29.71,29.71,0,0,1-3.93-.46,2,2,0,0,1-2.1-.73,1.8,1.8,0,0,1,1.19-2,37.26,37.26,0,0,0,3-2.37l2.38-2.38a12.8,12.8,0,0,1,2.75-2.38,5.17,5.17,0,0,1,2.92-.64,28.82,28.82,0,0,0,3.3.18,33,33,0,0,1,3.57-.18c1.83,1,1.95,2.23.36,3.75A30.56,30.56,0,0,0,578,281.8a23.31,23.31,0,0,1-2.66,2.28,16,16,0,0,0-2.47,1.83A4,4,0,0,1,570.66,287.65Zm6.22-26.07a5.48,5.48,0,0,1,3.11,0,12.47,12.47,0,0,0,2-.18,19.62,19.62,0,0,0,2.66,0q4.85-.18,10-.09c1.52,0,3.11,0,4.75-.1a28.55,28.55,0,0,0,5.22-.09h4.21a4.84,4.84,0,0,0,3.56-.45,3.21,3.21,0,0,0,.55-3,10,10,0,0,1-.27-2.38,11.9,11.9,0,0,0,.09-2.56,2.45,2.45,0,0,0-2.47-.83l-2.1-.18a8.37,8.37,0,0,1-2.11.46c-3.41,0-6.74,0-10,.09a37.47,37.47,0,0,1-4.48.09,23.38,23.38,0,0,1-5-.18,14.23,14.23,0,0,0-5.77.46,15.92,15.92,0,0,1-3-.1,3.8,3.8,0,0,0-2.47.1,2.44,2.44,0,0,0-.54,2.19v3.11a6,6,0,0,0,.27,2.84A1.24,1.24,0,0,0,576.88,261.58ZM595.36,249c2.62-.06,5.21-.22,7.77-.46,1.28,0,2.57-.06,3.85-.18a9.56,9.56,0,0,1,2.28.09,9.64,9.64,0,0,0,2.29.09c1.16-.61,1.52-1.68,1.1-3.2V243a2.37,2.37,0,0,0-.28-1.92,5.13,5.13,0,0,0-2.74-.18l-4.85.18a17.11,17.11,0,0,1-4.3-.18,15.64,15.64,0,0,0-4.76.36,12.27,12.27,0,0,1-2.1,0,7.9,7.9,0,0,1-2.1.09c-1.71-.12-3.36-.18-4.94-.18a76.8,76.8,0,0,0-10,.46,1.71,1.71,0,0,0-1.47,2.29v4.75a32.48,32.48,0,0,1,4.85-.18,18.23,18.23,0,0,0,5.49.46h5.12A10.34,10.34,0,0,1,595.36,249Zm3.93-11.07c1.47-.19,3-.37,4.67-.55a21.14,21.14,0,0,1,4.85-.37,5.78,5.78,0,0,0,2.74.09,3.19,3.19,0,0,0,.82-3.38,4.18,4.18,0,0,0-.82-3.66,6.17,6.17,0,0,0-3.66,0,24.86,24.86,0,0,1-4.39-.55c-1.71,0-3.35,0-4.94.09s-3.14.28-4.67.46a47.8,47.8,0,0,1-5,.27c-1.58,0-3.14,0-4.66-.09a32.84,32.84,0,0,1-4.21-.09c-2.44-.36-3.93.64-4.48,3a11,11,0,0,0-.19,3.48,2.53,2.53,0,0,0,3.21.82c3.41.18,6.86.34,10.33.46Q594.08,237.8,599.29,237.89Zm29.46,48.85c-1.28-.25-2.56-.46-3.84-.64s-2.81-.16-4.21-.28a6.78,6.78,0,0,1-3.11-1.55,18.14,18.14,0,0,1-3.3-2q-3.56-2.19-7.13-4.57c-1.16-.61-1.37-1.4-.64-2.38a5.37,5.37,0,0,1,2.93-.09,8.47,8.47,0,0,1,1.83-.18,4.83,4.83,0,0,0,1.64.09,7.39,7.39,0,0,1,3.48-.28,14,14,0,0,1,2.83,2.47,27.37,27.37,0,0,0,3.21,2.57,32.3,32.3,0,0,0,6.58,3.84,2.16,2.16,0,0,1,1.65,1.92A1.9,1.9,0,0,1,628.75,286.74Z" transform="translate(-284.94 -208)"/><path id="の" class="cls-1" d="M697.5,282.63a1.56,1.56,0,0,1-1.08-1.81,4,4,0,0,1,2-1.61,17.76,17.76,0,0,0,4.43-4.63q.74-1.35,1.41-2.82c.49-1.16.93-2.35,1.34-3.56a42.6,42.6,0,0,0,1.41-7.11,42,42,0,0,0,.13-7.44c-.09-1.12-.22-2.24-.4-3.36s-.7-2.32-1.14-3.49a68.54,68.54,0,0,0-2.95-6.3,11.44,11.44,0,0,0-4.23-4.5l-3-1.2a23.34,23.34,0,0,0-3.09-1.28,1.84,1.84,0,0,0-1.68,0,.65.65,0,0,0-.2.81v2c-.13,1.16-.31,2.28-.53,3.35a25.24,25.24,0,0,0-.54,3.69,43.54,43.54,0,0,1-1.54,7.05c-.54,2.32-1.12,4.65-1.75,7a45.94,45.94,0,0,1-2.68,6.78c-.9,2.1-1.81,4.2-2.75,6.3a8.15,8.15,0,0,1-1.75,2.35,18.23,18.23,0,0,0-1.81,2.89,11.12,11.12,0,0,1-3.89,4,6.69,6.69,0,0,1-3.08.61c-1.21.13-2.4.22-3.56.26a8.36,8.36,0,0,1-6-1.61,13.7,13.7,0,0,1-4-4.89,19.64,19.64,0,0,1-2-6.58,40.12,40.12,0,0,1-.67-7.38,24.25,24.25,0,0,1,3.62-12.61,4.33,4.33,0,0,0,1-2.28.17.17,0,0,1,.13.07,2.93,2.93,0,0,0,.67-1.61,8,8,0,0,1,1.28-2c.49-.59,1-1.17,1.61-1.75s1.05-1.47,1.54-2.28a4.79,4.79,0,0,1,1.61-1.81l.74-.74a8.72,8.72,0,0,1,.94-.54,4.73,4.73,0,0,1,1.67-1.27,1.42,1.42,0,0,0,.94-.4.72.72,0,0,1,.67-.34,1.35,1.35,0,0,1,1.48-.94,20.19,20.19,0,0,0,3.42-1.27c1-.23,2.08-.47,3.15-.74a6.45,6.45,0,0,1,1.55-.47,7.45,7.45,0,0,0,1.47.13,3,3,0,0,0,.34.14c.49-.05,1-.11,1.54-.2,1,0,2.08,0,3.16,0s2,.11,3,.2a4.79,4.79,0,0,1,2.61.33v-.2a1,1,0,0,0,1.21.27,8.51,8.51,0,0,1,2.08.4,11.74,11.74,0,0,0,2.21.47,3.21,3.21,0,0,0,.54.34A1.33,1.33,0,0,0,699,231a11.32,11.32,0,0,1,3.69,1.41q1.54,1.08,3.09,2.28a14.45,14.45,0,0,1,5.09,5.77L712,242q.33.94.6,2a16.94,16.94,0,0,0,.74,1.87,2.71,2.71,0,0,1,.54,1.95,8.41,8.41,0,0,1,1.27,4.56,35.44,35.44,0,0,1-.27,11.54,47.72,47.72,0,0,1-1.14,5.64c-.27.89-.56,1.74-.87,2.54s-.9,1.84-1.34,2.69a11.3,11.3,0,0,1-1.48,2l-1.41,1.95c-.67.53-1.32,1-1.94,1.47a2.62,2.62,0,0,1-1.55,1.14,1.85,1.85,0,0,1-2.21,1.14,20.16,20.16,0,0,1-2.82-.06h-1.27A3.17,3.17,0,0,1,697.5,282.63Zm-28.45-7.92a1.23,1.23,0,0,1,.61-.74,11,11,0,0,0,.94-1.27c.62-1.08,1.25-2.17,1.87-3.29a68.74,68.74,0,0,0,3.09-6.64,81.43,81.43,0,0,0,4.29-13.69q.67-3.62,1.41-7.31a24.11,24.11,0,0,0,.87-7q-1.07-1.81-3.08-.47c-.81.31-1.59.6-2.35.87-.85.62-1.65,1.25-2.41,1.88a3.81,3.81,0,0,0-1.61,1.67A7.21,7.21,0,0,1,671,240.5a41.45,41.45,0,0,0-3.22,4.56,16.23,16.23,0,0,0-1.48,2.48,14.54,14.54,0,0,0-1.61,2.08,18.23,18.23,0,0,0-.8,2.95c-.32.94-.63,1.86-.94,2.75a21.87,21.87,0,0,0,0,11.74,14,14,0,0,0,2.35,5.1A5,5,0,0,0,669.05,274.71Z" transform="translate(-284.94 -208)"/></g><g id="プロジェクト"><path id="プ" class="cls-1" d="M406.27,684.42a6.5,6.5,0,0,1-6.41-2.38,5,5,0,0,1,2-2.65c.91-1.28,1.86-2.59,2.83-3.94q2.93-4.11,6-8.23l5.94-8q10.8-16.18,20.5-33.3a19.15,19.15,0,0,0,2.83-4.66l-4.85-.18a34.85,34.85,0,0,0-5.21,0c-3.29.3-6.56.54-9.79.73s-6.68.36-10,.36q-5,.28-10.06.46c-1.59,0-3.15-.06-4.67-.18-1.71-.06-3.38-.06-5,0a70.06,70.06,0,0,1-10.06-.18,11,11,0,0,1-4.21-.83q-2-1.28.18-2.47a12.67,12.67,0,0,1,4.3-.36c1.65.06,3.35.09,5.12.09l10.07.18a88.28,88.28,0,0,0,9.88-.37q10-.27,20.21-1.09c3.36-.25,6.74-.46,10.16-.64,1.58-.06,3.2-.19,4.85-.37a22.25,22.25,0,0,1,4.94-.37c1.34.19,2.71.43,4.11.74a4.22,4.22,0,0,1,2.84,1.92,6.27,6.27,0,0,1-2.56,4.75,45.66,45.66,0,0,0-4.67,7.41q-2.47,4.3-5.12,8.42-2.38,4.21-4.94,8.32-2.65,4.3-5.4,8.33a84.89,84.89,0,0,1-5.67,8q-3,3.66-5.76,7.32-1.2,1.92-2.29,3.75l-3,3.56c-.91,1.22-1.8,2.41-2.65,3.57a2.58,2.58,0,0,1-2.56,2.2A3.59,3.59,0,0,0,406.27,684.42Zm44.18-69.71a63.77,63.77,0,0,0-6.77-.18q-.09-.09.18-.09a4,4,0,0,1-3.29-.92,5,5,0,0,1-2.47-2.19,10,10,0,0,1-.55-7.5,6.4,6.4,0,0,1,4.21-5.4c1.22-.12,2.47-.28,3.75-.46l2-.18,1.92.55,3.76.18a8,8,0,0,1,3.29,1.74,7.5,7.5,0,0,1,2.29,6.13A11.38,11.38,0,0,1,457,612.7,7.47,7.47,0,0,1,450.45,614.71ZM448.9,612a4,4,0,0,0,1.92-3,12,12,0,0,0,.55-4.67q-1.29-4-4.94-2.65A7.24,7.24,0,0,0,445,607.3a6.11,6.11,0,0,0,1.19,3.66A2,2,0,0,0,448.9,612Z" transform="translate(-284.94 -208)"/><path id="ロ" class="cls-1" d="M480.27,678.47a2.19,2.19,0,0,1-.55-2.65,35.07,35.07,0,0,0,.19-5.12c.18-3.36.24-6.74.18-10.16q-.09-10.42-.37-20.85c-.24-3.42-.42-6.86-.54-10.34s-.1-6.77-.1-10.25c0-1.52-.06-3.05-.18-4.57a3,3,0,0,1,.73-3.29,10,10,0,0,1,3.57-1,29.3,29.3,0,0,1,5.12-.27l4.58.54a26.3,26.3,0,0,0,4.94.1q5,.27,10.15.45c3.29.06,6.62.06,10,0,3.42.13,6.8.31,10.16.55a78,78,0,0,0,10.06.28c1.4-.06,2.83-.09,4.3-.09a4,4,0,0,1,2.93,1.18,6.85,6.85,0,0,1-.28,3.66c-.12,1.71-.18,3.39-.18,5q-.47,5.13-.55,10.25-.18,10.51.09,20.86-.09,10.15,0,20.21a4.51,4.51,0,0,1-.82,3.21,5,5,0,0,1-3.57.82c-3.29.06-6.59,0-9.88-.28q-10.15-.63-20.31-.64-7.59.2-15.18.55a25.37,25.37,0,0,0-7.14.28A21.12,21.12,0,0,1,480.27,678.47Zm25.53-5.85q3.56-.09,7.22-.09h7.23l7.41.36a33.47,33.47,0,0,0,3.47,0h1.65a3.4,3.4,0,0,1,1.56-.18,38.22,38.22,0,0,0,.09-4.57q.09-2.75,0-5.49a45.2,45.2,0,0,1,.09-4.94V652.4q-.27-10.24-.09-20.67c.06-3.3.18-6.65.36-10.07a37.51,37.51,0,0,0,.28-4.66,2,2,0,0,0-2.2-1.37q-10.15-.74-20.31-1.1-5,.27-10,.18c-3.41-.12-6.83-.18-10.24-.18a15.15,15.15,0,0,0-2.84-.09,2.65,2.65,0,0,0-1,2.93q.27,4.85.27,9.6,1.19,21,.55,41.9a27.82,27.82,0,0,1-.18,3.2,90.55,90.55,0,0,0,9.14.64c1.47-.12,2.93-.18,4.39-.18A3.71,3.71,0,0,0,505.8,672.62Z" transform="translate(-284.94 -208)"/><path id="ジ" class="cls-1" d="M595,652.22a30.32,30.32,0,0,1-6.13-1.37l-2.93-1.1a2.69,2.69,0,0,1-1.92-1.1.26.26,0,0,0,.18-.09,3.7,3.7,0,0,0-1.37-.46,6.86,6.86,0,0,1-2-.64,14.92,14.92,0,0,1-3.84-1.64q-4.49-2-9.06-3.66c-1.95-.43-2.93-1.44-2.93-3a4,4,0,0,1,2.65-.92,35.32,35.32,0,0,1,5,0,7.24,7.24,0,0,1,3.75,1.65,17.17,17.17,0,0,0,3.84,2.19,75.08,75.08,0,0,0,9.15,3.85,32.52,32.52,0,0,0,4.39,1.55,19.66,19.66,0,0,1,3.84,1.37,1.59,1.59,0,0,1,.27,2.57A3.87,3.87,0,0,1,595,652.22ZM568.82,684.6a2,2,0,0,1-2-1.64,2.52,2.52,0,0,1,2.29-1.56q4.85-1.1,9.6-2.65a116.76,116.76,0,0,0,17.75-8.14q9.06-4.75,18.2-9.79,4.22-2.1,8.33-4.58c1.1-.73,2.25-1.46,3.48-2.19a12.65,12.65,0,0,1,4.57-.28,12.22,12.22,0,0,1,3.57.74q2,1.1.82,2.92a6.37,6.37,0,0,1-3.2,1.28c-1.59.55-3.11,1.16-4.58,1.83q-8.86,4.13-17.38,8.78a130.68,130.68,0,0,1-36.5,15,17.63,17.63,0,0,1-2.47.18A6.81,6.81,0,0,0,568.82,684.6Zm29.28-58.54a14.23,14.23,0,0,0-2.29-.19,11.81,11.81,0,0,1-2.1-.36,8.75,8.75,0,0,1-4.3-1.47q-4.21-2.37-8.51-4.39a76.1,76.1,0,0,1-8.78-4.94c-1.28-.61-2.56-1.25-3.85-1.92-.91-.91-.79-1.74.37-2.47a14.81,14.81,0,0,1,4-.36,8.84,8.84,0,0,1,4.2.64q1.83,1.27,3.66,2.47a36.05,36.05,0,0,0,4.3,2.56,60,60,0,0,0,8.78,4.57,31,31,0,0,0,4.21,1.65,3.15,3.15,0,0,1,2.11,2.47A1.84,1.84,0,0,1,598.1,626.06Zm16-4.21a5.71,5.71,0,0,1-3.21-.55,3.9,3.9,0,0,1-1.28-2.47c-.79-2.62-1.67-5.25-2.65-7.87q-1.56-2.57,1-3.75a14.77,14.77,0,0,1,3.66-.09c.6.06,1.22.09,1.83.09a3.35,3.35,0,0,1,1.73-.09,3.84,3.84,0,0,1,1.1,2.29c.37,1.22.76,2.44,1.19,3.66a19.57,19.57,0,0,0,1.19,3.56,12.87,12.87,0,0,1,1.37,3.3Q618.22,623,614.11,621.85Zm16.64-1.56a11.79,11.79,0,0,0-2-.36,4.24,4.24,0,0,1-2.28-.46,6.06,6.06,0,0,1-1.83-3.57,38.68,38.68,0,0,0-1.74-4.3,3,3,0,0,1-.92-2.38v.19a2.77,2.77,0,0,1-1.37-2.66,2,2,0,0,1,2.38-1.37h5.12a2.21,2.21,0,0,1,2,.46,13.06,13.06,0,0,1,.92,1.83l2,4.57a42.69,42.69,0,0,0,1.83,4.48c.92,1.23.82,2.26-.27,3.12A27.87,27.87,0,0,1,630.75,620.29Z" transform="translate(-284.94 -208)"/><path id="ェ" class="cls-1" d="M665.83,677.86v-.14h.36a4.64,4.64,0,0,1-2.56,0,14.43,14.43,0,0,0-3.29.07v-.07h.07a3.19,3.19,0,0,0-1.68,0,11.61,11.61,0,0,1-2.27.07,3.29,3.29,0,0,1-2.34-.88c-.15-.92.34-1.48,1.46-1.68a21.39,21.39,0,0,1,4.69-.66c1.61,0,3.22.12,4.83.22h4.53a.83.83,0,0,1,.15.22,3.74,3.74,0,0,0,.8-.22,12.93,12.93,0,0,1,2.42-.07,11.57,11.57,0,0,0,2.63,0,4.2,4.2,0,0,1,2-.08h-.36c.09-1.46.12-2.95.07-4.46.05-.68.07-1.37.07-2a3.27,3.27,0,0,1-.07-2,15.74,15.74,0,0,0-.07-3.36c0-1.57.07-3.13.07-4.69q-.23-4.83-.22-9.66c.05-1.56,0-3.15-.07-4.76a3.62,3.62,0,0,1,.14-3,15.35,15.35,0,0,0-5.56.3q-3.43-.07-6.95-.08a19.91,19.91,0,0,1-3,.08,22.76,22.76,0,0,0-3.15-.22,3.43,3.43,0,0,1-3.73-1.69l2.85-.87a20,20,0,0,1,3.88-.22,6.69,6.69,0,0,0,1.69-.22c.58,0,1.17.12,1.75.22l1.69.14a11.47,11.47,0,0,0,1.75-.14c2.59.05,5.17.05,7.76,0s5.29-.27,8-.37a4.4,4.4,0,0,0,3.22.59h4.09A22.2,22.2,0,0,1,696,638a.32.32,0,0,1-.37-.37l7.32-.14a2.3,2.3,0,0,1,2.27,1.17,1.88,1.88,0,0,1-1.61,1.83,7.51,7.51,0,0,1-3.59,0c-1.22-.05-2.44-.08-3.66-.08a32.77,32.77,0,0,0-3.73.22,6.66,6.66,0,0,1-1.75-.07c-.69,0-1.35,0-2,.07v-.07a2.1,2.1,0,0,1-1.54.15,19.37,19.37,0,0,1-2.41,0,1.26,1.26,0,0,1,.07,1.1,2.34,2.34,0,0,0-.07,1.31c.05,1.17.05,2.32,0,3.44a59,59,0,0,0,.07,6.66c.1,1,.2,2,.29,3.08,0,.58,0,1.14.08,1.68.09.39,0,.58-.3.58a3,3,0,0,1-.14,1.61,10.34,10.34,0,0,0,0,1.76v3.81c0,1.31,0,2.61.07,3.87a19.41,19.41,0,0,1,.07,3.81c-.09,1,.39,1.49,1.47,1.39,1.27,0,2.53,0,3.8-.07s2.54,0,3.81-.08a23.33,23.33,0,0,0,4.17-.07h-.22c.63,0,1.27.07,1.9.07a2.48,2.48,0,0,1,1.54-.22,2.28,2.28,0,0,0,1.39.3c.59,0,1.22.07,1.9.07a2.67,2.67,0,0,1,2.2.88,1.67,1.67,0,0,1-1.32,2.05,11.55,11.55,0,0,1-3.66-.15c-1.41,0-2.78,0-4.1.07a37.22,37.22,0,0,1-4.09.08,34.1,34.1,0,0,0-4.47-.29l.08-.08v.22l-2.2-.14a1.18,1.18,0,0,1-1.32-.22h.22a4.72,4.72,0,0,1-1.39.07,6.23,6.23,0,0,0-1.39.15,1.89,1.89,0,0,1-1.9-.15h.88a6.39,6.39,0,0,1-3.44-.07c.09.29.31.36.66.22a8,8,0,0,1-3.22.21c-.64.05-1.25.08-1.83.08a10.33,10.33,0,0,0-1.76,0,5.17,5.17,0,0,1-1.68.14,11.83,11.83,0,0,1-1.61-.22C668.22,677.69,667,677.77,665.83,677.86Z" transform="translate(-284.94 -208)"/><path id="ク" class="cls-1" d="M758.2,684a14.86,14.86,0,0,1-3.84-.46,1.55,1.55,0,0,1-.27-2.65,6.94,6.94,0,0,0,.91-1.19c.37-.49.79-1,1.28-1.55a31.15,31.15,0,0,0,2.65-4.12q5-8.5,9.88-17.29a6.59,6.59,0,0,1,1.1-1.65l.82-1.64c.86-1.4,1.68-2.81,2.47-4.21q2.29-4.4,4.76-8.69,2.65-4,5-8.23a38.32,38.32,0,0,1,1.92-3.85c.92-1.28,1.8-2.59,2.66-3.93q1.92-4,4.2-7.87c.49-1,.16-1.58-1-1.64a4.69,4.69,0,0,0-1.83,0,1.08,1.08,0,0,1-.73.36,4.53,4.53,0,0,1-1.38-.18c-1.46-.06-2.92-.15-4.39-.27-1.64-.06-3.32-.06-5,0a95.46,95.46,0,0,1-10.15,0c-3.36-.06-6.65-.1-9.88-.1a18.24,18.24,0,0,0-4.12.1,5.87,5.87,0,0,0-2.47,2.56q-5,8.5-9.79,17.1-2.55,4.4-4.94,8.88a4.54,4.54,0,0,1-2.28,2.47,15.47,15.47,0,0,1-4.39.09,6.21,6.21,0,0,1-3.48-.28c-.91-.85-.85-1.79.18-2.83a37.85,37.85,0,0,0,4.49-7.59q4.84-8.88,10.06-17.75,2.46-4.39,5.12-8.78a33.28,33.28,0,0,0,2.38-3.75c.18-.55.39-1.16.64-1.83a1.92,1.92,0,0,1,1.74-1,27.71,27.71,0,0,1,4.48.37,4.94,4.94,0,0,1,3.38,1.28,4.41,4.41,0,0,1-.73,3.29c-.85,1.16-1.61,2.29-2.28,3.38a33.79,33.79,0,0,0,9.33.74l4.85.18c1.7-.06,3.44-.09,5.21-.09,3.29.06,6.62,0,10-.28,3.29.06,6.62,0,10-.27a28.22,28.22,0,0,1,4.48.18,14.88,14.88,0,0,1,4.3.64c1.41,1.71,1.28,3.45-.36,5.22-.8,1-1.53,2.07-2.2,3.11-.85,1.46-1.68,3-2.47,4.48q-2.75,4.11-5.39,8.23-4.12,6.87-8.15,13.82-4.2,7.41-8.23,14.81-2.1,3.48-4,6.77a60.39,60.39,0,0,0-4.21,7.14c-1.41,2.32-2.84,4.57-4.3,6.77a3,3,0,0,1-2.11,1.74A26.3,26.3,0,0,0,758.2,684Z" transform="translate(-284.94 -208)"/><path id="ト" class="cls-1" d="M827.63,684.33a6.14,6.14,0,0,1-1.46-6.86c0-3.36,0-6.71-.09-10.07q.27-10.33.55-20.67t.73-20.4c.06-3.35.21-6.74.46-10.15l.36-4.94a8.74,8.74,0,0,1,0-3.94,6.12,6.12,0,0,1,5.67-1.74,3.88,3.88,0,0,1,4.4,1.38,10.62,10.62,0,0,1-.37,3.93,23.92,23.92,0,0,0-.37,5.12c-.06,3.42-.18,6.77-.36,10.07-.12,1.64-.19,3.26-.19,4.84s-.18,3.36-.18,4.94a2.07,2.07,0,0,0,1.56,2,26.5,26.5,0,0,0,4.66,1.73q4.49,1.47,9.06,2.66c2.07.55,4.12,1.16,6.13,1.83a1.79,1.79,0,0,1,1.19.64c-.13,0-.19,0-.19.09a2.83,2.83,0,0,0,2.47.82l4.76,1.65a51.38,51.38,0,0,0,9.15,2.83,5.21,5.21,0,0,1,4.21,2c-.74,2.44-2.5,3.26-5.31,2.47a6.66,6.66,0,0,1-1.65-.55c-.67-.12-1.34-.21-2-.28a15,15,0,0,1-4.39-1.83q-4.67-1.73-9.33-3.11t-9.33-3a62.68,62.68,0,0,0-9.33-2.75,15.85,15.85,0,0,1-1.92-.46q-.46,8-.55,15.74c0,1.22,0,2.38.09,3.47a15.56,15.56,0,0,1-.46,3.85,18.21,18.21,0,0,0,.46,7c-.37.24-.4.61-.09,1.1a6.14,6.14,0,0,1,0,2.56,38.55,38.55,0,0,1-.28,4.76,2.85,2.85,0,0,1-2.74,2.37,18.76,18.76,0,0,1-2.47.55C829.49,684.11,828.55,684.2,827.63,684.33Z" transform="translate(-284.94 -208)"/></g></g><g id="ごちゃまぜ"><g id="ご"><path class="cls-1" d="M330.5,471.27A43.74,43.74,0,0,1,294.39,453a43.47,43.47,0,0,1-6.49-14.8c-1.62-6.79-3.4-15.69-2.84-24.45-1.4-21.13,9.48-36.3,17.79-45.89,11.87-13.67,27.41-23.93,47.53-31.35a138.79,138.79,0,0,1,35-7.85,137,137,0,0,0,16.26-2.91c2-.44,4.11-.9,6.19-1.32a69.27,69.27,0,0,1,13.73-1.37A79.7,79.7,0,0,1,442.41,326c23.5,6.65,33.76,18.73,39.43,27.24l13.57,20.36.14.32c2.28,5.26,3.35,10,3.19,14.18v.35l-.08.35c-3.14,14-11.28,25.93-25.6,37.63a128.18,128.18,0,0,1-13.85,10A38.09,38.09,0,0,1,445,441.39a18,18,0,0,1-2.88.25c-9.25,0-14.27-7.83-15.16-15.59a12.48,12.48,0,0,1-.06-1.82,28.68,28.68,0,0,0-4.3,2.47c-11.45,8.17-23.38,16-34.92,23.54l-6.06,4c-13.74,9-27.42,14.37-41.82,16.37A66.64,66.64,0,0,1,330.5,471.27Z" transform="translate(-284.94 -208)"/><path class="cls-2" d="M292,413.9c-.95-17,6.39-30.13,16.77-42,9.69-11.09,21.59-19.15,34.94-25,13.19-5.83,26.88-9.94,41.4-11,8.37-.61,16.51-2.8,24.7-4.49,9.67-2,19.13-1.33,28.61.84.43.1.86.24,1.29.34,4.08.91,22,13.92,26.3,17,3.71,2.47,11.12,11.12,13.59,14.83,1.58,2.36,8.65,17.29,9.88,19.76.62,1.23,1.86,3.09,1.2,5.52-.2.73.11,1.17-.06,1.74a45.91,45.91,0,0,1-8.6,16.19,108.67,108.67,0,0,1-17.27,17.1c-5.84,4.49-12.19,8.35-19.72,9.63-6.64,1.13-11.55-3.33-10.95-10.14a62.92,62.92,0,0,1,1-7.95c.56-2.5,0-2.9-2.44-2a87.68,87.68,0,0,0-20.58,11.21c-13.07,9.16-26.3,18.11-40,26.37a84.49,84.49,0,0,1-40.74,12.39,36.06,36.06,0,0,1-37.2-29.84C292.92,427.35,291.56,420.45,292,413.9Z" transform="translate(-284.94 -208)"/><path class="cls-1" d="M410.74,535.81c-.4,0-.8,0-1.21,0h-.17l-.17,0c-2.48-.31-5-.44-7.64-.57-6.42-.33-13.06-.67-19.52-3.72-7.95-3.76-17.46-9.6-20.41-21.49-2.22-9-1.5-17.27,2.07-24.05s10-12.06,18.82-15.29a11.57,11.57,0,0,1,3.95-.73c5.42,0,9.46,4.07,9.82,9.9,0,.11,0,.23,0,.34v0c.33,6.91,4.21,11,10.38,11a16.44,16.44,0,0,0,3.77-.46,46,46,0,0,0,20-9.86l1.64-1.4c5.83-5,11.86-10.2,19.24-13.75a28,28,0,0,1,12-3,22.38,22.38,0,0,1,14.82,5.82c8.66,7.46,11.85,18.08,8.53,28.41a28.87,28.87,0,0,1-7.82,12.29,76.09,76.09,0,0,1-39.39,19.87,114.62,114.62,0,0,0-16.17,4.5,37.87,37.87,0,0,1-12.54,2.24Z" transform="translate(-284.94 -208)"/><path class="cls-2" d="M410,528.92c-7.92-1.57-16.28-.12-23.94-3.49-6.8-3-13.22-6.66-16.29-13.87-6-14.06-1-28.62,15-34.22,2.7-.94,4.22.24,4.47,3.14.16,1.86.27,3.74.58,5.58,1.27,7.42,7,9.8,13.25,11.42,6.45,1.66,12.25-.63,18.12-2.91,7.58-2.93,13.57-8.08,19.57-13.28,5.08-4.4,10.42-8.42,16.86-10.63q9.17-3.15,16.33,3.5c9.62,8.95,9.08,21.83-.62,30.67-11.47,10.45-25.07,15.7-40,18.33-5.47,1-10.52,3.34-15.87,4.73A33.1,33.1,0,0,1,410,528.92Z" transform="translate(-284.94 -208)"/><path class="cls-1" d="M476.35,399.43a10.63,10.63,0,0,1-1.28-.07c-7-.88-12.51-7.6-16.77-20.53-2.45-7.44-7.55-16.1-11.65-23.05-2.32-3.94-4.32-7.34-5.49-9.91a18.37,18.37,0,0,1-.77-12.06c1.35-4.12,5.33-6.84,7.7-8.46l.9-.63a61,61,0,0,1,15.12-8.49,28.16,28.16,0,0,1,9.7-2.08c7.21,0,11.75,4.61,15.23,9.11,5.58,7.2,12.7,16.86,18.37,27.75,4.49,8.62,5.18,16.5,2.1,24.08a27.89,27.89,0,0,1-9.6,11.87c-.4.3-1.06.74-2.3,1.55-2.12,1.4-5.33,3.51-7.3,5.09l-.1.07c-.79.59-7.85,5.76-13.86,5.76Z" transform="translate(-284.94 -208)"/><path class="cls-2" d="M504.24,364.89c0,6.67-2.41,11.32-6.75,14.91A100,100,0,0,1,480.92,391c-5.13,2.73-8.37,1.74-10.92-3.49-3.32-6.81-6.24-13.81-9.54-20.63-3.92-8.1-8-16.1-12.11-24.13a11,11,0,0,1-1.25-6.2,4.46,4.46,0,0,1,1.8-3.46c6.8-4.38,13.2-9.44,21.29-11.51,4-1,7.73-.48,10.3,2.6,9.05,10.81,17.57,22,22.84,35.29A16.31,16.31,0,0,1,504.24,364.89Z" transform="translate(-284.94 -208)"/><path class="cls-1" d="M518.93,368.77a13.83,13.83,0,0,1-9.47-3.92c-2.86-2.69-4.57-6-6.08-8.93-.37-.71-.73-1.41-1.12-2.11-7.89-14.44-15.38-25.91-23.56-36.08-4.12-5.13-4.24-12.76-.27-18.56a42.48,42.48,0,0,1,11.91-11.64,13.43,13.43,0,0,1,7.44-2.33,15.6,15.6,0,0,1,9.39,3.49c8.6,6.49,15.77,14.32,21.82,21.16a66.11,66.11,0,0,1,11.12,16.68,22.44,22.44,0,0,1,2.18,9.25c.14,11.82-5.11,22-15.59,30.26a12.43,12.43,0,0,1-7.77,2.73Z" transform="translate(-284.94 -208)"/><path class="cls-2" d="M535.11,336.19c.19,10.38-4.83,17.87-12.33,24-3.28,2.67-6.89,1.91-9.7-1.82s-4.46-8.1-6.83-12.08c-6.78-11.4-13.6-22.78-22.1-33-2.19-2.65-2.31-6.36,0-10a32.34,32.34,0,0,1,9.59-9.55c3.53-2.29,5.74-2,9.29.64,7.62,5.67,14.05,12.55,20.28,19.66a60.35,60.35,0,0,1,10,14.45C534.48,331.05,535.41,333.57,535.11,336.19Z" transform="translate(-284.94 -208)"/></g><g id="ちゃ"><path class="cls-1" d="M564.4,558.63a12.46,12.46,0,0,1-9.27-4.08,11.06,11.06,0,0,1-2.9-9.9,10.91,10.91,0,0,1,6.43-7.88,35.1,35.1,0,0,1,6.84-2.18c9.23-2,17.49-7.13,26-16.17a14.18,14.18,0,0,0,2.71-4.71c.84-2.2.43-2.83-1.3-3.72a16,16,0,0,0-7.46-1.68,25.61,25.61,0,0,0-3.07.2C572,509.77,562,513.83,552,520.91l-1.08.77a36,36,0,0,1-9.57,5.42A17.22,17.22,0,0,1,536,528c-6.19,0-11.22-3.84-13.46-10.26a33.6,33.6,0,0,1-1.42-10.86c0-.89,0-1.73-.06-2.54v-.11c-.18-12.14,2.66-23.34,5.4-34.17l.55-2.2c.37-1.47.8-2.91,1.2-4.3.13-.42.25-.84.37-1.26l-2.06-.42c-6.49-1.3-13.21-2.66-19.78-4.48-4.84-1.34-10.48-3.21-15.6-6.94a20.36,20.36,0,0,1,.54-33.56c6.28-4.26,13.89-6.88,23.28-8l1.11-.13c4.48-.53,9.79-1.1,15.25-1.4a84.51,84.51,0,0,1,1.36-14.4l.25-1.62c2.12-14,10.84-22.13,25.93-24a53.41,53.41,0,0,1,6.57-.41,56.09,56.09,0,0,1,16.47,2.53,31.33,31.33,0,0,1,14.52,9.64,20.54,20.54,0,0,1,4.9,17.87A82.36,82.36,0,0,1,595.44,415a106.36,106.36,0,0,1,31.72,12.62,46,46,0,0,1,10.29,8.11c4.18,4.58,6.11,10.09,5.45,15.52s-3.84,10.26-9,13.69a28.92,28.92,0,0,1-12.37,4.29,55.52,55.52,0,0,1-7.92.53A129.48,129.48,0,0,1,597,468.37c-2.88-.37-5.86-.76-8.76-1l-2.93-.29c-2.95-.29-5.73-.57-8.53-.57h-.32c-1.34,3.85-2.75,7.72-4.11,11.47-.18.48-.35,1-.52,1.43a60.22,60.22,0,0,1,13.29-1.48,67.23,67.23,0,0,1,11.54,1c12.52,2.2,21.36,9.74,26.29,22.4,2.27,5.42,1,11.64.34,15l-.1.51,0,.13a32.63,32.63,0,0,1-2.15,6.33,55.15,55.15,0,0,1-5.39,8.42c-6.9,9-15.17,15.36-24.58,19.08l-.17.06c-7.63,3-15.53,6.13-24,7.54A14.51,14.51,0,0,1,564.4,558.63Z" transform="translate(-284.94 -208)"/><path class="cls-3" d="M527.53,505.17c.06-12.08,2.39-22.15,4.87-32.19,1.05-4.24,2.34-8.42,3.52-12.62.78-2.78.54-3.16-2.41-3.7a267.05,267.05,0,0,1-28.66-6.53,32.44,32.44,0,0,1-9.57-4.7,14.1,14.1,0,0,1,.49-23.52c5.16-3.39,11-5.09,17-6.17,7.13-1.28,14.35-1.55,21.56-2,2.56-.15,3.42-1.12,3.36-3.59a81.48,81.48,0,0,1,2.57-22A16.72,16.72,0,0,1,549.37,377c8.13-4.12,16.68-3.88,25.36-2.48a27.62,27.62,0,0,1,14.82,6.84c4.39,4.05,6.39,8.83,5.14,14.87a93.17,93.17,0,0,1-7,20.16c-1.34,2.93-1.31,3.18,1.9,3.87,10.85,2.37,21.4,5.56,31.1,11.12a49.67,49.67,0,0,1,12.13,9.13c5.94,6.45,4.79,14.78-2.7,19.27A25,25,0,0,1,619.47,463c-11.77,1.12-23.24-1.58-34.85-2.49-3.37-.26-6.76-.43-10.13-.65a2.88,2.88,0,0,0-3.24,2.15c-3,8.21-6,16.4-9,24.6-.27.74-.91,1.64-.36,2.26.75.85,1.67,0,2.44-.33,11.48-4.51,23.3-5.52,35.12-2.1,9.07,2.61,14.94,9,17.62,18.19a6.42,6.42,0,0,1-1.36,6.22c-2.69,3.35-4.74,6.95-2.69,11.52.69,1.53-.5,2.74-1.29,3.88a51,51,0,0,1-22.6,18.21,130.78,130.78,0,0,1-20.45,7.07,12.11,12.11,0,0,1-5.28.5,5.51,5.51,0,0,1-4.62-4.88c-.17-2.36,1.18-4.12,4-5,2.55-.76,5.21-1.23,7.72-2.11a60,60,0,0,0,26.59-18.17,18.69,18.69,0,0,0,3.54-6.25c1.72-5.24-.09-9.34-5-11.7-5.23-2.48-10.66-2.54-16.22-1.65A69.94,69.94,0,0,0,549.05,515a51.23,51.23,0,0,1-8,5.29c-6.45,3-11.35.66-12.7-6.37A73,73,0,0,1,527.53,505.17Z" transform="translate(-284.94 -208)"/></g><g id="ゃ"><path class="cls-1" d="M666,555.41a11.09,11.09,0,0,1-6.63-2.18c-3.57-2.68-6-6.08-8.3-9.38-.74-1.05-1.44-2-2.18-3a182.63,182.63,0,0,1-13.71-21.73,62.63,62.63,0,0,1-12.7,8.91,10.18,10.18,0,0,1-4.71,1.14,9.15,9.15,0,0,1-7.25-3.4c-2.24-2.83-2.78-6.85-1.58-11.93l.08-.35.15-.33c2.72-6.13,9.07-10.44,11.45-12.06l.41-.27,1.54-1.11c.68-.5,1.38-1,2.12-1.51-1.94-3.09-3.88-7.16-3.41-12.17a19.08,19.08,0,0,1,1.28-5.53c1.78-4.24,5.45-6.88,9.56-6.88a10.7,10.7,0,0,1,8.29,4.2,23.64,23.64,0,0,1,4.92,9.86c1.88-.63,3.92-1.26,6.28-1.95a86,86,0,0,1,.55-12.58c1-7.61,5.8-12,13.22-12l.92,0c7.2.34,12,5.49,12.21,13.13a22.64,22.64,0,0,1-.5,5.19c.83,0,1.69-.07,2.56-.07a29.79,29.79,0,0,1,6.37.62c8.56,1.85,15.75,10.57,16,19.46.29,9.18-3.46,16.63-11.14,22.17A64.39,64.39,0,0,1,675,530.6a13.12,13.12,0,0,1-4.27.78h-.14a25.22,25.22,0,0,1,4,6.48,30.11,30.11,0,0,1,1.38,3.69c1.38,4.76.12,9.13-3.35,11.68A11.47,11.47,0,0,1,666,555.41Zm-5.45-33.54c.54.53,1.1,1,1.66,1.55a11.25,11.25,0,0,1,0-2.32A8.5,8.5,0,0,1,660.51,521.87Zm9.39-20.94a9.33,9.33,0,0,0-.26.9c-.54,2.14-1,4.36-1.53,6.5-.37,1.61-.75,3.28-1.14,4.92a9.87,9.87,0,0,1,2-.92,25.83,25.83,0,0,0,3.92-1.65,31.74,31.74,0,0,0,8.55-6.69,13.75,13.75,0,0,0,1.78-2.29c.11-.18.19-.34.25-.46-.14-.08-.32-.18-.55-.29a12.8,12.8,0,0,0-5.6-1.21A30.31,30.31,0,0,0,669.9,500.93Zm-20.12,7,.54,1c.11-.45.21-.9.31-1.36Z" transform="translate(-284.94 -208)"/><path class="cls-4" d="M679,484.78c1.94.11,4.44-.25,6.91.36,9.13,2.24,14.44,12.47,10.82,22.06A23.37,23.37,0,0,1,686.74,519,72.51,72.51,0,0,1,674,525.7c-3,1.11-5.47.76-6-1.3-.78-3.12-.69-6.13,2.9-7.29,6.34-2,11.23-6.06,15.53-10.93a10.43,10.43,0,0,0,1.83-2.94c1.23-2.93.62-5-2.25-6.45-4-2-8.18-3-12.66-1.75a3.87,3.87,0,0,1-1,.25c-7.13-.19-7.49,3.45-8.75,9.2-.72,3.31-1.53,6.59-2.34,9.87a3.33,3.33,0,0,1-6.54-1.27c.46-2.54,1.14-5,1.68-7.56a22.27,22.27,0,0,0,.55-3.43c.08-1.74-.88-2.66-2.52-2a63.07,63.07,0,0,0-9.61,4.66c-1.35.89-1.42,1.69-.72,3.08a62.52,62.52,0,0,0,16.23,20.57c4.15,3.42,8,7.11,10.11,12.24,1.66,4,1.38,7-.95,8.5-2.74,1.8-6.82,1.14-9.31-2.06-4.36-5.62-9-11-12.68-17.18-3.27-5.52-6.76-10.92-9.59-16.69-.9-1.83-1.81-1.41-3.11-.44-4,3-7.33,6.82-11.88,9-.48.24-.94.51-1.42.76-2.06,1.07-4.14,1.87-6.19,0-1.6-1.43-2-4.59-1-7,1.44-3.5,4.26-5.89,6.87-8.42a49.88,49.88,0,0,1,7.07-5.26c3.42-2.29,3.44-2.33,1.29-5.8-2.34-3.76-3.79-7.66-2.55-12.17.67-2.48,1.86-4.67,4.5-5.1,2.48-.41,4.42,1,5.81,3.08a18.77,18.77,0,0,1,3.64,9.64c.12,2.53,1.09,2.74,3.23,1.92a73.78,73.78,0,0,1,9.91-3.19c2.53-.57,3.3-1.91,2.87-4.16-.76-4-.1-8,.17-12s2.39-6.72,5.9-7.72a8,8,0,0,1,9,2.94c2.15,3.14,1.52,6.63.83,10.08-.35,1.76-2.14,3.83-.92,5.1.86.89,3.37.17,5.15.17Z" transform="translate(-284.94 -208)"/></g><g id="ま"><path class="cls-1" d="M721,499.41a36.43,36.43,0,0,1-5.18-.38c-8.26-1.19-18.6-3.73-25.4-12.91-5.55-7.49-7.22-16.33-5.11-27,2.62-13.31,10.21-23.32,22.55-29.77a77.59,77.59,0,0,1,16.4-6.36c-3.17.28-6.38.42-9.57.42-1,0-2,0-3,0a15.14,15.14,0,0,1-10.19-4.49,11.58,11.58,0,0,1-2.79-12.45c2.83-8,9-12.86,17.78-14.11A140.3,140.3,0,0,1,736.35,391h9.39c-.43-3.73-.86-7.56-1.22-11.37-7.6,1.24-15.66,2.54-23.62,3.61l-2.13.29a106.32,106.32,0,0,1-14.57,1.32c-.8,0-1.59,0-2.35-.05-5.76-.26-10.4-1.78-14.19-4.63A16.16,16.16,0,0,1,681,367.76a18.07,18.07,0,0,1,6.39-14.19,27.9,27.9,0,0,1,15-6.76,207.57,207.57,0,0,1,28-1.71c1.73,0,3.54,0,5.38,0h.24l1.23,0c0-.4,0-.84,0-1.25v-.15c-.22-9.87,1.82-17.39,6.41-23.66,3.62-4.94,8.46-7.55,14-7.55a18.49,18.49,0,0,1,3.94.43c6.58,1.4,10.78,6.11,12.48,14a72.91,72.91,0,0,1,1.16,18.14c9,.47,19.28,1.37,29.07,5.6,3.82,1.65,7.78,3.68,10.91,7.29,4.51,5.2,5.68,11.11,3.39,17.07s-7.18,9-14.6,9.24h-.69c-4.77,0-9-1.36-13.13-2.67-1.78-.56-3.45-1.1-5.14-1.52-2.66-.66-5.19-1.21-7.65-1.66.4,3.21.76,6.29,1,8.9l2-.54c5-1.32,10.1-2.69,15.65-2.69h.52a31.62,31.62,0,0,1,9,1.26c6.46,2,10,6.77,9.75,13a14.4,14.4,0,0,1-11.13,12.91,197.07,197.07,0,0,1-23.72,3.45c-.36,0-.61.06-.78.09a2.33,2.33,0,0,0,0,.29c-.16,3.3-.57,6.56-1,9.73a114,114,0,0,1,17.76,2.75c8.77,2.14,18.86,5.3,27.14,12.49,6.08,5.28,7.57,12.6,4,19.57a13.89,13.89,0,0,1-12.11,7.3h0a12.47,12.47,0,0,1-2.38-.23,40,40,0,0,1-11.14-3.87c-8.11-4.3-17-6-26.36-7.79l-4.36-.84-.2,0a4.32,4.32,0,0,0-.19.41,87.46,87.46,0,0,1-20.4,31.13C741,494.94,731.32,499.41,721,499.41Zm19-49.89a53.47,53.47,0,0,0-13.4,3.77c-5.05,2-9.14,5.79-12.51,11.66l-.11.19.27-.08C723.42,462.46,731.86,457.38,740,449.52Zm8.16-30.92a93.13,93.13,0,0,0-10.24,2l-.72.16c2.43-.21,4.91-.31,7.42-.31,1.29,0,2.61,0,3.92.08l.49,0V420c0-.25,0-.5,0-.75s0-.47,0-.74ZM778.68,389m-34.3-10.66" transform="translate(-284.94 -208)"/><path class="cls-5" d="M823.24,450.41a11.72,11.72,0,0,0-4-6.15,40,40,0,0,0-12.7-7.28,108.84,108.84,0,0,0-30.28-6.28c-4.37-.32-4.34-.35-3.77-4.54.63-4.59,1.42-9.18,1.28-13.83-.07-2.32,1-3.2,3.16-3.36,2.31-.17,4.63-.38,6.92-.72,6.26-.91,12.53-1.8,18.77-2.88,3.74-.64,6.83-4.29,6.79-7.59,0-3.57-2.58-6.28-6.9-6.93-3.07-.47-6.17-1-9.31-.43a154.12,154.12,0,0,0-16.43,3.7c-3,.92-3.55.61-4-2.58-.69-5.48-1.3-11-2-16.46-.43-3.46.05-3.9,3.54-3.45,7.91,1,15.46,3.51,23.09,5.67a18.36,18.36,0,0,0,10,.37c4.22-1.15,6.42-4.47,6.12-8.83-.4-5.66-4.08-8.64-8.59-11-9.73-5.2-20.41-6.07-31.12-6.71-5.49-.33-5.33.76-4.74-5.52a52.53,52.53,0,0,0-1.44-19.1c-1.06-3.81-3.39-6.86-7.49-7.6a11.13,11.13,0,0,0-11,4.09,20.25,20.25,0,0,0-3.52,6.26,39.93,39.93,0,0,0-1.93,19c.4,3.1.09,3.52-3.06,3.26a157.06,157.06,0,0,0-22.44.18c-5.86.37-11.77.31-17.54,1.78A19.92,19.92,0,0,0,690,359.64c-5,5.91-3.35,13.59,3.6,17a22.06,22.06,0,0,0,6.11,1.86c6.57,1.09,13-.37,19.41-1.2,9.37-1.2,18.73-2.48,28-4.35,1.84-.37,2.8.07,3,2.16.67,6.29,1.45,12.58,2.28,18.85.28,2.14-.65,3-2.63,3-3.38,0-6.77,0-10.16,0a138.51,138.51,0,0,0-23.2,1.51c-5.73.95-9.84,3.95-11.79,9.59-1.15,3.35-.24,5.94,2.81,7.74a12.37,12.37,0,0,0,6.95,1.6A102.78,102.78,0,0,0,734.58,415c5.72-1.35,11.44-2.74,17.36-3.1,1.9-.11,2.72.36,3,2.35a43.45,43.45,0,0,1,0,10.13c-.19,1.95-1.12,2.68-3,2.52-.79-.07-1.6-.06-2.4-.13a67.32,67.32,0,0,0-34.17,5.63c-11.46,5-20.4,12.38-23.47,25.23-2.07,8.63-2,17,3.29,24.61,3.34,4.82,8.35,7,13.64,8.87,14.6,5.2,26.79.35,37.2-9.57,9.06-8.64,15.47-19.32,20-31,.78-2,2-2.66,4.08-2.61,3.33.08,6.52,1,9.74,1.67,8.88,1.9,17.82,3.67,25.9,8.19a22,22,0,0,0,8.57,2.89C820.31,461.27,824.59,456.27,823.24,450.41Zm-74.31-3.3a21.31,21.31,0,0,1-4.57,6.85c-7.83,7.34-16.55,13.23-26.85,16.55a15.92,15.92,0,0,1-5,.95c-4.2,0-6.22-2.7-4.76-6.83,2.83-8,8.61-13.46,16.19-16.89a55,55,0,0,1,16.17-4.47,22.45,22.45,0,0,1,7.17.52C749.36,444.21,749.73,445.37,748.93,447.11Z" transform="translate(-284.94 -208)"/></g><g id="ぜ"><path class="cls-1" d="M899.93,570.65a58.44,58.44,0,0,1-36.68-13.17A70.56,70.56,0,0,1,837.68,516a138.38,138.38,0,0,1-2.44-22.18c-2.82,1.37-5.65,2.81-8.4,4.22-2,1-4,2-6,3a60.48,60.48,0,0,1-19.11,5.52,12.74,12.74,0,0,1-11.19-4.07,14.72,14.72,0,0,1-3.81-11.09c1-13.38,10.29-19.15,20.15-23.4,5-2.14,10.09-3.91,15-5.62,2.63-.91,5.35-1.86,8-2.83a3.27,3.27,0,0,0,.63-.29,3.09,3.09,0,0,0,.13-.67l.33-3.13c.82-8,1.66-16.24,5.09-24.13,2.08-4.79,5.34-10.72,12.18-14.07a14.52,14.52,0,0,1,6.38-1.45,15,15,0,0,1,12.93,7.1,32.82,32.82,0,0,1,4.61,21.29,103.5,103.5,0,0,1,14.74-3.4c0-.3,0-.63-.05-.87l0-.27a36.3,36.3,0,0,1,3.3-17.74c.44-1,.86-1.95,1.3-3,2-4.65,4-9.46,8.13-13.45a16.83,16.83,0,0,1,11.69-5.11c5.69,0,10.84,3.36,13.76,9,3.15,6.07,6.6,14.1,6,23.25l6.66-.47c8-.57,13.78-1,15.25-1h6.8c2.59,0,10.62,2.23,11.63,2.68a27.58,27.58,0,0,1,13.88,12.7c3.84,7.37,1.94,14.55-5,18.73-7.27,4.41-13.62,6.46-19.95,6.46a28.65,28.65,0,0,1-9.83-1.76,26.76,26.76,0,0,0-9.21-1.49,78.84,78.84,0,0,0-11.76,1.2c-1.2.18-2.44.37-3.68.54l-.05.16c-1.74,5.36-3.1,11-4.41,16.45-1,4.23-2.07,8.6-3.31,12.89-1.64,5.66-4.62,10.57-7.8,15.51a10.73,10.73,0,0,1-9.33,5.05,14.12,14.12,0,0,1-3.36-.42c-3.14-.77-7.18-3-8.53-9.31-1-4.82-.52-9.34,0-13.71.07-.7.15-1.4.22-2.1.13-1.21.26-2.42.4-3.62a74,74,0,0,0,.71-14.53c-3.72,1-7.47,2-11.12,3.05-4,1.11-8.16,2.26-12.25,3.36a3.08,3.08,0,0,0-.43.15,1.65,1.65,0,0,0,0,.34c-.51,6.93-.77,15.11,1.18,23.3.26,1.1.47,2.19.68,3.24.14.69.27,1.38.42,2.07,2.17,10.08,16.51,20.36,28.41,20.36a17.5,17.5,0,0,0,5.52-.84A27.68,27.68,0,0,0,913,525.3a69.89,69.89,0,0,0,8.1-9.62c1.57-2.11,3.2-4.29,5-6.38A31.36,31.36,0,0,1,944,498.59a20.66,20.66,0,0,1,4.2-.44,19.4,19.4,0,0,1,14.9,7A20.61,20.61,0,0,1,967.48,522c-1.11,6.27-4.38,10.46-7.63,14.22A148.41,148.41,0,0,1,934,559.43a60.48,60.48,0,0,1-13.71,7.44A56.56,56.56,0,0,1,899.93,570.65Z" transform="translate(-284.94 -208)"/><path class="cls-6" d="M894.6,440c-.53-9.89,3.93-18.43,8.72-26.84a9.43,9.43,0,0,1,5.55-4.38c3.72-1.13,7.1.05,8.89,3.46,4,7.7,6.83,15.65,5,24.61-.85,4.11-.34,4.45,3.82,4.15a19.07,19.07,0,0,0,2.93-.21c2.68-.63,28.43-2.06,29.77-1.91,7.78.88,14.55,3.59,18.68,10.75,2.46,4.26,1.59,7.13-2.67,9.57-7.32,4.21-14.92,6.28-23.25,3.12-7.49-2.84-15.12-1.42-22.72-.57-2.39.27-4.76.65-7.14,1a3.93,3.93,0,0,0-3.55,3.4q-3.87,15.56-8,31.06c-1.27,4.78-4,9-6.41,13.19a4,4,0,0,1-4.28,2.12c-1.95-.37-2.75-1.91-3.11-3.63-1-4.62-.37-9.28.39-13.81a98.72,98.72,0,0,0,.49-25.81c-.2-2.06-1.54-1.9-2.92-1.58-4.6,1.08-9.2,2.12-13.76,3.35-6.11,1.65-12.17,3.5-18.26,5.19a4.34,4.34,0,0,0-3.5,3.85,75.88,75.88,0,0,0,4.08,39.66c1.38,3.66,4.09,6.29,6.81,8.82,7.09,6.59,15.21,11.16,25.14,11.8,8.53.55,15.65-2.65,21.89-8.23,5.29-4.74,9.34-10.52,13.55-16.16a24.67,24.67,0,0,1,14.65-9.62c6.23-1.44,12.37,1.86,14,8.05a14.86,14.86,0,0,1-2.92,14.08,150.13,150.13,0,0,1-26.54,24.34c-18.61,13.35-41.42,14.08-61.09-1-13-10-20.86-23.16-23.66-39.36a225.19,225.19,0,0,1-2.51-26.31c-.17-3.22-.33-3.22-3.51-2.26-7.57,2.3-14.21,6.59-21.28,9.95a63.64,63.64,0,0,1-16.34,4.84c-4.46.81-7.17-2.32-6.9-6.86.39-6.52,4.05-10.67,9.38-13.64,7.2-4,15.05-6.46,22.78-9.16,2.94-1,5.81-2.29,8.76-3.27,2.15-.72,2.71-2.12,2.84-4.24.59-9,1.5-18,4.71-26.47,1.42-3.77,3.47-7.24,6.9-9.65,4.22-3,9.19-1.87,11.58,2.7a24.73,24.73,0,0,1,2.57,17.1c-.6,2.78-1.09,5.59-1.68,8.38-.36,1.71.12,2.07,1.78,1.48a150.66,150.66,0,0,1,27.62-7.29c1.91-.29,2.83-1.27,2.73-3.24C894.54,443.06,894.6,441.63,894.6,440Z" transform="translate(-284.94 -208)"/><path class="cls-1" d="M940.84,448.68c-3.84,0-6.81-1.28-8.83-3.8-2.56-3.22-2.71-6.46-2.84-9.32,0-.53,0-1.07-.09-1.63l-.3-3.82c-.37-4.77-.75-9.7-1.16-14.54a16.28,16.28,0,0,0-1.06-5c-2-4.72-.49-9.29,4-11.94a22.62,22.62,0,0,1,11.66-3.08,26.55,26.55,0,0,1,2.8.15,11.17,11.17,0,0,1,8.92,6.17c.5.95.94,1.87,1.37,2.75l.38.8a19.14,19.14,0,0,1,1.42,4c1,4.56,2.88,12.86,3.37,17.21.15,1.35.34,2.54.51,3.59.55,3.31,1.06,6.44-1,9.94-2.77,4.61-9.92,7.35-13.79,8a32.58,32.58,0,0,1-5.31.56Z" transform="translate(-284.94 -208)"/><path class="cls-6" d="M941.93,402c3.3-.07,5.39,1.05,6.8,3.62,2.39,4.39,3.23,9.23,4.38,14,.95,4,1.83,8,2.61,12,.73,3.78-.27,5.87-3.5,7.89a26.62,26.62,0,0,1-9.5,3.44c-3.29.59-5.41-1-6.14-4.77a159.65,159.65,0,0,1-2.4-19.63c-.25-3.62,0-7.28-1.67-10.73-.92-2,.56-3.2,2.12-4C937,402.43,939.74,402.23,941.93,402Z" transform="translate(-284.94 -208)"/><path class="cls-1" d="M967.26,438.84a18.22,18.22,0,0,1-6.54-.84c-1.66-.67-4-2.72-5.88-8.52-.07-.19-.16-.42-.26-.7a57.42,57.42,0,0,1-3-10.94l0-.15c-.09-.62-.49-2.82-.87-5-.86-4.75-1.43-8-1.53-9.07-.59-6.14,2.06-9.7,8.09-10.9l.59-.11a7,7,0,0,0,1-.23,15.33,15.33,0,0,1,5.82-1.21c5.46,0,10.06,3.21,12.95,9a59,59,0,0,1,5.67,20.58c.64,6.66-4.38,14-11.94,17.46-.58.27-1.44.55-4.15.55Z" transform="translate(-284.94 -208)"/><path class="cls-6" d="M964.72,398.06c3.36-.4,5.23,1.75,6.72,4.3,3.2,5.49,4.38,11.68,5.42,17.81.93,5.44-4.55,11.85-10.1,12.55-2.28.29-3.7-.71-4.6-2.78-2.29-5.29-3-11-4.3-16.53-.7-3-1.41-6.07-2-9.13-.72-3.52-.11-4.35,3.34-5.28A15.5,15.5,0,0,1,964.72,398.06Z" transform="translate(-284.94 -208)"/></g></g></svg>