<svg xmlns="http://www.w3.org/2000/svg" viewBox="0 0 1280 403.29"><defs><style>.cls-1{fill:#8c6239;}.cls-2{fill:#006837;}.cls-3{fill:#fff;}.cls-4{fill:#ff4c4d;}.cls-5{fill:#0bbfc7;}.cls-6{fill:#fbb03b;}.cls-7{fill:#bf46e1;}.cls-8{fill:#1ad76d;}</style></defs><title>gochamaze-logo-wide2</title><g id="frame"><rect class="cls-1" width="1280" height="403.29"/></g><g id="background"><rect id="background-2" data-name="background" class="cls-2" x="15.92" y="15.92" width="1248.16" height="371.45"/></g><g id="main"><g id="ごちゃまぜ"><g id="ご"><path class="cls-3" d="M1552.55,610.69a34.79,34.79,0,0,1-35-27.16c-1.33-5.58-2.8-12.9-2.34-20.1-1.15-17.37,7.79-29.84,14.63-37.72,9.76-11.25,22.54-19.68,39.08-25.78a113.86,113.86,0,0,1,28.78-6.45,113.65,113.65,0,0,0,13.37-2.4c1.66-.36,3.38-.74,5.09-1.08a56.81,56.81,0,0,1,11.29-1.13,65.37,65.37,0,0,1,17.13,2.4c19.32,5.46,27.76,15.39,32.42,22.39l11.16,16.74.11.26a27.38,27.38,0,0,1,2.63,11.66v.29l-.07.28c-2.58,11.49-9.27,21.32-21,30.94a105.33,105.33,0,0,1-11.38,8.23,31.41,31.41,0,0,1-11.65,4.06,13.9,13.9,0,0,1-2.37.21c-7.6,0-11.74-6.44-12.46-12.82a10.79,10.79,0,0,1-.06-1.49,23.76,23.76,0,0,0-3.53,2c-9.42,6.71-19.23,13.14-28.71,19.35l-5,3.27c-11.3,7.41-22.54,11.81-34.39,13.46A55.65,55.65,0,0,1,1552.55,610.69Z" transform="translate(-1303.32 -410.64)"/><path class="cls-4" d="M1520.87,563.52c-.78-14,5.25-24.77,13.79-34.55a80.42,80.42,0,0,1,28.72-20.58c10.84-4.8,22.1-8.18,34-9.05,6.88-.51,13.57-2.3,20.31-3.69a54.56,54.56,0,0,1,23.52.68c.35.08.7.2,1.06.28,3.36.75,18.07,11.45,21.63,14,3,2,9.14,9.14,11.17,12.19,1.29,1.94,7.11,14.22,8.12,16.25.51,1,1.52,2.54,1,4.54-.16.6.09,1,0,1.43a37.67,37.67,0,0,1-7.07,13.31,88.58,88.58,0,0,1-14.19,14.06c-4.8,3.69-10,6.86-16.22,7.92-5.46.92-9.49-2.74-9-8.34a49.69,49.69,0,0,1,.87-6.53c.45-2.06,0-2.39-2-1.68a72.38,72.38,0,0,0-16.92,9.22c-10.75,7.53-21.62,14.89-32.86,21.68a69.42,69.42,0,0,1-33.49,10.19,29.64,29.64,0,0,1-30.59-24.54C1521.66,574.59,1520.54,568.91,1520.87,563.52Z" transform="translate(-1303.32 -410.64)"/><path class="cls-3" d="M1618.53,663.76l-1,0h-.28c-2-.26-4.1-.37-6.28-.48-5.28-.27-10.74-.55-16-3.06-6.54-3.08-14.36-7.88-16.78-17.66-1.82-7.37-1.24-14.2,1.7-19.77s8.2-9.92,15.47-12.58a9.41,9.41,0,0,1,3.25-.6c4.46,0,7.78,3.35,8.07,8.14a2.62,2.62,0,0,1,0,.28h0c.28,5.68,3.47,9.08,8.53,9.08a13.83,13.83,0,0,0,3.11-.38,38,38,0,0,0,16.41-8.11l1.35-1.16c4.79-4.12,9.74-8.38,15.82-11.3a22.88,22.88,0,0,1,9.89-2.48,18.36,18.36,0,0,1,12.18,4.79c7.12,6.13,9.75,14.86,7,23.35a23.74,23.74,0,0,1-6.43,10.11,62.52,62.52,0,0,1-32.38,16.33,92.38,92.38,0,0,0-13.29,3.71,31.47,31.47,0,0,1-10.31,1.84Z" transform="translate(-1303.32 -410.64)"/><path class="cls-4" d="M1618,658.09c-6.51-1.29-13.39-.1-19.68-2.87-5.59-2.46-10.88-5.48-13.4-11.4-4.91-11.56-.83-23.53,12.31-28.13,2.22-.78,3.47.19,3.68,2.57.13,1.54.22,3.08.47,4.59,1.05,6.1,5.73,8.06,10.89,9.39s10.08-.52,14.91-2.39c6.22-2.41,11.15-6.65,16.09-10.92,4.17-3.62,8.56-6.92,13.86-8.74a12.48,12.48,0,0,1,13.42,2.88c7.91,7.35,7.47,17.94-.51,25.21-9.42,8.6-20.61,12.91-32.89,15.07-4.49.79-8.65,2.75-13,3.89A27.35,27.35,0,0,1,1618,658.09Z" transform="translate(-1303.32 -410.64)"/><path class="cls-3" d="M1672.46,551.63a9.11,9.11,0,0,1-1-.06c-5.77-.73-10.28-6.25-13.78-16.88-2-6.12-6.21-13.23-9.58-19-1.91-3.24-3.55-6-4.51-8.15a15.15,15.15,0,0,1-.64-9.91c1.11-3.39,4.38-5.63,6.33-7l.74-.52a50.16,50.16,0,0,1,12.44-7,23.27,23.27,0,0,1,8-1.71c5.93,0,9.66,3.79,12.52,7.49a154.07,154.07,0,0,1,15.1,22.81c3.7,7.1,4.26,13.57,1.73,19.81a23,23,0,0,1-7.9,9.75c-.32.25-.87.61-1.88,1.28-1.75,1.15-4.38,2.88-6,4.18l-.08.06c-.64.49-6.45,4.74-11.4,4.74Z" transform="translate(-1303.32 -410.64)"/><path class="cls-4" d="M1695.39,523.23c0,5.48-2,9.3-5.54,12.25a82.15,82.15,0,0,1-13.63,9.25c-4.21,2.24-6.88,1.43-9-2.87-2.73-5.6-5.12-11.36-7.84-17-3.22-6.66-6.61-13.24-10-19.84a9,9,0,0,1-1-5.1,3.65,3.65,0,0,1,1.48-2.84c5.59-3.6,10.85-7.77,17.5-9.47,3.32-.85,6.36-.39,8.47,2.14,7.44,8.89,14.44,18.1,18.78,29A13.33,13.33,0,0,1,1695.39,523.23Z" transform="translate(-1303.32 -410.64)"/><path class="cls-3" d="M1707.47,526.42a11.41,11.41,0,0,1-7.78-3.22,25.86,25.86,0,0,1-5-7.35c-.3-.58-.6-1.16-.92-1.73a197.91,197.91,0,0,0-19.37-29.67,12.92,12.92,0,0,1-.23-15.26,35,35,0,0,1,9.8-9.56,11,11,0,0,1,6.12-1.92,12.78,12.78,0,0,1,7.71,2.87c7.07,5.33,13,11.77,17.94,17.39a54.48,54.48,0,0,1,9.15,13.72,18.48,18.48,0,0,1,1.79,7.61c.11,9.71-4.2,18.09-12.82,24.88a10.28,10.28,0,0,1-6.39,2.24Z" transform="translate(-1303.32 -410.64)"/><path class="cls-4" d="M1720.78,499.63c.15,8.53-4,14.69-10.14,19.72-2.7,2.2-5.66,1.57-8-1.5s-3.67-6.66-5.62-9.93c-5.58-9.38-11.18-18.73-18.17-27.17-1.8-2.17-1.9-5.23,0-8.18a26.68,26.68,0,0,1,7.88-7.85c2.9-1.88,4.72-1.65,7.64.53,6.26,4.66,11.55,10.32,16.68,16.16a49.81,49.81,0,0,1,8.19,11.88C1720.26,495.41,1721,497.48,1720.78,499.63Z" transform="translate(-1303.32 -410.64)"/></g><g id="ちゃ"><path class="cls-3" d="M1744.86,682.51a10.26,10.26,0,0,1-7.62-3.35,9.12,9.12,0,0,1-2.39-8.13,9,9,0,0,1,5.29-6.48,28.88,28.88,0,0,1,5.62-1.8c7.59-1.64,14.38-5.86,21.36-13.29a11.73,11.73,0,0,0,2.22-3.88c.69-1.8.36-2.32-1.06-3.05a13.13,13.13,0,0,0-6.14-1.39,20.51,20.51,0,0,0-2.52.17c-8.54,1-16.7,4.37-24.95,10.2l-.89.63a29.49,29.49,0,0,1-7.86,4.46,14.18,14.18,0,0,1-4.45.75c-5.09,0-9.23-3.15-11.07-8.44a27.43,27.43,0,0,1-1.17-8.93c0-.73,0-1.42,0-2.08v-.09c-.14-10,2.19-19.19,4.44-28.09l.46-1.82c.3-1.21.65-2.39,1-3.53l.3-1-1.69-.34c-5.35-1.07-10.87-2.19-16.27-3.68a39,39,0,0,1-12.82-5.71A16.75,16.75,0,0,1,1685,566c5.16-3.5,11.42-5.65,19.14-6.57l.91-.1c3.69-.43,8.05-.91,12.54-1.15a69.29,69.29,0,0,1,1.12-11.84l.2-1.33c1.74-11.54,8.92-18.19,21.33-19.77a44.11,44.11,0,0,1,5.4-.34,46.21,46.21,0,0,1,13.54,2.08,25.76,25.76,0,0,1,11.93,7.93,16.85,16.85,0,0,1,4,14.7,67,67,0,0,1-4.79,14.84,87.5,87.5,0,0,1,26.08,10.38,37.7,37.7,0,0,1,8.46,6.67,15.23,15.23,0,0,1-2.89,24,23.85,23.85,0,0,1-10.17,3.53,46.52,46.52,0,0,1-6.51.43,107.37,107.37,0,0,1-13.69-1.16c-2.37-.31-4.82-.62-7.2-.84l-2.41-.23c-2.42-.24-4.71-.47-7-.47h-.26c-1.1,3.16-2.27,6.35-3.39,9.43-.14.39-.28.78-.43,1.18a49.38,49.38,0,0,1,10.94-1.22,54.22,54.22,0,0,1,9.48.85c10.3,1.81,17.57,8,21.62,18.41,1.87,4.45.84,9.57.28,12.32l-.08.42,0,.11a26.76,26.76,0,0,1-1.78,5.21,45.21,45.21,0,0,1-4.43,6.92,47.61,47.61,0,0,1-20.2,15.68l-.14.06c-6.28,2.48-12.77,5-19.76,6.2A12.53,12.53,0,0,1,1744.86,682.51Z" transform="translate(-1303.32 -410.64)"/><path class="cls-5" d="M1714.55,638.57c0-9.94,2-18.22,4-26.48.86-3.48,1.92-6.91,2.89-10.37.64-2.29.45-2.6-2-3a220.61,220.61,0,0,1-23.56-5.37,26.46,26.46,0,0,1-7.87-3.86,11.59,11.59,0,0,1,.41-19.34,36.6,36.6,0,0,1,14-5.08,152.9,152.9,0,0,1,17.73-1.63c2.11-.13,2.81-.92,2.77-2.95a66.43,66.43,0,0,1,2.11-18.07,13.76,13.76,0,0,1,7.5-9.24c6.68-3.38,13.71-3.19,20.85-2a22.72,22.72,0,0,1,12.18,5.63c3.62,3.33,5.26,7.26,4.24,12.23a77,77,0,0,1-5.77,16.57c-1.11,2.41-1.07,2.61,1.56,3.19,8.92,1.94,17.59,4.56,25.57,9.14a40.64,40.64,0,0,1,10,7.5c4.88,5.3,3.93,12.16-2.23,15.84a20.39,20.39,0,0,1-8.75,2.65c-9.67.92-19.1-1.3-28.65-2.05-2.77-.21-5.55-.35-8.33-.53a2.37,2.37,0,0,0-2.66,1.77c-2.45,6.75-5,13.48-7.42,20.23-.22.6-.74,1.34-.29,1.85.62.7,1.37,0,2-.27,9.45-3.71,19.16-4.54,28.88-1.73,7.45,2.15,12.29,7.44,14.49,15a5.28,5.28,0,0,1-1.12,5.11c-2.21,2.76-3.9,5.72-2.21,9.48.56,1.25-.41,2.25-1.07,3.18a42,42,0,0,1-18.57,15,107.51,107.51,0,0,1-16.82,5.81,9.81,9.81,0,0,1-4.34.41,4.54,4.54,0,0,1-3.8-4c-.14-1.95,1-3.39,3.28-4.08,2.1-.63,4.28-1,6.35-1.74a49.31,49.31,0,0,0,21.87-14.93,15.59,15.59,0,0,0,2.9-5.15c1.42-4.3-.07-7.68-4.14-9.61-4.3-2-8.77-2.09-13.34-1.36a57.43,57.43,0,0,0-24.9,10.46,42.27,42.27,0,0,1-6.6,4.35c-5.3,2.49-9.33.54-10.44-5.24A58.29,58.29,0,0,1,1714.55,638.57Z" transform="translate(-1303.32 -410.64)"/></g><g id="ゃ"><path class="cls-3" d="M1828.36,679.87a9.16,9.16,0,0,1-5.46-1.79,32.58,32.58,0,0,1-6.81-7.71c-.62-.87-1.19-1.68-1.8-2.48A148.74,148.74,0,0,1,1803,650a51.38,51.38,0,0,1-10.44,7.33,8.51,8.51,0,0,1-3.87.94,7.51,7.51,0,0,1-6-2.8c-1.85-2.33-2.29-5.63-1.3-9.81l.06-.29.12-.27c2.24-5,7.46-8.58,9.42-9.91l.33-.23c.43-.29.85-.6,1.27-.91s1.14-.83,1.75-1.24a15.73,15.73,0,0,1-2.8-10,15.3,15.3,0,0,1,1.05-4.55,8.63,8.63,0,0,1,7.86-5.66,8.8,8.8,0,0,1,6.81,3.45,19.5,19.5,0,0,1,4,8.12c1.54-.52,3.22-1.05,5.16-1.61a71.57,71.57,0,0,1,.45-10.35c.81-6.25,4.77-9.84,10.87-9.84h.75c5.92.28,9.86,4.51,10.05,10.8a18.66,18.66,0,0,1-.42,4.26c.69,0,1.4-.05,2.11-.05a24.9,24.9,0,0,1,5.24.51c7,1.52,12.94,8.69,13.17,16,.25,7.55-2.84,13.68-9.16,18.23a52.58,52.58,0,0,1-13.78,7.32,10.67,10.67,0,0,1-3.51.64h-.11a20.92,20.92,0,0,1,3.33,5.33,25,25,0,0,1,1.14,3c1.13,3.91.1,7.5-2.76,9.59A9.38,9.38,0,0,1,1828.36,679.87Zm-4.48-27.57c.44.43.9.85,1.37,1.27a8.72,8.72,0,0,1,0-1.91A7,7,0,0,1,1823.88,652.3Zm7.72-17.22c-.06.17-.13.41-.21.73-.45,1.77-.86,3.59-1.26,5.35-.3,1.33-.62,2.69-.94,4.05a8,8,0,0,1,1.68-.76,21.51,21.51,0,0,0,3.22-1.35,26.3,26.3,0,0,0,7-5.5,11.11,11.11,0,0,0,1.46-1.89c.09-.15.16-.28.21-.38a4.28,4.28,0,0,0-.45-.24,10.62,10.62,0,0,0-4.61-1A24.81,24.81,0,0,0,1831.6,635.08Zm-16.54,5.77c.14.27.29.53.44.79.09-.37.17-.75.26-1.12Z" transform="translate(-1303.32 -410.64)"/><path class="cls-6" d="M1839,621.8c1.59.09,3.65-.21,5.68.29,7.51,1.85,11.88,10.26,8.9,18.14a19.24,19.24,0,0,1-8.18,9.74,58.85,58.85,0,0,1-10.5,5.47c-2.44.92-4.5.62-4.92-1.07-.64-2.56-.57-5,2.39-6,5.21-1.67,9.22-5,12.77-9a8.71,8.71,0,0,0,1.5-2.41c1-2.41.51-4.11-1.85-5.31-3.28-1.67-6.73-2.48-10.41-1.44a2.94,2.94,0,0,1-.85.21c-5.86-.16-6.16,2.83-7.19,7.57-.6,2.71-1.26,5.41-1.92,8.11a2.55,2.55,0,0,1-3.31,2.08,2.51,2.51,0,0,1-2.08-3.12c.38-2.09.94-4.15,1.39-6.22a18,18,0,0,0,.45-2.82c.07-1.43-.73-2.19-2.07-1.6a50.92,50.92,0,0,0-7.9,3.83c-1.11.73-1.17,1.38-.59,2.53a51.09,51.09,0,0,0,13.34,16.91c3.41,2.82,6.57,5.85,8.32,10.07,1.36,3.28,1.13,5.73-.79,7a5.8,5.8,0,0,1-7.65-1.7c-3.59-4.62-7.42-9.07-10.43-14.13-2.69-4.53-5.55-9-7.88-13.72-.74-1.5-1.49-1.15-2.56-.36-3.29,2.44-6,5.61-9.77,7.44l-1.16.62c-1.7.88-3.41,1.54-5.09,0-1.32-1.18-1.66-3.78-.84-5.76,1.19-2.88,3.5-4.85,5.66-6.93a41.1,41.1,0,0,1,5.81-4.32c2.81-1.88,2.82-1.92,1-4.77-1.92-3.09-3.11-6.29-2.09-10,.55-2,1.53-3.84,3.7-4.2s3.63.85,4.78,2.54a15.4,15.4,0,0,1,3,7.92c.1,2.08.89,2.25,2.65,1.58a60.86,60.86,0,0,1,8.15-2.62c2.08-.47,2.71-1.57,2.36-3.42-.62-3.31-.08-6.58.14-9.86s2-5.53,4.85-6.35a6.57,6.57,0,0,1,7.44,2.42c1.77,2.58,1.25,5.45.69,8.28-.29,1.45-1.76,3.15-.76,4.2.7.73,2.77.14,4.23.14Z" transform="translate(-1303.32 -410.64)"/></g><g id="ま"><path class="cls-3" d="M1873.61,633.83a30.86,30.86,0,0,1-4.26-.31c-6.78-1-15.29-3.07-20.88-10.62-4.56-6.16-5.93-13.43-4.2-22.22,2.15-10.94,8.39-19.18,18.54-24.48a64.25,64.25,0,0,1,13.48-5.23c-2.61.23-5.25.34-7.87.34l-2.48,0a12.46,12.46,0,0,1-8.38-3.69,9.51,9.51,0,0,1-2.29-10.23c2.33-6.57,7.38-10.58,14.62-11.61a116.65,116.65,0,0,1,16.34-1H1894c-.36-3.07-.72-6.22-1-9.35-6.25,1-12.88,2.09-19.42,3l-1.75.24a88.16,88.16,0,0,1-12,1.08c-.65,0-1.3,0-1.93,0a20.29,20.29,0,0,1-11.67-3.8,13.3,13.3,0,0,1-5.46-10.23,14.9,14.9,0,0,1,5.25-11.67,23,23,0,0,1,12.35-5.56,171.52,171.52,0,0,1,23-1.4l4.42,0H1887c0-.33,0-.68,0-1v-.12c-.18-8.12,1.5-14.3,5.27-19.46,3-4.06,7-6.21,11.52-6.21a15.89,15.89,0,0,1,3.24.35c5.41,1.16,8.86,5,10.26,11.51a60.1,60.1,0,0,1,1,14.91c7.37.39,15.85,1.13,23.9,4.61a23.72,23.72,0,0,1,9,6c3.71,4.28,4.67,9.13,2.79,14s-5.91,7.43-12,7.6h-.56c-3.93,0-7.42-1.11-10.8-2.19-1.46-.47-2.84-.91-4.23-1.25-2.18-.54-4.26-1-6.28-1.37.33,2.64.62,5.17.86,7.32l1.67-.44c4.08-1.09,8.3-2.22,12.86-2.22h.43a25.68,25.68,0,0,1,7.41,1c5.31,1.67,8.24,5.56,8,10.67a11.85,11.85,0,0,1-9.15,10.61,163.48,163.48,0,0,1-19.51,2.84,4.72,4.72,0,0,0-.64.08c0,.06,0,.14,0,.23-.12,2.72-.47,5.4-.82,8a94.32,94.32,0,0,1,14.6,2.25c7.22,1.76,15.51,4.36,22.32,10.27,5,4.35,6.22,10.36,3.27,16.09a11.43,11.43,0,0,1-10,6h0a10.67,10.67,0,0,1-2-.19,33,33,0,0,1-9.15-3.18c-6.67-3.54-14-4.93-21.67-6.41-1.2-.23-2.39-.45-3.58-.69l-.17,0a2.23,2.23,0,0,0-.16.34,72,72,0,0,1-16.77,25.59C1890,630.15,1882.1,633.83,1873.61,633.83Zm15.63-41a44,44,0,0,0-11,3.1c-4.14,1.63-7.51,4.76-10.28,9.58l-.09.16.22-.06C1875.6,603.45,1882.54,599.27,1889.24,592.81Zm6.7-25.42a75.94,75.94,0,0,0-8.42,1.62l-.59.14c2-.17,4-.26,6.11-.26,1.06,0,2.14,0,3.22.07l.4,0v-.45c0-.21,0-.41,0-.62s0-.38,0-.6ZM1921,543m-28.2-8.76" transform="translate(-1303.32 -410.64)"/><path class="cls-7" d="M1957.67,593.54a9.57,9.57,0,0,0-3.31-5,32.78,32.78,0,0,0-10.44-6,89.44,89.44,0,0,0-24.9-5.16c-3.59-.26-3.56-.3-3.1-3.73a67.94,67.94,0,0,0,1-11.38c0-1.91.85-2.63,2.6-2.76,1.9-.14,3.8-.31,5.69-.59,5.15-.75,10.3-1.48,15.43-2.37,3.08-.53,5.62-3.53,5.59-6.24,0-2.93-2.12-5.16-5.68-5.7a22.59,22.59,0,0,0-7.65-.35,127.38,127.38,0,0,0-13.51,3c-2.5.76-2.92.51-3.25-2.12-.58-4.51-1.07-9-1.64-13.54-.36-2.84,0-3.2,2.91-2.83,6.5.84,12.71,2.89,19,4.66a15,15,0,0,0,8.24.3,6.55,6.55,0,0,0,5-7.26c-.33-4.64-3.35-7.09-7.06-9.07-8-4.27-16.78-5-25.58-5.52-4.52-.27-4.39.63-3.9-4.54a43.05,43.05,0,0,0-1.19-15.7c-.87-3.13-2.78-5.64-6.16-6.25a9.13,9.13,0,0,0-9,3.36,16.46,16.46,0,0,0-2.89,5.15,32.92,32.92,0,0,0-1.6,15.59c.33,2.55.08,2.89-2.51,2.68a129.09,129.09,0,0,0-18.45.15c-4.82.3-9.67.26-14.42,1.46a16.41,16.41,0,0,0-8.77,5.13c-4.13,4.86-2.76,11.18,3,14a18.23,18.23,0,0,0,5,1.52c5.41.9,10.67-.3,16-1,7.7-1,15.4-2,23-3.58,1.52-.3,2.31.06,2.49,1.77.54,5.18,1.19,10.35,1.87,15.5.23,1.77-.54,2.49-2.16,2.51-2.79,0-5.57,0-8.36,0a113.8,113.8,0,0,0-19.07,1.24c-4.71.78-8.09,3.25-9.69,7.89a4.85,4.85,0,0,0,2.31,6.37,10.29,10.29,0,0,0,5.71,1.31,84.84,84.84,0,0,0,16.57-2,83.83,83.83,0,0,1,14.27-2.55c1.56-.09,2.23.3,2.45,1.94a36.18,36.18,0,0,1,0,8.32c-.16,1.61-.92,2.2-2.44,2.07-.66,0-1.32,0-2-.1a55.47,55.47,0,0,0-28.1,4.62c-9.41,4.15-16.77,10.19-19.29,20.75-1.7,7.1-1.64,14,2.7,20.23,2.75,4,6.87,5.74,11.22,7.29,12,4.28,22,.3,30.58-7.86,7.45-7.11,12.72-15.89,16.43-25.52a3,3,0,0,1,3.35-2.15,43.16,43.16,0,0,1,8,1.38c7.31,1.56,14.65,3,21.3,6.73a18.25,18.25,0,0,0,7,2.37A6.69,6.69,0,0,0,1957.67,593.54Zm-61.1-2.71a17.41,17.41,0,0,1-3.75,5.63c-6.44,6-13.61,10.87-22.08,13.61a13.23,13.23,0,0,1-4.08.78c-3.45,0-5.11-2.23-3.91-5.62,2.33-6.58,7.08-11.06,13.31-13.88a44.88,44.88,0,0,1,13.3-3.68,18.23,18.23,0,0,1,5.89.43C1896.93,588.44,1897.23,589.4,1896.57,590.83Z" transform="translate(-1303.32 -410.64)"/></g><g id="ぜ"><path class="cls-3" d="M2020.73,692.4a48.11,48.11,0,0,1-30.17-10.82,58.12,58.12,0,0,1-21-34.11,112.52,112.52,0,0,1-2-18.24c-2.32,1.12-4.65,2.32-6.91,3.47-1.61.82-3.27,1.67-4.91,2.49a49.67,49.67,0,0,1-15.72,4.54,10,10,0,0,1-1.44.1,10.49,10.49,0,0,1-7.76-3.45,12.09,12.09,0,0,1-3.13-9.12c.84-11,8.46-15.74,16.57-19.23,4.08-1.76,8.29-3.22,12.36-4.63,2.17-.75,4.4-1.52,6.57-2.32a3.55,3.55,0,0,0,.51-.23,2.87,2.87,0,0,0,.11-.56l.27-2.57c.67-6.57,1.37-13.35,4.18-19.84,1.71-3.94,4.39-8.82,10-11.57a12,12,0,0,1,5.24-1.19,12.32,12.32,0,0,1,10.63,5.84,27,27,0,0,1,3.8,17.5,86.71,86.71,0,0,1,12.12-2.8c0-.24,0-.51,0-.71l0-.22a29.83,29.83,0,0,1,2.72-14.59c.36-.8.71-1.6,1.07-2.45,1.64-3.82,3.33-7.78,6.68-11.05a13.84,13.84,0,0,1,9.62-4.21c4.68,0,8.9,2.76,11.31,7.4,2.59,5,5.42,11.59,4.91,19.11l5.47-.39c6.58-.47,11.33-.8,12.54-.8h5.59c2.13,0,8.73,1.84,9.57,2.21a22.6,22.6,0,0,1,11.4,10.44c3.16,6.06,1.59,12-4.08,15.4-6,3.62-11.2,5.31-16.41,5.31a23.59,23.59,0,0,1-8.08-1.44,21.78,21.78,0,0,0-7.57-1.23,64.62,64.62,0,0,0-9.66,1l-3,.44,0,.13c-1.44,4.41-2.55,9-3.63,13.53-.84,3.47-1.7,7.07-2.72,10.6-1.35,4.65-3.8,8.68-6.41,12.75a8.85,8.85,0,0,1-7.67,4.15,11.68,11.68,0,0,1-2.77-.35c-2.58-.63-5.9-2.47-7-7.65-.85-4-.43-7.68,0-11.28.06-.57.13-1.14.19-1.72.1-1,.21-2,.32-3a59.83,59.83,0,0,0,.58-11.94c-3,.82-6.14,1.68-9.13,2.51-3.3.91-6.71,1.85-10.08,2.76a2.15,2.15,0,0,0-.35.12,2.6,2.6,0,0,0,0,.28c-.42,5.7-.63,12.43,1,19.15.21.91.39,1.81.56,2.67.11.57.22,1.14.34,1.7,1.79,8.29,13.58,16.74,23.36,16.74a14.4,14.4,0,0,0,4.54-.69,22.87,22.87,0,0,0,8.47-5.23,58.29,58.29,0,0,0,6.65-7.91c1.3-1.74,2.64-3.54,4.1-5.25a25.8,25.8,0,0,1,14.72-8.81,17.66,17.66,0,0,1,3.46-.35,15.94,15.94,0,0,1,12.25,5.71,16.93,16.93,0,0,1,3.6,13.89c-.91,5.15-3.6,8.6-6.27,11.69a122,122,0,0,1-21.29,19.08,49.58,49.58,0,0,1-11.27,6.12A46.55,46.55,0,0,1,2020.73,692.4Z" transform="translate(-1303.32 -410.64)"/><path class="cls-8" d="M2016.35,585c-.44-8.13,3.22-15.16,7.16-22.07a7.76,7.76,0,0,1,4.57-3.6c3.05-.93,5.83,0,7.3,2.84,3.34,6.33,5.62,12.87,4.09,20.24-.7,3.38-.28,3.66,3.14,3.41a14.87,14.87,0,0,0,2.41-.18c2.21-.51,23.38-1.68,24.47-1.56,6.4.72,12,3,15.37,8.84,2,3.5,1.3,5.86-2.2,7.87-6,3.46-12.26,5.16-19.12,2.56-6.16-2.34-12.43-1.17-18.67-.47-2,.22-3.92.53-5.88.81a3.25,3.25,0,0,0-2.92,2.79q-3.18,12.8-6.55,25.54c-1,3.93-3.26,7.36-5.28,10.84a3.23,3.23,0,0,1-3.52,1.75c-1.6-.31-2.26-1.57-2.56-3-.8-3.8-.29-7.63.33-11.35a81.58,81.58,0,0,0,.4-21.23c-.16-1.68-1.27-1.56-2.4-1.29-3.78.89-7.57,1.74-11.31,2.76-5,1.35-10,2.87-15,4.26a3.57,3.57,0,0,0-2.87,3.17,62.39,62.39,0,0,0,3.35,32.6c1.14,3,3.36,5.18,5.6,7.25,5.83,5.42,12.5,9.18,20.67,9.7,7,.45,12.87-2.17,18-6.76,4.36-3.9,7.69-8.65,11.15-13.29a20.3,20.3,0,0,1,12-7.91,9.43,9.43,0,0,1,11.53,6.62,12.24,12.24,0,0,1-2.4,11.58,123.6,123.6,0,0,1-21.82,20c-15.3,11-34.05,11.58-50.23-.81a50.18,50.18,0,0,1-19.46-32.35,187,187,0,0,1-2-21.64c-.15-2.65-.28-2.64-2.89-1.85-6.23,1.89-11.69,5.41-17.5,8.18a52.75,52.75,0,0,1-13.43,4c-3.67.66-5.9-1.92-5.67-5.64.32-5.36,3.33-8.78,7.71-11.22,5.92-3.3,12.37-5.31,18.73-7.53,2.42-.85,4.77-1.89,7.2-2.69,1.77-.59,2.22-1.74,2.34-3.48.48-7.4,1.23-14.77,3.87-21.77a16.26,16.26,0,0,1,5.67-7.93c3.47-2.43,7.55-1.54,9.52,2.22a20.25,20.25,0,0,1,2.11,14.05c-.49,2.29-.89,4.6-1.38,6.89-.3,1.41.1,1.71,1.46,1.22a124.65,124.65,0,0,1,22.72-6,2.28,2.28,0,0,0,2.24-2.67C2016.3,587.49,2016.35,586.32,2016.35,585Z" transform="translate(-1303.32 -410.64)"/><path class="cls-3" d="M2054.36,592.12a8.8,8.8,0,0,1-7.26-3.13c-2.11-2.64-2.23-5.31-2.34-7.66,0-.43,0-.88-.07-1.34l-.25-3.14c-.3-3.92-.61-8-1-12a13.32,13.32,0,0,0-.87-4.14,7.42,7.42,0,0,1,3.28-9.82,18.57,18.57,0,0,1,9.59-2.53c.75,0,1.52,0,2.3.11a9.19,9.19,0,0,1,7.33,5.08c.41.78.78,1.53,1.12,2.26l.32.66a15.4,15.4,0,0,1,1.16,3.3c.87,3.74,2.38,10.57,2.78,14.15.12,1.11.28,2.08.42,2.94.45,2.73.87,5.3-.86,8.18-2.27,3.79-8.16,6-11.33,6.57a26.83,26.83,0,0,1-4.37.46Z" transform="translate(-1303.32 -410.64)"/><path class="cls-8" d="M2055.26,553.7c2.71-.06,4.43.86,5.58,3,2,3.6,2.67,7.59,3.6,11.49.79,3.28,1.52,6.57,2.15,9.88.6,3.11-.22,4.83-2.88,6.49a21.72,21.72,0,0,1-7.8,2.82c-2.71.49-4.45-.85-5-3.92a130.57,130.57,0,0,1-2-16.13c-.21-3,0-6-1.38-8.83-.76-1.61.46-2.63,1.75-3.32A16.75,16.75,0,0,1,2055.26,553.7Z" transform="translate(-1303.32 -410.64)"/><path class="cls-3" d="M2076.08,584a14.93,14.93,0,0,1-5.37-.69c-1.37-.55-3.25-2.23-4.84-7l-.22-.57a47.33,47.33,0,0,1-2.43-9l0-.12c-.08-.51-.4-2.32-.72-4.08-.7-3.9-1.17-6.54-1.26-7.45-.48-5.05,1.7-8,6.66-9l.48-.09a5.47,5.47,0,0,0,.86-.19,12.52,12.52,0,0,1,4.78-1c4.49,0,8.27,2.64,10.65,7.43a48.5,48.5,0,0,1,4.66,16.92c.53,5.48-3.6,11.52-9.82,14.36a7.71,7.71,0,0,1-3.41.45Z" transform="translate(-1303.32 -410.64)"/><path class="cls-8" d="M2074,550.5c2.76-.33,4.3,1.43,5.53,3.53,2.63,4.52,3.6,9.61,4.46,14.64.76,4.48-3.75,9.75-8.31,10.33a3.33,3.33,0,0,1-3.78-2.29c-1.89-4.35-2.49-9-3.54-13.59-.58-2.5-1.16-5-1.67-7.5-.59-2.9-.09-3.58,2.75-4.35A12.75,12.75,0,0,1,2074,550.5Z" transform="translate(-1303.32 -410.64)"/></g></g><g id="text"><g id="真の"><path id="真" class="cls-3" d="M1405.28,601a6.38,6.38,0,0,1-.67-1.19,2.55,2.55,0,0,0-1.27-.52c-1.38,0-2.75,0-4.09,0h-5.72l-2.09-.15q-3.95.38-8,.37a18,18,0,0,0-3.72.38,12.35,12.35,0,0,1-1.79.29,8.32,8.32,0,0,0-1.93-.07,9.82,9.82,0,0,1-3.42,0c-.65,0-1.27,0-1.86-.08a3.59,3.59,0,0,0-1.86-.22c-.25.1-.47.2-.67.3a2.73,2.73,0,0,1-.67-.08,5.45,5.45,0,0,1-.89.08,2.51,2.51,0,0,1-.67-.22,1.13,1.13,0,0,1-1-.08,2.06,2.06,0,0,1-.22-1.78q.23-3.8.22-7.74c0-2.72-.07-5.48-.07-8.25s.12-5.43.22-8.11a30.39,30.39,0,0,1-.15-3.05,2.19,2.19,0,0,1,2.24-1.71A46.17,46.17,0,0,1,1375,569a25.89,25.89,0,0,0,3.94,0,10.69,10.69,0,0,1,1.78.15,5,5,0,0,0,1.94.08,1.51,1.51,0,0,0,.59-1.79V565a1.63,1.63,0,0,0-2-1.26c-1.24.15-2.5.25-3.79.3q-4-.15-8.11-.08c-2.67.1-5.38.13-8.1.08a7.6,7.6,0,0,1-1.86-.08,5.17,5.17,0,0,0-1.49-.22,2.09,2.09,0,0,1-2.08-.22c-.25-.85.12-1.42,1.11-1.72a12.75,12.75,0,0,1,3.65-.37A4.22,4.22,0,0,0,1362,561a4,4,0,0,1,1.71-.23q1.93.08,4,0,3.93.3,7.88.45a28.71,28.71,0,0,0,3.5-.37,5.46,5.46,0,0,0,3.57,0,2.39,2.39,0,0,0,.44-2.46l-.15-1.78a2.48,2.48,0,0,1-.22-1.56,2.25,2.25,0,0,1,1.86-1,13.3,13.3,0,0,1,1.64-.37,6.77,6.77,0,0,0,2,0q3.27-.9,4.09,2.15c0,1.15-.13,2.24-.23,3.28a2.78,2.78,0,0,0,.23,1.71,2,2,0,0,0,1.93.74,51.5,51.5,0,0,0,6.25.22,9.83,9.83,0,0,0,2.9-.14,2.52,2.52,0,0,1,2.16.07v-.15a9.69,9.69,0,0,1,1.56.3l1.78-.15a4.26,4.26,0,0,0,1.79.07,4,4,0,0,0,.67-.22,3.62,3.62,0,0,0,1,0,7.23,7.23,0,0,0,1.78-.22,5.37,5.37,0,0,0,1.79,0,1.31,1.31,0,0,1,.44.07,1.07,1.07,0,0,0,.67-.07,3.39,3.39,0,0,1,.67.07,9.39,9.39,0,0,0,1.19-.07,7.8,7.8,0,0,1,3.72,0c1,.54,1.17,1.24.52,2.08a4.15,4.15,0,0,1-2.67.3,37.45,37.45,0,0,1-4,.22,31.79,31.79,0,0,1-3.79.08l-4.1-.15c-1.23.15-2.48.25-3.71.29a22.27,22.27,0,0,1-4.09-.07,33.33,33.33,0,0,1-3.87.07,16.43,16.43,0,0,0-3.42-.07,3,3,0,0,0-1.34,3.35,1.16,1.16,0,0,0,.82,1.19,19.12,19.12,0,0,0,3.79.07,30.24,30.24,0,0,0,3.64-.22c1.24.1,2.56.17,4,.22a23,23,0,0,1,3.71,0,14.25,14.25,0,0,1,3.57.15,2,2,0,0,1,1.42,2.08q-.08,1.93,0,3.87,0,8.19.3,16.29c0,1.39,0,2.7.14,3.94s.3,2.36.45,3.5c-.69,2.08-2.21,2.72-4.54,1.93H1407a2.8,2.8,0,0,1-1.12.22A1.65,1.65,0,0,1,1405.28,601Zm-38.9,7c-.85-.1-1.64-.22-2.38-.37v.15a9.68,9.68,0,0,0-3.57-.37c-1.24.44-2,.15-2.31-.89a2.42,2.42,0,0,1,2.23-1.27c1.34-.2,2.68-.37,4-.52a31.88,31.88,0,0,1,8.11-.3,12.7,12.7,0,0,0,3.64.38h4.32q8.25.07,16.51-.08,1.86,0,3.72-.15a6.42,6.42,0,0,0,1.71.08c.69-.1,1.38-.18,2.08-.23,2.78-.15,5.53-.34,8.26-.59l3.79-.3a6.37,6.37,0,0,1,1.56.22,4.7,4.7,0,0,0,1.86-.07,2,2,0,0,1,2.16,1.41,1.56,1.56,0,0,1-1.94,1.42c-2.48.05-4.93.14-7.36.29a32.2,32.2,0,0,0-3.87.23,14,14,0,0,1-4.09,0,24.53,24.53,0,0,0-3.72.29c-1.39,0-2.77.08-4.16.08q-4,.15-8-.08c-1.24,0-2.45,0-3.64.08-.64,0-1.26,0-1.86.07a4,4,0,0,1-1.86.15,9,9,0,0,0-3.27,0,4.09,4.09,0,0,1-1.56,0c-.7,0-1.34,0-1.94.08-.84,0-1.66.07-2.45.07a11.68,11.68,0,0,1-2.31-.22,8.13,8.13,0,0,0-2.23.15A1.75,1.75,0,0,0,1366.38,608Zm3.72,10.27a24.6,24.6,0,0,0-2.75-.3,22.21,22.21,0,0,1-3.2-.37,1.61,1.61,0,0,1-1.71-.6,1.46,1.46,0,0,1,1-1.63,29.9,29.9,0,0,0,2.46-1.94l1.93-1.93a10.57,10.57,0,0,1,2.23-1.93,4.29,4.29,0,0,1,2.38-.53,22.91,22.91,0,0,0,2.68.15,26.1,26.1,0,0,1,2.9-.15q2.24,1.2.3,3a24.31,24.31,0,0,0-2.23,1.42,20.51,20.51,0,0,1-2.16,1.86,12.73,12.73,0,0,0-2,1.48A3.31,3.31,0,0,1,1370.1,618.3Zm5.05-21.2a4.36,4.36,0,0,1,2.53,0,10,10,0,0,0,1.64-.15,15.52,15.52,0,0,0,2.16,0c2.62-.1,5.33-.12,8.1-.07,1.24,0,2.53,0,3.87-.08a24.1,24.1,0,0,0,4.24-.07h3.42a4,4,0,0,0,2.9-.37,2.61,2.61,0,0,0,.45-2.46,7.87,7.87,0,0,1-.22-1.93,9.46,9.46,0,0,0,.07-2.08,2,2,0,0,0-2-.67l-1.71-.15a6.43,6.43,0,0,1-1.71.37q-4.17,0-8.11.07a29.71,29.71,0,0,1-3.64.08,18.57,18.57,0,0,1-4.09-.15,11.44,11.44,0,0,0-4.69.37,13.26,13.26,0,0,1-2.45-.07,3.07,3.07,0,0,0-2,.07,2,2,0,0,0-.45,1.79v2.52a5,5,0,0,0,.23,2.31A1,1,0,0,0,1375.15,597.1Zm15-10.26q3.19-.08,6.32-.38c1,0,2.08,0,3.13-.14a7.55,7.55,0,0,1,1.85.07,7.65,7.65,0,0,0,1.86.07,2,2,0,0,0,.9-2.6V582a1.92,1.92,0,0,0-.23-1.56,4.24,4.24,0,0,0-2.23-.15l-3.94.15a13.61,13.61,0,0,1-3.5-.15,12.6,12.6,0,0,0-3.86.3,9.76,9.76,0,0,1-1.71,0,6.64,6.64,0,0,1-1.71.07q-2.08-.15-4-.15a62.49,62.49,0,0,0-8.11.38,1.38,1.38,0,0,0-1.19,1.85v3.87a27.06,27.06,0,0,1,3.94-.15,14.77,14.77,0,0,0,4.47.38h4.16A8.43,8.43,0,0,1,1390.18,586.84Zm3.2-9,3.79-.45a17.24,17.24,0,0,1,3.94-.3,4.82,4.82,0,0,0,2.23.08,2.59,2.59,0,0,0,.67-2.76,3.37,3.37,0,0,0-.67-3,5,5,0,0,0-3,0,20.49,20.49,0,0,1-3.57-.45c-1.39,0-2.73,0-4,.08s-2.55.22-3.79.37a38,38,0,0,1-4.09.22c-1.29,0-2.56,0-3.79-.07a26.15,26.15,0,0,1-3.43-.08A2.89,2.89,0,0,0,1374,574a8.93,8.93,0,0,0-.15,2.82,2,2,0,0,0,2.6.67q4.17.22,8.41.38Q1389.13,577.76,1393.38,577.84Zm23.95,39.71c-1-.19-2.09-.37-3.13-.52s-2.28-.12-3.42-.22a5.65,5.65,0,0,1-2.53-1.26,15.32,15.32,0,0,1-2.67-1.64c-1.94-1.19-3.87-2.43-5.81-3.72-.94-.49-1.11-1.14-.52-1.93a4.26,4.26,0,0,1,2.38-.08,6.83,6.83,0,0,1,1.49-.15,3.88,3.88,0,0,0,1.34.08,6.09,6.09,0,0,1,2.83-.23,11.18,11.18,0,0,1,2.3,2,21,21,0,0,0,2.61,2.09,25.83,25.83,0,0,0,5.35,3.12,1.77,1.77,0,0,1,1.34,1.56A1.53,1.53,0,0,1,1417.33,617.55Z" transform="translate(-1303.32 -410.64)"/><path id="の" class="cls-3" d="M1473.22,614.21a1.26,1.26,0,0,1-.87-1.47,3.36,3.36,0,0,1,1.58-1.31,14.17,14.17,0,0,0,3.6-3.76c.4-.73.78-1.49,1.15-2.29.4-1,.76-1.91,1.09-2.9a33.25,33.25,0,0,0,1.25-11.83c-.07-.91-.18-1.82-.32-2.73s-.57-1.89-.93-2.83a53.69,53.69,0,0,0-2.4-5.13,9.24,9.24,0,0,0-3.44-3.66l-2.4-1a18.59,18.59,0,0,0-2.51-1,1.48,1.48,0,0,0-1.36,0,.51.51,0,0,0-.16.65v1.64c-.11.94-.26,1.85-.44,2.72a21.7,21.7,0,0,0-.44,3,34.71,34.71,0,0,1-1.25,5.73q-.66,2.84-1.42,5.67a37.8,37.8,0,0,1-2.18,5.51c-.73,1.71-1.47,3.42-2.24,5.13a6.67,6.67,0,0,1-1.41,1.91,14.07,14.07,0,0,0-1.48,2.34,9,9,0,0,1-3.16,3.28,5.58,5.58,0,0,1-2.51.49c-1,.11-2,.18-2.89.22a6.84,6.84,0,0,1-4.85-1.31,11.2,11.2,0,0,1-3.28-4,16.09,16.09,0,0,1-1.58-5.34,33.15,33.15,0,0,1-.54-6,19.64,19.64,0,0,1,2.94-10.25,3.56,3.56,0,0,0,.82-1.86.15.15,0,0,1,.11.06,2.41,2.41,0,0,0,.54-1.31,6.67,6.67,0,0,1,1-1.64c.4-.47.84-1,1.31-1.42s.85-1.2,1.25-1.85a4,4,0,0,1,1.31-1.48l.6-.6a6.63,6.63,0,0,1,.77-.43,3.83,3.83,0,0,1,1.36-1,1.17,1.17,0,0,0,.76-.33.59.59,0,0,1,.55-.27c.14-.51.54-.76,1.2-.76a16.43,16.43,0,0,0,2.78-1c.84-.18,1.69-.38,2.56-.6a5,5,0,0,1,1.26-.38,6.29,6.29,0,0,0,1.2.11,1.86,1.86,0,0,0,.27.11c.4,0,.82-.09,1.26-.17.83,0,1.69,0,2.56,0s1.6.1,2.4.17a3.9,3.9,0,0,1,2.13.27v-.16a.83.83,0,0,0,1,.22,6.48,6.48,0,0,1,1.69.32,9,9,0,0,0,1.8.38,2.32,2.32,0,0,0,.44.28,1.12,1.12,0,0,0,.76-.06,9.16,9.16,0,0,1,3,1.15c.83.58,1.67,1.2,2.51,1.85a11.83,11.83,0,0,1,4.14,4.69c.29.44.58.88.88,1.31s.34,1,.49,1.58a13.55,13.55,0,0,0,.6,1.53,2.14,2.14,0,0,1,.43,1.58,6.8,6.8,0,0,1,1,3.71,28.91,28.91,0,0,1-.22,9.38,38.05,38.05,0,0,1-.93,4.59c-.21.72-.45,1.41-.7,2.07s-.73,1.49-1.1,2.18a8.11,8.11,0,0,1-1.2,1.64c-.4.54-.78,1.07-1.14,1.58-.55.43-1.07.84-1.58,1.2a2.2,2.2,0,0,1-1.26.93,1.52,1.52,0,0,1-1.8.92,15.7,15.7,0,0,1-2.29-.05h-1A2.47,2.47,0,0,1,1473.22,614.21Zm-23.12-6.43a.94.94,0,0,1,.49-.6,9.36,9.36,0,0,0,.76-1q.76-1.3,1.53-2.67a55.81,55.81,0,0,0,2.51-5.4,66.24,66.24,0,0,0,3.49-11.13c.36-2,.74-4,1.15-6a20,20,0,0,0,.7-5.67c-.58-1-1.41-1.11-2.5-.38l-1.91.71c-.7.51-1.35,1-2,1.53a3.13,3.13,0,0,0-1.31,1.36,5.6,5.6,0,0,1-1.36,1.42,32.93,32.93,0,0,0-2.62,3.71,12.64,12.64,0,0,0-1.2,2,10.81,10.81,0,0,0-1.31,1.69,14.26,14.26,0,0,0-.65,2.4c-.26.76-.51,1.51-.77,2.23a17.8,17.8,0,0,0,0,9.55,11.44,11.44,0,0,0,1.91,4.14A4.15,4.15,0,0,0,1450.1,607.78Z" transform="translate(-1303.32 -410.64)"/></g><g id="プロジェクト"><path id="プ" class="cls-3" d="M2146.44,621a5.26,5.26,0,0,1-5.2-1.93,4,4,0,0,1,1.63-2.16l2.31-3.2q2.39-3.35,4.83-6.69,2.38-3.19,4.84-6.47,8.78-13.17,16.66-27.08a15.35,15.35,0,0,0,2.3-3.79l-3.94-.15a30,30,0,0,0-4.24,0c-2.67.25-5.33.45-8,.6s-5.42.29-8.1.29q-4.09.23-8.18.38c-1.29,0-2.56,0-3.8-.15-1.39,0-2.75,0-4.09,0a55.61,55.61,0,0,1-8.18-.15,8.87,8.87,0,0,1-3.42-.67q-1.64-1,.15-2a10.23,10.23,0,0,1,3.49-.3c1.34.05,2.73.08,4.17.08l8.18.15a71.76,71.76,0,0,0,8-.3q8.19-.23,16.44-.89c2.73-.2,5.48-.38,8.26-.52,1.29,0,2.6-.15,3.94-.3a17.68,17.68,0,0,1,4-.3c1.09.15,2.21.35,3.35.6a3.45,3.45,0,0,1,2.31,1.56,5.12,5.12,0,0,1-2.09,3.87,37.38,37.38,0,0,0-3.79,6q-2,3.5-4.16,6.84-1.93,3.42-4,6.77t-4.39,6.77a68.37,68.37,0,0,1-4.61,6.47c-1.64,2-3.2,4-4.69,5.95-.64,1-1.26,2.06-1.85,3.05-.85,1-1.67,2-2.46,2.9l-2.16,2.9a2.1,2.1,0,0,1-2.08,1.79A3,3,0,0,0,2146.44,621Zm35.93-56.68a53.35,53.35,0,0,0-5.51-.14c-.05-.05,0-.08.15-.08a3.29,3.29,0,0,1-2.67-.74,4.05,4.05,0,0,1-2-1.79,8.09,8.09,0,0,1-.45-6.1,5.19,5.19,0,0,1,3.42-4.38c1-.1,2-.23,3-.38l1.64-.14,1.56.44,3,.15a6.49,6.49,0,0,1,2.68,1.41,6.12,6.12,0,0,1,1.86,5,9.29,9.29,0,0,1-1.49,5.13A6.07,6.07,0,0,1,2182.37,564.33Zm-1.27-2.23a3.21,3.21,0,0,0,1.57-2.45,9.74,9.74,0,0,0,.44-3.79c-.69-2.19-2-2.9-4-2.16a5.83,5.83,0,0,0-1.19,4.61,5,5,0,0,0,1,3A1.63,1.63,0,0,0,2181.1,562.1Z" transform="translate(-1303.32 -410.64)"/><path id="ロ" class="cls-3" d="M2206.62,616.18a1.77,1.77,0,0,1-.45-2.16,29.08,29.08,0,0,0,.15-4.17q.22-4.08.15-8.25-.07-8.48-.3-17-.3-4.17-.45-8.4t-.07-8.33q0-1.86-.15-3.72a2.43,2.43,0,0,1,.59-2.68,8.14,8.14,0,0,1,2.91-.82,23.17,23.17,0,0,1,4.16-.22l3.72.44a21.61,21.61,0,0,0,4,.08q4.08.22,8.25.37,4,.07,8.11,0,4.17.15,8.26.45a65.16,65.16,0,0,0,8.18.22c1.14,0,2.3-.08,3.49-.08a3.25,3.25,0,0,1,2.38,1,5.53,5.53,0,0,1-.22,3c-.1,1.39-.15,2.75-.15,4.09-.25,2.78-.4,5.55-.45,8.33q-.15,8.55.08,17-.07,8.25,0,16.43a3.67,3.67,0,0,1-.67,2.61,4.05,4.05,0,0,1-2.9.67q-4,.07-8-.23-8.27-.51-16.52-.52-6.16.15-12.34.45a20.75,20.75,0,0,0-5.8.22A17,17,0,0,1,2206.62,616.18Zm20.75-4.76c1.93,0,3.89-.08,5.87-.08h5.88l6,.3a26.72,26.72,0,0,0,2.83,0h1.34a2.66,2.66,0,0,1,1.26-.15,30.36,30.36,0,0,0,.08-3.72c0-1.49,0-3,0-4.46a36,36,0,0,1,.07-4V595q-.22-8.33-.07-16.81c0-2.68.15-5.4.29-8.18a31.65,31.65,0,0,0,.23-3.8,1.63,1.63,0,0,0-1.79-1.11q-8.25-.6-16.51-.89c-2.73.14-5.43.2-8.11.14s-5.55-.14-8.33-.14a11.94,11.94,0,0,0-2.3-.08,2.15,2.15,0,0,0-.82,2.38q.22,3.94.22,7.81,1,17,.45,34.07a22,22,0,0,1-.15,2.6,74.39,74.39,0,0,0,7.44.52q1.79-.15,3.57-.15A3,3,0,0,0,2227.37,611.42Z" transform="translate(-1303.32 -410.64)"/><path id="ジ" class="cls-3" d="M2299.89,594.83a24.8,24.8,0,0,1-5-1.12l-2.38-.89a2.18,2.18,0,0,1-1.56-.89.22.22,0,0,0,.15-.08,3.15,3.15,0,0,0-1.12-.37,5.66,5.66,0,0,1-1.63-.52,12.32,12.32,0,0,1-3.13-1.34q-3.64-1.64-7.36-3c-1.59-.35-2.38-1.17-2.38-2.46a3.27,3.27,0,0,1,2.16-.74,27.92,27.92,0,0,1,4.09,0,5.93,5.93,0,0,1,3.05,1.34,13.92,13.92,0,0,0,3.12,1.78,61.4,61.4,0,0,0,7.44,3.13,27.37,27.37,0,0,0,3.57,1.26,15.61,15.61,0,0,1,3.12,1.12,1.29,1.29,0,0,1,.23,2.08A3.14,3.14,0,0,1,2299.89,594.83Zm-21.28,26.33a1.6,1.6,0,0,1-1.63-1.34,2,2,0,0,1,1.86-1.26c2.62-.6,5.23-1.32,7.81-2.16a95.61,95.61,0,0,0,14.43-6.62q7.35-3.87,14.8-8c2.28-1.14,4.53-2.38,6.77-3.72.89-.59,1.83-1.19,2.82-1.78a10.48,10.48,0,0,1,3.72-.23,9.68,9.68,0,0,1,2.9.6,1.48,1.48,0,0,1,.67,2.38,5.21,5.21,0,0,1-2.6,1c-1.29.45-2.53.94-3.72,1.49q-7.21,3.35-14.13,7.14a106.84,106.84,0,0,1-29.68,12.2,14.12,14.12,0,0,1-2,.15A5.41,5.41,0,0,0,2278.61,621.16Zm23.8-47.6a12,12,0,0,0-1.86-.15,9.55,9.55,0,0,1-1.71-.3,7.11,7.11,0,0,1-3.49-1.19q-3.42-1.93-6.92-3.57a62.31,62.31,0,0,1-7.14-4q-1.56-.74-3.12-1.56c-.75-.74-.65-1.41.29-2a12.23,12.23,0,0,1,3.28-.29,7.24,7.24,0,0,1,3.42.52q1.49,1,3,2a29.29,29.29,0,0,0,3.5,2.08,48.4,48.4,0,0,0,7.14,3.72,25.45,25.45,0,0,0,3.42,1.34,2.53,2.53,0,0,1,1.71,2A1.49,1.49,0,0,1,2302.41,573.56Zm13-3.42a4.57,4.57,0,0,1-2.6-.45,3.09,3.09,0,0,1-1-2q-1-3.2-2.16-6.39-1.26-2.09.82-3a11.69,11.69,0,0,1,3-.08,14.87,14.87,0,0,0,1.49.08,2.69,2.69,0,0,1,1.41-.08,3.15,3.15,0,0,1,.9,1.86c.29,1,.62,2,1,3a16.73,16.73,0,0,0,1,2.9,10.8,10.8,0,0,1,1.12,2.67Q2318.77,571.11,2315.43,570.14Zm13.54-1.27a9.44,9.44,0,0,0-1.64-.3,3.48,3.48,0,0,1-1.86-.37,5,5,0,0,1-1.49-2.9,28.3,28.3,0,0,0-1.41-3.49,2.39,2.39,0,0,1-.74-1.94V560a2.22,2.22,0,0,1-1.12-2.16,1.65,1.65,0,0,1,1.94-1.11h4.16a1.79,1.79,0,0,1,1.64.37,11.46,11.46,0,0,1,.74,1.49l1.64,3.72a34.53,34.53,0,0,0,1.48,3.64,1.6,1.6,0,0,1-.22,2.53A22.12,22.12,0,0,1,2329,568.87Z" transform="translate(-1303.32 -410.64)"/><path id="ェ" class="cls-3" d="M2357.48,615.68v-.12h.3a3.68,3.68,0,0,1-2.08,0,12,12,0,0,0-2.68.06v-.06h.06a2.65,2.65,0,0,0-1.37,0,9.54,9.54,0,0,1-1.84.06,2.74,2.74,0,0,1-1.91-.71c-.12-.75.28-1.21,1.19-1.37A17.16,17.16,0,0,1,2353,613q2,.06,3.93.18h3.69a.7.7,0,0,1,.12.18,3.26,3.26,0,0,0,.65-.18,10.63,10.63,0,0,1,2-.06,9.66,9.66,0,0,0,2.15,0,3.34,3.34,0,0,1,1.66-.06h-.29c.07-1.19.09-2.4.05-3.63,0-.55.06-1.11.06-1.66a2.8,2.8,0,0,1-.06-1.67,13.23,13.23,0,0,0-.05-2.74c0-1.26.05-2.53.05-3.8q-.16-3.93-.17-7.86.06-1.91-.06-3.87a2.9,2.9,0,0,1,.12-2.44,12.82,12.82,0,0,0-4.53.24c-1.86,0-3.74-.06-5.65-.06a16.44,16.44,0,0,1-2.44.06,18.69,18.69,0,0,0-2.56-.18,2.77,2.77,0,0,1-3-1.36l2.32-.72a16.47,16.47,0,0,1,3.15-.18,5.15,5.15,0,0,0,1.37-.18c.48,0,.95.1,1.43.18l1.37.12a8.72,8.72,0,0,0,1.43-.12q3.15.06,6.3,0c2.15-.12,4.31-.21,6.49-.29a3.6,3.6,0,0,0,2.62.47h3.33a18.28,18.28,0,0,1,3.63-.12.26.26,0,0,1-.3-.29l6-.12a1.88,1.88,0,0,1,1.85.95,1.53,1.53,0,0,1-1.31,1.49,6.26,6.26,0,0,1-2.92,0q-1.48-.06-3-.06a27.46,27.46,0,0,0-3,.17,5.17,5.17,0,0,1-1.43,0c-.55,0-1.09,0-1.6,0v0a1.74,1.74,0,0,1-1.25.11,16.18,16.18,0,0,1-2,0,1,1,0,0,1,.06.9,2,2,0,0,0-.06,1.07q.06,1.43,0,2.79a48.9,48.9,0,0,0,.06,5.42l.24,2.5c0,.47,0,.93.06,1.37s0,.47-.24.47a2.38,2.38,0,0,1-.12,1.31,8.54,8.54,0,0,0,0,1.43v3.09c0,1.08,0,2.13.06,3.16a16,16,0,0,1,.06,3.09c-.08.84.32,1.21,1.19,1.13,1,0,2.06,0,3.1-.06s2.06,0,3.09-.06a19.27,19.27,0,0,0,3.39-.06h-.18c.52,0,1,.06,1.55.06a2,2,0,0,1,1.25-.17,1.94,1.94,0,0,0,1.13.23c.48,0,1,.06,1.55.06a2.13,2.13,0,0,1,1.78.72,1.35,1.35,0,0,1-1.07,1.66,9.27,9.27,0,0,1-3-.12q-1.72,0-3.33.06a31.07,31.07,0,0,1-3.34.06,28.12,28.12,0,0,0-3.63-.24l.06-.05v.17l-1.78-.12a1,1,0,0,1-1.07-.17h.18a3.71,3.71,0,0,1-1.14.06,5.93,5.93,0,0,0-1.13.11,1.54,1.54,0,0,1-1.54-.11h.71a5.33,5.33,0,0,1-2.8-.06c.08.23.26.29.54.17a6.47,6.47,0,0,1-2.62.18c-.51,0-1,.06-1.49.06a8.4,8.4,0,0,0-1.42,0,4.09,4.09,0,0,1-1.37.12,11.22,11.22,0,0,1-1.31-.18C2359.43,615.54,2358.44,615.6,2357.48,615.68Z" transform="translate(-1303.32 -410.64)"/><path id="ク" class="cls-3" d="M2432.59,620.64a12.59,12.59,0,0,1-3.12-.37,1.26,1.26,0,0,1-.23-2.16,5.45,5.45,0,0,0,.75-1c.29-.39.64-.81,1-1.26a26.66,26.66,0,0,0,2.16-3.35q4.08-6.91,8-14.06a5.15,5.15,0,0,1,.89-1.33l.67-1.34q1-1.71,2-3.42,1.86-3.57,3.87-7.07c1.43-2.18,2.8-4.41,4.09-6.69a27.63,27.63,0,0,1,1.56-3.13c.74-1,1.46-2.11,2.16-3.2q1.56-3.27,3.42-6.39c.39-.85.12-1.29-.82-1.34a3.73,3.73,0,0,0-1.49,0,.86.86,0,0,1-.59.3,3.57,3.57,0,0,1-1.12-.15c-1.19-.05-2.38-.13-3.57-.23-1.34-.05-2.7-.05-4.09,0a75.86,75.86,0,0,1-8.26,0q-4.08-.08-8-.07a15,15,0,0,0-3.35.07,4.75,4.75,0,0,0-2,2.09q-4.09,6.91-8,13.9c-1.39,2.39-2.73,4.79-4,7.22a3.75,3.75,0,0,1-1.86,2,12.27,12.27,0,0,1-3.57.07,5,5,0,0,1-2.82-.22c-.75-.69-.7-1.46.14-2.31a30.4,30.4,0,0,0,3.65-6.17q3.95-7.22,8.18-14.43,2-3.57,4.17-7.14a27.81,27.81,0,0,0,1.93-3c.15-.45.32-.94.52-1.49a1.57,1.57,0,0,1,1.41-.81,22.9,22.9,0,0,1,3.65.29,4.06,4.06,0,0,1,2.75,1,3.58,3.58,0,0,1-.6,2.68c-.69.94-1.31,1.86-1.86,2.75a27.51,27.51,0,0,0,7.59.6l3.94.15c1.39,0,2.8-.08,4.24-.08q4,.07,8.11-.22,4,.07,8.11-.22a22.4,22.4,0,0,1,3.64.15,11.87,11.87,0,0,1,3.5.52q1.71,2.09-.3,4.24c-.64.84-1.24,1.68-1.78,2.52-.7,1.19-1.37,2.41-2,3.65q-2.24,3.35-4.39,6.69-3.34,5.58-6.62,11.23-3.42,6-6.7,12.05c-1.14,1.89-2.23,3.72-3.27,5.51a48.93,48.93,0,0,0-3.42,5.8c-1.14,1.88-2.3,3.72-3.49,5.5a2.42,2.42,0,0,1-1.72,1.42A20.83,20.83,0,0,0,2432.59,620.64Z" transform="translate(-1303.32 -410.64)"/><path id="ト" class="cls-3" d="M2489,620.94a5,5,0,0,1-1.19-5.58q0-4.1-.07-8.18l.45-16.81q.21-8.34.59-16.59.07-4.1.37-8.25l.3-4a6.92,6.92,0,0,1,0-3.2,4.94,4.94,0,0,1,4.61-1.41,3.13,3.13,0,0,1,3.57,1.11,8.62,8.62,0,0,1-.3,3.2,20.19,20.19,0,0,0-.29,4.17q-.07,4.15-.3,8.18c-.1,1.34-.15,2.65-.15,3.94s-.15,2.73-.15,4a1.66,1.66,0,0,0,1.27,1.63,21.45,21.45,0,0,0,3.79,1.42q3.64,1.18,7.36,2.15,2.54.67,5,1.49a1.44,1.44,0,0,1,1,.52c-.1,0-.15,0-.15.08a2.31,2.31,0,0,0,2,.66l3.87,1.34a41.45,41.45,0,0,0,7.44,2.31,4.22,4.22,0,0,1,3.42,1.64c-.6,2-2,2.65-4.31,2a4.8,4.8,0,0,1-1.34-.44c-.55-.1-1.1-.18-1.64-.23a12.28,12.28,0,0,1-3.57-1.48c-2.53-.94-5.06-1.79-7.59-2.53s-5-1.61-7.58-2.46a51.92,51.92,0,0,0-7.59-2.23,13.72,13.72,0,0,1-1.56-.37q-.37,6.47-.45,12.79c0,1,0,1.94.08,2.83a12.7,12.7,0,0,1-.38,3.12,14.81,14.81,0,0,0,.38,5.73c-.3.2-.33.5-.08.89a4.91,4.91,0,0,1,0,2.09,32.19,32.19,0,0,1-.22,3.86,2.33,2.33,0,0,1-2.23,1.94,16.63,16.63,0,0,1-2,.44C2490.56,620.76,2489.79,620.84,2489,620.94Z" transform="translate(-1303.32 -410.64)"/></g><path class="cls-3" d="M2075,771.66a3.88,3.88,0,0,1-1.54-.29,2,2,0,0,1-.29-2,14.4,14.4,0,0,0,0-2.62c0-.93,0-1.89,0-2.88-.1-3.7-.09-7.44.05-11.21.13-1.78.23-3.58.29-5.4v-5.55c0-1.86.07-3.71.1-5.56a5.44,5.44,0,0,1,.25-3.17,2.59,2.59,0,0,1,1.24-.75,6.68,6.68,0,0,1,.84-.14,2,2,0,0,0,1-.1v.1c.76-.07,1.56-.15,2.38-.25a21.61,21.61,0,0,1,2.58.25c.8,0,1.62,0,2.48,0q.56.09,1.14.24a3.93,3.93,0,0,0,1.29.3,3.91,3.91,0,0,1,.79.4,3.41,3.41,0,0,0,1,.25,4.66,4.66,0,0,1,1.93,1.19c.26.19.53.38.79.54s.47.46.7.7a9.81,9.81,0,0,1,.89,1.88,16.22,16.22,0,0,1,1.34,4.86,24.72,24.72,0,0,1,0,5.16,8.55,8.55,0,0,1-.84,2.08l-.4,1a8.85,8.85,0,0,1-.79.94c-.2.37-.38.7-.55,1a1.22,1.22,0,0,1-.79.55,10.51,10.51,0,0,0-1,.64,8.19,8.19,0,0,1-1.14.4,13.47,13.47,0,0,1-1.78.55,16.51,16.51,0,0,0-2,.29,17,17,0,0,1-3.87.45,2,2,0,0,0-2.13,1.14,12.21,12.21,0,0,0-.05,3.67,77.19,77.19,0,0,0,.15,8.33,2.7,2.7,0,0,1-.6,2.53,2.21,2.21,0,0,1-1.64.35A14.65,14.65,0,0,0,2075,771.66Zm6.79-18.84a4.14,4.14,0,0,1,1.09-.25,5,5,0,0,0,.9-.39,4.9,4.9,0,0,0,2-1.09,7,7,0,0,0,1.93-4,14.07,14.07,0,0,0-.84-9.22,6.38,6.38,0,0,0-3.27-2.83,11.06,11.06,0,0,0-2.28-.25,1.7,1.7,0,0,0-1.64.75,4.22,4.22,0,0,0-.25,1.88v8.28c0,1.95-.11,3.87-.24,5.75a1.06,1.06,0,0,0,.49,1.39,3.88,3.88,0,0,0,1.09,0A1.28,1.28,0,0,0,2081.76,752.82Z" transform="translate(-1303.32 -410.64)"/><path class="cls-3" d="M2102.19,771.71a4.5,4.5,0,0,0-1.48-.24,1.67,1.67,0,0,1-.95-1.19,7.29,7.29,0,0,1-.1-2,14.46,14.46,0,0,0,0-2.18,23.41,23.41,0,0,1,0-4.51c0-1.49-.11-3-.24-4.46v-4.27c-.07-1.49-.09-3-.05-4.56,0-.69,0-1.4,0-2.13a2.55,2.55,0,0,1,.29-1.84,3.18,3.18,0,0,1,2.63-.64s0,0,0-.1a2.64,2.64,0,0,1,3.08,1.09c0,.66.33,1,.89.89q.6-.43,1.29-.84a6.75,6.75,0,0,1,2.28-.4,10,10,0,0,1,2.63.05,2.18,2.18,0,0,0,1.09.15,2.41,2.41,0,0,1,.89.3l1,.4c.13.06.28.13.45.19a.63.63,0,0,0,.25.3,1.82,1.82,0,0,1,1.19,1.19,1.76,1.76,0,0,1-.6,1.84,2.44,2.44,0,0,1-1.78-.1,20.62,20.62,0,0,1-2.19-.5,2.73,2.73,0,0,0-.89-.15,1.4,1.4,0,0,0-.84.55,3.52,3.52,0,0,1-.74.49,8.24,8.24,0,0,0-.55.85,8.89,8.89,0,0,0-2.43,3.67c-.33,1.62-.66,3.2-1,4.76a11.16,11.16,0,0,0-.1,2.58c-.07.95-.12,1.9-.15,2.82-.1,1.79-.12,3.57-.05,5.36a2.48,2.48,0,0,1-.54,2,1.93,1.93,0,0,1-1.84.25A1.88,1.88,0,0,1,2102.19,771.71Z" transform="translate(-1303.32 -410.64)"/><path class="cls-3" d="M2131.5,772.11a2.65,2.65,0,0,0-.94-.3l-1.14-.39c-.34-.14-.65-.25-1-.35a4.49,4.49,0,0,1-1.19-.25,8.11,8.11,0,0,1-3.57-3.07,16.44,16.44,0,0,1-1.83-9.13,25.62,25.62,0,0,1,1.73-10.06,9,9,0,0,1,3-3.57,16.72,16.72,0,0,1,2.18-.85,12.29,12.29,0,0,1,2.63-.69l2.33.1a4.29,4.29,0,0,1,1.09.25,4.85,4.85,0,0,1,1.19.15,1.73,1.73,0,0,0,.64.34,2.65,2.65,0,0,1,.9.3,6.36,6.36,0,0,1,1.68,1.59,9,9,0,0,0,1.24,1.44,4.45,4.45,0,0,1,.85,2.13l1.48,5.06a15,15,0,0,1,.25,5.3,25,25,0,0,1-.84,5.16,11.51,11.51,0,0,1-2.58,4,4.92,4.92,0,0,1-1.44,1.29,6.54,6.54,0,0,1-2.08,1,19.48,19.48,0,0,1-2.38.34,10.41,10.41,0,0,1-1.14-.05Zm1.34-3.92a.69.69,0,0,0,.74-.15.61.61,0,0,1,.45-.19s-.07,0-.1-.05a5.22,5.22,0,0,1,.59-.7,3.34,3.34,0,0,0,.6-.84,14.62,14.62,0,0,0,1.29-2.38,22,22,0,0,0,.74-2.43c0-.4.07-.79.1-1.19a9.45,9.45,0,0,1,.2-1.34,17.18,17.18,0,0,0-.6-5.16,13.81,13.81,0,0,0-.69-2.33,9.74,9.74,0,0,0-1-2.18,7.81,7.81,0,0,1-.65-.84,4,4,0,0,0-.69-.79,2.33,2.33,0,0,0-2,.34,5.79,5.79,0,0,0-2.63,3.18,6.92,6.92,0,0,0-.55,2.43c-.16.89-.33,1.77-.49,2.62a20.41,20.41,0,0,0,0,5.41,21.84,21.84,0,0,0,.74,2.63,4.54,4.54,0,0,0,1.24,2.23,8.6,8.6,0,0,0,1.74,1.34A1.64,1.64,0,0,0,2132.84,768.19Z" transform="translate(-1303.32 -410.64)"/><path class="cls-3" d="M2167.05,772.71a.82.82,0,0,0-.74-.2,1.4,1.4,0,0,1-1-.1,3.79,3.79,0,0,1-2.19-.65,3.4,3.4,0,0,0-.64-1.29,4.42,4.42,0,0,0-1.64.45c-.39.13-.74.27-1,.4s-.74.18-1.14.25a9,9,0,0,1-2.63.09,1.62,1.62,0,0,1-.94-.39,6,6,0,0,0-1.09-.2,5.32,5.32,0,0,1-2.28-.94,6.54,6.54,0,0,1-3-3.28,16.18,16.18,0,0,1-.94-4.85,54.35,54.35,0,0,1-.1-5.56,16.41,16.41,0,0,1,.7-5.06,9.6,9.6,0,0,1,2.67-4,13.35,13.35,0,0,1,1.94-1.34,5.14,5.14,0,0,1,2.43-.6c.79,0,1.62,0,2.48-.05a16.67,16.67,0,0,1,2.53.1,2.12,2.12,0,0,0,1.73.35,2.85,2.85,0,0,0,.15-1.93c-.1-1.85-.18-3.72-.25-5.61,0-.89-.05-1.78-.05-2.67a10.59,10.59,0,0,1,.2-2.43,1.07,1.07,0,0,1,1.29-1,6.9,6.9,0,0,0,2,0,2.08,2.08,0,0,1,2.63,1.84c-.07,1.16-.16,2.31-.3,3.47,0,1.75,0,3.5.1,5.26.07,3.57.13,7.14.2,10.71s0,7.17,0,10.71c0,1.78.07,3.55.2,5.3a5.48,5.48,0,0,1-.1,2.33A1.51,1.51,0,0,1,2167.05,772.71Zm-10.56-3.82a1.81,1.81,0,0,0,1.39-.2,2.15,2.15,0,0,0,.69-.5,3.16,3.16,0,0,0,.84-.54,6.16,6.16,0,0,0,1.29-1.74c.37-.79.71-1.6,1-2.43a32.67,32.67,0,0,0,.8-5.15,10.46,10.46,0,0,0-1.19-4.81,16.47,16.47,0,0,0-2.21-3.9,2.5,2.5,0,0,0-3.69-.62,8.27,8.27,0,0,0-1.89,3.87,19.36,19.36,0,0,0-.29,5.21,36.18,36.18,0,0,0,.64,6.3,5.78,5.78,0,0,0,.74,2.67A3.83,3.83,0,0,0,2156.49,768.89Z" transform="translate(-1303.32 -410.64)"/><path class="cls-3" d="M2178.9,771.71a22.89,22.89,0,0,1-4.11-1.48,4.83,4.83,0,0,1-1.64-3.62q-.3-5.5-.25-11.06c.07-1.82.08-3.64,0-5.45,0-.86,0-1.71,0-2.53s0-1.85,0-2.78a1.3,1.3,0,0,1,1-1.09,6.36,6.36,0,0,1,1.19-.1,1.83,1.83,0,0,1,.4,0,2.85,2.85,0,0,0,.74-.1,7.93,7.93,0,0,0,2.19.1c.76,0,1.17.36,1.24,1.19-.1.76-.24,1.5-.4,2.23,0,.93-.08,1.82-.15,2.68v2.48c0,.92-.08,1.83-.15,2.72a35.36,35.36,0,0,0,.1,5.36,31.37,31.37,0,0,0,.6,5.06,2.8,2.8,0,0,0,2.42,2.87,3.57,3.57,0,0,0,2.48-2.38,27.49,27.49,0,0,0,1.24-5c.14-1.79.27-3.58.4-5.36.13-.83.23-1.65.3-2.48a13.44,13.44,0,0,1,.15-2.68q.09-1.23.15-2.58c.06-.85.11-1.71.14-2.57a2.9,2.9,0,0,1,.6-1.79,2.19,2.19,0,0,1,1.93-.2,14,14,0,0,0,2.33.4,1.89,1.89,0,0,1,1.59.79,6.51,6.51,0,0,1,.2,1.94c-.07.89-.13,1.75-.2,2.57a21,21,0,0,1-.15,2.53,20.82,20.82,0,0,0-.1,2.83c-.13,1.82-.2,3.64-.2,5.45,0,.43,0,.83.05,1.19a12.35,12.35,0,0,1-.05,1.24c0,.93,0,1.84.1,2.73a24.94,24.94,0,0,0,.3,3.13,2.41,2.41,0,0,1-.4,2.33,1.81,1.81,0,0,1-1.38.14q-.56.1-1.05.15a3.36,3.36,0,0,0-.74-.1,1.92,1.92,0,0,1-.79.05,5.5,5.5,0,0,1-1.69-.14,2.8,2.8,0,0,0-1.49-.1c-.49.16-1,.33-1.38.49a5.17,5.17,0,0,1-1.59.25l-1.29.4h-.69l-.75.15a4.65,4.65,0,0,1-.69,0Z" transform="translate(-1303.32 -410.64)"/><path class="cls-3" d="M2206.87,771.81a2.08,2.08,0,0,1-.94-.29,3.32,3.32,0,0,0-1-.4,1.7,1.7,0,0,1-1-.25l-1.09-.69a8,8,0,0,1-2.53-3.28,13.85,13.85,0,0,1-1-2.18,10.12,10.12,0,0,1-.45-2.63c-.13-.85-.23-1.73-.29-2.62a21.76,21.76,0,0,1,.05-2.68,16.1,16.1,0,0,1,1.88-9.12,7.67,7.67,0,0,1,3.42-2.73c.76-.33,1.54-.63,2.33-.89a16.53,16.53,0,0,1,2.58-.4h1.14a8.18,8.18,0,0,0,1.24-.2,5.67,5.67,0,0,1,2.18.65,3.84,3.84,0,0,0,1,.34,1.56,1.56,0,0,1,.6.45,5.81,5.81,0,0,0,.89.4,10.35,10.35,0,0,0,.94.64,7.32,7.32,0,0,1,2.33,3.37,3,3,0,0,1-.34,3.47,2.4,2.4,0,0,1-2,.5h-1.14a3.12,3.12,0,0,1-1.24-.25,4,4,0,0,1-1.43-2.73,6.63,6.63,0,0,0-2-3.42,3.44,3.44,0,0,0-2-.39,3.89,3.89,0,0,0-2.08,1,12.72,12.72,0,0,0-1.34,1.43,7.61,7.61,0,0,0-.94,2.24,20.64,20.64,0,0,0-.55,5.15,19.34,19.34,0,0,0,.15,2.43c0,.86,0,1.71.1,2.53a7.4,7.4,0,0,0,.74,2.18,13.45,13.45,0,0,0,1.09,2.18,2.93,2.93,0,0,0,.65.8,4.71,4.71,0,0,1,.69.64,4,4,0,0,0,2.18,1.09,2.74,2.74,0,0,0,3.23-1.38,11.8,11.8,0,0,0,.54-4.67,2.07,2.07,0,0,1,.8-1.68,2.94,2.94,0,0,1,1.09-.2l1.43-.2a3.65,3.65,0,0,1,2.34.84,2.56,2.56,0,0,1,.69,2.24,9.75,9.75,0,0,1-2.28,5.35,12.06,12.06,0,0,1-4.91,2.43,17.71,17.71,0,0,1-2.58.4A26.72,26.72,0,0,1,2206.87,771.81Z" transform="translate(-1303.32 -410.64)"/><path class="cls-3" d="M2231.46,772.11a11.2,11.2,0,0,1-1.78-.35c.06,0,.1,0,.1,0a1.51,1.51,0,0,0-1-.24,3.87,3.87,0,0,1-1.93-1.19,9.84,9.84,0,0,1-1.49-1.54,12,12,0,0,1-1.14-2.33,11.25,11.25,0,0,1-.74-2.43,12.38,12.38,0,0,1-.2-2.73c-.1-.82-.18-1.67-.25-2.53a16.68,16.68,0,0,1,0-2.82,17.31,17.31,0,0,1,2.88-9.13q.79-.79,1.68-1.53c.27-.27.57-.53.9-.8l1.14-.54a8,8,0,0,1,2.23-.5,10.18,10.18,0,0,1,2.58.15,15.74,15.74,0,0,1,3.72.64,3.13,3.13,0,0,1,1.48.9,1.38,1.38,0,0,0,.65.49c.23.23.46.45.69.65a16.13,16.13,0,0,1,1.94,3.12,7.42,7.42,0,0,1,.44.7,2,2,0,0,0,.25.74,10.65,10.65,0,0,1,.74,1.88,6.93,6.93,0,0,1,.75,3.72,1.67,1.67,0,0,1-.94,1.24,5.47,5.47,0,0,1-1.64.35,12.24,12.24,0,0,1-1.89-.25,11.4,11.4,0,0,1-2-.25,8.85,8.85,0,0,0-.89-.05,2.78,2.78,0,0,1-.89.25,3.74,3.74,0,0,0-1.49,0,.76.76,0,0,0-1-.25h-.4a1.19,1.19,0,0,0-.4.25,2.23,2.23,0,0,1-1.34-.2,6.71,6.71,0,0,0-2.28,0,1.06,1.06,0,0,0-.84,1.29,14.16,14.16,0,0,0,2.28,8.33,3.87,3.87,0,0,0,3.72,1.84,4.61,4.61,0,0,0,3.27-3,2.12,2.12,0,0,1,1-1.63,5.25,5.25,0,0,1,1.93-.25,4.58,4.58,0,0,1,3,.44,2.8,2.8,0,0,1-.19,3.62,3.76,3.76,0,0,1-1.49,1.39c-.66.47-1.31.95-1.94,1.44a7.4,7.4,0,0,1-2.13.74c-.4.1-.78.19-1.14.25l-1-.1a3.63,3.63,0,0,1-1.09,0,9.71,9.71,0,0,0-1.34.1A7.66,7.66,0,0,0,2231.46,772.11Zm1.49-17.65.79-.2a5.57,5.57,0,0,0,.85.15c.72-.07,1.47-.1,2.23-.1a1.17,1.17,0,0,0,1.34-.4,2.5,2.5,0,0,0-.35-1.73,25.06,25.06,0,0,0-1.59-3.52,9,9,0,0,0-1.44-1.84,1.06,1.06,0,0,0-.69-.25,3.63,3.63,0,0,0-.35.3,3.65,3.65,0,0,1-.84.65,7.14,7.14,0,0,0-2.48,3.27,4.85,4.85,0,0,0-.79,3.12,1,1,0,0,0,1.44.3c.29,0,.61,0,.94,0A2.3,2.3,0,0,0,2233,754.46Z" transform="translate(-1303.32 -410.64)"/><path class="cls-3" d="M2269,772.71a.83.83,0,0,0-.75-.2,1.41,1.41,0,0,1-1-.1,3.78,3.78,0,0,1-2.18-.65,3.55,3.55,0,0,0-.64-1.29,4.37,4.37,0,0,0-1.64.45c-.4.13-.74.27-1,.4s-.74.18-1.14.25a9,9,0,0,1-2.63.09,1.59,1.59,0,0,1-.94-.39,6.12,6.12,0,0,0-1.09-.2,5.32,5.32,0,0,1-2.28-.94,6.54,6.54,0,0,1-3-3.28,16.18,16.18,0,0,1-.94-4.85,51.63,51.63,0,0,1-.1-5.56,16.71,16.71,0,0,1,.69-5.06,9.72,9.72,0,0,1,2.68-4,13.35,13.35,0,0,1,1.94-1.34,5.14,5.14,0,0,1,2.43-.6c.79,0,1.62,0,2.48-.05a16.54,16.54,0,0,1,2.52.1,2.15,2.15,0,0,0,1.74.35,3,3,0,0,0,.15-1.93c-.1-1.85-.18-3.72-.25-5.61,0-.89-.05-1.78-.05-2.67a10.06,10.06,0,0,1,.2-2.43,1.07,1.07,0,0,1,1.29-1,6.9,6.9,0,0,0,2,0,2.08,2.08,0,0,1,2.63,1.84c-.07,1.16-.17,2.31-.3,3.47,0,1.75,0,3.5.1,5.26.07,3.57.13,7.14.2,10.71s0,7.17,0,10.71c0,1.78.07,3.55.2,5.3a5.48,5.48,0,0,1-.1,2.33A1.53,1.53,0,0,1,2269,772.71Zm-10.56-3.82a1.81,1.81,0,0,0,1.39-.2,2.15,2.15,0,0,0,.69-.5,3.16,3.16,0,0,0,.84-.54,6.16,6.16,0,0,0,1.29-1.74c.37-.79.71-1.6,1-2.43a33.88,33.88,0,0,0,.8-5.15,10.46,10.46,0,0,0-1.19-4.81,16.83,16.83,0,0,0-2.21-3.9,2.5,2.5,0,0,0-3.69-.62,8.17,8.17,0,0,0-1.89,3.87,19.78,19.78,0,0,0-.3,5.21,37.19,37.19,0,0,0,.65,6.3,5.78,5.78,0,0,0,.74,2.67A3.83,3.83,0,0,0,2258.39,768.89Z" transform="translate(-1303.32 -410.64)"/><path class="cls-3" d="M2301.58,772.66a1.11,1.11,0,0,1-1.14-.65,18.42,18.42,0,0,1-.1-2.78c0-1.78.1-3.58.19-5.4-.09-1.78-.11-3.6-.05-5.45a35.54,35.54,0,0,0,.1-5.36,15.83,15.83,0,0,1,.1-2.48v-2.83c0-1.85,0-3.7.1-5.55s.07-3.6,0-5.45a8.19,8.19,0,0,1-.1-3.08,3.24,3.24,0,0,1,3.57-1,3.32,3.32,0,0,1,1.94.2,2.47,2.47,0,0,1,.54,1.69c0,1.58-.06,3.15-.1,4.71a51,51,0,0,1-.29,5.4,1.51,1.51,0,0,0,.19,1.59,3.11,3.11,0,0,0,1.74-.55,9.43,9.43,0,0,1,2.13,0c.86,0,1.75,0,2.68,0a8.19,8.19,0,0,1,6.74,4.71,13.09,13.09,0,0,1,1.19,4.71c.1,1.82.15,3.62.15,5.41a13.93,13.93,0,0,1-2.48,8.38,6.64,6.64,0,0,1-3.77,2.18,11.69,11.69,0,0,1-4.86.45c-.39,0-.76-.09-1.09-.15a5.17,5.17,0,0,1-.84-.5,6,6,0,0,1-1.09-.2,1.63,1.63,0,0,0-.84-.24l-.75,1.38a11.64,11.64,0,0,1-2.08.6A12.1,12.1,0,0,1,2301.58,772.66Zm10.66-3.77a4,4,0,0,0,1.34-1.29,3.31,3.31,0,0,0,.59-.84,5.69,5.69,0,0,0,.3-1.1,34.07,34.07,0,0,0,.94-4.85,47,47,0,0,0,.05-4.91c-.07-.76-.12-1.56-.15-2.38a1.81,1.81,0,0,0-.4-1.44l0,.1a2.21,2.21,0,0,0-.89-1.94,2.78,2.78,0,0,0-2.33-1.78,4.22,4.22,0,0,0-2.83,2.33,5.6,5.6,0,0,1-.54.74,2.68,2.68,0,0,0-.4,1c-.36.8-.71,1.59-1,2.38a15.4,15.4,0,0,0-.64,2.19,7.34,7.34,0,0,0,.1,2.43,22.92,22.92,0,0,0,.94,4.66,6.49,6.49,0,0,0,1.93,3.37,4.23,4.23,0,0,0,1.79,1.14A1.3,1.3,0,0,0,2312.24,768.89Z" transform="translate(-1303.32 -410.64)"/><path class="cls-3" d="M2333.31,776.38c-.69-.2-1.39-.38-2.08-.55a1.37,1.37,0,0,1-1.34-.89,3,3,0,0,1,.84-1.79,10.56,10.56,0,0,0,1.14-2.28,14.66,14.66,0,0,1,1-2.13,2.39,2.39,0,0,0,.45-2.08c-.33-.6-.64-1.23-.94-1.89a18.3,18.3,0,0,1-.84-2.53q-1.74-5.21-3.23-10.51c-.2-.79-.39-1.57-.59-2.33s-.58-1.65-.85-2.48q-1.18-2.24.75-3.37l2-.2a3.68,3.68,0,0,1,2.13.15,3,3,0,0,1,.65,1.74,23.7,23.7,0,0,0,.44,2.47c.23.77.43,1.51.6,2.24a.92.92,0,0,0,.2.84.91.91,0,0,1,.44.69c.2.76.42,1.52.65,2.28s.49,1.77.79,2.63.51,1.61.75,2.43a.83.83,0,0,0,.49.75,1.13,1.13,0,0,0,.55-.85,15.51,15.51,0,0,1,1-2.18,13.17,13.17,0,0,0,.84-2.48c.53-1.72,1.12-3.39,1.79-5a15.57,15.57,0,0,1,1-2.18,21,21,0,0,1,1-2.33,1.36,1.36,0,0,1,1.44-.35,14.24,14.24,0,0,0,2.48.2,1.54,1.54,0,0,1,1.33.7,2.78,2.78,0,0,1-.34,2.23,28.06,28.06,0,0,1-1.89,4.56,12.3,12.3,0,0,0-.94,2.23,10.65,10.65,0,0,1-1.09,2,14.11,14.11,0,0,0-1,2.09q-.65,1.29-1.14,2.58-1,2.48-2,5c-.67,1.69-1.36,3.34-2.09,5l-1.19,2.08c-.26.77-.54,1.51-.84,2.24A2.73,2.73,0,0,1,2333.31,776.38Z" transform="translate(-1303.32 -410.64)"/><path class="cls-3" d="M2397.42,772.26a5.16,5.16,0,0,1-1.73-.6,3.55,3.55,0,0,1-.55-1.93,19.12,19.12,0,0,1-.44-2.48,4.7,4.7,0,0,0-.15-1.14,2.73,2.73,0,0,1-.45-1.14l-.3-2.28a1.49,1.49,0,0,0-.94-1.74l-2.13.2c-.93.07-1.85.1-2.78.1h-1.24a6.74,6.74,0,0,0-1.09-.2,1,1,0,0,0-.69,1.14,46.71,46.71,0,0,1-.94,4.71c-.17.8-.3,1.59-.4,2.38a2.41,2.41,0,0,1-.94,1.79,5.73,5.73,0,0,1-3.23.55,1.75,1.75,0,0,1-1.28-.3,2.11,2.11,0,0,1-.15-2c.46-1.71.91-3.47,1.34-5.25q1.08-5.4,2.28-10.91t2.43-11.06q.54-2.82,1.24-5.6.19-1.19.39-2.43a1.81,1.81,0,0,1,1-1.69c.23-.06.5-.13.8-.19a1.59,1.59,0,0,1,.89-.25,4.19,4.19,0,0,0,1.78-.2,2.72,2.72,0,0,1,2.24,2.92c.95,3.54,1.9,7.08,2.82,10.62s1.75,7.32,2.58,11c.43,1.86.86,3.69,1.29,5.51s.69,3.57,1.09,5.35a9.3,9.3,0,0,1,.74,4.12,1,1,0,0,1-1.19.79A8.8,8.8,0,0,0,2397.42,772.26ZM2386.56,758c.63.13,1.28.23,1.94.3a21.32,21.32,0,0,1,2.58-.15,1.3,1.3,0,0,0,1.63-.4,7,7,0,0,0-.34-1.78q-.64-2.49-1.19-5-.7-2.54-1.29-5.11a9.13,9.13,0,0,0-.5-1.78c-.46-.17-.69.09-.69.79s-.27,1.44-.4,2.13-.5,1.65-.69,2.48q-.65,2.43-1.05,4.86c-.16.86-.33,1.72-.49,2.58a1.15,1.15,0,0,0-.15,1A.47.47,0,0,0,2386.56,758Z" transform="translate(-1303.32 -410.64)"/><path class="cls-3" d="M2406.55,771.81a1.78,1.78,0,0,1-1.24-1.24,11.45,11.45,0,0,1,.2-2.57q0-1.25,0-2.58a26.93,26.93,0,0,0,.15-2.88c-.1-3.73-.19-7.47-.25-11.21,0-1.88,0-3.76,0-5.65s0-3.65,0-5.5c-.07-.8-.15-1.6-.25-2.43s0-1.82,0-2.78a5,5,0,0,1,0-2.43,2,2,0,0,1,1.54-.64l2.48-.3q.64-.11,1.29-.15l1.43.1a21.09,21.09,0,0,1,2.53-.15c.83.2,1.69.37,2.58.5a9.64,9.64,0,0,1,4.51,2,9.37,9.37,0,0,1,1.34,1.54,8.61,8.61,0,0,1,1.29,2.23,12.54,12.54,0,0,1,.74,5.06,15.12,15.12,0,0,1-.19,2.43,10.88,10.88,0,0,1-.4,2.53,8.05,8.05,0,0,1-2.38,3.66,8,8,0,0,1-4,1.39c-1.35-.26-2,.15-1.83,1.24.36.53.69,1,1,1.54a3.38,3.38,0,0,0,.45.55,5.8,5.8,0,0,0,.54,1.09,39.37,39.37,0,0,0,2.48,4.31l1.29,2.08c.43.76.88,1.52,1.34,2.28a15.09,15.09,0,0,1,2.13,3.52,1.56,1.56,0,0,1-1.78,1.69,4.54,4.54,0,0,1-1.79-.15,5.93,5.93,0,0,1-1,.2.89.89,0,0,1-.74-.55,6.45,6.45,0,0,1-1.14-1.38c-.47-.7-.91-1.39-1.34-2.09a56.23,56.23,0,0,1-3.28-5.6c-.53-.92-1.07-1.82-1.63-2.68a9.7,9.7,0,0,1-.89-1.24,1.09,1.09,0,0,0-.55-.59c0,.86,0,1.72,0,2.58s0,1.77,0,2.62a22.22,22.22,0,0,0-.05,2.58c-.07.9-.17,1.77-.3,2.63.07.79.13,1.59.2,2.38a1.52,1.52,0,0,1-1.14,1,8.18,8.18,0,0,1-2.18.75A.9.9,0,0,0,2406.55,771.81Zm9-21.17a4,4,0,0,0,2.68-2.63,14.18,14.18,0,0,0,.94-5.1,10.16,10.16,0,0,0-.84-4.91c-.17-.3-.33-.63-.5-1a1.94,1.94,0,0,0-.44-.69,2.43,2.43,0,0,1-.65-.74,2,2,0,0,0-1-.5,11.23,11.23,0,0,1-2.18-.64,1.18,1.18,0,0,0-1-.15,8.46,8.46,0,0,0-1-.15,2.08,2.08,0,0,0-.75,2.23,36.62,36.62,0,0,1,.2,3.77c-.13,1.85-.21,3.7-.25,5.55,0,.93,0,1.85.05,2.78a1.94,1.94,0,0,0,.55,1.93,5,5,0,0,0,2-.2A3.21,3.21,0,0,0,2415.52,750.64Z" transform="translate(-1303.32 -410.64)"/><path class="cls-3" d="M2440.46,772.21a21.46,21.46,0,0,1-4.9-.55,7.4,7.4,0,0,1-3.08-3,8.94,8.94,0,0,1-1.34-2c-.33-.8-.68-1.61-1-2.43a14.27,14.27,0,0,1-1.24-4.86,43.62,43.62,0,0,1-.15-5.36c0-1.85.08-3.7.25-5.55s.48-3.6.84-5.46a20.94,20.94,0,0,1,1.54-5,15,15,0,0,1,2.48-4.17,9.82,9.82,0,0,1,1.69-1.24,3.79,3.79,0,0,1,1.93-.84,7.2,7.2,0,0,0,1.14-.2,5.25,5.25,0,0,1,1.09-.1,2.52,2.52,0,0,0,.89.15c.37,0,.75-.05,1.14-.05a5.21,5.21,0,0,1,3.52,1.93c.5.6,1,1.16,1.54,1.69a14.39,14.39,0,0,1,1.29,2q1.18,2.09,2.13,4.22a2.38,2.38,0,0,1-.74,3.27,4.24,4.24,0,0,1-2.93-.35,1.17,1.17,0,0,1-.79.15.56.56,0,0,0-.5-.15,1,1,0,0,1-.64-.64,17.52,17.52,0,0,1-.55-2.13c-.16-.66-.36-1.33-.59-2s-.74-1.47-1.14-2.23a17.21,17.21,0,0,0-1.39-1.68,2.39,2.39,0,0,0-.74-.6,1.11,1.11,0,0,0-1,.6,9.59,9.59,0,0,0-1.53,1.73,17.77,17.77,0,0,0-1,2.23c-.3.8-.57,1.61-.8,2.43a14,14,0,0,0-.64,2.53c-.1.83-.2,1.62-.3,2.38a21.43,21.43,0,0,0-.3,2.83,28.72,28.72,0,0,0,.3,10.86,20.1,20.1,0,0,0,2.08,4.66,5.94,5.94,0,0,0,3.18,3.17,3.6,3.6,0,0,0,1,.25,1.3,1.3,0,0,0,1,.1,3,3,0,0,0,1.44-1.24,7,7,0,0,0,.69-2.08,1.75,1.75,0,0,1,1-1.59,17.75,17.75,0,0,1,2.14-.4,7.11,7.11,0,0,1,2.08-.29,1.76,1.76,0,0,1,.59,1.68,9.75,9.75,0,0,1-.69,2.48,5,5,0,0,1-.94,1.83,4.52,4.52,0,0,1-2,1c-.72.33-1.43.62-2.13.89-.86.2-1.68.41-2.48.64a3.69,3.69,0,0,1-.84.1Z" transform="translate(-1303.32 -410.64)"/><path class="cls-3" d="M2463.67,771.91a5.1,5.1,0,0,0-1.88-.25,8.27,8.27,0,0,1-2.33-1,6.59,6.59,0,0,1-3.57-2.92,8.25,8.25,0,0,1-.65-2.38,7,7,0,0,0-.2-1.24,5.68,5.68,0,0,1-.25-1.24,7.62,7.62,0,0,1,0-2.43,1.56,1.56,0,0,1,1.49-1,4.24,4.24,0,0,0,1.14-.15,7.73,7.73,0,0,1,1.09-.3,1.87,1.87,0,0,1,1.64,1,16.7,16.7,0,0,1,.4,3.57,5,5,0,0,0,1.73,3.82,7.4,7.4,0,0,0,3.87,1.74q3.87-1.55,3.72-6.1a19.38,19.38,0,0,0,0-5.16,5.58,5.58,0,0,0-2.33-3.87c-.73-.29-1.44-.61-2.13-.94a9.12,9.12,0,0,0-2.09-.74,18.88,18.88,0,0,0-2.28-.55,3.36,3.36,0,0,1-2.18-.69,9.72,9.72,0,0,1-4-8.33,24.9,24.9,0,0,1,.8-4.91,9.94,9.94,0,0,1,2.48-3.82,6.9,6.9,0,0,1,4-2.13,22.32,22.32,0,0,1,2.58.15,21.8,21.8,0,0,1,2.68,0,11.88,11.88,0,0,1,2.13.79,9,9,0,0,1,2.08,1.24,13.58,13.58,0,0,0,1.84,1.44,6.81,6.81,0,0,1,1.44,1.19,1.28,1.28,0,0,1-.2,1.63,1.62,1.62,0,0,1-1.89.35l-1.88-.69a4.05,4.05,0,0,1-1-.25,3.34,3.34,0,0,1-.75-.8c-.66-.46-1.3-.94-1.93-1.43a3.26,3.26,0,0,0-2.08-.75,3.66,3.66,0,0,0-1.64.8,3.26,3.26,0,0,0-.54.69,9.09,9.09,0,0,1-.9.79,7.68,7.68,0,0,0-.84,1.79,5.64,5.64,0,0,0-.69,2.53,7.94,7.94,0,0,0,.89,4.76,6.27,6.27,0,0,0,3.32,2.82q1,.4,2.13.75c.76.26,1.54.58,2.33.94a5.77,5.77,0,0,1,1.89.74,22,22,0,0,0,1.83,1.39,8.59,8.59,0,0,1,2.33,3.92,17.27,17.27,0,0,1,.15,6,11.06,11.06,0,0,1-1.58,5.8,7.61,7.61,0,0,1-4.37,2.78c-.53.06-1.07.11-1.63.15s-.95.24-1.44.34a8.85,8.85,0,0,1-1.64.15A1.19,1.19,0,0,0,2463.67,771.91Z" transform="translate(-1303.32 -410.64)"/><path class="cls-3" d="M2484,771.86a2.42,2.42,0,0,0-2.33-.2.88.88,0,0,1-1.24-.54,8.7,8.7,0,0,1,0-2.28c-.07-1.82-.15-3.64-.25-5.46a45.44,45.44,0,0,1,.05-5.6q.3-5.55.25-11.16V741c.1-1.82.13-3.68.1-5.6-.6-1.65-.18-2.81,1.24-3.47a10.23,10.23,0,0,0,2-.2,2,2,0,0,1,1.09.1,7.68,7.68,0,0,1,1.24.3,1.72,1.72,0,0,1,.5,1.48c-.07,1-.1,1.92-.1,2.88v5.6c0,1.89-.07,3.75-.1,5.61a13.39,13.39,0,0,0-.1,2.28,1.42,1.42,0,0,0,1.69,1,4,4,0,0,0,1,.25,4.62,4.62,0,0,1,1.24-.05,12.06,12.06,0,0,0,2.68.19c.42,0,.85,0,1.28,0a1.48,1.48,0,0,0,.9-.1,3.79,3.79,0,0,0,.2-2.09c0-1.78,0-3.57,0-5.35a32.67,32.67,0,0,1-.05-5.51v-2.57a9.92,9.92,0,0,1-.1-2.83.77.77,0,0,1,1.09-.65,5,5,0,0,0,2,0,2.42,2.42,0,0,1,3.17,1.39c0,.73,0,1.44-.09,2.14-.07.95-.1,1.9-.1,2.82a47.63,47.63,0,0,0-.1,5.46c.06,1.88.08,3.73,0,5.55s-.14,3.62-.2,5.4a51.75,51.75,0,0,0-.2,5.56c.07,1.85.18,3.68.35,5.5.06.89.13,1.75.2,2.58a6.41,6.41,0,0,1-.15,2.33,1.45,1.45,0,0,1-1.79.65c-.92,0-1.82,0-2.68-.1a1.71,1.71,0,0,1-1.43-.55,1.47,1.47,0,0,1-.15-.89,12.12,12.12,0,0,1,.1-1.59q-.26-5.45-.25-11a3.23,3.23,0,0,0-.55-3.32,4.6,4.6,0,0,0-1.48-.05c-.63,0-1.24,0-1.84,0h-2a17.81,17.81,0,0,0-1.79,0,2.37,2.37,0,0,0-1.24,2.78q-.15,4.66.15,9.22a30.42,30.42,0,0,1,0,4.27,1.39,1.39,0,0,1-.49,1.14A4.66,4.66,0,0,1,2484,771.86Z" transform="translate(-1303.32 -410.64)"/><path class="cls-3" d="M2514.25,772a14,14,0,0,0-4.81-.74,3.21,3.21,0,0,1-3.57-1.14c.46-1.13,1.44-1.6,2.92-1.44q.84-.15.75-1.14v-2.88c.1-3.73.15-7.47.15-11.2s-.2-7.46-.3-11.16c.06-1.69.1-3.39.1-5.11a3.36,3.36,0,0,0-.45-1.68,2,2,0,0,0-1.44-.6c-1.32.07-2-.49-1.93-1.68a2.32,2.32,0,0,1,2.38-1.09h-.1a1.6,1.6,0,0,1,1.64-.1,22.61,22.61,0,0,0,2.62-.35c.8,0,1.61.1,2.43.2s1.71.08,2.53.15a4.47,4.47,0,0,1,1.64.49,1.22,1.22,0,0,1,.2,1.79,4.71,4.71,0,0,1-3,.74,2.91,2.91,0,0,0-.69,3.52c-.1,1.92-.12,3.8-.05,5.65q.2,5.46-.1,10.86,0,3.83,0,7.59c0,1.19,0,2.36,0,3.52a3,3,0,0,0,.74,2.53,4.12,4.12,0,0,1,3.33,1.24,1.55,1.55,0,0,1-1.49,1.73l-1.84.1h-.79A1.76,1.76,0,0,1,2514.25,772Z" transform="translate(-1303.32 -410.64)"/><path class="cls-3" d="M2525.65,771.66a3.88,3.88,0,0,1-1.54-.29,2,2,0,0,1-.29-2,14.4,14.4,0,0,0-.05-2.62c0-.93,0-1.89.05-2.88-.1-3.7-.09-7.44,0-11.21.13-1.78.23-3.58.29-5.4v-5.55c0-1.86.07-3.71.1-5.56a5.44,5.44,0,0,1,.25-3.17,2.63,2.63,0,0,1,1.24-.75,7.36,7.36,0,0,1,.84-.14,2,2,0,0,0,1-.1v.1c.76-.07,1.55-.15,2.38-.25a21.65,21.65,0,0,1,2.57.25c.8,0,1.62,0,2.48,0q.55.09,1.14.24a3.93,3.93,0,0,0,1.29.3,4.27,4.27,0,0,1,.8.4,3.27,3.27,0,0,0,1,.25,4.66,4.66,0,0,1,1.93,1.19c.27.19.53.38.8.54l.69.7a9.81,9.81,0,0,1,.89,1.88,15.93,15.93,0,0,1,1.34,4.86,24.06,24.06,0,0,1,0,5.16,8.55,8.55,0,0,1-.84,2.08l-.4,1a7.81,7.81,0,0,1-.79.94c-.2.37-.38.7-.55,1a1.22,1.22,0,0,1-.79.55,9.12,9.12,0,0,0-.94.64,9.21,9.21,0,0,1-1.14.4,13.6,13.6,0,0,1-1.79.55,16.82,16.82,0,0,0-2,.29,17,17,0,0,1-3.87.45,2,2,0,0,0-2.13,1.14,12.21,12.21,0,0,0-.05,3.67,77.19,77.19,0,0,0,.15,8.33,2.7,2.7,0,0,1-.6,2.53,2.18,2.18,0,0,1-1.63.35A14.68,14.68,0,0,0,2525.65,771.66Zm6.8-18.84a4,4,0,0,1,1.09-.25,5.24,5.24,0,0,0,.89-.39,4.84,4.84,0,0,0,2-1.09,7.11,7.11,0,0,0,1.94-4,14.07,14.07,0,0,0-.85-9.22,6.38,6.38,0,0,0-3.27-2.83,11.06,11.06,0,0,0-2.28-.25,1.7,1.7,0,0,0-1.64.75,4.22,4.22,0,0,0-.25,1.88v8.28c0,1.95-.11,3.87-.24,5.75a1.06,1.06,0,0,0,.49,1.39,3.88,3.88,0,0,0,1.09,0A1.31,1.31,0,0,0,2532.45,752.82Z" transform="translate(-1303.32 -410.64)"/></g></g></svg>