<svg id="main" xmlns="http://www.w3.org/2000/svg" viewBox="0 0 1013.07 686.86"><defs><style>.cls-1,.cls-7{fill:#fff;}.cls-1{stroke:#000;stroke-miterlimit:10;stroke-width:0.9px;}.cls-2{fill:#ff4c4d;}.cls-3{fill:#0bbfc7;}.cls-4{fill:#f6f657;}.cls-5{fill:#bf46e1;}.cls-6{fill:#42ff81;}</style></defs><title>gochamaze-home</title><g id="ごちゃまぜ"><g id="ご"><path id="こ上" class="cls-1" d="M133.19,423.45a57.23,57.23,0,0,1-8.6-19.67c-2.75-11.54-4.75-23.16-4-34.34-1.8-25.48,9.08-45.35,24.55-63.18,18.14-20.91,41.15-34.57,67-44.1A198,198,0,0,1,261.74,251C273,250,284,247,295,244.79c16.17-3.28,32.09-2.11,47.79,2.17,33.57,9.49,47.07,26.59,54.27,37.39l19.5,29.24c2.48,5.76,4.42,12.22,4.19,18.23-4.93,21.92-18.54,38-35.39,51.72a184.34,184.34,0,0,1-19.57,14.15c-5.76,3.56-12,5.34-18.63,6.45-12.79,2.15-18.74-8.33-19.78-17.46a30.6,30.6,0,0,1,.43-6.59c.38-3.57-.1-4-3.53-2.63a55.84,55.84,0,0,0-12.09,6.24c-19.48,13.88-39.57,26.85-59.55,40-17.93,11.77-37.25,20-58.64,23-13.11,1.82-26,1.38-38.13-4.44C146.32,437.62,138.71,431.39,133.19,423.45Z" transform="translate(-119.97 -74.91)"/><path class="cls-2" d="M125.05,369.61c-1.39-24.8,9.3-43.9,24.44-61.24,14.11-16.16,31.45-27.89,50.9-36.49,19.23-8.49,39.19-14.48,60.34-16,12.2-.9,24.06-4.08,36-6.55,14.09-2.9,27.87-1.94,41.69,1.22.63.14,1.25.35,1.88.49,6,1.33,32,20.29,38.34,24.79,5.4,3.6,16.2,16.2,19.8,21.6,2.29,3.44,12.6,25.2,14.4,28.8.9,1.8,2.7,4.5,1.74,8.05-.29,1.06.16,1.7-.09,2.53A66.64,66.64,0,0,1,402,360.37,157.76,157.76,0,0,1,376.8,385.3c-8.51,6.54-17.76,12.16-28.75,14-9.67,1.64-16.83-4.86-15.95-14.78A88.92,88.92,0,0,1,333.64,373c.81-3.65,0-4.23-3.56-3-10.85,3.89-20.57,9.74-30,16.34-19.05,13.34-38.32,26.39-58.24,38.42a123.07,123.07,0,0,1-59.37,18.06,52.54,52.54,0,0,1-54.21-43.49C126.45,389.22,124.46,379.16,125.05,369.61Z" transform="translate(-119.97 -74.91)"/><path id="こ下" class="cls-1" d="M296.58,541.64a49.21,49.21,0,0,0,18-2.93A168.38,168.38,0,0,1,339,531.94c20.85-3.86,39.12-12.8,54.55-27.5a36.61,36.61,0,0,0,9.91-15.58c4.13-12.81.25-26-10.74-35.41-10.21-8.78-21.27-8.94-33-3.28-11.06,5.32-20,13.43-29.21,21.28A73.26,73.26,0,0,1,299,487c-15.46,3.62-26.75-5-27.52-20.62,0-.13,0-.26,0-.39-.43-7-5.94-10.84-12.53-8.44-23.27,8.5-32.8,27-26.91,50.72,3.5,14.15,14.35,21.76,26.69,27.58C270.74,541.56,283.91,540.05,296.58,541.64Z" transform="translate(-119.97 -74.91)"/><path class="cls-2" d="M297.13,537.24c-11.55-2.29-23.73-.18-34.89-5.1-9.91-4.36-19.27-9.7-23.74-20.2-8.72-20.49-1.47-41.71,21.82-49.87,3.93-1.37,6.14.35,6.51,4.57.23,2.72.39,5.45.84,8.13,1.85,10.82,10.15,14.29,19.3,16.65,9.4,2.42,17.87-.92,26.42-4.24,11-4.28,19.77-11.78,28.52-19.36,7.4-6.4,15.19-12.27,24.57-15.49q13.35-4.59,23.79,5.11c14,13,13.24,31.8-.9,44.69-16.71,15.23-36.54,22.88-58.29,26.71-8,1.4-15.34,4.86-23.13,6.89A47.44,47.44,0,0,1,297.13,537.24Z" transform="translate(-119.97 -74.91)"/><path class="cls-1" d="M410.59,335.65c4.5-3.6,12.64-8.67,14.13-9.79,5.27-3.94,9.62-8.67,12.16-14.91,4.32-10.65,2.19-20.75-2.84-30.4-7.34-14.1-16.51-27.05-26.22-39.59-9.06-11.7-16.16-13.5-29.95-8.41a84.17,84.17,0,0,0-20.66,11.62c-2.57,1.9-8.89,5.49-10.52,10.48a21,21,0,0,0,.9,13.5c4.5,9.9,19.41,31,25.2,48.6s12.6,25.2,19.8,26.1S410.59,335.65,410.59,335.65Z" transform="translate(-119.97 -74.91)"/><path class="cls-2" d="M434.4,298.19c0,9.72-3.5,16.5-9.83,21.73a145.4,145.4,0,0,1-24.16,16.38c-7.47,4-12.19,2.54-15.91-5.09-4.84-9.92-9.09-20.12-13.89-30.06-5.72-11.8-11.73-23.46-17.66-35.17a15.84,15.84,0,0,1-1.81-9,6.43,6.43,0,0,1,2.62-5c9.9-6.39,19.23-13.78,31-16.79,5.89-1.51,11.26-.69,15,3.79C413,254.68,425.39,271,433.08,290.35A24.1,24.1,0,0,1,434.4,298.19Z" transform="translate(-119.97 -74.91)"/><path class="cls-1" d="M484.24,255.8a27.37,27.37,0,0,0-2.68-11.2,90.78,90.78,0,0,0-15.3-22.9c-9.57-10.82-19.4-21.34-31-30.08-6.18-4.65-12.32-5.24-18.07-1.47a56.62,56.62,0,0,0-15.8,15.43c-4.4,6.44-4.23,14.93.14,20.36,13.39,16.66,24.66,34.7,34.89,53.41,2.79,5.11,5,10.59,9.41,14.7,5.12,4.82,12.34,5.71,17.8,1.41C476.42,285.41,484.43,272.7,484.24,255.8Z" transform="translate(-119.97 -74.91)"/><path class="cls-2" d="M479.39,256.37c.27,15.12-7,26-18,34.94-4.79,3.9-10,2.78-14.13-2.65s-6.51-11.81-10-17.6c-9.88-16.62-19.81-33.21-32.2-48.15-3.2-3.86-3.37-9.27,0-14.51a47.29,47.29,0,0,1,14-13.92c5.15-3.32,8.37-2.92,13.54.94,11.1,8.27,20.48,18.29,29.56,28.65,5.67,6.48,10.89,13.17,14.52,21.06C478.48,248.88,479.83,252.55,479.39,256.37Z" transform="translate(-119.97 -74.91)"/></g><g id="ちゃ"><path class="cls-1" d="M452.22,367.75c7.46-.87,14.94-1.64,22.43-2,3.85-.2,4.86-1.73,4.77-5.25-.19-7.69,1.12-15.24,2.27-22.83,3-20,15.92-28.15,32.95-30.31a74.06,74.06,0,0,1,31.22,2.89,39.9,39.9,0,0,1,18.57,12.37A24.32,24.32,0,0,1,570.28,344c-1.71,9.43-5.09,18.27-8.93,26.93-1.65,3.73-.3,4.77,3,5.49a149,149,0,0,1,46.25,18.09,60.69,60.69,0,0,1,13.75,10.79c10.25,11.27,8.49,25.7-4.1,34.12-4.75,3.19-10.06,4.57-15.68,5.37-16,2.24-31.56-1.41-47.3-2.82-5.81-.52-11.6-1.29-17.47-1.26-2.91,0-4.53,1-5.49,3.78-2.86,8.22-5.89,16.38-8.85,24.57-.34,1-1,2-.33,3,.91,1.15,2.18.44,3.25.11a84.21,84.21,0,0,1,39.7-2.12c17,3,28,13.42,34.07,29.21,2.8,6.58,1,14.68.1,19.18,0,0-1.93,6.92-2.7,8.1a73.41,73.41,0,0,1-7.33,11.47c-8.87,11.5-19.77,20.61-33.43,26-11.12,4.39-22.25,8.8-34.13,10.77a12.75,12.75,0,0,1-12.05-4A10.4,10.4,0,0,1,516,553.82a46,46,0,0,1,8.89-2.84c16.59-3.58,29.45-13.16,40.76-25.2a26.21,26.21,0,0,0,5.1-8.71c2.15-5.63.76-9.67-4.57-12.41-5.85-3-12.12-3.53-18.6-2.75C530.22,504,514.9,511,500.78,521c-4.46,3.15-8.81,6.53-14.06,8.28-9.37,3.12-17.18-.81-20.42-10.14-2.1-6-1.6-12.31-1.85-17.91-.26-18.12,4.3-34.81,8.51-51.57.76-3,1.7-6,2.55-9,1.3-4.59,1.23-4.8-3.34-5.72-10.94-2.22-21.92-4.31-32.7-7.3-7.42-2.05-14.62-4.65-20.92-9.24a24.06,24.06,0,0,1,.64-39.73c9.47-6.44,20.21-9.38,31.43-10.72Z" transform="translate(-119.97 -74.91)"/><path class="cls-3" d="M468.35,502.63c.09-17.6,3.48-32.29,7.1-46.92,1.52-6.18,3.39-12.26,5.11-18.39,1.14-4.05.8-4.6-3.5-5.39-14.06-2.58-28.06-5.41-41.77-9.52a47,47,0,0,1-13.94-6.84,20.54,20.54,0,0,1,.71-34.28c7.52-4.94,16-7.43,24.74-9,10.39-1.86,20.92-2.25,31.42-2.89,3.74-.23,5-1.63,4.91-5.23a118.09,118.09,0,0,1,3.74-32,24.29,24.29,0,0,1,13.3-16.38c11.85-6,24.3-5.66,37-3.62,8.15,1.32,15.45,4.3,21.59,10,6.41,5.91,9.31,12.86,7.5,21.68-2.1,10.26-5.88,19.91-10.22,29.37-2,4.28-1.9,4.63,2.76,5.65,15.82,3.44,31.19,8.09,45.33,16.2,6.45,3.7,12.6,7.79,17.68,13.31,8.66,9.39,7,21.54-3.94,28.07a36.19,36.19,0,0,1-15.5,4.69c-17.16,1.64-33.87-2.3-50.79-3.62-4.91-.39-9.84-.62-14.77-1a4.19,4.19,0,0,0-4.71,3.13c-4.34,12-8.77,23.91-13.15,35.86-.39,1.07-1.32,2.38-.52,3.29,1.09,1.23,2.44-.05,3.55-.48,16.74-6.57,34-8,51.19-3.07,13.21,3.81,21.77,13.18,25.67,26.51a9.39,9.39,0,0,1-2,9.07c-3.93,4.88-6.92,10.13-3.93,16.79,1,2.23-.73,4-1.88,5.65a74.49,74.49,0,0,1-32.93,26.55c-9.7,4.07-19.53,7.86-29.81,10.3-2.52.59-5.06,1.27-7.69.72a8,8,0,0,1-6.74-7.11c-.24-3.44,1.72-6,5.81-7.22,3.73-1.11,7.6-1.81,11.26-3.08A87.44,87.44,0,0,0,569.68,527a27.5,27.5,0,0,0,5.15-9.12c2.51-7.63-.13-13.61-7.34-17-7.62-3.62-15.55-3.71-23.65-2.41a101.84,101.84,0,0,0-44.13,18.54c-3.79,2.74-7.44,5.72-11.7,7.71-9.39,4.41-16.53,1-18.5-9.28C468.56,510.41,468.57,505.28,468.35,502.63Z" transform="translate(-119.97 -74.91)"/></g><g id="ゃ"><path class="cls-1" d="M682.83,515.64a43.22,43.22,0,0,1-6.58,2.76c-5,1.64-7.42,7.29-5.58,12.39,1.5,4.13,5.39,5.45,10.8,3.59a88.7,88.7,0,0,0,23-12.23c9.43-6.79,14.28-15.77,13.9-27.57-.32-10.27-8.89-20.88-18.92-23-5.16-1.11-10.36-.82-15.53-.43-3,.23-3.41-.83-2.72-3.29a33.42,33.42,0,0,0,1.53-10c-.24-8.2-4.88-13.33-12.45-13.68-8.66-.4-13.67,4-14.78,12.53a127,127,0,0,0-.74,18.28c0,2.47-.93,3.83-3.31,4.52-4.25,1.22-8.47,2.52-12.62,4-2.54.91-3.5.31-3.83-2.37a28.77,28.77,0,0,0-6.52-14.8c-5.21-6.36-13.32-5-16.49,2.52a21.37,21.37,0,0,0-1.46,6.41c-.54,5.83,1.77,10.67,4.83,15.29,1.62,2.46,1.28,4.26-1.21,5.85-2.19,1.39-4.24,3-6.37,4.49s-11.76,7.55-15.36,15.65c-3.6,15.3,6.68,17.09,11.7,14.4,7.2-3.6,13.14-8.56,18.64-13.3,3.95-3.39,4-3.44,6.6,1.23,6.21,11.12,12.55,22.19,20.28,32.33,4.47,5.86,8.16,12.44,14.18,17a10.94,10.94,0,0,0,12.79,0c3.08-2.26,4.16-6.27,2.81-10.93a41.06,41.06,0,0,0-1.78-4.74c-3.17-7.44-9.17-12.5-15.09-17.57a92.33,92.33,0,0,1-22-27.51c-1.12-2.13-1-3.64,1.32-4.71,3.42-1.57,6.8-3.24,10.24-4.77,2-.89,3.08-.12,2.67,2.08q-1,5.16-2.17,10.28c-1.53,6.42-.24,10.36,3.85,11.45,4.57,1.22,8-1.72,9.61-8.27,1.37-5.68,2.57-11.39,4-17.05.53-2.14,1.26-4.55,3.66-5.18,7.85-2.09,15.78-3.53,23.6.19,4.52,2.14,5.38,4.81,2.85,9.05a25.44,25.44,0,0,1-3.32,4.3A52.32,52.32,0,0,1,682.83,515.64Z" transform="translate(-119.97 -74.91)"/><path class="cls-4" d="M689,472.91c2.83.16,6.48-.36,10.07.52,13.3,3.27,21,18.18,15.77,32.15a34.07,34.07,0,0,1-14.49,17.26,105.26,105.26,0,0,1-18.62,9.71c-4.32,1.61-8,1.1-8.72-1.9-1.14-4.55-1-8.94,4.23-10.62,9.24-3,16.36-8.83,22.64-15.94a15.29,15.29,0,0,0,2.66-4.28c1.79-4.27.9-7.28-3.27-9.4-5.81-3-11.93-4.4-18.45-2.55a5.19,5.19,0,0,1-1.51.36c-10.39-.27-10.92,5-12.75,13.42-1.06,4.81-2.24,9.59-3.41,14.38-.73,3-2.89,4.38-5.86,3.69a4.46,4.46,0,0,1-3.68-5.54c.68-3.7,1.67-7.35,2.46-11a31.28,31.28,0,0,0,.79-5c.13-2.54-1.28-3.89-3.66-2.84-4.75,2.08-9.63,3.9-14,6.78-2,1.3-2.06,2.46-1.05,4.49a90.89,90.89,0,0,0,23.66,30c6,5,11.64,10.36,14.73,17.83,2.42,5.83,2,10.16-1.39,12.39-4,2.62-9.94,1.66-13.56-3-6.36-8.2-13.16-16.08-18.48-25-4.77-8-9.85-15.91-14-24.32-1.31-2.66-2.64-2-4.54-.64-5.82,4.32-10.67,9.93-17.31,13.19-.7.34-1.37.74-2.06,1.1-3,1.56-6,2.73-9,0-2.34-2.09-2.93-6.7-1.48-10.21,2.1-5.11,6.2-8.6,10-12.28A73,73,0,0,1,615,498c5-3.34,5-3.4,1.87-8.46-3.4-5.47-5.51-11.15-3.71-17.73,1-3.61,2.71-6.81,6.56-7.44,3.61-.6,6.44,1.51,8.47,4.5,2.89,4.25,5.06,8.84,5.3,14,.17,3.69,1.58,4,4.7,2.8A107.1,107.1,0,0,1,652.68,481c3.68-.83,4.8-2.78,4.18-6.06-1.1-5.86-.14-11.66.25-17.47.41-6,3.48-9.8,8.59-11.25s10.3.05,13.2,4.28c3.13,4.58,2.21,9.66,1.21,14.69-.52,2.56-3.12,5.58-1.34,7.43,1.24,1.29,4.91.25,7.5.25Z" transform="translate(-119.97 -74.91)"/></g><g id="ま"><path class="cls-1" d="M896.27,412c-10.74-9.33-23.71-13.7-37.2-17a164.35,164.35,0,0,0-26.18-4c-2.48-.19-4.7-.56-4.23-4.06.71-5.28,1.46-10.57,1.71-15.88.2-4.4,2.36-5.61,6.37-5.89a289.67,289.67,0,0,0,33.92-4.95c6.16-1.18,11.42-7.5,11.67-13.53.28-6.49-3.33-11.14-10.29-13.33a40.13,40.13,0,0,0-11.54-1.57c-9.25-.14-17.93,2.74-26.73,5-3.15.8-4.7-.08-5.06-3.31-.69-6.19-1.41-12.39-2.21-18.57-.36-2.7.67-3.57,3.28-3.15,5.13.84,10.2,1.91,15.26,3.16,8.66,2.15,16.91,6.18,26.12,5.93,7.28-.21,13.4-2.57,16.2-9.87,2.73-7.11.92-13.58-3.94-19.19-3.75-4.32-8.7-6.9-13.88-9.14-13.14-5.68-27.09-7-41.14-7.75-3.49-.18-4.79-1.18-4.65-4.81.35-8.7.32-17.41-1.53-26-1.71-7.92-5.43-14.3-13.87-16.1s-15.41,1.32-20.46,8.21c-6.75,9.22-8.51,19.91-8.26,31.05.17,8,.24,7.87-7.82,7.73A315.89,315.89,0,0,0,724,277.4a35,35,0,0,0-18.93,8.5c-9.85,8.71-10,22.6,0,30.12,5.09,3.83,11.17,5.33,17.57,5.62,9,.4,17.89-1,26.76-2.23,11.84-1.59,23.65-3.5,35.44-5.43,3.27-.54,4.88.29,5.19,3.74.6,6.73,1.38,13.44,2.15,20.15.34,2.89-.93,4.08-3.73,4.05-4.68-.05-9.36,0-14,0a203.74,203.74,0,0,0-29.93,1.77c-10.36,1.48-17.8,6.73-21.41,16.89a11.36,11.36,0,0,0,2.64,12.19,16.59,16.59,0,0,0,11.14,5,152.77,152.77,0,0,0,20.61-.81c10.77-1.15,21-4.8,31.76-6.05,7.17-.84,7.38-1,7.52,6.39,0,.39,0,.78,0,1.17,0,6.32-.3,6.69-6.58,6.41-19.88-.86-38.63,2.91-56.44,12.21-16.4,8.56-26.42,21.56-30,39.49-2.43,12.38-1.36,24.39,6.46,35,8.26,11.15,20.63,14.78,33.3,16.6,18.35,2.65,33.24-5.67,45.91-17.86s21.91-27,28.4-43.38c1.36-3.43,3.48-4.66,6.89-4C840.52,426,856.54,428.34,871,436a52.65,52.65,0,0,0,14.68,5.09,14.45,14.45,0,0,0,15-7.36C904.79,425.92,903.1,418,896.27,412ZM783.59,423.9C771.75,435.72,758.28,445,742,449.58c-2.44.69-5.31,1.94-7.23-.64s-.75-5.39.59-7.73c5-8.65,11.6-15.71,21-19.41,7.6-3,15.35-5.66,23.61-6.06,2.38.44,5.65-.87,6.7,1.85C787.65,420,785.29,422.2,783.59,423.9Z" transform="translate(-119.97 -74.91)"/><path class="cls-5" d="M899.29,422.83c-.86-3.74-3.1-6.52-5.88-9a58,58,0,0,0-18.5-10.6,158.24,158.24,0,0,0-44.13-9.16c-6.36-.46-6.32-.52-5.49-6.61.91-6.69,2.07-13.38,1.86-20.16-.1-3.38,1.51-4.66,4.61-4.9,3.36-.25,6.74-.56,10.08-1,9.12-1.33,18.26-2.63,27.35-4.2,5.45-.94,9.95-6.26,9.9-11.06C879,340.93,875.33,337,869,336c-4.47-.68-9-1.49-13.56-.63a227.73,227.73,0,0,0-24,5.4c-4.43,1.35-5.17.9-5.77-3.76-1-8-1.89-16-2.9-24-.63-5,.07-5.67,5.16-5,11.53,1.49,22.53,5.11,33.65,8.26,4.85,1.37,9.68,1.88,14.61.53,6.14-1.67,9.35-6.51,8.91-12.86-.58-8.24-5.95-12.59-12.51-16.09-14.19-7.57-29.75-8.85-45.36-9.78-8-.47-7.77,1.11-6.91-8a76.36,76.36,0,0,0-2.1-27.84c-1.54-5.54-4.93-10-10.91-11.08-6.31-1.14-11.8,1-16,6a29.25,29.25,0,0,0-5.12,9.13,58.35,58.35,0,0,0-2.83,27.64c.59,4.52.14,5.12-4.45,4.74-10.92-.89-21.82-.41-32.71.27-8.53.53-17.14.45-25.55,2.59-6.11,1.56-11.46,4.28-15.55,9.09-7.31,8.62-4.88,19.81,5.24,24.74a32.46,32.46,0,0,0,8.91,2.7c9.57,1.59,18.91-.54,28.28-1.74,13.65-1.76,27.3-3.62,40.81-6.34,2.69-.54,4.08.09,4.41,3.14,1,9.17,2.1,18.33,3.31,27.47.41,3.13-1,4.41-3.82,4.44-4.94.05-9.88,0-14.82,0-11.32,0-22.61.33-33.8,2.19-8.35,1.39-14.34,5.76-17.18,14-1.69,4.87-.35,8.65,4.09,11.28a18.26,18.26,0,0,0,10.13,2.33,149.6,149.6,0,0,0,29.36-3.48c8.34-2,16.68-4,25.3-4.51,2.77-.16,4,.53,4.35,3.43a64.48,64.48,0,0,1,0,14.76c-.27,2.84-1.63,3.9-4.33,3.67-1.16-.11-2.34-.08-3.5-.19a98.17,98.17,0,0,0-49.8,8.2c-16.69,7.34-29.73,18.05-34.2,36.77-3,12.59-2.91,24.72,4.8,35.86,4.86,7,12.16,10.18,19.87,12.93,21.28,7.58,39,.52,54.21-13.95C800,455.65,809.36,440.09,815.94,423c1.14-2.94,3-3.88,5.94-3.81,4.87.12,9.52,1.44,14.2,2.44,12.95,2.76,26,5.33,37.75,11.93a32.19,32.19,0,0,0,12.49,4.21C895,438.65,901.26,431.37,899.29,422.83ZM791,418a31.2,31.2,0,0,1-6.66,10c-11.4,10.71-24.11,19.28-39.12,24.13a23.27,23.27,0,0,1-7.24,1.37c-6.11-.06-9.06-3.93-6.93-9.95,4.13-11.67,12.55-19.61,23.59-24.61a80.18,80.18,0,0,1,23.57-6.52,32.44,32.44,0,0,1,10.44.77C791.62,413.79,792.16,415.48,791,418Z" transform="translate(-119.97 -74.91)"/></g><g id="ぜ"><path class="cls-1" d="M1038.66,587.29c-25.79,9.89-54.6,5.48-77.57-12.82-18.59-14.81-30.31-34.12-35.27-57.24-2.36-11-3-22.38-3.55-33.67-.24-4.92-1.17-5.75-5.62-3.65-7.86,3.73-15.54,7.83-23.33,11.72a83,83,0,0,1-26.1,7.51c-9.11,1.23-16.2-7-15.51-16.12,1.27-16.58,12.69-23.64,26-29.36,10.87-4.68,22.2-8.11,33.28-12.21,3-1.12,4.35-2.55,4.73-6.06,1.39-12.89,2.19-25.95,7.46-38.09,3.22-7.42,7.47-14,15.07-17.7,7.18-3.52,16.77-.81,20.85,6.06a42.2,42.2,0,0,1,5.79,28.79c-.2,1.29-.42,2.57-.5,3.87-.13,2.25.81,3.1,3.11,2.36a157.87,157.87,0,0,1,26.07-6.36c4.76-.69,4.27-4.45,4.05-7.52a47.33,47.33,0,0,1,4.33-23.13c3.51-7.74,6.2-16,12.55-22.25,9.37-9.17,22.14-7.42,28.19,4.23,5.38,10.36,9.38,21.15,7.85,33.21-.25,2-.4,4,2.71,3.89s31.45-2.3,35-2.3h9.9c2.7,0,13.58,2.94,14.72,3.44a34.42,34.42,0,0,1,17.48,16c4.12,7.91,2.46,15.27-5.16,19.89-12,7.24-24.63,11.45-38.59,6.38-13.43-4.88-26.69-1.47-40,.27-2.26.3-2.64,2.06-3.23,3.85-4.59,14.11-7.2,28.73-11.31,42.95-2.22,7.66-6.42,14.47-10.69,21.13-2.84,4.41-7.53,5.52-12.44,4.32-4.72-1.15-7.23-4.42-8.28-9.29-1.54-7.18-.34-14.24.38-21.29,1-9.42,2.48-18.79,1.54-28.32-.5-5.06-1.2-5.68-6.1-4.36-11.66,3.14-23.27,6.45-34.93,9.58-3.07.83-4.61,2.6-4.84,5.73-.88,12-.94,23.88,1.85,35.65.6,2.53,1,5.09,1.58,7.63,4.29,19.87,35,39.83,56.71,32.58A46.06,46.06,0,0,0,1034,536.07c7.55-7.05,12.86-16,19.5-23.8a40,40,0,0,1,23-13.74c16.68-3.44,30.52,10.83,27.56,27.65-1.32,7.43-5.15,12.61-9.83,18-10.88,12.58-23.39,23.29-36.77,32.94A82.39,82.39,0,0,1,1038.66,587.29Z" transform="translate(-119.97 -74.91)"/><path class="cls-6" d="M1003.29,407.6c-.78-14.42,5.71-26.87,12.7-39.12a13.69,13.69,0,0,1,8.09-6.38c5.42-1.65,10.34.06,13,5,5.91,11.21,10,22.8,7.24,35.86-1.24,6-.49,6.49,5.57,6.05a27.52,27.52,0,0,0,4.27-.31c3.91-.92,41.44-3,43.38-2.77,11.35,1.27,21.21,5.22,27.24,15.65,3.57,6.21,2.31,10.39-3.9,14-10.67,6.13-21.74,9.15-33.89,4.54-10.91-4.14-22-2.07-33.1-.83-3.48.39-6.94.94-10.41,1.43-2.92.41-4.44,2-5.18,4.95q-5.64,22.68-11.62,45.27c-1.86,7-5.76,13.05-9.34,19.21a5.77,5.77,0,0,1-6.25,3.1c-2.83-.54-4-2.78-4.53-5.29-1.42-6.74-.53-13.53.58-20.12,2.11-12.56,1.88-25.06.7-37.63-.28-3-2.24-2.76-4.25-2.29-6.69,1.58-13.41,3.09-20,4.89-8.9,2.4-17.73,5.08-26.61,7.55a6.33,6.33,0,0,0-5.1,5.62,110.59,110.59,0,0,0,6,57.79c2,5.33,6,9.17,9.92,12.85,10.33,9.61,22.16,16.27,36.63,17.2,12.44.79,22.82-3.86,31.9-12,7.71-6.91,13.62-15.33,19.75-23.56a36,36,0,0,1,21.36-14c9.08-2.09,18,2.72,20.43,11.73,1.94,7.29.89,14.53-4.25,20.53A219.8,219.8,0,0,1,1054.78,572c-27.12,19.46-60.35,20.52-89-1.43-19-14.53-30.4-33.76-34.48-57.36-2.2-12.69-3-25.51-3.65-38.34-.26-4.7-.48-4.69-5.11-3.29-11,3.35-20.72,9.6-31,14.5-7.63,3.63-15.66,5.58-23.82,7.05-6.5,1.18-10.44-3.39-10-10,.57-9.5,5.9-15.56,13.66-19.89,10.49-5.84,21.93-9.41,33.2-13.35,4.29-1.49,8.46-3.34,12.77-4.77,3.13-1,3.94-3.07,4.14-6.17.85-13.1,2.18-26.17,6.86-38.57,2.07-5.5,5-10.56,10.06-14.06,6.14-4.31,13.38-2.73,16.87,3.93,4.11,7.83,5.63,16.12,3.74,24.91-.87,4.06-1.58,8.15-2.44,12.21-.53,2.49.17,3,2.59,2.17a220.3,220.3,0,0,1,40.26-10.63c2.78-.42,4.12-1.84,4-4.72C1003.2,412.11,1003.29,410,1003.29,407.6Z" transform="translate(-119.97 -74.91)"/><path class="cls-1" d="M1077.49,414c5.4-.9,13.5-4.5,16.2-9s.9-8.1,0-16.2c-.7-6.27-3.55-19-4.8-24.44a22.45,22.45,0,0,0-1.65-4.66c-.81-1.67-1.57-3.31-2.46-5a10.74,10.74,0,0,0-8.59-6,28.52,28.52,0,0,0-17.66,3.53c-4,2.38-5.34,6.07-3.51,10.36a28.49,28.49,0,0,1,2,9.08c.76,8.93,1.44,17.87,2.13,26.8.37,4.77-.11,8.89,3.07,12.87C1065.79,415.75,1072.09,414.85,1077.49,414Z" transform="translate(-119.97 -74.91)"/><path class="cls-6" d="M1072.26,352.2c4.81-.1,7.85,1.53,9.9,5.28,3.49,6.39,4.72,13.45,6.38,20.38q2.1,8.72,3.81,17.51c1.07,5.5-.39,8.55-5.1,11.49a38.55,38.55,0,0,1-13.84,5c-4.79.86-7.88-1.51-9-6.95a232.64,232.64,0,0,1-3.5-28.6c-.36-5.27-.06-10.61-2.44-15.64-1.34-2.85.83-4.66,3.1-5.89C1065.13,352.91,1069.06,352.61,1072.26,352.2Z" transform="translate(-119.97 -74.91)"/><path class="cls-1" d="M1096.39,390.55c2.7,8.1,5.4,9,5.4,9,1.8.9,10,1,11.1.5,8.38-3.83,14.86-12.33,14.14-19.79a79.89,79.89,0,0,0-7.71-28c-4.7-9.48-12.36-11.93-20.19-8.72a18.44,18.44,0,0,1-3.41.82c-5.88,1.16-7.88,3.79-7.3,9.84.24,2.53,3.11,17.68,3.47,20.19A80.78,80.78,0,0,0,1096.39,390.55Z" transform="translate(-119.97 -74.91)"/><path class="cls-6" d="M1105.47,346.52c4.89-.57,7.62,2.56,9.79,6.27,4.67,8,6.38,17,7.9,26,1.36,7.93-6.63,17.28-14.71,18.29-3.33.42-5.4-1-6.71-4.05-3.34-7.71-4.41-16-6.27-24.09-1-4.42-2-8.85-3-13.3-1-5.13-.17-6.34,4.87-7.7C1100,347.19,1102.6,346.27,1105.47,346.52Z" transform="translate(-119.97 -74.91)"/></g></g><g id="text"><g id="真の"><path id="真" class="cls-7" d="M594.16,159.12A12.08,12.08,0,0,1,593,157a4.46,4.46,0,0,0-2.24-.92c-2.47.08-4.88.08-7.26,0H573.33l-3.69-.27q-7,.66-14.1.66a32.26,32.26,0,0,0-6.6.66,20.44,20.44,0,0,1-3.16.53,14.61,14.61,0,0,0-3.43-.13,17.62,17.62,0,0,1-6.06,0c-1.15,0-2.24,0-3.3-.14a6.25,6.25,0,0,0-3.29-.39c-.45.18-.84.35-1.19.53a4.8,4.8,0,0,1-1.19-.14,9.37,9.37,0,0,1-1.58.14,4.63,4.63,0,0,1-1.19-.4,1.94,1.94,0,0,1-1.84-.13,3.64,3.64,0,0,1-.4-3.17q.41-6.72.4-13.71-.13-7.24-.13-14.63t.39-14.37a53.14,53.14,0,0,1-.26-5.41,3.86,3.86,0,0,1,3.95-3,79.92,79.92,0,0,1,13.85-.39,47.79,47.79,0,0,0,7,0,18.83,18.83,0,0,1,3.17.26,8.82,8.82,0,0,0,3.42.13,2.66,2.66,0,0,0,1.06-3.16V95.31a2.89,2.89,0,0,0-3.56-2.24q-3.3.39-6.72.53-7.12-.27-14.37-.14t-14.37.14a13.84,13.84,0,0,1-3.3-.14,9.28,9.28,0,0,0-2.64-.39,3.7,3.7,0,0,1-3.69-.4q-.66-2.23,2-3a21.93,21.93,0,0,1,6.46-.66,7.44,7.44,0,0,0,2.5-.79,7.24,7.24,0,0,1,3-.4q3.42.13,7.12,0,7,.54,14,.8a52.08,52.08,0,0,0,6.2-.66,9.77,9.77,0,0,0,6.32,0,4.22,4.22,0,0,0,.8-4.35l-.27-3.17a4.28,4.28,0,0,1-.39-2.77,4,4,0,0,1,3.29-1.71,25.46,25.46,0,0,1,2.9-.66,11.8,11.8,0,0,0,3.56,0q5.81-1.58,7.25,3.82c-.08,2-.22,4-.39,5.8a4.93,4.93,0,0,0,.39,3,3.61,3.61,0,0,0,3.43,1.31,89.89,89.89,0,0,0,11.08.4,16.93,16.93,0,0,0,5.14-.26,4.46,4.46,0,0,1,3.82.13v-.27a17.68,17.68,0,0,1,2.77.53l3.16-.26a7.58,7.58,0,0,0,3.17.13,9.15,9.15,0,0,0,1.18-.4,6.37,6.37,0,0,0,1.85,0,13.14,13.14,0,0,0,3.16-.39,9.36,9.36,0,0,0,3.17,0,2.47,2.47,0,0,1,.79.13,1.89,1.89,0,0,0,1.19-.13,5.89,5.89,0,0,1,1.18.13,16.6,16.6,0,0,0,2.11-.13,13.86,13.86,0,0,1,6.59,0q2.64,1.45.93,3.69a7.43,7.43,0,0,1-4.75.53,67.73,67.73,0,0,1-7.12.39,57.61,57.61,0,0,1-6.72.14l-7.25-.27c-2.2.27-4.4.44-6.6.53a39.79,39.79,0,0,1-7.25-.13,60.24,60.24,0,0,1-6.85.13,28.23,28.23,0,0,0-6.07-.13A5.26,5.26,0,0,0,571,99.66a2.05,2.05,0,0,0,1.45,2.11,34.19,34.19,0,0,0,6.72.13,54.85,54.85,0,0,0,6.46-.39q3.3.26,7,.39a42.62,42.62,0,0,1,6.59,0,25.85,25.85,0,0,1,6.33.26,3.6,3.6,0,0,1,2.51,3.7c-.09,2.28-.09,4.57,0,6.85q0,14.51.52,28.87,0,3.71.27,7t.79,6.2q-1.85,5.53-8,3.43H597.2a5.07,5.07,0,0,1-2,.39A3.1,3.1,0,0,1,594.16,159.12Zm-68.95,12.39c-1.49-.17-2.9-.4-4.22-.66v.26a17.27,17.27,0,0,0-6.32-.65q-3.3,1.18-4.09-1.59a4.3,4.3,0,0,1,3.95-2.24q3.57-.52,7.12-.92a56.17,56.17,0,0,1,14.37-.53,22.61,22.61,0,0,0,6.46.66h7.65q14.64.14,29.27-.13,3.29,0,6.59-.26a11.7,11.7,0,0,0,3,.13c1.23-.18,2.46-.31,3.69-.4q7.38-.39,14.64-1.05l6.72-.53a10.3,10.3,0,0,1,2.77.4,8.37,8.37,0,0,0,3.29-.14,3.51,3.51,0,0,1,3.83,2.51c-.27,1.84-1.41,2.68-3.43,2.5q-6.6.13-13,.53a56.36,56.36,0,0,0-6.86.4,25.16,25.16,0,0,1-7.25,0,41.81,41.81,0,0,0-6.59.52q-3.69.13-7.38.14-7.12.25-14.24-.14-3.3,0-6.46.14c-1.14,0-2.24,0-3.3.13a7.06,7.06,0,0,1-3.29.26,16.14,16.14,0,0,0-5.8,0,7.17,7.17,0,0,1-2.77,0c-1.23,0-2.37.05-3.43.13-1.5.09-3,.13-4.35.13a21.09,21.09,0,0,1-4.09-.39,14.55,14.55,0,0,0-3.95.26A3.11,3.11,0,0,0,525.21,171.51Zm6.59,18.19a42.44,42.44,0,0,0-4.87-.52,40.3,40.3,0,0,1-5.67-.66,2.87,2.87,0,0,1-3-1.06,2.6,2.6,0,0,1,1.71-2.9,51.51,51.51,0,0,0,4.35-3.43l3.43-3.42a18.57,18.57,0,0,1,3.95-3.43,7.5,7.5,0,0,1,4.22-.92,42.14,42.14,0,0,0,4.75.26,45.62,45.62,0,0,1,5.14-.26c2.64,1.4,2.81,3.21.53,5.4a42.53,42.53,0,0,0-4,2.51,33.17,33.17,0,0,1-3.82,3.29A21.49,21.49,0,0,0,535,187.2,5.9,5.9,0,0,1,531.8,189.7Zm9-37.57a7.76,7.76,0,0,1,4.48,0,18.32,18.32,0,0,0,2.9-.26,27.12,27.12,0,0,0,3.83,0q7-.27,14.37-.13c2.19,0,4.48-.05,6.85-.14a42.13,42.13,0,0,0,7.52-.13h6.06a7,7,0,0,0,5.14-.66,4.62,4.62,0,0,0,.79-4.35,14.23,14.23,0,0,1-.39-3.43,17.1,17.1,0,0,0,.13-3.69,3.51,3.51,0,0,0-3.56-1.18l-3-.27a11.47,11.47,0,0,1-3,.66q-7.4,0-14.37.13a54,54,0,0,1-6.46.14,33.74,33.74,0,0,1-7.26-.27,20.42,20.42,0,0,0-8.3.66,23.18,23.18,0,0,1-4.35-.13,5.48,5.48,0,0,0-3.56.13,3.51,3.51,0,0,0-.79,3.16v4.49a8.83,8.83,0,0,0,.39,4.08C538.66,152.26,539.54,152.66,540.77,152.13Zm26.63-18.19q5.67-.13,11.21-.66c1.84,0,3.69-.09,5.53-.27a13.86,13.86,0,0,1,3.3.14,13.83,13.83,0,0,0,3.3.13q2.49-1.32,1.58-4.62v-3.29a3.43,3.43,0,0,0-.4-2.77,7.51,7.51,0,0,0-3.95-.26l-7,.26a24.17,24.17,0,0,1-6.2-.26,22.67,22.67,0,0,0-6.85.52,17,17,0,0,1-3,0,11.65,11.65,0,0,1-3,.13q-3.69-.26-7.12-.26a110.83,110.83,0,0,0-14.37.66q-2.64.52-2.11,3.3v6.85a46.3,46.3,0,0,1,7-.26,26.68,26.68,0,0,0,7.91.66h7.38A15,15,0,0,1,567.4,133.94Zm5.67-16c2.11-.27,4.35-.53,6.72-.8a31.32,31.32,0,0,1,7-.52,8.7,8.7,0,0,0,4,.13,4.62,4.62,0,0,0,1.18-4.88,6,6,0,0,0-1.18-5.27,9,9,0,0,0-5.28,0,36.76,36.76,0,0,1-6.33-.79q-3.69,0-7.12.13c-2.28.18-4.52.39-6.72.66A69,69,0,0,1,558,107q-3.43,0-6.72-.13a45.53,45.53,0,0,1-6.07-.13q-5.26-.8-6.46,4.35a16,16,0,0,0-.26,5q1.58,2.23,4.61,1.19,7.38.39,14.9.66Q565.55,117.86,573.07,118Zm42.45,70.4c-1.85-.36-3.69-.66-5.54-.93q-3-.14-6.06-.39a9.8,9.8,0,0,1-4.48-2.24,27,27,0,0,1-4.75-2.9q-5.15-3.17-10.28-6.6c-1.67-.87-2-2-.93-3.42a7.62,7.62,0,0,1,4.22-.14,12.56,12.56,0,0,1,2.64-.26,6.75,6.75,0,0,0,2.37.13,10.52,10.52,0,0,1,5-.39,19.34,19.34,0,0,1,4.09,3.56,38.61,38.61,0,0,0,4.61,3.69,45.92,45.92,0,0,0,9.5,5.53,3.15,3.15,0,0,1,2.37,2.77A2.75,2.75,0,0,1,615.52,188.39Z" transform="translate(-119.97 -74.91)"/><path id="の" class="cls-7" d="M714.6,182.46a2.24,2.24,0,0,1-1.55-2.61,5.94,5.94,0,0,1,2.81-2.32,25.19,25.19,0,0,0,6.38-6.67c.71-1.29,1.38-2.64,2-4.06.71-1.68,1.35-3.38,1.93-5.12a61.56,61.56,0,0,0,2-10.25,59.1,59.1,0,0,0,.19-10.73c-.13-1.61-.32-3.23-.58-4.84a52.58,52.58,0,0,0-1.64-5,96.05,96.05,0,0,0-4.25-9.08,16.36,16.36,0,0,0-6.09-6.48l-4.26-1.74a34.81,34.81,0,0,0-4.44-1.84,2.71,2.71,0,0,0-2.42,0,.9.9,0,0,0-.29,1.16v2.9c-.2,1.68-.45,3.29-.78,4.84a37.53,37.53,0,0,0-.77,5.31,62.32,62.32,0,0,1-2.22,10.16c-.78,3.35-1.61,6.7-2.52,10.05a67.13,67.13,0,0,1-3.86,9.76q-1.93,4.55-4,9.09a11.86,11.86,0,0,1-2.51,3.39,26.5,26.5,0,0,0-2.61,4.15,16.1,16.1,0,0,1-5.61,5.8,9.5,9.5,0,0,1-4.45.87c-1.74.2-3.44.33-5.12.39a12.09,12.09,0,0,1-8.6-2.32,19.87,19.87,0,0,1-5.8-7.06,28.13,28.13,0,0,1-2.81-9.47,58.73,58.73,0,0,1-1-10.64,35,35,0,0,1,5.23-18.17,6.34,6.34,0,0,0,1.45-3.29.27.27,0,0,1,.19.1,4.32,4.32,0,0,0,1-2.32,11.59,11.59,0,0,1,1.83-2.9c.71-.84,1.48-1.68,2.32-2.52.78-1,1.52-2.12,2.23-3.28a6.79,6.79,0,0,1,2.32-2.61l1.06-1.07c.39-.25.84-.51,1.35-.77a7,7,0,0,1,2.42-1.84,2.06,2.06,0,0,0,1.35-.58,1.05,1.05,0,0,1,1-.48,1.93,1.93,0,0,1,2.13-1.35,29.7,29.7,0,0,0,4.93-1.84c1.48-.32,3-.68,4.54-1.07a9,9,0,0,1,2.23-.67,10.71,10.71,0,0,0,2.12.19,2.64,2.64,0,0,0,.49.19c.7-.06,1.45-.16,2.22-.29,1.48-.06,3-.06,4.54,0s2.84.17,4.26.29a6.9,6.9,0,0,1,3.77.49V106a1.46,1.46,0,0,0,1.74.38,12.16,12.16,0,0,1,3,.58,16.91,16.91,0,0,0,3.19.68,4.25,4.25,0,0,0,.77.48,2,2,0,0,0,1.35-.09,15.82,15.82,0,0,1,5.32,2q2.22,1.55,4.45,3.29a20.84,20.84,0,0,1,7.35,8.31l1.54,2.32c.32.9.61,1.84.87,2.8a25.08,25.08,0,0,0,1.07,2.71,3.84,3.84,0,0,1,.77,2.8,12.1,12.1,0,0,1,1.84,6.58,51.51,51.51,0,0,1-.39,16.63,69.46,69.46,0,0,1-1.64,8.12c-.39,1.29-.81,2.51-1.26,3.67-.65,1.36-1.29,2.65-1.93,3.87a15.12,15.12,0,0,1-2.13,2.9c-.71,1-1.39,1.9-2,2.8-1,.78-1.9,1.49-2.81,2.13a3.79,3.79,0,0,1-2.22,1.64,2.7,2.7,0,0,1-3.19,1.65,28.49,28.49,0,0,1-4.06-.1h-1.84A4.17,4.17,0,0,1,714.6,182.46Zm-41-11.41a1.77,1.77,0,0,1,.87-1.06,15.43,15.43,0,0,0,1.35-1.84q1.35-2.31,2.71-4.73a101.74,101.74,0,0,0,4.45-9.58,116.58,116.58,0,0,0,6.18-19.72q1-5.22,2-10.54a35.44,35.44,0,0,0,1.26-10q-1.55-2.61-4.45-.68c-1.16.45-2.29.87-3.38,1.26q-1.85,1.35-3.48,2.71a5.56,5.56,0,0,0-2.32,2.41,10.23,10.23,0,0,1-2.42,2.52,59.58,59.58,0,0,0-4.64,6.57,22.36,22.36,0,0,0-2.13,3.58,19.47,19.47,0,0,0-2.32,3,26.58,26.58,0,0,0-1.16,4.25q-.67,2-1.35,4a31.36,31.36,0,0,0,0,16.92,20.06,20.06,0,0,0,3.38,7.35A7.27,7.27,0,0,0,673.61,171.05Z" transform="translate(-119.97 -74.91)"/></g><g id="プロジェクト"><path id="プ" class="cls-7" d="M294.89,761.51q-5.94.79-9.23-3.42a7.12,7.12,0,0,1,2.9-3.83q2-2.76,4.09-5.67,4.22-5.93,8.57-11.86,4.21-5.67,8.56-11.47,15.56-23.34,29.54-48a27.62,27.62,0,0,0,4.08-6.72l-7-.27a55.5,55.5,0,0,0-7.52,0q-7.12.66-14.11,1.06-7.25.52-14.37.52-7.25.4-14.5.66c-2.28,0-4.53-.08-6.72-.26q-3.69-.13-7.25,0a99.81,99.81,0,0,1-14.5-.26,15.9,15.9,0,0,1-6.07-1.19q-2.9-1.84.27-3.56a18.38,18.38,0,0,1,6.19-.53q3.56.13,7.38.14l14.51.26a127.72,127.72,0,0,0,14.23-.53q14.51-.39,29.14-1.58,7.25-.53,14.63-.92,3.43-.14,7-.53a32.08,32.08,0,0,1,7.12-.53q2.9.4,5.93,1.06a6.09,6.09,0,0,1,4.09,2.77,9,9,0,0,1-3.69,6.85,66,66,0,0,0-6.73,10.68q-3.56,6.2-7.38,12.13-3.42,6.06-7.12,12-3.82,6.19-7.78,12A121.13,121.13,0,0,1,321,732q-4.35,5.28-8.3,10.55c-1.15,1.84-2.25,3.65-3.3,5.4q-2.25,2.64-4.35,5.15c-1.32,1.75-2.59,3.47-3.82,5.14q-.93,3.16-3.7,3.16A5.24,5.24,0,0,0,294.89,761.51Zm63.67-100.46a90.7,90.7,0,0,0-9.75-.26c-.09-.09,0-.13.26-.13a5.85,5.85,0,0,1-4.74-1.32,7.22,7.22,0,0,1-3.56-3.16,14.33,14.33,0,0,1-.79-10.81,9.18,9.18,0,0,1,6.06-7.78q2.64-.27,5.4-.66l2.91-.27c.87.27,1.8.53,2.76.8l5.41.26a11.3,11.3,0,0,1,4.75,2.5,10.86,10.86,0,0,1,3.29,8.84,16.38,16.38,0,0,1-2.64,9.09A10.73,10.73,0,0,1,358.56,661.05Zm-2.24-3.95a5.75,5.75,0,0,0,2.77-4.35,17,17,0,0,0,.79-6.72q-1.85-5.81-7.12-3.83a10.42,10.42,0,0,0-2.11,8.18,8.75,8.75,0,0,0,1.72,5.27Q353.95,658.16,356.32,657.1Z" transform="translate(-119.97 -74.91)"/><path id="ロ" class="cls-7" d="M401.54,752.94a3.15,3.15,0,0,1-.79-3.82,52,52,0,0,0,.27-7.38c.26-4.84.35-9.71.26-14.64q-.13-15-.53-30.05-.53-7.39-.79-14.9-.13-7.24-.13-14.77,0-3.28-.27-6.59a4.33,4.33,0,0,1,1.06-4.75,14.58,14.58,0,0,1,5.14-1.45,41.52,41.52,0,0,1,7.38-.39l6.6.79a38.49,38.49,0,0,0,7.12.13q7.25.4,14.63.66,7.11.13,14.37,0,7.38.27,14.63.79a114.25,114.25,0,0,0,14.5.4c2-.09,4.09-.13,6.2-.13a5.74,5.74,0,0,1,4.22,1.71,9.8,9.8,0,0,1-.4,5.27q-.25,3.69-.26,7.25-.66,7.39-.79,14.77-.27,15.17.13,30.06-.13,14.63,0,29.13a6.43,6.43,0,0,1-1.19,4.62,7.14,7.14,0,0,1-5.14,1.18q-7.11.13-14.24-.39-14.62-.93-29.26-.92-11,.26-21.89.79a36.71,36.71,0,0,0-10.28.39A30,30,0,0,1,401.54,752.94Zm36.78-8.43q5.15-.13,10.42-.14h10.41l10.68.53a46.52,46.52,0,0,0,5,0h2.38a4.8,4.8,0,0,1,2.24-.26,55,55,0,0,0,.13-6.59q.14-4,0-7.91a62.63,62.63,0,0,1,.13-7.12v-7.65q-.39-14.76-.13-29.79.14-7.12.53-14.51a57,57,0,0,0,.39-6.72,2.9,2.9,0,0,0-3.16-2q-14.64-1.05-29.27-1.58-7.24.39-14.37.26-7.38-.25-14.77-.26a21.63,21.63,0,0,0-4.08-.13,3.81,3.81,0,0,0-1.45,4.22q.39,7,.39,13.84,1.71,30.19.79,60.38a38.78,38.78,0,0,1-.26,4.62q6.59.78,13.18.92,3.17-.27,6.33-.27A5.34,5.34,0,0,0,438.32,744.51Z" transform="translate(-119.97 -74.91)"/><path id="ジ" class="cls-7" d="M566.86,715.11a44,44,0,0,1-8.83-2l-4.22-1.58A3.89,3.89,0,0,1,551,710a.4.4,0,0,0,.27-.14,5.39,5.39,0,0,0-2-.66,10,10,0,0,1-2.9-.92,22.31,22.31,0,0,1-5.54-2.37q-6.45-2.89-13-5.27-4.22-.93-4.22-4.36a5.83,5.83,0,0,1,3.83-1.31,48.73,48.73,0,0,1,7.25,0,10.32,10.32,0,0,1,5.4,2.37,25,25,0,0,0,5.54,3.16A109.27,109.27,0,0,0,558.82,706a47.83,47.83,0,0,0,6.33,2.24,27.91,27.91,0,0,1,5.54,2q2.1,1.71.39,3.69A5.59,5.59,0,0,1,566.86,715.11Zm-37.7,46.67a2.86,2.86,0,0,1-2.9-2.38,3.64,3.64,0,0,1,3.3-2.24q7-1.57,13.84-3.82A166.8,166.8,0,0,0,569,741.61q13.06-6.86,26.24-14.11,6.06-3,12-6.59c1.58-1.06,3.25-2.11,5-3.17a18.32,18.32,0,0,1,6.59-.39,17.49,17.49,0,0,1,5.14,1c1.93,1.06,2.33,2.46,1.19,4.22a9.21,9.21,0,0,1-4.62,1.85q-3.42,1.18-6.59,2.63-12.79,5.94-25,12.66a188.75,188.75,0,0,1-52.6,21.62,24.63,24.63,0,0,1-3.56.27A9.42,9.42,0,0,0,529.16,761.78Zm42.19-84.38a22.51,22.51,0,0,0-3.3-.26,17.43,17.43,0,0,1-3-.53,12.7,12.7,0,0,1-6.2-2.11q-6.06-3.42-12.26-6.33a111,111,0,0,1-12.65-7.12c-1.85-.87-3.7-1.8-5.54-2.76q-2-2,.53-3.56a20.84,20.84,0,0,1,5.8-.53,12.89,12.89,0,0,1,6.06.92q2.64,1.85,5.27,3.56a49.6,49.6,0,0,0,6.2,3.69A85.45,85.45,0,0,0,564.89,669a43.42,43.42,0,0,0,6.06,2.38,4.49,4.49,0,0,1,3,3.56A2.63,2.63,0,0,1,571.35,677.4Zm23.07-6.06a8.29,8.29,0,0,1-4.62-.79A5.65,5.65,0,0,1,588,667q-1.71-5.67-3.82-11.34-2.25-3.69,1.45-5.41a21.38,21.38,0,0,1,5.27-.13,25.92,25.92,0,0,0,2.64.13,4.89,4.89,0,0,1,2.5-.13,5.53,5.53,0,0,1,1.58,3.3c.53,1.76,1.1,3.51,1.72,5.27a29.51,29.51,0,0,0,1.71,5.14,18.81,18.81,0,0,1,2,4.75Q600.35,673.05,594.42,671.34Zm24-2.24a16.39,16.39,0,0,0-2.9-.53,6.12,6.12,0,0,1-3.29-.66,8.77,8.77,0,0,1-2.64-5.14,52.56,52.56,0,0,0-2.51-6.2,4.26,4.26,0,0,1-1.31-3.43v.27a4,4,0,0,1-2-3.83,2.91,2.91,0,0,1,3.43-2h7.38a3.15,3.15,0,0,1,2.9.66,18.48,18.48,0,0,1,1.32,2.63q1.44,3.3,2.9,6.59a60.43,60.43,0,0,0,2.64,6.46q2,2.64-.4,4.49A40.24,40.24,0,0,1,618.41,669.1Z" transform="translate(-119.97 -74.91)"/><path id="ェ" class="cls-7" d="M669,752.07v-.21h.53a6.65,6.65,0,0,1-3.7,0,21.39,21.39,0,0,0-4.74.1v-.1h.1a4.72,4.72,0,0,0-2.42,0,17.23,17.23,0,0,1-3.27.1,4.82,4.82,0,0,1-3.38-1.26c-.21-1.34.49-2.15,2.11-2.43a30.78,30.78,0,0,1,6.75-.95q3.48.1,7,.32h6.54a1.18,1.18,0,0,1,.21.31,5.45,5.45,0,0,0,1.16-.31,19.12,19.12,0,0,1,3.48-.11,17.24,17.24,0,0,0,3.8,0,6,6,0,0,1,2.95-.1h-.52q.21-3.16.1-6.44c.07-1,.11-2,.11-3a4.73,4.73,0,0,1-.11-2.95,22.47,22.47,0,0,0-.1-4.85q.11-3.37.1-6.75-.32-7-.31-13.93.11-3.37-.11-6.85a5.2,5.2,0,0,1,.21-4.33,21.88,21.88,0,0,0-8,.43q-5-.1-10-.11a29.57,29.57,0,0,1-4.33.11,32.18,32.18,0,0,0-4.53-.32,4.94,4.94,0,0,1-5.38-2.43q2-.63,4.11-1.26a29.63,29.63,0,0,1,5.59-.32,8.9,8.9,0,0,0,2.43-.32c.84.08,1.68.18,2.53.32l2.42.21a15.33,15.33,0,0,0,2.53-.21q5.6.1,11.18,0,5.7-.32,11.5-.53a6.33,6.33,0,0,0,4.64.85H706a32.77,32.77,0,0,1,6.43-.21.47.47,0,0,1-.53-.53l10.55-.21a3.32,3.32,0,0,1,3.27,1.69,2.68,2.68,0,0,1-2.32,2.63,10.76,10.76,0,0,1-5.17,0c-1.76-.07-3.51-.1-5.27-.1a45.34,45.34,0,0,0-5.38.31,9.93,9.93,0,0,1-2.53-.1c-1,0-1.94,0-2.85.1v-.1a3,3,0,0,1-2.21.21,28.85,28.85,0,0,1-3.48,0,1.81,1.81,0,0,1,.1,1.58,3.42,3.42,0,0,0-.1,1.9c.06,1.69.06,3.34,0,5a85.06,85.06,0,0,0,.1,9.59L697,721c0,.85,0,1.66.11,2.43q.21.84-.42.84a4.26,4.26,0,0,1-.21,2.32,13.37,13.37,0,0,0,0,2.53v5.49c0,1.9,0,3.76.1,5.59a28.7,28.7,0,0,1,.11,5.48c-.15,1.48.56,2.15,2.11,2,1.82,0,3.65,0,5.48-.11s3.66,0,5.48-.1a34.72,34.72,0,0,0,6-.11h-.32c.91.07,1.83.11,2.74.11a3.47,3.47,0,0,1,2.22-.32,3.35,3.35,0,0,0,2,.42c.84.07,1.76.11,2.74.11a3.84,3.84,0,0,1,3.17,1.26,2.41,2.41,0,0,1-1.9,3,16.66,16.66,0,0,1-5.27-.21q-3.06,0-5.91.1a55.51,55.51,0,0,1-5.91.11,50.44,50.44,0,0,0-6.43-.43l.1-.1v.32l-3.16-.22a1.66,1.66,0,0,1-1.9-.31h.32a6.58,6.58,0,0,1-2,.1,9.22,9.22,0,0,0-2,.21,2.69,2.69,0,0,1-2.74-.21h1.26a9.07,9.07,0,0,1-4.95-.1c.14.42.45.53.95.31a11.42,11.42,0,0,1-4.64.32c-.92.07-1.8.11-2.64.11a15.24,15.24,0,0,0-2.53,0,7.33,7.33,0,0,1-2.43.21,20.65,20.65,0,0,1-2.32-.32C672.4,751.82,670.65,751.93,669,752.07Z" transform="translate(-119.97 -74.91)"/><path id="ク" class="cls-7" d="M802.09,760.85a22.16,22.16,0,0,1-5.54-.65c-1.58-1.15-1.72-2.42-.4-3.83a9.77,9.77,0,0,0,1.32-1.71c.53-.71,1.14-1.45,1.85-2.24a46.33,46.33,0,0,0,3.82-5.94q7.25-12.26,14.24-24.91a9.54,9.54,0,0,1,1.58-2.38l1.19-2.37c1.23-2,2.41-4,3.56-6.06q3.28-6.33,6.85-12.53,3.83-5.79,7.25-11.86a55,55,0,0,1,2.77-5.54c1.32-1.85,2.59-3.73,3.83-5.67q2.76-5.8,6.06-11.34c.7-1.49.22-2.28-1.45-2.37a6.88,6.88,0,0,0-2.64,0,1.52,1.52,0,0,1-1,.53,6.23,6.23,0,0,1-2-.27c-2.11-.08-4.22-.22-6.33-.39q-3.56-.14-7.25,0a137.3,137.3,0,0,1-14.63,0q-7.26-.14-14.24-.13a26,26,0,0,0-5.93.13,8.45,8.45,0,0,0-3.56,3.69q-7.26,12.25-14.11,24.65-3.69,6.33-7.12,12.79a6.55,6.55,0,0,1-3.29,3.56,21.79,21.79,0,0,1-6.33.13,9,9,0,0,1-5-.39c-1.32-1.23-1.23-2.6.26-4.09a54.51,54.51,0,0,0,6.46-10.94q7-12.79,14.5-25.58,3.57-6.33,7.39-12.65a47,47,0,0,0,3.42-5.41c.27-.79.57-1.67.93-2.64A2.79,2.79,0,0,1,791,643a41.07,41.07,0,0,1,6.46.53,7.2,7.2,0,0,1,4.88,1.85,6.4,6.4,0,0,1-1.06,4.74q-1.85,2.5-3.29,4.88a48.76,48.76,0,0,0,13.45,1l7,.27q3.69-.13,7.52-.13,7.11.14,14.37-.4,7.11.13,14.37-.39a40.32,40.32,0,0,1,6.46.26,21.29,21.29,0,0,1,6.19.92q3,3.69-.52,7.52c-1.15,1.49-2.2,3-3.17,4.48-1.23,2.11-2.41,4.26-3.56,6.46q-3.95,5.93-7.77,11.86-5.94,9.9-11.74,19.91-6.06,10.68-11.86,21.36-3,5-5.8,9.75a87.74,87.74,0,0,0-6.07,10.29q-3,5-6.19,9.75a4.29,4.29,0,0,1-3,2.51A37.69,37.69,0,0,0,802.09,760.85Z" transform="translate(-119.97 -74.91)"/><path id="ト" class="cls-7" d="M902.15,761.38q-4.1-4-2.11-9.89,0-7.25-.13-14.5.39-14.9.79-29.79t1-29.4c.09-4.84.31-9.71.66-14.64.18-2.37.35-4.74.53-7.12a12.3,12.3,0,0,1,0-5.66,8.75,8.75,0,0,1,8.17-2.51,5.58,5.58,0,0,1,6.33,2,15.47,15.47,0,0,1-.52,5.67,34,34,0,0,0-.53,7.38q-.14,7.38-.53,14.5c-.18,2.38-.26,4.71-.26,7q-.27,3.69-.27,7.12a3,3,0,0,0,2.24,2.9,38.79,38.79,0,0,0,6.73,2.5q6.45,2.12,13.05,3.83,4.49,1.18,8.83,2.63a2.59,2.59,0,0,1,1.72.93c-.18,0-.27,0-.27.13a4.05,4.05,0,0,0,3.56,1.18l6.86,2.38a73.29,73.29,0,0,0,13.18,4.08A7.5,7.5,0,0,1,977.3,715q-1.59,5.26-7.65,3.55a8.81,8.81,0,0,1-2.37-.79c-1-.17-1.94-.3-2.9-.39a22.05,22.05,0,0,1-6.33-2.64q-6.72-2.51-13.45-4.48t-13.45-4.35a90.73,90.73,0,0,0-13.44-4,22.89,22.89,0,0,1-2.77-.66q-.66,11.47-.79,22.68c0,1.76,0,3.43.13,5a22.78,22.78,0,0,1-.66,5.54,26.1,26.1,0,0,0,.66,10.15c-.53.35-.57.88-.13,1.58a8.83,8.83,0,0,1,0,3.69,58.45,58.45,0,0,1-.4,6.86,4.13,4.13,0,0,1-4,3.43,30.72,30.72,0,0,1-3.56.79C904.83,761.07,903.47,761.2,902.15,761.38Z" transform="translate(-119.97 -74.91)"/></g></g></svg>