<svg xmlns="http://www.w3.org/2000/svg" viewBox="0 0 1125.63 804.09"><defs><style>.cls-1,.cls-7,.cls-9{fill:#fff;}.cls-1{stroke:#000;stroke-miterlimit:10;}.cls-2{fill:#42ff81;}.cls-3{fill:#0bbfc7;}.cls-4{fill:#f6f657;}.cls-5{fill:#ff4c4d;}.cls-6{fill:#bf46e1;}.cls-7,.cls-9{font-size:150px;font-family:Tanuki-Permanent-Marker, Tanuki Permanent Marker;}.cls-7{letter-spacing:0.07em;}.cls-8{font-size:110px;}</style></defs><title>gochamaze-home</title><g id="ごちゃまぜ"><path class="cls-1" d="M1039.77,612.52c-28.65,11-60.67,6.08-86.19-14.25-20.66-16.46-33.68-37.91-39.19-63.61-2.62-12.24-3.33-24.86-3.94-37.41-.27-5.47-1.3-6.39-6.24-4.05-8.74,4.14-17.28,8.71-25.93,13-9.15,4.55-19,7-29,8.34s-18-7.79-17.23-17.9c1.4-18.43,14.1-26.27,28.87-32.63,12.08-5.2,24.67-9,37-13.57,3.34-1.24,4.84-2.83,5.26-6.73,1.55-14.32,2.44-28.84,8.29-42.32,3.58-8.24,8.3-15.53,16.75-19.67,8-3.9,18.63-.89,23.16,6.74a46.87,46.87,0,0,1,6.43,32c-.22,1.43-.47,2.86-.55,4.29-.15,2.5.9,3.46,3.45,2.63a175.91,175.91,0,0,1,29-7.07c5.28-.77,4.75-4.94,4.5-8.35a52.45,52.45,0,0,1,4.81-25.7c3.91-8.6,6.89-17.82,13.94-24.73,10.42-10.19,24.6-8.24,31.32,4.7,6,11.51,10.43,23.51,8.74,36.9-.29,2.26-.46,4.44,3,4.33s34.94-2.56,38.94-2.56h11c3,0,15.1,3.27,16.36,3.82a38.27,38.27,0,0,1,19.42,17.74c4.58,8.79,2.74,17-5.74,22.11-13.28,8-27.35,12.72-42.86,7.08-14.93-5.42-29.66-1.63-44.46.31-2.52.32-2.94,2.28-3.59,4.28-5.11,15.67-8,31.92-12.57,47.71-2.46,8.52-7.13,16.09-11.88,23.48-3.15,4.9-8.36,6.14-13.82,4.81-5.24-1.28-8-4.92-9.19-10.32-1.72-8-.39-15.83.41-23.66,1.07-10.47,2.76-20.88,1.71-31.47-.55-5.62-1.32-6.32-6.77-4.85-13,3.49-25.86,7.17-38.82,10.65-3.41.92-5.12,2.89-5.37,6.37-1,13.29-1,26.53,2.06,39.61.66,2.81,1.14,5.65,1.75,8.47,4.77,22.09,38.83,44.26,63,36.21a51.25,51.25,0,0,0,19-11.66c8.4-7.84,14.29-17.75,21.67-26.44a44.36,44.36,0,0,1,25.51-15.27c18.53-3.83,33.91,12,30.61,30.72-1.46,8.26-5.72,14-10.92,20-12.09,14-26,25.88-40.85,36.59A91.61,91.61,0,0,1,1039.77,612.52Z" transform="translate(-19 -34.52)"/><path class="cls-1" d="M388.17,368.58c8.29-1,16.6-1.83,24.92-2.26,4.28-.22,5.4-1.92,5.3-5.83-.21-8.54,1.25-16.94,2.52-25.37,3.36-22.24,17.7-31.27,36.61-33.67a82.38,82.38,0,0,1,34.69,3.2,44.34,44.34,0,0,1,20.63,13.75,27,27,0,0,1,6.5,23.73c-1.89,10.48-5.65,20.3-9.91,29.93-1.83,4.14-.33,5.29,3.37,6.09a165.64,165.64,0,0,1,51.39,20.1,67.33,67.33,0,0,1,15.28,12c11.38,12.51,9.43,28.55-4.55,37.91-5.29,3.54-11.18,5.08-17.43,6-17.75,2.49-35.07-1.56-52.55-3.13-6.46-.57-12.89-1.43-19.41-1.41-3.24,0-5,1.15-6.1,4.21-3.18,9.14-6.55,18.2-9.83,27.3-.39,1.06-1.17,2.26-.37,3.29,1,1.27,2.42.49,3.61.12A93.49,93.49,0,0,1,517,482.15c18.91,3.32,31,14.91,37.86,32.46,3.1,7.3,1.1,16.3.1,21.3,0,0-2.14,7.69-3,9-2.07,4.55-6.64,10.8-8.14,12.74-9.86,12.78-22,22.91-37.15,28.9-12.35,4.87-24.71,9.77-37.92,12a14.18,14.18,0,0,1-13.39-4.39,11.56,11.56,0,0,1,3.69-18.8,51.18,51.18,0,0,1,9.88-3.15c18.44-4,32.72-14.63,45.29-28a29.09,29.09,0,0,0,5.66-9.67c2.4-6.25.85-10.75-5.07-13.79-6.5-3.34-13.47-3.93-20.66-3.05-19.26,2.34-36.29,10.11-52,21.19-4.95,3.49-9.78,7.25-15.61,9.19-10.41,3.47-19.09-.9-22.7-11.26-2.33-6.7-1.77-13.69-2.05-19.91-.29-20.12,4.78-38.68,9.46-57.29.84-3.36,1.88-6.66,2.83-10,1.45-5.1,1.36-5.32-3.71-6.35-12.16-2.47-24.36-4.79-36.34-8.11-8.24-2.28-16.24-5.16-23.24-10.27a26.74,26.74,0,0,1,.71-44.15c10.52-7.14,22.46-10.42,34.92-11.9Z" transform="translate(-19 -34.52)"/><path class="cls-1" d="M33.69,430.46a63.76,63.76,0,0,1-9.55-21.85c-3.06-12.82-5.28-25.73-4.42-38.15-2-28.31,10.09-50.4,27.27-70.2,20.16-23.23,45.72-38.42,74.41-49a220,220,0,0,1,55.13-12.36c12.54-1.22,24.7-4.45,37-6.94,18-3.64,35.66-2.35,53.11,2.4,37.29,10.55,52.29,29.55,60.29,41.55l21.67,32.49c2.76,6.4,4.91,13.58,4.66,20.25-5.48,24.36-20.6,42.19-39.32,57.47a202.66,202.66,0,0,1-21.75,15.72c-6.4,4-13.36,5.94-20.7,7.17-14.21,2.39-20.83-9.26-22-19.4-.27-2.39.23-4.88.48-7.32.42-4-.11-4.44-3.92-2.93a62.7,62.7,0,0,0-13.44,6.94c-21.64,15.43-44,29.83-66.17,44.41-19.91,13.07-41.38,22.25-65.15,25.55-14.57,2-28.86,1.53-42.37-4.94C48.28,446.22,39.83,439.29,33.69,430.46Z" transform="translate(-19 -34.52)"/><path class="cls-1" d="M215.24,561.79a54.66,54.66,0,0,0,20-3.26A187.77,187.77,0,0,1,262.34,551c23.16-4.28,43.46-14.23,60.6-30.56a40.55,40.55,0,0,0,11-17.31c4.59-14.23.27-28.84-11.94-39.34-11.34-9.76-23.63-9.93-36.69-3.65-12.29,5.91-22.27,14.93-32.46,23.65a81.38,81.38,0,0,1-35,17.3c-17.17,4-29.72-5.55-30.57-22.91,0-.15,0-.29,0-.44-.48-7.76-6.61-12-13.93-9.37-25.85,9.44-36.44,29.95-29.9,56.35,3.89,15.72,15.95,24.18,29.65,30.65C186.53,561.7,201.16,560,215.24,561.79Z" transform="translate(-19 -34.52)"/><path class="cls-1" d="M423.75,244.18a30.42,30.42,0,0,0-3-12.44,100.87,100.87,0,0,0-17-25.44c-10.63-12-21.55-23.71-34.42-33.42-6.85-5.17-13.68-5.83-20.06-1.63a62.68,62.68,0,0,0-17.56,17.13c-4.9,7.17-4.7,16.6.15,22.64,14.88,18.5,27.4,38.54,38.77,59.34,3.1,5.68,5.6,11.76,10.45,16.33,5.69,5.35,13.71,6.34,19.78,1.57C415.06,277.09,424,263,423.75,244.18Z" transform="translate(-19 -34.52)"/><path class="cls-1" d="M881.56,417.78c-11.93-10.36-26.34-15.21-41.34-18.88a183.13,183.13,0,0,0-29.08-4.39c-2.76-.21-5.23-.62-4.7-4.51.79-5.86,1.62-11.75,1.89-17.64.23-4.9,2.63-6.24,7.09-6.55,12.68-.91,25.21-3.1,37.68-5.5,6.85-1.31,12.69-8.33,13-15,.31-7.2-3.69-12.37-11.43-14.8a44.77,44.77,0,0,0-12.82-1.75c-10.29-.16-19.93,3-29.71,5.52-3.5.88-5.22-.1-5.62-3.68-.76-6.89-1.56-13.77-2.46-20.64-.39-3,.75-4,3.65-3.5,5.71.93,11.34,2.12,17,3.52,9.63,2.38,18.8,6.86,29,6.58,8.09-.23,14.89-2.85,18-11,3-7.9,1-15.08-4.38-21.32-4.16-4.8-9.67-7.66-15.42-10.15-14.6-6.31-30.1-7.82-45.71-8.62-3.88-.2-5.32-1.3-5.16-5.34.38-9.66.35-19.34-1.71-28.89-1.9-8.8-6-15.88-15.41-17.88s-17.12,1.46-22.73,9.11c-7.51,10.26-9.45,22.13-9.19,34.5.2,8.88.28,8.75-8.68,8.6a351,351,0,0,0-53.15,2.63,38.87,38.87,0,0,0-21,9.44c-11,9.68-11.07,25.12,0,33.47,5.65,4.25,12.41,5.92,19.51,6.24,10,.45,19.88-1.15,29.74-2.47,13.16-1.77,26.28-3.89,39.38-6,3.63-.6,5.42.32,5.76,4.16.67,7.48,1.54,14.93,2.4,22.39.37,3.21-1,4.53-4.15,4.49-5.2-.05-10.4,0-15.6,0a225.52,225.52,0,0,0-33.26,2c-11.5,1.63-19.78,7.47-23.78,18.76a12.63,12.63,0,0,0,2.93,13.55,18.51,18.51,0,0,0,12.38,5.55,170.36,170.36,0,0,0,22.9-.9c12-1.28,23.34-5.33,35.28-6.73,8-.92,8.21-1.12,8.36,7.11,0,.43,0,.87,0,1.3,0,7-.33,7.42-7.3,7.12-22.1-.95-42.93,3.23-62.72,13.56-18.22,9.52-29.36,24-33.28,43.89-2.71,13.75-1.52,27.09,7.17,38.84,9.17,12.39,22.92,16.42,37,18.45,20.39,2.93,36.94-6.31,51-19.85s24.34-30,31.56-48.2c1.51-3.81,3.86-5.18,7.65-4.43,17.54,3.48,35.34,6,51.44,14.59a58.37,58.37,0,0,0,16.31,5.65,16.06,16.06,0,0,0,16.72-8.18C891,433.21,889.15,424.37,881.56,417.78ZM756.36,431c-13.15,13.14-28.12,23.41-46.23,28.54-2.71.76-5.9,2.16-8-.71s-.84-6,.65-8.59c5.52-9.61,12.88-17.46,23.39-21.57,8.45-3.31,17.06-6.29,26.23-6.73,2.65.48,6.28-1,7.45,2.06C760.87,426.66,758.25,429.08,756.36,431Z" transform="translate(-19 -34.52)"/><path class="cls-2" d="M1000.47,412.85c-.87-16,6.35-29.85,14.12-43.46a15.16,15.16,0,0,1,9-7.09c6-1.83,11.49.07,14.39,5.6,6.56,12.46,11.06,25.33,8,39.85-1.38,6.66-.55,7.21,6.18,6.72a30.93,30.93,0,0,0,4.74-.35c4.35-1,46-3.32,48.21-3.08,12.6,1.42,23.57,5.8,30.26,17.4,4,6.89,2.57,11.54-4.33,15.5-11.86,6.81-24.15,10.17-37.66,5-12.12-4.6-24.48-2.3-36.77-.92-3.87.44-7.72,1.06-11.57,1.59-3.24.46-4.94,2.23-5.75,5.51q-6.27,25.18-12.91,50.29c-2.07,7.74-6.41,14.5-10.39,21.36a6.41,6.41,0,0,1-6.94,3.44c-3.14-.61-4.44-3.09-5-5.88-1.58-7.49-.59-15,.64-22.36,2.35-13.95,2.09-27.84.78-41.81-.31-3.32-2.49-3.07-4.72-2.55-7.44,1.76-14.9,3.44-22.28,5.43-9.89,2.67-19.7,5.66-29.57,8.4-3.3.92-5.1,2.77-5.66,6.24a122.87,122.87,0,0,0,6.61,64.22c2.23,5.91,6.62,10.18,11,14.27,11.47,10.67,24.63,18.08,40.7,19.11,13.82.88,25.35-4.29,35.45-13.32,8.57-7.67,15.13-17,21.94-26.17a40,40,0,0,1,23.73-15.58c10.09-2.33,20,3,22.7,13,2.16,8.09,1,16.14-4.72,22.81a243.4,243.4,0,0,1-43,39.41c-30.13,21.62-67.06,22.8-98.92-1.59-21.07-16.14-33.78-37.51-38.31-63.73-2.44-14.11-3.29-28.35-4.06-42.6-.28-5.23-.54-5.22-5.68-3.66-12.26,3.73-23,10.67-34.46,16.11-8.48,4-17.41,6.2-26.46,7.84-7.23,1.3-11.61-3.77-11.17-11.11.64-10.55,6.56-17.28,15.19-22.09,11.65-6.49,24.36-10.46,36.89-14.83,4.76-1.67,9.39-3.71,14.18-5.3,3.48-1.16,4.38-3.42,4.6-6.86.95-14.56,2.42-29.08,7.62-42.86,2.31-6.11,5.62-11.73,11.18-15.62,6.82-4.78,14.87-3,18.75,4.36,4.57,8.7,6.25,17.92,4.16,27.68-1,4.51-1.76,9.06-2.72,13.57-.59,2.77.19,3.36,2.88,2.41,14.58-5.17,29.4-9.47,44.73-11.8,3.09-.48,4.58-2.06,4.41-5.25C1000.37,417.86,1000.47,415.55,1000.47,412.85Z" transform="translate(-19 -34.52)"/><path class="cls-1" d="M1082.91,419.91c6-1,15-5,18-10s1-9,0-18c-.77-7-3.94-21.11-5.33-27.16a25.13,25.13,0,0,0-1.83-5.18c-.9-1.85-1.74-3.67-2.74-5.55a11.88,11.88,0,0,0-9.54-6.7,31.55,31.55,0,0,0-19.62,3.91c-4.48,2.65-5.94,6.75-3.9,11.52a31.64,31.64,0,0,1,2.19,10.08c.84,9.92,1.59,19.85,2.37,29.78.4,5.3-.13,9.88,3.4,14.3C1069.91,421.91,1076.91,420.91,1082.91,419.91Z" transform="translate(-19 -34.52)"/><path class="cls-1" d="M1103.91,393.91c3,9,6,10,6,10,2,1,11.12,1.12,12.34.56,9.31-4.26,16.51-13.7,15.71-22a89,89,0,0,0-8.56-31.15c-5.23-10.54-13.74-13.26-22.44-9.69a20.92,20.92,0,0,1-3.79.9c-6.53,1.3-8.75,4.22-8.11,10.94.27,2.8,3.45,19.64,3.85,22.43A90.54,90.54,0,0,0,1103.91,393.91Z" transform="translate(-19 -34.52)"/><path class="cls-2" d="M1077.1,351.3c5.35-.11,8.72,1.7,11,5.87,3.89,7.09,5.25,14.94,7.1,22.64q2.33,9.68,4.23,19.45c1.18,6.12-.44,9.5-5.68,12.78a42.87,42.87,0,0,1-15.37,5.56c-5.33,1-8.76-1.68-9.94-7.72a257,257,0,0,1-3.89-31.78c-.4-5.86-.07-11.79-2.71-17.38-1.49-3.16.92-5.18,3.44-6.54C1069.18,352.08,1073.55,351.75,1077.1,351.3Z" transform="translate(-19 -34.52)"/><path class="cls-2" d="M1114,345c5.43-.63,8.47,2.84,10.88,7,5.19,8.9,7.09,18.92,8.78,28.84,1.51,8.81-7.37,19.2-16.35,20.33-3.69.46-6-1.15-7.45-4.51-3.71-8.57-4.9-17.78-7-26.76-1.13-4.92-2.28-9.84-3.29-14.78-1.16-5.7-.18-7.05,5.42-8.56C1108,345.73,1110.81,344.71,1114,345Z" transform="translate(-19 -34.52)"/><path class="cls-3" d="M406.09,518.45c.1-19.57,3.87-35.88,7.89-52.14,1.69-6.86,3.77-13.63,5.68-20.43,1.27-4.51.89-5.12-3.89-6-15.62-2.87-31.18-6-46.41-10.58a52.21,52.21,0,0,1-15.49-7.6,22.83,22.83,0,0,1,.79-38.09c8.36-5.48,17.75-8.25,27.49-10,11.55-2.06,23.25-2.5,34.91-3.21,4.15-.25,5.55-1.82,5.45-5.81A131.87,131.87,0,0,1,426.67,329a27,27,0,0,1,14.78-18.2c13.16-6.67,27-6.29,41.06-4,9.06,1.46,17.17,4.78,24,11.08,7.11,6.56,10.34,14.29,8.33,24.08-2.34,11.41-6.53,22.12-11.35,32.64-2.18,4.75-2.12,5.15,3.06,6.28,17.57,3.82,34.65,9,50.37,18,7.17,4.11,14,8.66,19.64,14.78,9.62,10.44,7.75,23.94-4.38,31.19A40.26,40.26,0,0,1,555,450.07c-19.06,1.82-37.62-2.56-56.42-4-5.46-.42-10.94-.69-16.41-1.05-2.66-.18-4.3.9-5.24,3.48-4.82,13.3-9.75,26.56-14.61,39.84-.43,1.19-1.47,2.64-.57,3.66,1.21,1.37,2.7-.05,3.93-.54,18.6-7.3,37.74-8.93,56.88-3.41,14.68,4.24,24.2,14.65,28.53,29.46a10.47,10.47,0,0,1-2.19,10.08c-4.37,5.42-7.69,11.25-4.37,18.65,1.12,2.48-.81,4.43-2.09,6.28A82.67,82.67,0,0,1,505.8,582c-10.78,4.53-21.7,8.74-33.12,11.45-2.79.66-5.62,1.41-8.54.8-4.23-.88-7.21-4-7.49-7.9s1.91-6.66,6.46-8c4.14-1.24,8.43-2,12.51-3.42a97.16,97.16,0,0,0,43.06-29.42,30.57,30.57,0,0,0,5.72-10.13c2.79-8.48-.14-15.13-8.15-18.94-8.47-4-17.28-4.12-26.28-2.68a113.33,113.33,0,0,0-49,20.6c-4.2,3-8.26,6.35-13,8.57-10.44,4.9-18.37,1.06-20.56-10.31C406.33,527.09,406.34,521.39,406.09,518.45Z" transform="translate(-19 -34.52)"/><path class="cls-1" d="M644.4,532.9a47.77,47.77,0,0,1-7.3,3.06c-5.62,1.83-8.25,8.11-6.2,13.77,1.66,4.59,6,6,12,4a98,98,0,0,0,25.52-13.59c10.48-7.54,15.87-17.52,15.45-30.63-.36-11.41-9.88-23.2-21-25.6-5.73-1.24-11.52-.91-17.25-.48-3.38.26-3.8-.92-3-3.66a37.14,37.14,0,0,0,1.7-11.08c-.26-9.12-5.43-14.81-13.83-15.2-9.63-.45-15.19,4.43-16.42,13.92a140.78,140.78,0,0,0-.83,20.31c0,2.74-1,4.26-3.68,5-4.71,1.36-9.41,2.81-14,4.47-2.82,1-3.89.34-4.26-2.63A31.93,31.93,0,0,0,584,478.12c-5.79-7.06-14.8-5.6-18.33,2.8a24.17,24.17,0,0,0-1.61,7.13c-.6,6.47,2,11.85,5.36,17,1.8,2.73,1.43,4.74-1.35,6.5-2.43,1.55-4.7,3.34-7.07,5s-13.07,8.38-17.07,17.38c-4,17,7.42,19,13,16,8-4,14.61-9.51,20.72-14.77,4.38-3.78,4.43-3.83,7.33,1.36,6.9,12.36,13.95,24.66,22.54,35.92,5,6.51,9.06,13.82,15.75,18.86a12.18,12.18,0,0,0,14.21,0c3.43-2.52,4.62-7,3.13-12.15a46.9,46.9,0,0,0-2-5.26c-3.53-8.28-10.2-13.9-16.78-19.53a102.7,102.7,0,0,1-24.47-30.57c-1.24-2.37-1.14-4,1.46-5.23,3.81-1.74,7.56-3.6,11.39-5.3,2.23-1,3.42-.14,3,2.31q-1.06,5.75-2.42,11.43c-1.69,7.13-.25,11.51,4.29,12.72,5.08,1.35,8.92-1.91,10.68-9.2,1.51-6.3,2.85-12.65,4.42-18.94.6-2.37,1.41-5.05,4.07-5.76,8.73-2.31,17.53-3.91,26.23.22,5,2.38,6,5.34,3.17,10a28.48,28.48,0,0,1-3.69,4.78A58.17,58.17,0,0,1,644.4,532.9Z" transform="translate(-19 -34.52)"/><path class="cls-4" d="M651.27,485.42c3.14.18,7.2-.4,11.19.58,14.78,3.63,23.39,20.2,17.53,35.72a37.93,37.93,0,0,1-16.11,19.18c-6.63,4.13-13.34,8-20.69,10.79-4.79,1.79-8.85,1.22-9.69-2.11-1.26-5.06-1.11-9.94,4.71-11.8,10.26-3.3,18.17-9.81,25.15-17.71a17,17,0,0,0,3-4.76c2-4.74,1-8.09-3.64-10.45-6.46-3.28-13.26-4.88-20.5-2.83a6.06,6.06,0,0,1-1.68.41c-11.54-.31-12.13,5.58-14.17,14.9-1.17,5.35-2.48,10.66-3.78,16-.82,3.34-3.21,4.87-6.51,4.11a5,5,0,0,1-4.09-6.17c.75-4.11,1.85-8.16,2.73-12.25a34.72,34.72,0,0,0,.88-5.54c.14-2.82-1.42-4.31-4.07-3.15-5.28,2.31-10.7,4.33-15.56,7.54-2.19,1.44-2.3,2.73-1.17,5a101,101,0,0,0,26.29,33.3c6.71,5.54,12.93,11.52,16.37,19.82,2.68,6.47,2.22,11.29-1.55,13.77-4.43,2.91-11,1.84-15.07-3.34-7.06-9.11-14.62-17.86-20.53-27.83-5.3-8.93-10.95-17.67-15.53-27-1.45-3-2.93-2.28-5-.72-6.47,4.81-11.86,11-19.23,14.66-.78.38-1.52.82-2.29,1.22-3.33,1.73-6.71,3-10,.06-2.6-2.32-3.26-7.44-1.65-11.35,2.34-5.67,6.9-9.55,11.14-13.64,3.43-3.32,7.49-5.86,11.44-8.51,5.54-3.71,5.57-3.78,2.08-9.4-3.78-6.08-6.12-12.39-4.13-19.7,1.1-4,3-7.57,7.3-8.27,4-.66,7.15,1.68,9.41,5,3.21,4.73,5.62,9.83,5.89,15.6.19,4.1,1.76,4.44,5.22,3.11a119,119,0,0,1,16-5.16c4.1-.93,5.34-3.1,4.65-6.74-1.23-6.51-.16-13,.28-19.41.45-6.64,3.86-10.89,9.54-12.5s11.45.06,14.66,4.76c3.48,5.09,2.47,10.73,1.35,16.32-.57,2.85-3.47,6.2-1.48,8.26,1.37,1.43,5.45.27,8.32.27Z" transform="translate(-19 -34.52)"/><path class="cls-5" d="M24.65,370.64c-1.54-27.55,10.33-48.78,27.15-68,15.69-18,35-31,56.56-40.54,21.37-9.44,43.55-16.1,67.05-17.82,13.55-1,26.73-4.53,40-7.27,15.66-3.23,31-2.16,46.32,1.35.71.16,1.4.39,2.1.55,6.61,1.48,35.59,22.54,42.59,27.54,6,4,18,18,22,24,2.55,3.83,14,28,16,32,1,2,3,5,1.94,8.94-.32,1.18.18,1.89-.1,2.81a74,74,0,0,1-13.92,26.22c-8.41,10.16-17.55,19.69-28,27.69-9.46,7.27-19.74,13.52-31.94,15.6-10.75,1.82-18.7-5.4-17.73-16.42a101.93,101.93,0,0,1,1.71-12.87c.9-4.06,0-4.7-4-3.29-12.06,4.33-22.86,10.82-33.34,18.16-21.16,14.82-42.57,29.32-64.7,42.68a136.67,136.67,0,0,1-66,20.07,58.39,58.39,0,0,1-60.24-48.32C26.2,392.44,24,381.25,24.65,370.64Z" transform="translate(-19 -34.52)"/><path class="cls-1" d="M341.91,332.91c5-4,14-9.63,15.71-10.87,5.85-4.38,10.69-9.65,13.5-16.57,4.81-11.83,2.43-23.06-3.15-33.78-8.15-15.67-18.35-30.06-29.13-44-10.06-13-18-15-33.28-9.35a94.1,94.1,0,0,0-22.95,12.92c-2.86,2.11-9.88,6.1-11.7,11.64a23.43,23.43,0,0,0,1,15c5,11,21.58,34.47,28,54s14,28,22,29S341.91,332.91,341.91,332.91Z" transform="translate(-19 -34.52)"/><path class="cls-5" d="M368.37,291.29c0,10.8-3.89,18.33-10.92,24.14a162,162,0,0,1-26.84,18.2c-8.3,4.43-13.55,2.83-17.69-5.65-5.37-11-10.09-22.36-15.43-33.4-6.35-13.12-13-26.07-19.61-39.08a17.59,17.59,0,0,1-2-10c.25-2.27,1-4.39,2.92-5.6,11-7.09,21.37-15.3,34.47-18.65,6.54-1.67,12.51-.77,16.68,4.22,14.65,17.5,28.44,35.65,37,57.14A26.78,26.78,0,0,1,368.37,291.29Z" transform="translate(-19 -34.52)"/><path class="cls-5" d="M215.85,556.9c-12.83-2.55-26.37-.2-38.77-5.66-11-4.85-21.41-10.78-26.38-22.45C141,506,149.07,482.45,175,473.38c4.36-1.53,6.82.39,7.23,5.08.26,3,.43,6.05.94,9,2,12,11.27,15.88,21.44,18.5,10.45,2.69,19.85-1,29.36-4.71,12.26-4.76,22-13.09,31.69-21.51,8.22-7.12,16.87-13.63,27.3-17.22q14.82-5.1,26.43,5.68c15.57,14.49,14.71,35.34-1,49.66-18.56,16.92-40.59,25.42-64.76,29.67-8.86,1.56-17,5.41-25.7,7.67A54,54,0,0,1,215.85,556.9Z" transform="translate(-19 -34.52)"/><path class="cls-5" d="M418.35,244.82c.31,16.8-7.81,28.93-20,38.82-5.32,4.34-11.16,3.1-15.71-2.94s-7.23-13.12-11.06-19.56c-11-18.46-22-36.89-35.78-53.5-3.56-4.29-3.75-10.3,0-16.11a52.41,52.41,0,0,1,15.53-15.47c5.71-3.7,9.29-3.24,15,1,12.33,9.19,22.75,20.32,32.84,31.84,6.31,7.19,12.1,14.63,16.14,23.4C417.35,236.5,418.85,240.58,418.35,244.82Z" transform="translate(-19 -34.52)"/><path class="cls-6" d="M884.91,429.78c-.95-4.16-3.44-7.24-6.53-10A64.46,64.46,0,0,0,857.82,408a176.35,176.35,0,0,0-49-10.18c-7.07-.51-7-.57-6.1-7.34,1-7.44,2.3-14.87,2.07-22.4-.11-3.76,1.67-5.18,5.12-5.44,3.74-.29,7.49-.62,11.2-1.16,10.14-1.47,20.29-2.92,30.39-4.67,6-1,11.06-6.95,11-12.28-.06-5.79-4.18-10.18-11.17-11.24-5-.75-10-1.66-15.08-.69-8.94,1.69-17.88,3.34-26.6,6-4.93,1.5-5.75,1-6.41-4.18-1.13-8.88-2.11-17.77-3.22-26.65-.71-5.61.07-6.31,5.72-5.58,12.82,1.66,25,5.68,37.4,9.18,5.39,1.53,10.75,2.08,16.23.59,6.82-1.86,10.39-7.24,9.89-14.29-.64-9.16-6.61-14-13.9-17.88C839.57,271.4,822.28,270,804.94,269c-8.9-.53-8.64,1.23-7.68-8.94a84.69,84.69,0,0,0-2.34-30.94c-1.71-6.15-5.47-11.1-12.12-12.3-7-1.27-13.11,1.07-17.79,6.62a32.44,32.44,0,0,0-5.7,10.14,64.88,64.88,0,0,0-3.14,30.71c.65,5,.16,5.69-4.94,5.27-12.13-1-24.25-.45-36.34.3-9.49.59-19,.5-28.4,2.88-6.79,1.74-12.73,4.75-17.27,10.1-8.13,9.57-5.43,22,5.82,27.48a35.81,35.81,0,0,0,9.9,3c10.64,1.77,21-.6,31.42-1.94,15.17-1.95,30.33-4,45.34-7,3-.6,4.54.11,4.9,3.49,1.07,10.19,2.34,20.36,3.68,30.53.46,3.47-1,4.89-4.25,4.92-5.48.06-11,0-16.46,0-12.57,0-25.12.37-37.56,2.43-9.27,1.54-15.93,6.4-19.09,15.54-1.87,5.42-.39,9.61,4.55,12.54a20.27,20.27,0,0,0,11.25,2.59,166.77,166.77,0,0,0,32.63-3.87c9.27-2.18,18.53-4.44,28.11-5,3.07-.18,4.4.58,4.83,3.8a72,72,0,0,1,.05,16.41c-.31,3.15-1.81,4.33-4.81,4.07-1.29-.11-2.6-.08-3.89-.21a109.15,109.15,0,0,0-55.34,9.12c-18.54,8.15-33,20.05-38,40.85-3.34,14-3.23,27.47,5.33,39.85,5.4,7.8,13.52,11.31,22.09,14.36,23.64,8.43,43.37.58,60.23-15.49,14.68-14,25-31.28,32.36-50.25,1.26-3.27,3.3-4.32,6.6-4.24,5.4.14,10.57,1.6,15.77,2.71,14.39,3.07,28.86,5.93,41.94,13.26a35.82,35.82,0,0,0,13.88,4.68C880.17,447.36,887.1,439.27,884.91,429.78Zm-120.33-5.35c-1.89,4.08-4.05,7.94-7.4,11.08-12.67,11.9-26.79,21.42-43.47,26.81a25.69,25.69,0,0,1-8,1.53c-6.79-.07-10.07-4.38-7.7-11.06,4.59-13,13.94-21.79,26.21-27.34a89,89,0,0,1,26.19-7.25,36.22,36.22,0,0,1,11.6.85C765.28,419.73,765.88,421.61,764.58,424.43Z" transform="translate(-19 -34.52)"/></g><g id="レイヤー_4" data-name="レイヤー 4"><text class="cls-7" transform="translate(423.61 128.91)">真<tspan class="cls-8" x="161.25" y="-4.38">の</tspan></text><text class="cls-9" transform="translate(336.61 761.91)">掲示板</text></g></svg>