<svg id="レイヤー_2" data-name="レイヤー 2" xmlns="http://www.w3.org/2000/svg" viewBox="0 0 1175.76 106.29"><defs><style>.cls-1{fill:#fff;}</style></defs><title>prodeuced-by-arcship</title><path class="cls-1" d="M56.43,362.9a9.25,9.25,0,0,1-3.63-.7,4.81,4.81,0,0,1-.7-4.81,34.05,34.05,0,0,0-.12-6.21c0-2.19,0-4.45.12-6.8q-.36-13.12.11-26.48.48-6.33.71-12.77V292q.12-6.56.23-13.12a12.88,12.88,0,0,1,.59-7.5,5.92,5.92,0,0,1,2.93-1.76,13.29,13.29,0,0,1,2-.35,4.6,4.6,0,0,0,2.46-.24v.24c1.8-.16,3.67-.36,5.63-.59a55.86,55.86,0,0,1,6.09.59c1.87.07,3.83.07,5.86,0,.86.15,1.76.35,2.69.58a9.51,9.51,0,0,0,3,.7,11,11,0,0,1,1.88.94,7.19,7.19,0,0,0,2.34.59,11.21,11.21,0,0,1,4.57,2.81c.62.47,1.25.9,1.88,1.29l1.64,1.64a24.17,24.17,0,0,1,2.11,4.45A38.1,38.1,0,0,1,102,293.76a57.76,57.76,0,0,1,.12,12.19,19.91,19.91,0,0,1-2,4.92q-.47,1.29-.93,2.46a18.18,18.18,0,0,1-1.88,2.22c-.47.87-.9,1.65-1.29,2.35a2.89,2.89,0,0,1-1.87,1.29,23.61,23.61,0,0,0-2.23,1.52,24.18,24.18,0,0,1-2.69.94A28.68,28.68,0,0,1,85,322.94a41.23,41.23,0,0,0-4.69.7,40.71,40.71,0,0,1-9.14,1.06,4.63,4.63,0,0,0-5,2.69,29.3,29.3,0,0,0-.12,8.67,187.46,187.46,0,0,0,.35,19.69,6.38,6.38,0,0,1-1.4,6,5.22,5.22,0,0,1-3.87.82A31,31,0,0,0,56.43,362.9Zm16.06-44.53a9,9,0,0,1,2.58-.59,11.78,11.78,0,0,0,2.11-.94,11.45,11.45,0,0,0,4.8-2.57,16.69,16.69,0,0,0,4.57-9.38,33.25,33.25,0,0,0-2-21.8,15.12,15.12,0,0,0-7.74-6.68,25.27,25.27,0,0,0-5.39-.58,3.94,3.94,0,0,0-3.86,1.76A9.67,9.67,0,0,0,67,282v19.57q-.12,6.92-.59,13.59a2.51,2.51,0,0,0,1.18,3.28,9,9,0,0,0,2.57.12A3.08,3.08,0,0,0,72.49,318.37Z" transform="translate(-51.76 -267.74)"/><path class="cls-1" d="M120.77,363a10.2,10.2,0,0,0-3.52-.59,3.93,3.93,0,0,1-2.22-2.81,16.42,16.42,0,0,1-.24-4.81,38.51,38.51,0,0,0-.11-5.15,53.53,53.53,0,0,1,.11-10.67c-.08-3.51-.27-7-.58-10.54V318.37q-.24-5.28-.12-10.78-.12-2.46-.12-5a6.07,6.07,0,0,1,.71-4.34,7.45,7.45,0,0,1,6.21-1.52q-.12,0-.12-.24,4.68-1.17,7.27,2.58c.07,1.56.78,2.27,2.1,2.11a29.7,29.7,0,0,1,3.05-2,15.56,15.56,0,0,1,5.39-.94,23.85,23.85,0,0,1,6.21.12,5.61,5.61,0,0,0,2.58.35,5.65,5.65,0,0,1,2.11.7c.78.32,1.6.63,2.46.94.31.16.66.31,1.06.47a1.71,1.71,0,0,0,.58.7,4.21,4.21,0,0,1,2.81,2.81,4.08,4.08,0,0,1-1.4,4.34,5.67,5.67,0,0,1-4.22-.23,51.36,51.36,0,0,1-5.16-1.18,6.71,6.71,0,0,0-2.11-.35,3.35,3.35,0,0,0-2,1.29,8.42,8.42,0,0,1-1.76,1.17,18.49,18.49,0,0,0-1.29,2,20.89,20.89,0,0,0-5.74,8.67q-1.17,5.75-2.34,11.25a27,27,0,0,0-.24,6.09c-.15,2.27-.27,4.49-.35,6.68q-.34,6.33-.11,12.66a5.9,5.9,0,0,1-1.29,4.69,4.55,4.55,0,0,1-4.34.58A4.55,4.55,0,0,1,120.77,363Z" transform="translate(-51.76 -267.74)"/><path class="cls-1" d="M190,364a5.81,5.81,0,0,0-2.23-.7c-.94-.31-1.84-.63-2.69-.94s-1.53-.58-2.23-.82a10.69,10.69,0,0,1-2.81-.58,19.08,19.08,0,0,1-8.44-7.27,38.78,38.78,0,0,1-4.34-21.56,60.47,60.47,0,0,1,4.1-23.79,21.5,21.5,0,0,1,7.15-8.44,37.51,37.51,0,0,1,5.16-2,29,29,0,0,1,6.21-1.64l5.51.23A10.45,10.45,0,0,1,198,297a11.82,11.82,0,0,1,2.81.35,4,4,0,0,0,1.52.82,5.59,5.59,0,0,1,2.11.7,15.49,15.49,0,0,1,4,3.75,19.47,19.47,0,0,0,2.93,3.4,10.7,10.7,0,0,1,2,5l3.51,11.95a35.51,35.51,0,0,1,.59,12.54,58.86,58.86,0,0,1-2,12.19,27,27,0,0,1-6.1,9.38,11.35,11.35,0,0,1-3.4,3,15.66,15.66,0,0,1-4.92,2.35,47.29,47.29,0,0,1-5.62.82q-1.41,0-2.7-.12C191.79,363.48,190.89,363.72,190,364Zm3.16-9.25a1.66,1.66,0,0,0,1.76-.36,1.44,1.44,0,0,1,1.05-.46c-.07.07-.15,0-.23-.12a12.21,12.21,0,0,1,1.41-1.64,7.78,7.78,0,0,0,1.4-2,32.59,32.59,0,0,0,3-5.63,49.42,49.42,0,0,0,1.76-5.74c.07-.94.15-1.88.23-2.81a25.06,25.06,0,0,1,.47-3.17,40.37,40.37,0,0,0-1.41-12.19,33.38,33.38,0,0,0-1.64-5.5,21.93,21.93,0,0,0-2.46-5.16,18.66,18.66,0,0,1-1.52-2,9.55,9.55,0,0,0-1.64-1.88,5.58,5.58,0,0,0-4.81.82,13.72,13.72,0,0,0-6.21,7.5,16.65,16.65,0,0,0-1.29,5.75c-.39,2.1-.78,4.18-1.17,6.21a49.62,49.62,0,0,0,0,12.77,57.17,57.17,0,0,0,1.76,6.21,10.68,10.68,0,0,0,2.93,5.27,20,20,0,0,0,4.1,3.17A3.91,3.91,0,0,0,193.19,354.7Z" transform="translate(-51.76 -267.74)"/><path class="cls-1" d="M274.05,365.36a2,2,0,0,0-1.76-.47,3.26,3.26,0,0,1-2.46-.23,8.86,8.86,0,0,1-5.15-1.53,7.93,7.93,0,0,0-1.53-3,9.56,9.56,0,0,0-3.86,1.05,25.47,25.47,0,0,0-2.47.94,26.56,26.56,0,0,1-2.69.58,21,21,0,0,1-6.21.24,3.83,3.83,0,0,1-2.23-.94,15.56,15.56,0,0,0-2.58-.47,12.57,12.57,0,0,1-5.39-2.22,15.45,15.45,0,0,1-7-7.74,38,38,0,0,1-2.23-11.48,122.41,122.41,0,0,1-.23-13.13A38.76,38.76,0,0,1,229.87,315a22.79,22.79,0,0,1,6.33-9.38,32.22,32.22,0,0,1,4.57-3.16,12.22,12.22,0,0,1,5.74-1.41c1.88,0,3.83,0,5.86-.11a39,39,0,0,1,6,.23,5.1,5.1,0,0,0,4.1.82,6.93,6.93,0,0,0,.35-4.57q-.35-6.56-.59-13.24-.1-3.16-.11-6.33a23.51,23.51,0,0,1,.47-5.74,2.51,2.51,0,0,1,3-2.23,16.15,16.15,0,0,0,4.81,0q5.26-.71,6.21,4.34c-.16,2.73-.39,5.47-.7,8.2q-.12,6.21.23,12.42.24,12.66.47,25.32-.12,12.76,0,25.31,0,6.33.47,12.54a12.94,12.94,0,0,1-.24,5.5A3.58,3.58,0,0,1,274.05,365.36Zm-25-9a4.23,4.23,0,0,0,3.28-.47A5.56,5.56,0,0,0,254,354.7a8.26,8.26,0,0,0,2-1.29,14.43,14.43,0,0,0,3.05-4.11q1.29-2.81,2.46-5.74a79.58,79.58,0,0,0,1.88-12.18A24.65,24.65,0,0,0,260.57,320a38.78,38.78,0,0,0-5.21-9.2q-3.47-4.63-8.73-1.47a19.33,19.33,0,0,0-4.45,9.14,46.19,46.19,0,0,0-.71,12.31A86.52,86.52,0,0,0,243,345.67a13.66,13.66,0,0,0,1.75,6.33A9.06,9.06,0,0,0,249.09,356.34Z" transform="translate(-51.76 -267.74)"/><path class="cls-1" d="M305.46,364a26,26,0,0,1-4.22-.82c.15.08.23,0,.23-.11a3.5,3.5,0,0,0-2.34-.59,9.08,9.08,0,0,1-4.57-2.81A22.4,22.4,0,0,1,291,356a38.48,38.48,0,0,1-4.45-11.25,29.33,29.33,0,0,1-.47-6.44c-.23-2-.43-4-.58-6a38.37,38.37,0,0,1,.11-6.68,40.9,40.9,0,0,1,6.8-21.56q1.88-1.87,4-3.63a26.67,26.67,0,0,1,2.11-1.88q1.17-.58,2.7-1.29a19.56,19.56,0,0,1,5.27-1.17,23.21,23.21,0,0,1,6.1.35,36.45,36.45,0,0,1,8.78,1.53,7.32,7.32,0,0,1,3.52,2.11,3.32,3.32,0,0,0,1.52,1.17c.55.55,1.1,1.05,1.64,1.52a37.74,37.74,0,0,1,4.57,7.38c.39.55.75,1.1,1.06,1.64a4.53,4.53,0,0,0,.59,1.76A28.12,28.12,0,0,1,336,318a16.38,16.38,0,0,1,1.76,8.78,3.93,3.93,0,0,1-2.23,2.93,12.87,12.87,0,0,1-3.86.82,28.37,28.37,0,0,1-4.46-.58,28.77,28.77,0,0,1-4.68-.59c-.71-.07-1.41-.11-2.11-.11a7.32,7.32,0,0,1-2.11.58,9.06,9.06,0,0,0-3.52,0,1.79,1.79,0,0,0-2.34-.58h-.94a2.79,2.79,0,0,0-.94.58,5.3,5.3,0,0,1-3.16-.47,15.74,15.74,0,0,0-5.39,0,2.5,2.5,0,0,0-2,3.05,33.44,33.44,0,0,0,5.39,19.69,9.09,9.09,0,0,0,8.79,4.33A10.94,10.94,0,0,0,322,349.3a5,5,0,0,1,2.34-3.86,12.41,12.41,0,0,1,4.57-.59,10.76,10.76,0,0,1,7.15,1.06q2.94,4.21-.47,8.55a8.87,8.87,0,0,1-3.51,3.28c-1.56,1.1-3.09,2.23-4.57,3.4a17.81,17.81,0,0,1-5,1.76c-.94.23-1.84.43-2.7.58-.86-.07-1.68-.15-2.46-.23a9.32,9.32,0,0,1-2.58-.12,20.34,20.34,0,0,0-3.16.24A17.65,17.65,0,0,0,305.46,364ZM309,322.23l1.88-.46a16.44,16.44,0,0,0,2,.35c1.72-.16,3.48-.24,5.27-.24a2.78,2.78,0,0,0,3.17-.93,5.84,5.84,0,0,0-.82-4.11,62,62,0,0,0-3.75-8.32,22.59,22.59,0,0,0-3.4-4.33,2.5,2.5,0,0,0-1.64-.59,7.61,7.61,0,0,0-.82.7,9.05,9.05,0,0,1-2,1.53,16.78,16.78,0,0,0-5.86,7.73,11.56,11.56,0,0,0-1.88,7.39,2.43,2.43,0,0,0,3.4.7,22.14,22.14,0,0,1,2.23.12A5.42,5.42,0,0,0,309,322.23Z" transform="translate(-51.76 -267.74)"/><path class="cls-1" d="M362.06,363a54.09,54.09,0,0,1-9.73-3.52,11.45,11.45,0,0,1-3.87-8.55q-.69-13-.58-26.14.22-6.44.12-12.89-.12-3,0-6-.12-3.29-.12-6.57a3.09,3.09,0,0,1,2.34-2.58,16.43,16.43,0,0,1,2.82-.23,3.71,3.71,0,0,1,.93.12,7.13,7.13,0,0,0,1.76-.24,18.73,18.73,0,0,0,5.16.24c1.79-.08,2.77.86,2.93,2.81q-.36,2.7-.94,5.27-.12,3.28-.35,6.33V317q-.12,3.29-.35,6.45a84.46,84.46,0,0,0,.23,12.65,75.14,75.14,0,0,0,1.41,12q.46,5.85,5.74,6.79a8.46,8.46,0,0,0,5.86-5.62,67.63,67.63,0,0,0,2.93-11.84q.47-6.33.94-12.65.46-2.94.7-5.86a34.48,34.48,0,0,1,.35-6.33c.16-1.95.27-4,.35-6.1s.27-4.06.35-6.09a6.85,6.85,0,0,1,1.41-4.22,5.17,5.17,0,0,1,4.57-.47,32.7,32.7,0,0,0,5.51.94,4.47,4.47,0,0,1,3.75,1.88,15.7,15.7,0,0,1,.47,4.57q-.24,3.17-.47,6.09a51.22,51.22,0,0,1-.35,6,47,47,0,0,0-.24,6.68q-.46,6.44-.47,12.89c0,1,0,1.95.12,2.81s0,2-.12,2.93c0,2.19.08,4.33.24,6.44a56.38,56.38,0,0,0,.7,7.39,5.72,5.72,0,0,1-.94,5.5,4.4,4.4,0,0,1-3.28.36c-.86.15-1.68.27-2.46.35a7.13,7.13,0,0,0-1.76-.24,4.93,4.93,0,0,1-1.87.12,13.35,13.35,0,0,1-4-.35,6.79,6.79,0,0,0-3.51-.24c-1.17.39-2.27.78-3.28,1.18a12.52,12.52,0,0,1-3.75.58l-3.05.94h-1.64c-.63.15-1.21.27-1.76.35a9.91,9.91,0,0,1-1.64-.12Q362.53,362.9,362.06,363Z" transform="translate(-51.76 -267.74)"/><path class="cls-1" d="M428.15,363.25a5,5,0,0,1-2.22-.7,7.32,7.32,0,0,0-2.35-.94,4,4,0,0,1-2.46-.59l-2.58-1.64a18.82,18.82,0,0,1-6-7.73,30.82,30.82,0,0,1-2.35-5.16,23.2,23.2,0,0,1-1.05-6.21c-.32-2-.55-4.1-.71-6.21a58.15,58.15,0,0,1,.12-6.33A38.2,38.2,0,0,1,413,306.18a18.31,18.31,0,0,1,8.08-6.45c1.8-.78,3.63-1.48,5.51-2.1a37.21,37.21,0,0,1,6.09-.94h2.7a21.68,21.68,0,0,0,2.93-.47,13.6,13.6,0,0,1,5.15,1.52,8.91,8.91,0,0,0,2.46.82,3.76,3.76,0,0,1,1.41,1.06,12.13,12.13,0,0,0,2.11.93,21.94,21.94,0,0,0,2.23,1.53,17.23,17.23,0,0,1,5.5,8q2.24,4.56-.82,8.2a5.68,5.68,0,0,1-4.68,1.17H449a7.58,7.58,0,0,1-2.93-.58,9.6,9.6,0,0,1-3.4-6.45,15.68,15.68,0,0,0-4.8-8.09,8.19,8.19,0,0,0-4.69-.93,9.23,9.23,0,0,0-4.92,2.46,30.33,30.33,0,0,0-3.16,3.4,18.42,18.42,0,0,0-2.23,5.27,48.77,48.77,0,0,0-1.29,12.19,47.18,47.18,0,0,0,.35,5.74q0,3,.24,6a17.44,17.44,0,0,0,1.75,5.15,32.7,32.7,0,0,0,2.58,5.16,6.83,6.83,0,0,0,1.53,1.87,10.45,10.45,0,0,1,1.64,1.53,9.62,9.62,0,0,0,5.15,2.58q4.92,1.17,7.62-3.29a27.46,27.46,0,0,0,1.29-11,4.9,4.9,0,0,1,1.87-4,6.93,6.93,0,0,1,2.58-.46c1.09-.16,2.23-.32,3.4-.47a8.53,8.53,0,0,1,5.51,2,6,6,0,0,1,1.64,5.27,23.18,23.18,0,0,1-5.39,12.66,28.55,28.55,0,0,1-11.6,5.74,41.71,41.71,0,0,1-6.1.94A62.76,62.76,0,0,1,428.15,363.25Z" transform="translate(-51.76 -267.74)"/><path class="cls-1" d="M486.28,364a26,26,0,0,1-4.22-.82c.15.08.23,0,.23-.11a3.5,3.5,0,0,0-2.34-.59,9.08,9.08,0,0,1-4.57-2.81,22.4,22.4,0,0,1-3.52-3.64,38.48,38.48,0,0,1-4.45-11.25,29.33,29.33,0,0,1-.47-6.44c-.23-2-.43-4-.58-6a38.37,38.37,0,0,1,.11-6.68,40.9,40.9,0,0,1,6.8-21.56q1.88-1.87,4-3.63a26.67,26.67,0,0,1,2.11-1.88q1.17-.58,2.7-1.29a19.56,19.56,0,0,1,5.27-1.17,23.21,23.21,0,0,1,6.1.35,36.45,36.45,0,0,1,8.78,1.53,7.32,7.32,0,0,1,3.52,2.11,3.32,3.32,0,0,0,1.52,1.17c.55.55,1.1,1.05,1.64,1.52a37.74,37.74,0,0,1,4.57,7.38c.39.55.75,1.1,1.06,1.64a4.53,4.53,0,0,0,.59,1.76,28.12,28.12,0,0,1,1.75,4.46,16.38,16.38,0,0,1,1.76,8.78,3.93,3.93,0,0,1-2.23,2.93,12.87,12.87,0,0,1-3.86.82,28.37,28.37,0,0,1-4.46-.58,28.77,28.77,0,0,1-4.68-.59c-.71-.07-1.41-.11-2.11-.11a7.32,7.32,0,0,1-2.11.58,9.06,9.06,0,0,0-3.52,0,1.79,1.79,0,0,0-2.34-.58h-.94a2.79,2.79,0,0,0-.94.58,5.3,5.3,0,0,1-3.16-.47,15.74,15.74,0,0,0-5.39,0,2.5,2.5,0,0,0-2,3.05,33.44,33.44,0,0,0,5.39,19.69,9.09,9.09,0,0,0,8.79,4.33,10.94,10.94,0,0,0,7.73-7.15,5,5,0,0,1,2.34-3.86,12.41,12.41,0,0,1,4.57-.59,10.76,10.76,0,0,1,7.15,1.06q2.94,4.21-.47,8.55a8.87,8.87,0,0,1-3.51,3.28c-1.56,1.1-3.09,2.23-4.57,3.4a17.81,17.81,0,0,1-5,1.76c-.94.23-1.84.43-2.7.58-.86-.07-1.68-.15-2.46-.23a9.23,9.23,0,0,1-2.57-.12,20.37,20.37,0,0,0-3.17.24A17.65,17.65,0,0,0,486.28,364Zm3.51-41.72,1.88-.46a16.44,16.44,0,0,0,2,.35c1.72-.16,3.48-.24,5.27-.24a2.78,2.78,0,0,0,3.17-.93,5.84,5.84,0,0,0-.82-4.11,62,62,0,0,0-3.75-8.32,22.59,22.59,0,0,0-3.4-4.33,2.5,2.5,0,0,0-1.64-.59,8.73,8.73,0,0,0-.82.7,9.05,9.05,0,0,1-2,1.53,16.78,16.78,0,0,0-5.86,7.73,11.56,11.56,0,0,0-1.88,7.39,2.43,2.43,0,0,0,3.4.7,22.14,22.14,0,0,1,2.23.12A5.42,5.42,0,0,0,489.79,322.23Z" transform="translate(-51.76 -267.74)"/><path class="cls-1" d="M574.87,365.36a2,2,0,0,0-1.76-.47,3.26,3.26,0,0,1-2.46-.23,8.86,8.86,0,0,1-5.15-1.53,7.93,7.93,0,0,0-1.53-3,9.56,9.56,0,0,0-3.86,1.05,25.47,25.47,0,0,0-2.47.94,26.56,26.56,0,0,1-2.69.58,21,21,0,0,1-6.21.24,3.83,3.83,0,0,1-2.23-.94,15.56,15.56,0,0,0-2.58-.47,12.57,12.57,0,0,1-5.39-2.22,15.5,15.5,0,0,1-7-7.74,37.66,37.66,0,0,1-2.22-11.48,119.87,119.87,0,0,1-.24-13.13A38.76,38.76,0,0,1,530.69,315a22.79,22.79,0,0,1,6.33-9.38,32.22,32.22,0,0,1,4.57-3.16,12.22,12.22,0,0,1,5.74-1.41c1.88,0,3.83,0,5.86-.11a39,39,0,0,1,6,.23,5.1,5.1,0,0,0,4.1.82,6.93,6.93,0,0,0,.35-4.57q-.35-6.56-.58-13.24-.12-3.16-.12-6.33a24,24,0,0,1,.47-5.74,2.51,2.51,0,0,1,3-2.23,16.15,16.15,0,0,0,4.81,0q5.26-.71,6.21,4.34c-.16,2.73-.39,5.47-.7,8.2q-.12,6.21.23,12.42.24,12.66.47,25.32-.12,12.76,0,25.31,0,6.33.47,12.54a12.94,12.94,0,0,1-.24,5.5A3.58,3.58,0,0,1,574.87,365.36Zm-25-9a4.23,4.23,0,0,0,3.28-.47,5.56,5.56,0,0,0,1.64-1.17,8.07,8.07,0,0,0,2-1.29,14.43,14.43,0,0,0,3-4.11q1.29-2.81,2.46-5.74a79.58,79.58,0,0,0,1.88-12.18A24.65,24.65,0,0,0,561.39,320a38.78,38.78,0,0,0-5.21-9.2q-3.46-4.63-8.73-1.47a19.33,19.33,0,0,0-4.45,9.14,46.19,46.19,0,0,0-.71,12.31,86.52,86.52,0,0,0,1.53,14.88,13.66,13.66,0,0,0,1.75,6.33A9.06,9.06,0,0,0,549.91,356.34Z" transform="translate(-51.76 -267.74)"/><path class="cls-1" d="M652,365.24a2.58,2.58,0,0,1-2.69-1.52,45,45,0,0,1-.24-6.56q.12-6.33.47-12.78-.35-6.33-.12-12.89a86.22,86.22,0,0,0,.24-12.65,37,37,0,0,1,.23-5.86V306.3q0-6.57.24-13.13.23-6.33,0-12.89a18.9,18.9,0,0,1-.24-7.26q3.17-3.75,8.44-2.35a7.72,7.72,0,0,1,4.57.47,5.68,5.68,0,0,1,1.29,4q-.12,5.63-.24,11.13a115.19,115.19,0,0,1-.7,12.77,3.58,3.58,0,0,0,.47,3.75,7.44,7.44,0,0,0,4.1-1.29,21.7,21.7,0,0,1,5-.11q3,.11,6.33.11a19.32,19.32,0,0,1,15.94,11.14,31.28,31.28,0,0,1,2.81,11.13q.35,6.45.35,12.77a33.05,33.05,0,0,1-5.86,19.81,15.73,15.73,0,0,1-8.91,5.15A27.43,27.43,0,0,1,672,362.55a24.84,24.84,0,0,1-2.58-.35,10.54,10.54,0,0,1-2-1.18,14.59,14.59,0,0,1-2.58-.47,3.68,3.68,0,0,0-2-.58l-1.76,3.28a30.33,30.33,0,0,1-4.92,1.41A26.59,26.59,0,0,1,652,365.24Zm25.2-8.9a9.18,9.18,0,0,0,3.16-3,7.8,7.8,0,0,0,1.41-2,12.78,12.78,0,0,0,.7-2.58,81.56,81.56,0,0,0,2.23-11.49,114.4,114.4,0,0,0,.11-11.6c-.15-1.79-.27-3.67-.35-5.62a4.29,4.29,0,0,0-.94-3.4l-.11.23a5.24,5.24,0,0,0-2.11-4.57,6.6,6.6,0,0,0-5.51-4.22,10,10,0,0,0-6.68,5.51,14.22,14.22,0,0,1-1.29,1.76,6.23,6.23,0,0,0-.94,2.34c-.86,1.88-1.68,3.75-2.46,5.63a36.33,36.33,0,0,0-1.52,5.16,17.52,17.52,0,0,0,.23,5.74,56.25,56.25,0,0,0,2.23,11,15.2,15.2,0,0,0,4.57,8,10.08,10.08,0,0,0,4.22,2.7A3.09,3.09,0,0,0,677.18,356.34Z" transform="translate(-51.76 -267.74)"/><path class="cls-1" d="M727,374q-2.46-.7-4.92-1.29a3.24,3.24,0,0,1-3.17-2.11,7.09,7.09,0,0,1,2-4.22,24.68,24.68,0,0,0,2.69-5.39,33.71,33.71,0,0,1,2.35-5,5.74,5.74,0,0,0,1.05-4.92c-.78-1.4-1.52-2.89-2.23-4.45a45.56,45.56,0,0,1-2-6q-4.1-12.3-7.62-24.84c-.46-1.88-.93-3.71-1.4-5.51-.7-1.95-1.37-3.9-2-5.86q-2.82-5.26,1.75-8l4.81-.47a8.51,8.51,0,0,1,5,.36,6.94,6.94,0,0,1,1.52,4.1,52.68,52.68,0,0,0,1.06,5.86q.81,2.68,1.4,5.27a2.21,2.21,0,0,0,.47,2,2.16,2.16,0,0,1,1.06,1.64q.69,2.7,1.52,5.39c.54,2.11,1.17,4.18,1.87,6.21.63,1.88,1.21,3.79,1.76,5.75a2,2,0,0,0,1.17,1.75,2.58,2.58,0,0,0,1.29-2,37.92,37.92,0,0,1,2.35-5.15,31.36,31.36,0,0,0,2-5.86q1.88-6.09,4.22-11.84a38.79,38.79,0,0,1,2.46-5.16,48.11,48.11,0,0,1,2.46-5.5,3.2,3.2,0,0,1,3.4-.82,35.76,35.76,0,0,0,5.86.47,3.68,3.68,0,0,1,3.16,1.64,6.57,6.57,0,0,1-.82,5.27,65.7,65.7,0,0,1-4.45,10.78,28.31,28.31,0,0,0-2.23,5.27,25.19,25.19,0,0,1-2.58,4.81,35.38,35.38,0,0,0-2.34,4.92q-1.53,3-2.7,6.09-2.46,5.86-4.68,11.84t-4.93,11.72l-2.81,4.92c-.62,1.8-1.29,3.55-2,5.27A6.41,6.41,0,0,1,727,374Z" transform="translate(-51.76 -267.74)"/><path class="cls-1" d="M878.5,364.3a12.15,12.15,0,0,1-4.1-1.4,8.61,8.61,0,0,1-1.29-4.57,45,45,0,0,1-1.05-5.86,11.37,11.37,0,0,0-.35-2.7,6.31,6.31,0,0,1-1.06-2.69c-.23-1.8-.47-3.59-.7-5.39a3.53,3.53,0,0,0-2.23-4.1l-5,.46q-3.27.24-6.56.24h-2.93a14.59,14.59,0,0,0-2.58-.47,2.25,2.25,0,0,0-1.64,2.7,110.64,110.64,0,0,1-2.22,11.13c-.4,1.87-.71,3.75-.94,5.62a5.67,5.67,0,0,1-2.23,4.22,13.56,13.56,0,0,1-7.62,1.29,4.06,4.06,0,0,1-3-.7,5,5,0,0,1-.35-4.81q1.63-6.09,3.16-12.42,2.58-12.77,5.39-25.78t5.74-26.13q1.29-6.69,2.93-13.24c.31-1.88.63-3.79.94-5.75a4.23,4.23,0,0,1,2.46-4c.55-.16,1.17-.31,1.88-.47a3.87,3.87,0,0,1,2.11-.59,9.81,9.81,0,0,0,4.21-.46q5.16,1.17,5.28,6.91,3.39,12.54,6.68,25.08,3.17,13,6.09,25.9,1.53,6.56,3,13,1.17,6.33,2.58,12.66a22,22,0,0,1,1.75,9.73A2.35,2.35,0,0,1,884,363.6,21.27,21.27,0,0,0,878.5,364.3Zm-25.66-33.75a41.87,41.87,0,0,0,4.57.71,49.89,49.89,0,0,1,6.09-.35,3.08,3.08,0,0,0,3.87-.94,16.16,16.16,0,0,0-.82-4.22q-1.53-5.87-2.81-11.84-1.65-6-3-12.07a20.7,20.7,0,0,0-1.17-4.21c-1.1-.4-1.64.23-1.64,1.87-.31,1.72-.63,3.4-.94,5-.62,1.95-1.17,3.91-1.64,5.86q-1.53,5.75-2.46,11.48l-1.17,6.1a2.71,2.71,0,0,0-.35,2.34A1.12,1.12,0,0,0,852.84,330.55Z" transform="translate(-51.76 -267.74)"/><path class="cls-1" d="M900.07,363.25a4.26,4.26,0,0,1-2.93-2.93,26.74,26.74,0,0,1,.47-6.09q.1-2.94,0-6.1a64.79,64.79,0,0,0,.35-6.79q-.36-13.24-.59-26.49-.12-6.68-.12-13.36.12-6.44,0-13c-.15-1.87-.35-3.78-.58-5.74-.08-2.11-.08-4.29,0-6.56a11.86,11.86,0,0,1,0-5.74,4.71,4.71,0,0,1,3.63-1.53l5.86-.7c1-.15,2-.27,3.05-.35l3.4.23a50.92,50.92,0,0,1,6-.35c1.95.47,4,.86,6.1,1.17a23.05,23.05,0,0,1,10.66,4.69,23.78,23.78,0,0,1,3.16,3.63,20.87,20.87,0,0,1,3,5.28,29.88,29.88,0,0,1,1.76,11.95,35.1,35.1,0,0,1-.47,5.74,24.51,24.51,0,0,1-.94,6,19,19,0,0,1-5.62,8.67,18.74,18.74,0,0,1-9.38,3.28c-3.2-.62-4.65.35-4.33,2.93.85,1.25,1.64,2.46,2.34,3.64A8.62,8.62,0,0,0,926,326a14.12,14.12,0,0,0,1.29,2.58,87.61,87.61,0,0,0,5.86,10.2l3,4.92c1,1.8,2.07,3.59,3.16,5.39a35.86,35.86,0,0,1,5,8.32c-.08,2.66-1.48,4-4.22,4a11.16,11.16,0,0,1-4.21-.36,14.64,14.64,0,0,1-2.47.47,2.13,2.13,0,0,1-1.75-1.29,15.55,15.55,0,0,1-2.7-3.28c-1.09-1.64-2.15-3.28-3.16-4.92a132.11,132.11,0,0,1-7.74-13.24q-1.87-3.28-3.86-6.33a23.56,23.56,0,0,1-2.11-2.93,2.61,2.61,0,0,0-1.29-1.41q0,3.06.11,6.1-.11,3.17-.11,6.21a51.59,51.59,0,0,0-.12,6.09q-.24,3.17-.7,6.21c.15,1.88.31,3.75.47,5.63a3.59,3.59,0,0,1-2.7,2.46,19.47,19.47,0,0,1-5.16,1.76A2.15,2.15,0,0,0,900.07,363.25Zm21.21-50a9.53,9.53,0,0,0,6.33-6.21,33.81,33.81,0,0,0,2.22-12.07,23.91,23.91,0,0,0-2-11.6c-.39-.7-.78-1.49-1.17-2.35a4.68,4.68,0,0,0-1.06-1.64,5.47,5.47,0,0,1-1.52-1.75,4.8,4.8,0,0,0-2.46-1.18,25.85,25.85,0,0,1-5.16-1.52,2.79,2.79,0,0,0-2.34-.35,23.6,23.6,0,0,0-2.34-.35,4.93,4.93,0,0,0-1.76,5.27,85.78,85.78,0,0,1,.47,8.91q-.48,6.56-.59,13.12,0,3.28.12,6.56a4.59,4.59,0,0,0,1.29,4.58,12.07,12.07,0,0,0,4.68-.47A7.61,7.61,0,0,0,921.28,313.21Z" transform="translate(-51.76 -267.74)"/><path class="cls-1" d="M980.22,364.19a51.75,51.75,0,0,1-11.6-1.29,17.48,17.48,0,0,1-7.26-7,20.26,20.26,0,0,1-3.17-4.81c-.78-1.87-1.6-3.79-2.46-5.74a33.57,33.57,0,0,1-2.93-11.48,97.35,97.35,0,0,1-.35-12.66q0-6.56.59-13.13.69-6.32,2-12.89a49.15,49.15,0,0,1,3.63-11.83,35.16,35.16,0,0,1,5.86-9.85,22.62,22.62,0,0,1,4-2.93,9,9,0,0,1,4.57-2,16.3,16.3,0,0,0,2.7-.47,13.68,13.68,0,0,1,2.58-.23,6,6,0,0,0,2.11.35c.86-.08,1.75-.12,2.69-.12a12.32,12.32,0,0,1,8.32,4.57q1.75,2.11,3.64,4a35.37,35.37,0,0,1,3,4.8,107,107,0,0,1,5,10c1.48,3.29.9,5.86-1.76,7.74a10.06,10.06,0,0,1-6.91-.82,3,3,0,0,1-1.88.35,1.26,1.26,0,0,0-1.17-.35A2.46,2.46,0,0,1,990,296.8a36,36,0,0,1-1.29-5q-.58-2.36-1.41-4.69c-.86-1.72-1.75-3.48-2.69-5.28a42,42,0,0,0-3.28-4,6.14,6.14,0,0,0-1.76-1.41,2.56,2.56,0,0,0-2.34,1.41,22.63,22.63,0,0,0-3.64,4.1,44.31,44.31,0,0,0-2.34,5.28c-.7,1.87-1.33,3.79-1.88,5.74a31.88,31.88,0,0,0-1.52,6c-.23,2-.47,3.83-.7,5.63a50.22,50.22,0,0,0-.71,6.68,67.47,67.47,0,0,0,.71,25.66,46.44,46.44,0,0,0,4.92,11,14.08,14.08,0,0,0,7.5,7.5A8.5,8.5,0,0,0,982,356a3,3,0,0,0,2.34.24,6.83,6.83,0,0,0,3.4-2.93,16.48,16.48,0,0,0,1.64-4.92,4.15,4.15,0,0,1,2.46-3.75,44.34,44.34,0,0,1,5-.94,17,17,0,0,1,4.93-.7,4.14,4.14,0,0,1,1.4,4,23.11,23.11,0,0,1-1.64,5.86,12,12,0,0,1-2.23,4.34,10.46,10.46,0,0,1-4.68,2.46q-2.58,1.17-5,2.11c-2,.47-4,1-5.86,1.52a9,9,0,0,1-2,.23C981.2,363.72,980.69,364,980.22,364.19Z" transform="translate(-51.76 -267.74)"/><path class="cls-1" d="M1035.07,363.48a12.25,12.25,0,0,0-4.46-.58,20.59,20.59,0,0,1-5.5-2.46,15.73,15.73,0,0,1-8.44-6.92,20.19,20.19,0,0,1-1.53-5.62,17.23,17.23,0,0,0-.46-2.93,11.91,11.91,0,0,1-.59-2.93,17.83,17.83,0,0,1,0-5.74,3.68,3.68,0,0,1,3.52-2.35,10,10,0,0,0,2.69-.35,16.48,16.48,0,0,1,2.58-.7,4.46,4.46,0,0,1,3.87,2.34,39.11,39.11,0,0,1,.93,8.44,11.84,11.84,0,0,0,4.11,9,17.31,17.31,0,0,0,9.14,4.1q9.13-3.63,8.78-14.41a45.23,45.23,0,0,0,0-12.19,13.17,13.17,0,0,0-5.5-9.14q-2.58-1.05-5-2.22a22,22,0,0,0-4.92-1.76,44.35,44.35,0,0,0-5.39-1.29,7.83,7.83,0,0,1-5.16-1.64,22.87,22.87,0,0,1-9.49-19.69,59.05,59.05,0,0,1,1.87-11.6,23.59,23.59,0,0,1,5.86-9,16.35,16.35,0,0,1,9.49-5,52,52,0,0,1,6.1.35,55.73,55.73,0,0,1,6.33.12,29.66,29.66,0,0,1,5,1.87,22.3,22.3,0,0,1,4.93,2.93,30.76,30.76,0,0,0,4.33,3.4,16.9,16.9,0,0,1,3.4,2.81,3,3,0,0,1-.47,3.87,3.83,3.83,0,0,1-4.45.82l-4.45-1.64a8.66,8.66,0,0,1-2.47-.59,7.94,7.94,0,0,1-1.75-1.87q-2.36-1.65-4.57-3.4a7.8,7.8,0,0,0-4.93-1.76,8.47,8.47,0,0,0-3.86,1.88,7.47,7.47,0,0,0-1.29,1.64,22.13,22.13,0,0,1-2.11,1.87,17.49,17.49,0,0,0-2,4.22,13.3,13.3,0,0,0-1.64,6,18.69,18.69,0,0,0,2.11,11.25,14.91,14.91,0,0,0,7.85,6.68c1.56.62,3.24,1.21,5,1.75s3.63,1.37,5.5,2.23a13.54,13.54,0,0,1,4.46,1.76c1.4,1.17,2.85,2.27,4.33,3.28a20.46,20.46,0,0,1,5.51,9.26,40.92,40.92,0,0,1,.35,14.18A26,26,0,0,1,1059,355.4a17.9,17.9,0,0,1-10.31,6.56c-1.25.16-2.54.27-3.87.35-1.09.31-2.22.59-3.4.82a20.45,20.45,0,0,1-3.86.35A2.73,2.73,0,0,0,1035.07,363.48Z" transform="translate(-51.76 -267.74)"/><path class="cls-1" d="M1083.11,363.37a5.68,5.68,0,0,0-5.5-.47,2.08,2.08,0,0,1-2.93-1.29,20.26,20.26,0,0,1,0-5.39q-.24-6.45-.59-12.89a106.22,106.22,0,0,1,.12-13.24q.7-13.12.58-26.37V290.36c.24-4.3.31-8.71.24-13.24q-2.12-5.87,2.93-8.21a24,24,0,0,0,4.68-.46,4.86,4.86,0,0,1,2.58.23,23.34,23.34,0,0,1,2.93.7,4.07,4.07,0,0,1,1.17,3.52c-.15,2.27-.23,4.53-.23,6.8v13.24q-.12,6.68-.23,13.24a30.41,30.41,0,0,0-.24,5.39,3.35,3.35,0,0,0,4,2.34,8.38,8.38,0,0,0,2.34.59,12.34,12.34,0,0,1,2.93-.12,28.74,28.74,0,0,0,6.33.47c1-.08,2-.12,3-.12a3.29,3.29,0,0,0,2.11-.23,8.74,8.74,0,0,0,.47-4.92q0-6.33-.12-12.66a79.52,79.52,0,0,1-.11-13v-6.09a24,24,0,0,1-.24-6.68,1.81,1.81,0,0,1,2.58-1.52,12.55,12.55,0,0,0,4.81,0q5.38-1.41,7.5,3.28,0,2.58-.24,5c-.16,2.26-.23,4.49-.23,6.68a118.68,118.68,0,0,0-.24,12.89q.24,6.67.12,13.12t-.47,12.78a122.4,122.4,0,0,0-.47,13.12q.24,6.57.82,13c.16,2.11.31,4.14.47,6.09a14.16,14.16,0,0,1-.35,5.51,3.4,3.4,0,0,1-4.22,1.52q-3.29,0-6.33-.23a4.06,4.06,0,0,1-3.4-1.29,3.8,3.8,0,0,1-.35-2.11,29.51,29.51,0,0,1,.24-3.75q-.58-12.88-.59-26a7.66,7.66,0,0,0-1.29-7.86,10.62,10.62,0,0,0-3.51-.11c-1.49,0-2.93,0-4.34-.12h-4.8a37.13,37.13,0,0,0-4.22,0q-3.75,2-2.93,6.56-.36,11,.35,21.8a73.7,73.7,0,0,1,0,10.08,3.24,3.24,0,0,1-1.17,2.69A10.78,10.78,0,0,1,1083.11,363.37Z" transform="translate(-51.76 -267.74)"/><path class="cls-1" d="M1154.6,363.6a33,33,0,0,0-11.37-1.76q-5.38,1.29-8.44-2.69c1.1-2.66,3.4-3.79,6.92-3.4,1.32-.23,1.91-1.13,1.75-2.7v-6.79q.36-13.25.36-26.49-.36-13.23-.71-26.36.24-6,.24-12.07a8,8,0,0,0-1.06-4,4.6,4.6,0,0,0-3.4-1.4q-4.68.23-4.57-4a5.55,5.55,0,0,1,5.63-2.58h-.24a3.79,3.79,0,0,1,3.87-.23,54.88,54.88,0,0,0,6.21-.82c1.88.08,3.79.23,5.75.47,2,.08,4,.19,6,.35a10.78,10.78,0,0,1,3.87,1.17,2.86,2.86,0,0,1,.47,4.22,11,11,0,0,1-7.15,1.76q-3.63,3.27-1.64,8.32-.36,6.79-.12,13.36.46,12.88-.23,25.66-.12,9,0,17.93c-.08,2.81-.08,5.59,0,8.32a6.93,6.93,0,0,0,1.75,6,9.72,9.72,0,0,1,7.86,2.93q.11,3.51-3.52,4.1l-4.34.23h-1.87A4.45,4.45,0,0,1,1154.6,363.6Z" transform="translate(-51.76 -267.74)"/><path class="cls-1" d="M1181.55,362.9a9.25,9.25,0,0,1-3.63-.7,4.81,4.81,0,0,1-.71-4.81,33.17,33.17,0,0,0-.11-6.21c0-2.19,0-4.45.11-6.8q-.35-13.12.12-26.48.47-6.33.71-12.77V292q.11-6.56.23-13.12a12.88,12.88,0,0,1,.59-7.5,5.87,5.87,0,0,1,2.93-1.76,13.07,13.07,0,0,1,2-.35,4.6,4.6,0,0,0,2.46-.24v.24c1.79-.16,3.67-.36,5.62-.59a55.8,55.8,0,0,1,6.1.59q2.8.11,5.86,0c.85.15,1.75.35,2.69.58a9.45,9.45,0,0,0,3,.7,10.91,10.91,0,0,1,1.87.94,7.31,7.31,0,0,0,2.35.59,11.21,11.21,0,0,1,4.57,2.81c.62.47,1.25.9,1.87,1.29l1.64,1.64a23.54,23.54,0,0,1,2.11,4.45,38.11,38.11,0,0,1,3.17,11.49,57.76,57.76,0,0,1,.11,12.19,19.51,19.51,0,0,1-2,4.92c-.31.86-.62,1.68-.94,2.46a18.15,18.15,0,0,1-1.87,2.22c-.47.87-.9,1.65-1.29,2.35a2.89,2.89,0,0,1-1.87,1.29,22.39,22.39,0,0,0-2.23,1.52,23.61,23.61,0,0,1-2.7.94,28,28,0,0,1-4.22,1.29,41,41,0,0,0-4.68.7,40.78,40.78,0,0,1-9.14,1.06,4.62,4.62,0,0,0-5,2.69,29.3,29.3,0,0,0-.12,8.67,184.79,184.79,0,0,0,.35,19.69,6.38,6.38,0,0,1-1.4,6,5.24,5.24,0,0,1-3.87.82A30.76,30.76,0,0,0,1181.55,362.9Zm16.06-44.53a9,9,0,0,1,2.57-.59,11.19,11.19,0,0,0,2.11-.94,11.42,11.42,0,0,0,4.81-2.57,16.69,16.69,0,0,0,4.57-9.38,33.32,33.32,0,0,0-2-21.8,15.12,15.12,0,0,0-7.74-6.68,25.34,25.34,0,0,0-5.39-.58,4,4,0,0,0-3.87,1.76,9.8,9.8,0,0,0-.58,4.45v19.57q-.12,6.92-.59,13.59a2.5,2.5,0,0,0,1.17,3.28,9,9,0,0,0,2.58.12A3.08,3.08,0,0,0,1197.61,318.37Z" transform="translate(-51.76 -267.74)"/></svg>